<svg width="40" height="40" viewBox="0 0 40 40" fill="none" xmlns="http://www.w3.org/2000/svg">
<g clip-path="url(#clip0_4524_178)">
<path d="M40 32.6944C40 36.745 36.7684 40 32.7469 40H7.25314C3.2316 40 0 36.745 0 32.6944V7.30561C0 3.25497 3.2316 0 7.25314 0H32.7469C36.7684 0 40 3.25497 40 7.30561V32.6944Z" fill="#31B24A"/>
<path d="M31.8595 5.81836H8.36861C5.38679 5.81836 2.91406 8.29109 2.91406 11.2729V24.2184C2.91406 27.2002 5.31406 29.6729 8.36861 29.6729H16.4413L19.205 34.182C19.205 34.182 19.205 34.2547 19.2777 34.3274C19.4232 34.6184 19.7141 34.7638 20.0777 34.7638C20.4413 34.7638 20.7322 34.5456 20.8777 34.3274C20.9504 34.2547 20.9504 34.182 20.9504 34.182L23.7141 29.6729H31.7868C34.7686 29.6729 37.2413 27.2002 37.2413 24.2184V11.2729C37.3141 8.29109 34.9141 5.81836 31.8595 5.81836Z" fill="white"/>
<path d="M10.5499 15.3462C10.5499 15.3462 9.6044 15.3462 8.73168 16.1462V12.8008H6.69531V21.6008H8.8044V20.9462C8.8044 20.9462 9.31349 21.819 10.5499 21.819C10.5499 21.819 13.5317 21.6735 13.5317 18.5462C13.5317 18.5462 13.3862 15.3462 10.5499 15.3462ZM10.1135 19.9281C9.38622 19.9281 8.73168 19.3462 8.73168 18.5462C8.73168 17.819 9.31349 17.1644 10.1135 17.1644C10.8408 17.1644 11.4953 17.7462 11.4953 18.5462C11.4226 19.3462 10.8408 19.9281 10.1135 19.9281Z" fill="#F27528"/>
<path d="M14.1875 12.582V14.6184C14.1875 14.6184 15.133 14.5457 15.133 16.3638V21.5275H17.1693V15.8548C17.1693 15.9275 17.3148 12.582 14.1875 12.582Z" fill="#F27528"/>
<path d="M22.187 15.3457C22.187 15.3457 18.6961 15.3457 18.6961 18.6184C18.6961 18.6184 18.5507 21.8184 22.187 21.8184C22.187 21.8184 25.7507 21.8184 25.7507 18.6184C25.7507 18.6184 25.8234 15.3457 22.187 15.3457ZM22.187 19.9275C21.4597 19.9275 20.8052 19.3457 20.8052 18.5457C20.8052 17.8184 21.387 17.1639 22.187 17.1639C22.9143 17.1639 23.5688 17.7457 23.5688 18.5457C23.4961 19.3457 22.9143 19.9275 22.187 19.9275Z" fill="#F27528"/>
<path d="M31.4929 15.5629V16.1447C31.4929 16.1447 30.9111 15.3447 29.7474 15.3447C29.7474 15.3447 26.7656 15.1992 26.7656 18.5447C26.7656 18.5447 26.7656 21.672 29.6747 21.672C29.6747 21.672 30.8384 21.7447 31.4929 20.872V21.381C31.4929 21.381 31.6384 22.9083 30.1838 22.9083H29.6747V24.7992H30.4747C30.4747 24.7992 33.5293 24.7992 33.5293 21.5265V15.5629H31.4929ZM30.2565 19.9265C29.5293 19.9265 28.8747 19.3447 28.8747 18.5447C28.8747 17.8174 29.4565 17.1629 30.2565 17.1629C30.9838 17.1629 31.6384 17.7447 31.6384 18.5447C31.6384 19.3447 30.9838 19.9265 30.2565 19.9265Z" fill="#F27528"/>
</g>
<defs>
<clipPath id="clip0_4524_178">
<rect width="40" height="40" fill="white"/>
</clipPath>
</defs>
</svg>
