<svg width="40" height="40" viewBox="0 0 40 40" fill="none" xmlns="http://www.w3.org/2000/svg">
<g clip-path="url(#clip0_4524_177)">
<path d="M40 32.656C40 36.7201 36.7491 40 32.7208 40H7.27915C3.25088 40 0 36.7201 0 32.656V7.34403C0 3.27986 3.25088 0 7.27915 0H32.7208C36.7491 0 40 3.27986 40 7.34403V32.656Z" fill="#D2262B"/>
<path d="M28.788 12.2827C27.9399 12.1413 23.7703 12 20.4488 12C17.1272 12 12.9576 12.1413 12.1095 12.2827C10.6254 12.4947 9.77739 13.2014 9.35336 14.9682C9.21201 15.5336 9 18.7845 9 19.9859V20.2686C9 21.47 9.21201 24.7209 9.35336 25.2862C9.77739 27.053 10.6254 27.689 12.1095 27.9717C12.9576 28.1131 17.1272 28.2544 20.4488 28.2544C23.7703 28.2544 27.9399 28.1131 28.788 27.9717C30.2721 27.7597 31.1201 27.053 31.5442 25.2862C31.6855 24.7209 31.8975 21.47 31.8975 20.2686V19.9859C31.8975 18.7845 31.6855 15.5336 31.5442 14.9682C31.1201 13.2014 30.2721 12.4947 28.788 12.2827Z" fill="white"/>
<path d="M17.6875 17.1582L23.1999 20.0557L17.6875 23.0239V17.1582Z" fill="#D12628"/>
</g>
<defs>
<clipPath id="clip0_4524_177">
<rect width="40" height="40" fill="white"/>
</clipPath>
</defs>
</svg>
