<svg width="40" height="40" viewBox="0 0 40 40" fill="none" xmlns="http://www.w3.org/2000/svg">
<g clip-path="url(#clip0_3153_82)">
<path d="M40 32.6944C40 36.745 36.7684 40 32.7469 40H7.25314C3.2316 40 0 36.745 0 32.6944V7.30561C0 3.25497 3.2316 0 7.25314 0H32.7469C36.7684 0 40 3.25497 40 7.30561V32.6944Z" fill="#2A2A2A"/>
<path fill-rule="evenodd" clip-rule="evenodd" d="M20.0104 2C15.7168 2.00242 11.57 3.56301 8.34004 6.39196C5.06541 9.26346 2.90386 13.1944 2.23306 17.4979C1.54744 21.8195 2.38541 26.245 4.6035 30.0168C6.78973 33.7432 10.2374 36.5641 14.3228 37.9691C15.23 38.1401 15.5521 37.5677 15.5521 37.0799C15.5521 36.6389 15.5341 35.1863 15.5269 33.6455C10.5233 34.7615 9.46856 31.4676 9.46856 31.4676C9.14464 30.3587 8.43635 29.4015 7.4707 28.7676C5.83821 27.621 7.59669 27.6498 7.59669 27.6498C8.16725 27.729 8.71261 27.9432 9.18958 28.2726C9.66834 28.602 10.0661 29.0394 10.3541 29.5506C10.5971 30.006 10.9265 30.4074 11.3224 30.7296C11.9122 31.2173 12.6372 31.5127 13.3999 31.5757C14.1626 31.6388 14.9263 31.4666 15.5881 31.0824C15.6691 30.1464 16.0741 29.2716 16.7311 28.6164C12.7371 28.1502 8.53442 26.568 8.53442 19.4905C8.50659 17.6655 9.16942 15.8974 10.3901 14.5405C9.83933 12.9477 9.90092 11.207 10.5629 9.65714C10.5629 9.65714 12.073 9.16214 15.5107 11.5471C18.456 10.7205 21.572 10.7205 24.5173 11.5471C27.9479 9.16214 29.449 9.65714 29.449 9.65714C30.1149 11.2015 30.1797 12.9475 29.6308 14.5405C30.8501 15.8979 31.5116 17.666 31.4828 19.4905C31.4828 26.5806 27.2729 28.1394 23.2682 28.5948C23.7004 29.0461 24.0327 29.5834 24.2432 30.1718C24.4538 30.7601 24.538 31.3863 24.4903 32.0094C24.4903 34.4789 24.4687 36.4679 24.4687 37.0745C24.4687 37.5641 24.7927 38.1401 25.7052 37.9601C29.7835 36.5493 33.223 33.7269 35.403 30.0024C37.6171 26.2338 38.4525 21.8128 37.7662 17.4961C37.0948 13.1966 34.9354 9.26922 31.6646 6.39916C28.4403 3.57168 24.3005 2.00877 20.0122 2H20.0104Z" fill="white"/>
</g>
<defs>
<clipPath id="clip0_3153_82">
<rect width="40" height="40" fill="white"/>
</clipPath>
</defs>
</svg>
