<svg width="255" height="242" viewBox="0 0 255 242" fill="none" xmlns="http://www.w3.org/2000/svg">
<g clip-path="url(#clip0_3232_108)">
<path fill-rule="evenodd" clip-rule="evenodd" d="M127.5 242C197.916 242 255 187.826 255 121C255 54.1735 197.916 0 127.5 0C57.0837 0 0 54.1735 0 121C0 187.826 57.0837 242 127.5 242ZM145.628 190.722C165.775 185.319 173.792 149.933 163.534 111.685C153.275 73.4377 128.627 46.8124 108.48 52.216C88.3326 57.6196 80.3158 93.0057 90.5739 131.253C100.832 169.501 125.48 196.126 145.628 190.722Z" fill="white"/>
<path fill-rule="evenodd" clip-rule="evenodd" d="M241 239.2C247.186 239.2 252.2 234.186 252.2 228C252.2 221.814 247.186 216.8 241 216.8C234.814 216.8 229.8 221.814 229.8 228C229.8 234.186 234.814 239.2 241 239.2ZM241 242C248.732 242 255 235.732 255 228C255 220.268 248.732 214 241 214C233.268 214 227 220.268 227 228C227 235.732 233.268 242 241 242Z" fill="white"/>
<path d="M233.945 228.101C233.945 226.742 234.239 225.533 234.827 224.475C235.415 223.403 236.232 222.574 237.277 221.986C238.336 221.385 239.531 221.084 240.864 221.084C242.497 221.084 243.896 221.515 245.059 222.378C246.221 223.24 246.999 224.416 247.391 225.906H243.706C243.432 225.331 243.04 224.893 242.53 224.592C242.034 224.292 241.465 224.142 240.825 224.142C239.793 224.142 238.956 224.501 238.316 225.22C237.676 225.938 237.356 226.899 237.356 228.101C237.356 229.303 237.676 230.263 238.316 230.982C238.956 231.701 239.793 232.06 240.825 232.06C241.465 232.06 242.034 231.91 242.53 231.609C243.04 231.309 243.432 230.871 243.706 230.296H247.391C246.999 231.786 246.221 232.962 245.059 233.824C243.896 234.673 242.497 235.098 240.864 235.098C239.531 235.098 238.336 234.804 237.277 234.216C236.232 233.615 235.415 232.785 234.827 231.727C234.239 230.668 233.945 229.46 233.945 228.101Z" fill="white"/>
</g>
<defs>
<clipPath id="clip0_3232_108">
<rect width="255" height="242" fill="white"/>
</clipPath>
</defs>
</svg>
