<svg width="244" height="150" viewBox="0 0 244 150" fill="none" xmlns="http://www.w3.org/2000/svg">
<path fill-rule="evenodd" clip-rule="evenodd" d="M86 25C78.268 25 72 31.268 72 39V111C72 118.732 78.268 125 86 125H158C165.732 125 172 118.732 172 111V39C172 31.268 165.732 25 158 25H86ZM108.361 60.0281C109.222 60 110.056 60 110.889 60C113.167 60 115.055 60.2776 116.611 60.8609C118.005 61.3346 119.277 62.1128 120.333 63.1391C121.228 64.0372 121.92 65.1171 122.361 66.3057C122.778 67.4724 123 68.6667 123 69.9167C123 72.3056 122.444 74.2778 121.333 75.8333C120.222 77.3891 118.667 78.5557 116.861 79.2224C114.972 79.9167 112.889 80.1667 110.611 80.1667C109.944 80.1667 109.5 80.1667 109.222 80.1391C108.944 80.1115 108.555 80.1115 108.028 80.1115V89.0281C108.056 89.2224 107.917 89.3891 107.722 89.4172H102.333C102.111 89.4172 102 89.3057 102 89.0557V60.4724C102 60.2776 102.083 60.1667 102.278 60.1667C102.75 60.1667 103.194 60.1667 103.833 60.1391C104.177 60.1248 104.527 60.118 104.889 60.1108C105.23 60.1041 105.581 60.0972 105.944 60.0839C106.336 60.0692 106.742 60.0622 107.164 60.0549C107.551 60.0482 107.95 60.0413 108.361 60.0281ZM114.361 66.0276C113.462 65.663 112.498 65.4901 111.509 65.4714C111.368 65.4686 111.226 65.4689 111.083 65.4724C110.361 65.4724 109.722 65.4724 109.195 65.5005C108.639 65.4724 108.25 65.5 108.056 65.5281V74.8615C108.084 74.8635 108.113 74.8655 108.141 74.8675C108.498 74.893 108.83 74.9167 109.139 74.9167H110.611C111.694 74.9167 112.778 74.7505 113.806 74.4172C114.694 74.1672 115.472 73.6391 116.083 72.9448C116.667 72.2505 116.945 71.3057 116.945 70.0839C116.97 69.2156 116.749 68.358 116.306 67.6109C115.833 66.8891 115.167 66.3333 114.361 66.0276ZM129.889 67.8615C131.194 67.1948 132.833 66.8896 134.806 66.8896C135.958 66.89 137.109 66.973 138.25 67.1391C139.07 67.2503 139.873 67.465 140.639 67.7781C140.75 67.8057 140.861 67.9172 140.917 68.0281L140.918 68.0341C140.945 68.1431 140.972 68.252 140.972 68.3615V72.8891C140.973 72.9431 140.96 72.9964 140.936 73.0448C140.912 73.0931 140.877 73.135 140.833 73.1672C140.583 73.2224 140.444 73.2224 140.333 73.1672C139.5 72.7224 138.611 72.4167 137.667 72.2224C136.639 72 135.611 71.8609 134.555 71.8609C134 71.8333 133.417 71.9172 132.889 72.0557C132.528 72.1391 132.222 72.3339 132.028 72.6115C131.889 72.8339 131.806 73.1115 131.806 73.3615C131.806 73.6115 131.917 73.8609 132.083 74.0833C132.333 74.3891 132.667 74.6391 133.028 74.8333C133.672 75.1668 134.33 75.4726 135 75.75C136.501 76.2552 137.937 76.936 139.278 77.7781C140.194 78.3615 140.944 79.1391 141.472 80.0839C141.919 80.9699 142.138 81.953 142.111 82.9448C142.134 84.2577 141.756 85.5464 141.028 86.6391C140.25 87.7505 139.167 88.6115 137.917 89.1115C136.556 89.6948 134.889 90 132.889 90C131.611 90 130.361 89.8891 129.111 89.6391C128.132 89.4698 127.179 89.1708 126.278 88.75C126.083 88.6391 125.945 88.4448 125.972 88.2224V83.3891C125.972 83.3057 126 83.1948 126.083 83.1396C126.167 83.0839 126.25 83.1115 126.333 83.1672C127.403 83.7982 128.565 84.2574 129.778 84.5281C130.833 84.8057 131.945 84.9448 133.056 84.9448C134.111 84.9448 134.861 84.8057 135.361 84.5557C135.806 84.3615 136.111 83.8891 136.111 83.3891C136.111 83 135.889 82.6391 135.445 82.2776C135 81.9167 134.083 81.5 132.722 80.9724C131.326 80.4805 130 79.8082 128.778 78.9724C127.908 78.3522 127.186 77.5457 126.667 76.6115C126.223 75.7341 126.004 74.7608 126.028 73.7781C126.028 72.5833 126.361 71.4448 126.972 70.4167C127.667 69.3057 128.695 68.4172 129.889 67.8615Z" fill="white"/>
</svg>
