<svg width="244" height="150" viewBox="0 0 244 150" fill="none" xmlns="http://www.w3.org/2000/svg">
<path fill-rule="evenodd" clip-rule="evenodd" d="M72 39C72 31.268 78.268 25 86 25H158C165.732 25 172 31.268 172 39V111C172 118.732 165.732 125 158 125H86C78.268 125 72 118.732 72 111V39ZM109 60L110.428 76.0198H122.268H128.789L128.173 82.8909L122.268 84.4875V84.487L122.261 84.4893L116.36 82.8932L115.966 78.4813H110.649L111.409 86.9862L122.26 90L122.268 89.9977L133.125 86.9862L134.581 70.7229H122.268H115.273L114.788 65.298H122.268H135.061L135.536 60H122.268H109Z" fill="white"/>
</svg>
