<svg width="244" height="150" viewBox="0 0 244 150" fill="none" xmlns="http://www.w3.org/2000/svg">
<path fill-rule="evenodd" clip-rule="evenodd" d="M86 25C78.268 25 72 31.268 72 39V111C72 118.732 78.268 125 86 125H158C165.732 125 172 118.732 172 111V39C172 31.268 165.732 25 158 25H86ZM122 85C122 87.76 119.76 90 117 90C114.24 90 112 87.76 112 85C112 82.2401 114.24 80.0001 117 80.0001H122V85ZM112 74.9996C112 72.2514 114.221 70.0187 116.965 69.9998C114.221 69.9809 112 67.7482 112 65C112 62.24 114.24 60 117 60H121.999H122H126.999C129.759 60 131.999 62.24 131.999 65C131.999 67.7482 129.778 69.9809 127.034 69.9998C129.778 70.0187 131.999 72.2514 131.999 74.9996C131.999 77.7596 129.759 79.9996 126.999 79.9996C124.272 79.9996 122.053 77.8134 122 75.0994V79.9996H117C114.24 79.9996 112 77.7596 112 74.9996ZM122 74.8999C122.053 72.2025 124.245 70.0264 126.949 69.9999H122V74.8999Z" fill="white"/>
</svg>
