<svg width="244" height="150" viewBox="0 0 244 150" fill="none" xmlns="http://www.w3.org/2000/svg">
<path fill-rule="evenodd" clip-rule="evenodd" d="M86 25C78.268 25 72 31.268 72 39V111C72 118.732 78.268 125 86 125H158C165.732 125 172 118.732 172 111V39C172 31.268 165.732 25 158 25H86ZM129.589 83.6666C128.537 83.0197 127.69 82.0892 127.144 80.9821L122.261 83.8258C123.3 85.7986 124.888 87.4288 126.833 88.5201C128.777 89.6115 130.996 90.1174 133.222 89.9771C138.934 89.9771 143.188 87.01 143.188 81.5948C143.188 76.5727 140.299 74.3394 135.188 72.1473L133.683 71.5026C131.103 70.3803 129.985 69.6488 129.985 67.8452C129.988 67.4817 130.068 67.123 130.218 66.7918C130.368 66.4606 130.585 66.1643 130.856 65.9217C131.126 65.6791 131.445 65.4956 131.79 65.3829C132.136 65.2701 132.501 65.2306 132.863 65.2668C133.692 65.2548 134.505 65.495 135.194 65.9554C135.884 66.4159 136.417 67.0749 136.724 67.8452L141.426 64.8393C140.63 63.2855 139.395 62.0003 137.874 61.1438C136.353 60.2874 134.613 59.8976 132.872 60.023C127.493 60.023 124.064 63.4587 124.064 67.9687C124.064 72.865 126.945 75.1806 131.288 77.0299L132.792 77.6745C135.535 78.8746 137.172 79.6106 137.172 81.6679C137.172 83.3937 135.578 84.6395 133.087 84.6395C131.852 84.6508 130.64 84.3136 129.589 83.6666ZM109.766 84.5961C107.7 84.5961 106.84 83.1789 105.896 81.5033L101 84.4727C101.775 86.1908 103.051 87.6343 104.661 88.6135C106.272 89.5927 108.14 90.0616 110.022 89.9588C115.346 89.9588 119.004 87.1243 119.004 80.8976V60.3659H112.989V80.8176C112.989 83.8235 111.741 84.5961 109.766 84.5961Z" fill="white"/>
</svg>
