<svg width="244" height="150" viewBox="0 0 244 150" fill="none" xmlns="http://www.w3.org/2000/svg">
<path fill-rule="evenodd" clip-rule="evenodd" d="M86 25C78.268 25 72 31.268 72 39V111C72 118.732 78.268 125 86 125H158C165.732 125 172 118.732 172 111V39C172 31.268 165.732 25 158 25H86ZM111.816 83.4026H121.645L123.815 89.6999C123.837 89.7926 123.893 89.874 123.971 89.9288C124.05 89.9836 124.145 90.008 124.24 89.9977H129.771C130.027 89.998 130.112 89.8561 130.027 89.572L120.368 62.3413C120.34 62.1993 120.226 62.1283 120.028 62.1283H113.263C113.222 62.1225 113.181 62.1262 113.142 62.1392C113.103 62.1521 113.068 62.1739 113.039 62.2028C113.01 62.2318 112.988 62.267 112.976 62.3058C112.963 62.3446 112.959 62.3858 112.965 62.4263C112.963 63.0048 112.906 63.5816 112.794 64.1495C112.709 64.4757 112.624 64.7664 112.539 65.0216L104.03 89.5294C103.944 89.8416 104.044 89.9977 104.327 89.9977H109.306C109.422 90.0033 109.537 89.968 109.63 89.8981C109.723 89.8282 109.789 89.7279 109.816 89.6146L111.816 83.4026ZM120.07 78.0416H113.348L113.439 77.7779C113.501 77.6012 113.562 77.422 113.624 77.2403L113.809 76.6886L113.995 76.1227L114.182 75.5424L114.371 74.9483C114.434 74.7478 114.497 74.5449 114.56 74.3398L114.911 73.2041L115.258 72.0822L115.89 70.0516C116.194 69.0538 116.454 68.0428 116.666 67.0215H116.709L116.761 67.2105L117.038 68.214L117.22 68.8613L117.376 69.4089C117.57 70.0835 117.774 70.7557 117.985 71.4252L118.836 74.1183L119.163 75.1522L119.536 76.3184L119.711 76.8724L119.821 77.2242L119.975 77.7252L120.07 78.0416ZM134.5 66.4201C134.904 66.5814 135.336 66.6558 135.77 66.6385L135.861 66.6417C136.297 66.6502 136.729 66.5714 137.134 66.4102C137.538 66.2489 137.907 66.0084 138.217 65.7027C138.524 65.3804 138.764 64.9996 138.921 64.5829C139.078 64.1662 139.15 63.7221 139.132 63.2771C139.149 62.8455 139.08 62.4148 138.931 62.0096C138.781 61.6044 138.553 61.2327 138.259 60.9157C137.678 60.3059 136.876 60.001 135.855 60.001L135.764 60C134.918 60.0016 134.105 60.3297 133.494 60.916C133.177 61.2201 132.928 61.5876 132.763 61.9944C132.598 62.4013 132.521 62.8384 132.536 63.2771C132.518 63.7203 132.588 64.1627 132.741 64.5789C132.895 64.9951 133.129 65.3769 133.43 65.7024C133.732 66.0143 134.097 66.2588 134.5 66.4201ZM132.834 69.234V89.572L132.835 89.6156C132.848 89.8703 132.975 89.9977 133.217 89.9977H138.408C138.635 89.998 138.749 89.8561 138.749 89.572V69.234C138.749 68.9786 138.635 68.8509 138.408 68.8509H133.175C132.948 68.8509 132.834 68.9786 132.834 69.234Z" fill="white"/>
</svg>
