<svg width="244" height="150" viewBox="0 0 244 150" fill="none" xmlns="http://www.w3.org/2000/svg">
<path fill-rule="evenodd" clip-rule="evenodd" d="M86 25C78.268 25 72 31.268 72 39V111C72 118.732 78.268 125 86 125H158C165.732 125 172 118.732 172 111V39C172 31.268 165.732 25 158 25H86ZM107.67 80.3751C105.564 76.1643 105.22 71.0082 107.978 67.0457L110.13 64.3153C107.702 69.0081 108.793 74.7223 111.831 78.8656C111.941 79.0167 112.053 79.1663 112.167 79.3141L112.274 79.4471C112.37 79.5685 112.467 79.6887 112.566 79.8076L112.672 79.9336C112.804 80.0897 112.939 80.2434 113.077 80.3946L113.097 80.4156C113.228 80.5586 113.361 80.6994 113.496 80.8381L113.624 80.9653C113.731 81.0738 113.839 81.1795 113.949 81.2845L114.077 81.4073C114.226 81.5467 114.377 81.684 114.53 81.819L114.577 81.8588C114.719 81.9818 114.863 82.1029 115.008 82.222L115.163 82.3457C115.277 82.4375 115.392 82.5276 115.509 82.6162L115.678 82.7447C115.805 82.8385 115.933 82.9309 116.062 83.0219L116.192 83.1137C116.326 83.2058 116.461 83.2958 116.598 83.3834L116.752 83.4859C116.94 83.6055 117.13 83.7219 117.322 83.8352L117.469 83.9177C117.614 84.002 117.76 84.0838 117.907 84.1631C117.957 84.1909 118.008 84.217 118.059 84.243C118.09 84.2588 118.12 84.2745 118.151 84.2906C118.168 84.2996 118.186 84.3087 118.203 84.3177C118.307 84.3713 118.411 84.4252 118.516 84.4764L118.653 84.5419C118.809 84.6169 118.967 84.6901 119.125 84.7616L119.237 84.8111C119.421 84.8921 119.608 84.9697 119.796 85.0439L119.942 85.1011C120.114 85.1678 120.287 85.2319 120.46 85.2934L120.541 85.3226C120.736 85.3897 120.932 85.4534 121.129 85.5138L121.281 85.5601C121.324 85.5728 121.367 85.5857 121.41 85.5987C121.569 85.6466 121.729 85.6945 121.892 85.7313C127.363 86.976 133.137 85.8581 136.39 81.62C136.39 81.62 132.517 92.0645 119.183 89.6329C119.026 89.604 118.875 89.556 118.723 89.508C118.672 89.4916 118.62 89.4753 118.568 89.4597L118.424 89.4167C118.224 89.3544 118.026 89.2907 117.829 89.2219L117.762 89.1987C117.583 89.1357 117.404 89.0687 117.228 89.0009L117.091 88.9467C116.901 88.8717 116.712 88.7933 116.525 88.7114L116.422 88.6654C116.259 88.5926 116.098 88.5179 115.938 88.4412L115.812 88.3807L115.742 88.3465C115.663 88.3073 115.586 88.2668 115.509 88.2263C115.485 88.2133 115.46 88.2004 115.435 88.1875C115.357 88.1472 115.277 88.1075 115.199 88.0655C115.055 87.9873 114.912 87.9074 114.771 87.8257L114.614 87.737C114.422 87.6237 114.232 87.5065 114.044 87.388L113.887 87.283C113.764 87.2038 113.642 87.1245 113.523 87.0423L113.485 87.0155L113.349 86.9188C113.223 86.8309 113.098 86.7414 112.974 86.65L112.795 86.5143C112.683 86.4288 112.572 86.3418 112.461 86.2533L112.295 86.1211C112.16 86.0099 112.027 85.8972 111.895 85.7828L111.818 85.7173L111.811 85.7118C111.662 85.5807 111.515 85.4468 111.37 85.3101L111.238 85.1851C111.13 85.0811 111.022 84.9759 110.916 84.8696L110.787 84.7394C110.651 84.5998 110.517 84.4582 110.384 84.3146L110.369 84.2976L110.361 84.2894C110.226 84.1405 110.094 83.9895 109.964 83.8364L109.856 83.7064C109.759 83.5904 109.664 83.4738 109.571 83.3567L109.455 83.2092C109.35 83.0744 109.248 82.9378 109.147 82.7995L109.09 82.7225L109.08 82.71C108.964 82.5495 108.852 82.386 108.742 82.2222L108.643 82.0687C108.563 81.9479 108.486 81.8263 108.41 81.7038L108.295 81.5148C108.226 81.4001 108.159 81.2852 108.094 81.17L107.984 80.9735L107.923 80.8643L107.824 80.6746C107.815 80.6566 107.805 80.6387 107.796 80.6208C107.753 80.5394 107.711 80.4578 107.67 80.3751ZM116.206 73.4521C114.651 70.4175 114.542 66.5762 116.536 63.7068L118.166 61.4062C116.839 63.6466 116.674 66.407 117.44 68.8658C118.17 71.237 119.707 73.3284 121.645 74.8583L121.77 74.9571C121.952 75.0971 122.138 75.2328 122.326 75.3641C122.415 75.4239 122.504 75.4828 122.593 75.5408L122.718 75.6238C122.854 75.7105 122.991 75.7946 123.131 75.8758L123.212 75.922C123.325 75.9882 123.438 76.0523 123.553 76.1145L123.708 76.1945C123.727 76.2043 123.746 76.2141 123.765 76.2239C123.836 76.2602 123.906 76.2966 123.978 76.3315C124.155 76.4192 124.334 76.5024 124.515 76.5812L124.633 76.6312C124.778 76.6927 124.925 76.7517 125.072 76.8082L125.256 76.8767C125.391 76.9262 125.527 76.973 125.664 77.0172L125.839 77.074C126.032 77.1348 126.227 77.191 126.422 77.2425C130.85 78.3919 134.999 76.9195 137.142 73.8339C137.142 73.8339 134.765 81.7608 124.469 80.0551C124.323 80.0307 124.182 79.9837 124.041 79.9369C123.99 79.9199 123.939 79.9029 123.888 79.8871L123.707 79.8288C123.572 79.7836 123.438 79.7386 123.305 79.6891L123.117 79.6204C122.971 79.5644 122.825 79.5044 122.68 79.4429L122.562 79.3944C122.381 79.3156 122.204 79.2321 122.028 79.1456L121.989 79.1281C121.924 79.0958 121.86 79.0621 121.796 79.0286C121.775 79.0176 121.754 79.0066 121.733 78.9956L121.603 78.9279C121.48 78.8612 121.359 78.7931 121.238 78.7234L121.179 78.6894C121.039 78.6077 120.901 78.5232 120.765 78.4357L120.644 78.3559C120.619 78.339 120.593 78.3222 120.567 78.3055C120.507 78.2669 120.448 78.2284 120.39 78.1879L120.373 78.1757C120.184 78.0445 119.998 77.9086 119.815 77.7679L119.694 77.6734C119.512 77.5307 119.334 77.3834 119.16 77.2317L119.156 77.2272L119.137 77.2112C118.981 77.0734 118.829 76.9319 118.68 76.7867L118.562 76.6705C118.409 76.5197 118.26 76.3648 118.115 76.206C117.764 75.9021 117.465 75.4689 117.194 75.0767C117.158 75.0251 117.123 74.9742 117.088 74.9243C116.761 74.454 116.467 73.9621 116.206 73.4521ZM123.26 67.0012C122.444 65.0908 122.559 62.9424 123.735 61.2124L124.615 60C122.989 62.9376 124.537 66.5447 127.029 68.4359C127.467 68.7672 127.937 69.0539 128.432 69.2918C128.693 69.4165 128.96 69.5274 129.232 69.6241C129.444 69.6993 129.686 69.7788 129.906 69.8321C132.691 70.508 134.961 70.0413 136.311 68.0966C136.27 68.1562 136.217 68.2507 136.15 68.3711C135.548 69.4456 133.786 72.5927 128.674 71.605C128.578 71.5867 128.484 71.5562 128.391 71.5258C128.363 71.5167 128.335 71.5077 128.308 71.499L128.195 71.4632C128.175 71.4565 128.156 71.4498 128.136 71.4432C128.07 71.4209 128.005 71.3988 127.939 71.3747C125.882 70.62 124.12 69.0293 123.26 67.0012Z" fill="white"/>
</svg>
