<svg width="244" height="150" viewBox="0 0 244 150" fill="none" xmlns="http://www.w3.org/2000/svg">
<path fill-rule="evenodd" clip-rule="evenodd" d="M72 39C72 31.268 78.268 25 86 25H158C165.732 25 172 31.268 172 39V111C172 118.732 165.732 125 158 125H86C78.268 125 72 118.732 72 111V39ZM109.954 70.7226L110.429 76.0203H122.264H122.284H128.788L128.173 82.891L122.264 84.4858V84.4866L122.261 84.4875L116.361 82.8945L115.984 78.6692H110.666L111.408 86.9874L122.26 90L122.284 89.9932V89.9918L133.125 86.9874L133.204 86.0923L134.449 72.1453L134.578 70.7226L135.535 60H122.284H122.264H109L109.482 65.2977H122.264H122.284H129.729L129.247 70.7226H122.284H122.264H109.954Z" fill="white"/>
</svg>
