<svg width="80" height="80" viewBox="0 0 80 80" fill="none" xmlns="http://www.w3.org/2000/svg">
<path d="M40 80C62.0914 80 80 62.0914 80 40C80 17.9086 62.0914 0 40 0C17.9086 0 0 17.9086 0 40C0 62.0914 17.9086 80 40 80Z" fill="#05B362"/>
<path d="M29.5305 34.0105C29.5305 34.0105 31.3961 43.8172 44.4308 51.6355C44.4308 51.6355 47.2906 47.1679 51.8809 48.653L60.5707 51.6355C60.5707 51.6355 65.5416 53.5011 62.6818 58.7052C59.822 63.9215 57.22 64.5352 57.22 64.5352C57.22 64.5352 50.764 68.5119 39.2268 61.8104C28.5118 55.5999 13.0101 36.6002 17.1341 22.3873C17.76 20.2394 19.1102 18.3738 20.8898 17.0237C23.2955 15.1949 27.0267 13.1329 29.8374 15.0844C30.7947 15.7472 31.4084 16.8273 31.6539 17.9687L33.7527 27.444C33.7527 27.4318 35.2378 31.0402 29.5305 34.0105Z" fill="white"/>
</svg>
