<svg width="769" height="243" viewBox="0 0 769 243" fill="none" xmlns="http://www.w3.org/2000/svg">
<mask id="mask0_1429_30666" style="mask-type:alpha" maskUnits="userSpaceOnUse" x="-1" y="0" width="770" height="244">
<rect x="-0.000488281" y="0.000488281" width="769" height="243" rx="30" fill="white"/>
</mask>
<g mask="url(#mask0_1429_30666)">
<g opacity="0.4">
<path d="M770.506 161.382C769.557 160.433 768.418 159.483 767.278 158.724L739.747 136.889C739.557 136.699 739.367 136.509 739.177 136.319C737.469 134.99 735.76 134.041 733.671 133.281L671.013 109.357C662.469 106.129 652.596 108.788 646.71 116.003L604.748 168.217C598.862 175.433 598.483 185.686 603.419 193.47L640.064 249.482C641.014 251.001 642.153 252.33 643.482 253.659C644.242 254.419 645.001 254.989 645.95 255.558L674.051 277.963C679.368 282.14 686.393 283.849 693.228 281.95L757.785 264.482C766.709 262.014 773.164 254.229 773.544 244.925L776.962 178.091C777.341 171.445 774.873 165.559 770.506 161.382Z" fill="#4CEE53"/>
<path d="M656.013 168.407C654.114 167.838 652.215 168.977 651.835 170.876C651.266 172.775 652.405 174.673 654.304 175.053C656.202 175.623 658.101 174.483 658.481 172.585C659.05 170.686 657.911 168.787 656.013 168.407Z" fill="#170C35"/>
<path d="M684.495 161.381C685.824 160.052 688.103 160.242 689.432 161.571C690.761 162.9 690.571 165.179 689.242 166.508C687.913 167.837 685.634 167.647 684.305 166.318C682.976 164.799 683.166 162.711 684.495 161.381Z" fill="#170C35"/>
<path d="M675.763 194.421C671.396 194.421 667.219 190.433 665.89 184.547C664.181 177.902 666.84 171.826 671.586 170.497C676.523 169.358 681.46 173.535 683.168 180.18C684.877 186.826 682.219 192.902 677.472 194.231C676.903 194.421 676.333 194.421 675.763 194.421ZM673.295 173.915C673.105 173.915 672.726 173.915 672.536 173.915C669.688 174.674 668.358 179.041 669.308 183.598C670.447 188.155 673.675 191.383 676.523 190.623C679.371 189.864 680.7 185.497 679.751 180.94C678.801 177.142 675.953 173.915 673.295 173.915Z" fill="#170C35"/>
<path d="M654.681 183.977C655.82 188.534 652.972 193.091 648.415 194.23C643.858 195.369 639.301 192.521 638.162 187.964C637.023 183.407 639.871 178.85 644.428 177.711C648.985 176.762 653.541 179.42 654.681 183.977Z" fill="#FD8FB3"/>
<path d="M693.037 174.674C694.176 179.231 698.733 181.889 703.29 180.94C707.847 179.8 710.505 175.243 709.555 170.687C708.416 166.13 703.859 163.471 699.302 164.421C694.745 165.56 691.897 170.117 693.037 174.674Z" fill="#FD8FB3"/>
</g>
<g opacity="0.4">
<path d="M46.442 47.5002C32.8707 65.6683 8.5736 71.3595 -11.3456 62.3849C-17.0368 59.7582 -23.6036 61.5093 -27.3248 66.5439L-56.4375 105.507C-61.0342 111.855 -59.2831 120.829 -52.4974 124.769C0.255689 155.195 68.7691 142.062 106.2 91.9354C143.63 42.0279 136.845 -27.361 92.6284 -69.3884C86.9372 -74.8607 77.7437 -73.9852 73.1469 -67.6373L44.0342 -28.6744C40.313 -23.6399 40.5319 -16.8542 44.6909 -12.2575C58.7 4.59727 60.2323 29.3321 46.442 47.5002Z" fill="#19AF1F"/>
<path d="M96.1306 52.7537C97.8817 53.8481 100.29 53.4103 101.384 51.6592C102.478 49.9081 102.041 47.5002 100.29 46.4058C98.5384 45.3113 96.1306 45.7491 95.0361 47.5002C93.9417 49.2514 94.3795 51.6592 96.1306 52.7537Z" fill="#170C35"/>
<path d="M69.8637 87.5578C71.3959 88.8711 71.6148 91.2789 70.3014 92.8112C68.9881 94.3434 66.5803 94.5623 65.048 93.249C63.5158 91.9356 63.2969 89.5278 64.6102 87.9955C65.9236 86.4633 68.3314 86.2444 69.8637 87.5578Z" fill="#170C35"/>
<path d="M64.1723 68.9518C64.1723 65.8874 65.0478 62.3851 67.6745 58.8828C73.3658 51.2215 81.027 51.4404 84.5293 52.7538C85.6237 53.1916 86.0615 54.286 85.6237 55.3805C85.186 56.475 84.0915 56.9127 83.2159 56.475C82.997 56.475 76.2114 54.286 70.9579 61.2906C65.4856 68.5141 69.6446 74.4242 69.6446 74.4242C70.3013 75.2997 70.0824 76.6131 69.2068 77.2698C68.3312 77.9264 67.0179 77.7075 66.3612 76.832C65.4856 75.0808 64.1723 72.2352 64.1723 68.9518Z" fill="#170C35"/>
<path d="M89.345 40.2766C84.5294 36.7743 83.6538 29.9886 87.1561 25.173C90.6584 20.3574 97.444 19.4818 102.26 22.9841C107.075 26.4864 107.951 33.272 104.449 38.0877C100.727 42.9033 94.1606 43.7789 89.345 40.2766Z" fill="#FD8FB3"/>
<path d="M56.0734 84.712C51.2578 81.2097 44.691 82.0853 40.9698 86.9009C37.4675 91.7166 38.3431 98.2833 43.1587 102.005C47.9744 105.507 54.5411 104.631 58.2623 99.8156C61.7646 94.9999 60.889 88.2143 56.0734 84.712Z" fill="#FD8FB3"/>
</g>
</g>
</svg>
