<svg width="80" height="80" viewBox="0 0 80 80" fill="none" xmlns="http://www.w3.org/2000/svg">
<path fill-rule="evenodd" clip-rule="evenodd" d="M45.4052 33.9493C45.4052 21.9444 33.0131 22.9771 28.8824 35.1111C21.1373 58.4755 45.4052 58.3464 45.4052 33.9493ZM80 59.1209C72.6422 74.2239 57.9265 79.3873 42.049 79.1291C-18.2337 78.3546 -9.71405 0 42.3072 0C67.2206 0 77.6765 16.652 77.1601 32.6585C76.3856 58.4755 49.665 68.1569 42.1781 57.8301C25.7843 68.6732 11.4559 51.3758 16.7484 33.1748C21.7827 16.1356 39.8546 10.9722 48.116 20.6536L48.8905 17.4265C53.0212 17.4265 57.152 17.4265 61.2827 17.4265L54.4412 50.6013C54.0539 54.6029 68.2533 46.0833 68.2533 31.3676C68.2533 16.9101 56.2484 9.4232 43.2108 9.03595C1.90359 7.7451 -5.58333 69.835 42.4363 69.835C52.7631 69.835 62.8317 67.6405 69.5441 59.1209C73.0294 59.1209 76.5147 59.1209 80 59.1209Z" fill="#1D598F"/>
</svg>
