<svg width="183" height="183" viewBox="0 0 183 183" fill="none" xmlns="http://www.w3.org/2000/svg">
<mask id="mask0_1433_31117" style="mask-type:alpha" maskUnits="userSpaceOnUse" x="0" y="0" width="183" height="183">
<rect width="183" height="183" fill="#D9D9D9"/>
</mask>
<g mask="url(#mask0_1433_31117)">
<mask id="mask1_1433_31117" style="mask-type:luminance" maskUnits="userSpaceOnUse" x="117" y="36" width="19" height="105">
<path d="M135.496 140.315C135.328 138.992 134.057 137.964 131.568 137.262L117.364 36.4265C120.981 37.386 122.887 38.9282 123.095 40.8634C127.253 74.0283 131.412 107.193 135.496 140.315Z" fill="white"/>
</mask>
<g mask="url(#mask1_1433_31117)">
<path d="M135.496 140.315L123.095 40.8634C122.829 38.9438 120.981 37.386 117.364 36.4265L131.568 137.262C134.057 137.964 135.328 138.992 135.496 140.315Z" fill="#002E6C"/>
</g>
<path d="M131.583 137.32C139.606 139.401 135.019 145.731 121.311 151.457C107.603 157.183 89.971 160.104 81.948 158.023C73.925 155.942 78.5122 149.612 92.22 143.886C105.928 138.16 123.56 135.24 131.583 137.32Z" fill="#003678"/>
<mask id="mask2_1433_31117" style="mask-type:luminance" maskUnits="userSpaceOnUse" x="39" y="35" width="93" height="121">
<path d="M39.5371 63.1282C37.7591 58.8143 45.2568 52.2016 60.0364 46.064C80.0119 37.7253 105.741 33.4443 117.438 36.469L131.641 137.305C123.618 135.224 105.986 138.144 92.2781 143.87C82.1452 148.079 77.0179 152.625 78.2485 155.593C65.2673 124.792 52.4022 93.9601 39.5371 63.1282Z" fill="white"/>
</mask>
<g mask="url(#mask2_1433_31117)">
<path d="M131.583 137.32L117.38 36.4845C115.975 36.1146 114.41 35.8494 112.688 35.6888L128.381 136.747C129.593 136.858 130.646 137.074 131.583 137.32Z" fill="#002E6C"/>
<path d="M128.382 136.747L112.688 35.6889C111.724 35.5739 110.717 35.5325 109.653 35.5067L126.237 136.638C127.054 136.668 127.754 136.729 128.382 136.747Z" fill="#002F6D"/>
<path d="M126.311 136.68L109.727 35.5492C108.91 35.5192 108.035 35.5047 107.176 35.5484L124.576 136.709C125.172 136.612 125.742 136.646 126.311 136.68Z" fill="#00306F"/>
<path d="M124.561 136.651L107.16 35.4903C106.417 35.5028 105.615 35.5309 104.814 35.5589L122.958 136.707C123.496 136.625 124.007 136.675 124.561 136.651Z" fill="#003170"/>
<path d="M122.943 136.649L104.799 35.5009C104.056 35.5134 103.328 35.5839 102.527 35.612L121.398 136.69C121.909 136.74 122.405 136.731 122.943 136.649Z" fill="#003271"/>
<path d="M121.356 136.763L102.484 35.6856C101.757 35.7561 101.029 35.8267 100.286 35.8392L119.827 136.862C120.38 136.838 120.876 136.83 121.356 136.763Z" fill="#003373"/>
<path d="M119.901 136.904L100.359 35.8817C99.6318 35.9522 98.9622 36.0072 98.2346 36.0778L118.445 137.046C118.925 136.979 119.405 136.913 119.901 136.904Z" fill="#003474"/>
<path d="M118.387 137.061L98.1761 36.0933C97.4485 36.1639 96.7944 36.2769 96.0668 36.3474L116.932 137.202C117.47 137.12 117.965 137.112 118.387 137.061Z" fill="#003475"/>
<path d="M116.932 137.202L96.067 36.3474C95.3393 36.418 94.6853 36.531 93.9732 36.6596L115.492 137.401C115.972 137.335 116.452 137.269 116.932 137.202Z" fill="#003576"/>
<path d="M115.492 137.401L93.9578 36.6016C93.2457 36.7302 92.5761 36.7852 91.864 36.9138L114.053 137.601C114.548 137.592 115.028 137.526 115.492 137.401Z" fill="#003678"/>
<path d="M114.068 137.659L91.8795 36.9718C91.2254 37.0848 90.5133 37.2134 89.8593 37.3265L112.702 137.9C113.166 137.776 113.588 137.725 114.068 137.659Z" fill="#003779"/>
<path d="M112.702 137.9L89.8592 37.3265C89.2051 37.4395 88.5511 37.5525 87.839 37.6811L111.336 138.142C111.757 138.091 112.222 137.967 112.702 137.9Z" fill="#00387A"/>
<path d="M111.336 138.142L87.8389 37.6811C87.1848 37.7942 86.5463 37.9653 85.8923 38.0783L109.969 138.383C110.449 138.317 110.871 138.266 111.336 138.142Z" fill="#00387B"/>
<path d="M109.985 138.441L85.908 38.1363C85.312 38.2338 84.7316 38.3894 84.1511 38.5449L108.766 138.768C109.215 138.586 109.563 138.492 109.985 138.441Z" fill="#00397D"/>
<path d="M108.808 138.694L84.1934 38.4713C83.6129 38.6268 83.0169 38.7243 82.4945 38.8643L107.69 138.932C107.98 138.854 108.387 138.745 108.808 138.694Z" fill="#003A7E"/>
<path d="M107.632 138.948L82.4367 38.8799C81.9143 39.0199 81.45 39.1443 80.912 39.2262L106.572 139.169C106.936 139.134 107.284 139.041 107.632 138.948Z" fill="#003B7F"/>
<path d="M106.587 139.227L80.9275 39.2842C80.4051 39.4242 79.9407 39.5486 79.4183 39.6886L105.543 139.507C105.875 139.356 106.224 139.263 106.587 139.227Z" fill="#003B80"/>
<path d="M105.527 139.449L79.4027 39.6306C78.9384 39.755 78.474 39.8794 78.0096 40.0038L104.614 139.756C104.888 139.62 105.179 139.543 105.527 139.449Z" fill="#003C81"/>
<path d="M104.54 139.714L77.936 39.9614C77.4717 40.0858 77.0073 40.2102 76.543 40.3346L103.538 139.92C103.902 139.885 104.25 139.792 104.54 139.714Z" fill="#003D83"/>
<path d="M103.612 139.963L76.6167 40.3771C76.1524 40.5015 75.688 40.626 75.2236 40.7504L102.683 140.211C102.973 140.134 103.263 140.056 103.612 139.963Z" fill="#003D84"/>
<path d="M102.625 140.227L75.1655 40.766C74.7011 40.8904 74.1787 41.0304 73.7299 41.2128L101.596 140.565C102.002 140.456 102.292 140.378 102.625 140.227Z" fill="#003E85"/>
<path d="M101.654 140.549L73.788 41.1973C73.2656 41.3373 72.8168 41.5197 72.2944 41.6597L100.682 140.872C100.957 140.736 101.305 140.643 101.654 140.549Z" fill="#003F86"/>
<path d="M100.609 140.829L72.2788 41.6016C71.6403 41.7727 71.0173 42.0019 70.3788 42.1729L99.3317 141.172C99.7536 141.121 100.218 140.996 100.609 140.829Z" fill="#003F87"/>
<path d="M99.2895 141.245L70.3366 42.2466C69.3073 42.5846 68.2781 42.9226 67.2488 43.2606L97.1729 141.937C97.9275 141.735 98.6085 141.49 99.2895 141.245Z" fill="#004088"/>
<path d="M97.1881 141.995L67.3065 43.245C66.0606 43.7032 64.7567 44.1771 63.5108 44.6353L94.6383 142.927C95.4779 142.578 96.333 142.286 97.1881 141.995Z" fill="#004189"/>
<path d="M94.6385 142.927L63.511 44.6353C62.3812 45.0625 61.2514 45.4896 60.1372 45.9748L92.3364 143.855C93.0599 143.537 93.8414 143.203 94.6385 142.927Z" fill="#004088"/>
<path d="M92.3363 143.855L60.1371 45.9748C60.079 45.9904 60.021 46.0059 59.9629 46.0215C59.1814 46.3553 58.4579 46.6736 57.7344 46.9919L90.6572 144.554C91.164 144.356 91.6553 144.099 92.2202 143.886C92.2783 143.87 92.2783 143.87 92.3363 143.855Z" fill="#003F87"/>
<path d="M90.6574 144.554L57.7347 46.9919C56.8951 47.3413 56.1292 47.7332 55.3476 48.067L88.9783 145.252C89.5432 145.039 90.0925 144.767 90.6574 144.554Z" fill="#003F86"/>
<path d="M89.0513 145.295L55.4206 48.1095C54.5966 48.5169 53.7726 48.9243 52.9486 49.3318L87.3452 146.125C87.8945 145.854 88.4439 145.582 89.0513 145.295Z" fill="#003E85"/>
<path d="M87.3455 146.125L52.9489 49.3318C52.0668 49.7548 51.2584 50.2202 50.4499 50.6857L85.6705 147.072C86.2043 146.742 86.7381 146.412 87.3455 146.125Z" fill="#003D84"/>
<path d="M85.6551 147.014L50.4345 50.6277C49.626 51.0931 48.8756 51.5431 48.1832 51.9774L84.0962 147.929C84.5875 147.673 85.0633 147.359 85.6551 147.014Z" fill="#003D83"/>
<path d="M84.0959 147.929L48.1248 51.993C47.4905 52.4118 46.8562 52.8306 46.2643 53.1758L82.7692 148.782C83.2025 148.542 83.6202 148.243 84.0959 147.929Z" fill="#003C81"/>
<path d="M82.8273 148.767L46.28 53.2339C45.7617 53.6216 45.228 53.9513 44.7678 54.3234L81.7328 149.558C82.0925 149.275 82.4677 149.05 82.8273 148.767Z" fill="#003B80"/>
<path d="M81.7912 149.542L44.8262 54.3078C44.4085 54.6064 44.0063 54.963 43.6042 55.3196L80.9869 150.255C81.2305 150.003 81.4741 149.752 81.7912 149.542Z" fill="#003B7F"/>
<path d="M80.9128 150.213L43.5881 55.2616C43.2285 55.5446 42.8844 55.8857 42.5828 56.1531L80.2671 150.821C80.4682 150.643 80.7118 150.391 80.9128 150.213Z" fill="#003A7E"/>
<path d="M80.2093 150.837L42.5405 56.2267C42.2389 56.4941 41.9528 56.8196 41.7092 57.0715L79.6797 151.414C79.8227 151.252 80.0238 151.073 80.2093 150.837Z" fill="#00397D"/>
<path d="M79.6214 151.43L41.7091 57.0715C41.4655 57.3234 41.2375 57.6334 40.9939 57.8853L79.1498 151.992C79.2929 151.829 79.4784 151.593 79.6214 151.43Z" fill="#00387B"/>
<path d="M79.1503 151.992L40.9943 57.8853C40.7508 58.1372 40.5808 58.4316 40.3953 58.6679L78.7367 152.538C78.8798 152.375 79.0072 152.154 79.1503 151.992Z" fill="#00387A"/>
<path d="M78.7943 152.522L40.3948 58.6679C40.2093 58.9043 40.0974 59.1831 39.9119 59.4195L78.4389 153.053C78.5819 152.89 78.6513 152.685 78.7943 152.522Z" fill="#003779"/>
<path d="M78.4391 153.053L39.9702 59.4039C39.8427 59.6247 39.7308 59.9035 39.6033 60.1243L78.1997 153.553C78.2847 153.406 78.3541 153.2 78.4391 153.053Z" fill="#003678"/>
<path d="M78.1995 153.553L39.6031 60.1243C39.4756 60.3451 39.4217 60.6084 39.3679 60.8717L78.0181 154.037C78.1031 153.89 78.1726 153.684 78.1995 153.553Z" fill="#003576"/>
<path d="M78.0762 154.021L39.3679 60.8717C39.314 61.135 39.2446 61.3403 39.2487 61.588L77.9684 154.548C77.9798 154.358 78.0068 154.227 78.0762 154.021Z" fill="#003475"/>
<path d="M77.9686 154.548L39.3069 61.5724C39.3111 61.8202 39.3153 62.0679 39.3039 62.2576L78.035 155.028C77.9883 154.854 77.9997 154.664 77.9686 154.548Z" fill="#003474"/>
<path d="M78.0193 154.97L39.3038 62.2576C39.308 62.5053 39.3702 62.7375 39.4904 62.9541L78.1593 155.492C78.0546 155.334 78.0079 155.16 78.0193 154.97Z" fill="#003373"/>
<path d="M78.1015 155.508L39.4326 62.9697C39.4482 63.0277 39.4637 63.0858 39.4793 63.1438L78.1326 155.624C78.1171 155.566 78.1015 155.508 78.1015 155.508Z" fill="#003271"/>
</g>
<mask id="mask3_1433_31117" style="mask-type:luminance" maskUnits="userSpaceOnUse" x="39" y="40" width="97" height="119">
<path d="M78.1904 155.608C65.2673 124.792 52.4022 93.9601 39.5371 63.1283C40.1892 64.6333 41.9597 65.9008 45.0342 66.6945C56.7318 69.7192 82.4605 65.4381 102.436 57.0995C116.202 51.358 123.692 45.1826 123.169 40.9059C123.557 42.357 123.606 44.3969 123.821 45.8947C124.036 47.3925 124.259 49.3858 124.473 50.8836C126.096 64.1356 127.792 77.4301 129.414 90.6822C131.485 107.236 133.572 123.847 135.644 140.4C135.999 143.354 130.91 147.579 121.458 151.542C107.751 157.268 90.1183 160.189 82.0953 158.108C79.8107 157.476 78.5865 156.622 78.1904 155.608Z" fill="white"/>
</mask>
<g mask="url(#mask3_1433_31117)">
<path d="M78.1904 155.608L39.5371 63.1283C40.1892 64.6333 41.9597 65.9008 45.0342 66.6945C47.7718 67.3919 51.2173 67.7129 55.1965 67.7043L88.9283 158.766C86.2032 158.812 83.8378 158.574 81.9637 158.081C79.8107 157.476 78.5865 156.622 78.1904 155.608Z" fill="#002E6C"/>
<path d="M88.9129 158.708L55.1812 67.6462C56.4198 67.6254 57.6585 67.6046 58.9977 67.4946L91.5488 158.561C90.647 158.679 89.7141 158.68 88.9129 158.708Z" fill="#002F6D"/>
<path d="M91.5062 158.635L58.9976 67.4946C60.031 67.4043 61.08 67.3721 62.1714 67.2663L93.6891 158.423C92.9615 158.494 92.2338 158.564 91.5062 158.635Z" fill="#00306F"/>
<path d="M93.6891 158.423L62.1714 67.2663C63.1468 67.1916 64.1066 67.0588 65.14 66.9685L95.7559 158.243C95.0283 158.313 94.3587 158.368 93.6891 158.423Z" fill="#003170"/>
<path d="M95.756 158.243L65.1401 66.9685C66.1 66.8358 67.0017 66.7186 68.0196 66.5703L97.7337 157.962C97.0216 158.09 96.4101 158.13 95.756 158.243Z" fill="#003271"/>
<path d="M97.6756 157.977L68.0195 66.5703C68.9213 66.453 69.8656 66.2622 70.8254 66.1295L99.6377 157.638C98.9837 157.751 98.3296 157.864 97.6756 157.977Z" fill="#003373"/>
<path d="M99.6379 157.638L70.7676 66.145C71.6538 65.9698 72.6136 65.837 73.5579 65.6462L101.542 157.315C100.888 157.428 100.234 157.541 99.6379 157.638Z" fill="#003474"/>
<path d="M101.542 157.315L73.5581 65.6462C74.5024 65.4554 75.4467 65.2646 76.3909 65.0738L103.431 156.933C102.792 157.104 102.196 157.201 101.542 157.315Z" fill="#003475"/>
<path d="M103.43 156.933L76.3906 65.0738C77.3349 64.883 78.3372 64.6766 79.2659 64.4278L105.42 156.462C104.781 156.633 104.143 156.804 103.43 156.933Z" fill="#003576"/>
<path d="M105.435 156.52L79.2661 64.4278C80.2684 64.2214 81.2552 63.957 82.242 63.6926L107.467 155.976C106.828 156.147 106.132 156.334 105.435 156.52Z" fill="#003678"/>
<path d="M107.482 156.034L82.2417 63.6926C83.2865 63.4126 84.3313 63.1327 85.4342 62.8372L109.672 155.385C108.933 155.645 108.237 155.832 107.482 156.034Z" fill="#003779"/>
<path d="M109.688 155.443L85.4496 62.8952C86.6105 62.5842 87.7714 62.2731 88.9167 61.904L112.052 154.747C111.239 154.965 110.5 155.225 109.688 155.443Z" fill="#00387A"/>
<path d="M112.052 154.747L88.917 61.904C90.2946 61.4727 91.6721 61.0414 92.9916 60.6256L114.865 153.869C113.952 154.176 113.039 154.483 112.052 154.747Z" fill="#00387B"/>
<path d="M114.866 153.869L93.0498 60.6101C95.4991 59.7671 97.9484 58.9242 100.309 57.9808L119.865 152.094C118.228 152.719 116.576 153.286 114.866 153.869Z" fill="#00397D"/>
<path d="M119.848 152.036L100.292 57.9227C101.031 57.6625 101.697 57.3598 102.42 57.0415C103.709 56.5096 104.923 55.9353 106.154 55.419L123.915 150.262C123.091 150.669 122.251 151.019 121.353 151.384C120.804 151.655 120.355 151.838 119.848 152.036Z" fill="#003A7E"/>
<path d="M123.873 150.336L106.112 55.4926C108.325 54.4641 110.348 53.4243 112.182 52.3731L128.036 148.225C126.794 148.931 125.362 149.625 123.873 150.336Z" fill="#00397D"/>
<path d="M128.035 148.225L112.181 52.3731C113.206 51.7874 114.173 51.2172 115.067 50.6045L130.012 147.011C129.377 147.43 128.727 147.791 128.035 148.225Z" fill="#00387B"/>
<path d="M130.012 147.011L115.067 50.6045C115.817 50.1546 116.494 49.6622 117.113 49.1853L131.424 146.011C130.963 146.383 130.488 146.697 130.012 147.011Z" fill="#00387A"/>
<path d="M131.439 146.069L117.113 49.1853C117.689 48.782 118.192 48.3363 118.71 47.9486L132.518 145.22C132.158 145.503 131.798 145.786 131.439 146.069Z" fill="#003779"/>
<path d="M132.518 145.22L118.725 48.0066C119.186 47.6344 119.588 47.2778 119.974 46.8632L133.365 144.433C133.121 144.685 132.819 144.952 132.518 145.22Z" fill="#003678"/>
<path d="M133.365 144.433L119.974 46.8632C120.377 46.5066 120.663 46.1811 120.991 45.782L134.037 143.693C133.852 143.929 133.608 144.181 133.365 144.433Z" fill="#003576"/>
<path d="M134.037 143.693L120.991 45.782C121.277 45.4565 121.563 45.131 121.776 44.763L134.594 142.984C134.466 143.204 134.281 143.441 134.037 143.693Z" fill="#003475"/>
<path d="M134.594 142.984L121.776 44.763C122.004 44.453 122.216 44.085 122.386 43.7907L135.034 142.306C134.923 142.584 134.795 142.805 134.594 142.984Z" fill="#003474"/>
<path d="M135.05 142.364L122.402 43.8487C122.572 43.5543 122.726 43.2019 122.822 42.865L135.3 141.674C135.289 141.864 135.177 142.143 135.05 142.364Z" fill="#003373"/>
<path d="M135.359 141.659L122.881 42.8494C122.977 42.5125 123.074 42.1757 123.128 41.9124L135.567 141.043C135.498 141.248 135.428 141.454 135.359 141.659Z" fill="#003271"/>
<path d="M135.493 141.001L123.054 41.8699C123.092 41.5486 123.13 41.2272 123.052 40.937L135.454 140.389C135.559 140.548 135.563 140.795 135.493 141.001Z" fill="#003170"/>
<path d="M135.512 140.373L123.111 40.9215C123.111 40.9215 123.111 40.9215 123.095 40.8634L135.512 140.373Z" fill="#00306F"/>
</g>
<path d="M118.77 35.8635C130.936 39.0115 123.999 48.6467 103.242 57.3192C82.4849 65.9916 55.8119 70.4635 43.6302 67.2575C31.464 64.1095 38.4008 54.4743 59.1578 45.8018C79.9304 37.1874 106.603 32.7155 118.77 35.8635Z" fill="#B4B4B4"/>
<mask id="mask4_1433_31117" style="mask-type:luminance" maskUnits="userSpaceOnUse" x="116" y="27" width="9" height="14">
<path d="M124.67 40.006C124.187 38.2066 122.254 36.7961 118.769 35.8635L116.499 27.3889C119.983 28.3215 121.917 29.7321 122.399 31.5315C123.068 34.0274 123.985 37.4521 124.67 40.006Z" fill="white"/>
</mask>
<g mask="url(#mask4_1433_31117)">
<path d="M124.67 40.006L122.383 31.4734C121.901 29.674 119.968 28.2635 116.483 27.3309L118.754 35.8054C122.312 36.7805 124.187 38.2066 124.67 40.006Z" fill="#858585"/>
</g>
<mask id="mask5_1433_31117" style="mask-type:luminance" maskUnits="userSpaceOnUse" x="35" y="26" width="84" height="38">
<path d="M35.459 54.6404C34.2615 50.1709 42.065 43.5384 56.887 37.3272C77.6441 28.6548 104.317 24.1829 116.499 27.3889L118.769 35.8635C106.603 32.7155 79.9304 37.1874 59.1733 45.8599C44.3358 52.013 36.5478 58.7035 37.7298 63.1149C36.9833 60.3288 36.2211 57.4846 35.459 54.6404Z" fill="white"/>
</mask>
<g mask="url(#mask5_1433_31117)">
<path d="M118.769 35.8635L116.498 27.3889C114.419 26.8263 111.848 26.5197 109.019 26.4069L111.305 34.9395C114.193 35.0367 116.705 35.3589 118.769 35.8635Z" fill="#858585"/>
<path d="M111.348 34.8659L109.061 26.3333C107.939 26.3231 106.801 26.2547 105.562 26.2756L107.833 34.7501C109.044 34.861 110.225 34.8557 111.348 34.8659Z" fill="#8A8A8A"/>
<path d="M107.864 34.8662L105.593 26.3917C104.66 26.3928 103.669 26.4095 102.636 26.4997L104.922 35.0323C105.882 34.8996 106.873 34.8829 107.864 34.8662Z" fill="#8F8F8F"/>
<path d="M104.907 34.9743L102.62 26.4417C101.761 26.4853 100.844 26.5445 99.9263 26.6036L102.213 35.1363C103.13 35.0771 103.989 35.0335 104.907 34.9743Z" fill="#949494"/>
<path d="M102.213 35.1362L99.9266 26.6036C99.0674 26.6472 98.2236 26.7489 97.3799 26.8505L99.6662 35.3831C100.51 35.2815 101.369 35.2379 102.213 35.1362Z" fill="#999999"/>
<path d="M99.6076 35.3987L97.3213 26.8661C96.4775 26.9677 95.6338 27.0694 94.79 27.1711L97.0763 35.7037C97.9781 35.5865 98.7638 35.5004 99.6076 35.3987Z" fill="#9E9E9E"/>
<path d="M97.0764 35.7037L94.7901 27.171C93.9464 27.2727 93.1607 27.3588 92.3325 27.5185L94.6188 36.0511C95.447 35.8914 96.2907 35.7898 97.0764 35.7037Z" fill="#A3A3A3"/>
<path d="M94.619 36.0511L92.3327 27.5185C91.4889 27.6201 90.7188 27.7643 89.8906 27.924L92.1769 36.4566C93.0051 36.2969 93.7753 36.1528 94.619 36.0511Z" fill="#A8A8A8"/>
<path d="M92.1615 36.3986L89.8752 27.866C89.047 28.0257 88.2613 28.1118 87.4331 28.2715L89.7194 36.8041C90.5051 36.718 91.3333 36.5583 92.1615 36.3986Z" fill="#ADADAD"/>
<path d="M89.6771 36.8776L87.3908 28.345C86.5626 28.5047 85.7344 28.6644 84.9062 28.8241L87.1926 37.3567C88.0788 37.1815 88.8489 37.0373 89.6771 36.8776Z" fill="#B3B3B3"/>
<path d="M87.2504 37.3412L84.9641 28.8086C84.1359 28.9683 83.3077 29.128 82.4951 29.3457L84.7814 37.8783C85.5941 37.6606 86.4222 37.5009 87.2504 37.3412Z" fill="#B8B8B8"/>
<path d="M84.7236 37.8939L82.4373 29.3613C81.6091 29.521 80.7964 29.7387 79.9683 29.8984L82.2546 38.4311C83.0672 38.2133 83.8954 38.0536 84.7236 37.8939Z" fill="#BDBDBD"/>
<path d="M82.2545 38.431L79.9682 29.8984C79.1555 30.1161 78.3429 30.3339 77.5303 30.5516L79.801 39.0262C80.6137 38.8085 81.4418 38.6488 82.2545 38.431Z" fill="#C2C2C2"/>
<path d="M79.8009 39.0262L77.5301 30.5516C76.7175 30.7694 75.8468 31.0027 75.0342 31.2204L77.3205 39.753C78.1176 39.4773 78.9882 39.244 79.8009 39.0262Z" fill="#C7C7C7"/>
<path d="M77.3046 39.695L75.0183 31.1624C74.1477 31.3957 73.277 31.629 72.4644 31.8467L74.7507 40.3794C75.6213 40.1461 76.434 39.9283 77.3046 39.695Z" fill="#CCCCCC"/>
<path d="M74.7508 40.3793L72.4644 31.8467C71.5357 32.0956 70.6226 32.4025 69.7519 32.6358L72.0382 41.1684C72.9089 40.9351 73.8376 40.6862 74.7508 40.3793Z" fill="#D1D1D1"/>
<path d="M71.9961 41.242L69.7098 32.7094C68.5645 33.0785 67.4772 33.432 66.3318 33.8011L68.6181 42.3338C69.7479 41.9066 70.8933 41.5375 71.9961 41.242Z" fill="#D6D6D6"/>
<path d="M68.6604 42.2602L66.3741 33.7275C63.1277 34.8463 59.9705 36.0655 56.8869 37.3272C54.5848 38.2551 52.488 39.2525 50.5653 40.2031L52.836 48.6777C54.7587 47.727 56.8711 46.7878 59.1577 45.8018C62.2413 44.5401 65.414 43.3789 68.6604 42.2602Z" fill="#DBDBDB"/>
<path d="M52.8362 48.6777L50.5654 40.2031C49.134 40.8977 47.8342 41.6193 46.5925 42.3253L48.8633 50.7998C50.105 50.0938 51.4203 49.4303 52.8362 48.6777Z" fill="#D6D6D6"/>
<path d="M48.8629 50.7999L46.5922 42.3253C45.6832 42.8799 44.7586 43.3765 43.9077 43.9156L46.194 52.4482C47.0449 51.9091 47.8959 51.37 48.8629 50.7999Z" fill="#D1D1D1"/>
<path d="M46.1942 52.4482L43.9079 43.9156C43.2155 44.3499 42.5812 44.7688 41.9624 45.2456L44.2488 53.7782C44.8675 53.3014 45.5019 52.8826 46.1942 52.4482Z" fill="#CCCCCC"/>
<path d="M44.2489 53.7782L41.9625 45.2456C41.4443 45.6333 40.9261 46.021 40.4078 46.4088L42.6941 54.9414C43.2124 54.5537 43.7306 54.166 44.2489 53.7782Z" fill="#C7C7C7"/>
<path d="M42.694 54.9414L40.4077 46.4087C39.9475 46.7809 39.5453 47.1375 39.1432 47.4941L41.4295 56.0267C41.8316 55.6701 42.2918 55.298 42.694 54.9414Z" fill="#C2C2C2"/>
<path d="M41.472 55.9531L39.1857 47.4205C38.8416 47.7616 38.4975 48.1026 38.1379 48.3856L40.4242 56.9182C40.7258 56.6508 41.0699 56.3097 41.472 55.9531Z" fill="#BDBDBD"/>
<path d="M40.4395 56.9763L38.1532 48.4437C37.8672 48.7692 37.5811 49.0947 37.2795 49.3621L39.5658 57.8947C39.8674 57.6273 40.1535 57.3018 40.4395 56.9763Z" fill="#B8B8B8"/>
<path d="M39.5662 57.8947L37.2799 49.3621C37.0518 49.6721 36.8238 49.982 36.5958 50.292L38.8821 58.8246C39.1101 58.5146 39.3381 58.2047 39.5662 57.8947Z" fill="#B3B3B3"/>
<path d="M38.8818 58.8246L36.5955 50.292C36.3675 50.6019 36.1975 50.8963 36.0856 51.1751L38.3719 59.7078C38.5418 59.4134 38.7118 59.119 38.8818 58.8246Z" fill="#ADADAD"/>
<path d="M38.3721 59.7078L36.0858 51.1752C35.9159 51.4695 35.8039 51.7484 35.692 52.0272L37.9783 60.5598C38.0902 60.281 38.2022 60.0022 38.3721 59.7078Z" fill="#A8A8A8"/>
<path d="M37.9782 60.5598L35.6919 52.0272C35.58 52.3061 35.4681 52.5849 35.4142 52.8482L37.6849 61.3228C37.7544 61.1175 37.8663 60.8387 37.9782 60.5598Z" fill="#A3A3A3"/>
<path d="M37.7006 61.3808L35.4299 52.9062C35.376 53.1695 35.3377 53.4909 35.3418 53.7386L37.6281 62.2712C37.5929 61.9074 37.6468 61.6441 37.7006 61.3808Z" fill="#9E9E9E"/>
<path d="M37.6128 62.2132L35.3265 53.6805C35.3463 53.9863 35.3504 54.234 35.4282 54.5243L37.7145 63.0569C37.6367 62.7667 37.617 62.4609 37.6128 62.2132Z" fill="#999999"/>
</g>
<path d="M117.381 36.4845C129.078 39.5092 122.412 48.7609 102.379 57.1151C82.403 65.4537 56.6743 69.7347 44.9767 66.7101C33.279 63.6854 39.9453 54.4337 59.9788 46.0795C80.0124 37.7254 105.667 33.4018 117.381 36.4845Z" fill="#003678"/>
<path d="M113.198 28.7709C124.296 31.6454 117.942 40.4399 99.023 48.3089C80.1192 56.2359 55.7567 60.2754 44.6592 57.4009C33.5462 54.4685 39.915 45.732 58.8343 37.863C77.7961 29.9204 102.159 25.881 113.198 28.7709Z" fill="#9F9F9F"/>
<path d="M113.198 28.7709C124.296 31.6454 117.942 40.4399 99.023 48.3089C80.1192 56.2359 55.7567 60.2754 44.6592 57.4009C33.5462 54.4685 39.915 45.732 58.8343 37.863C77.7961 29.9204 102.159 25.881 113.198 28.7709Z" fill="#B4B4B4"/>
<mask id="mask6_1433_31117" style="mask-type:luminance" maskUnits="userSpaceOnUse" x="35" y="31" width="90" height="38">
<path d="M37.7297 63.115C36.9676 60.2707 36.2055 57.4265 35.4434 54.5823C35.9255 56.3817 37.8588 57.7923 41.3437 58.7249C53.5099 61.8729 80.1984 57.459 100.955 48.7866C115.777 42.5754 123.581 35.9429 122.383 31.4735L124.67 40.0061C125.867 44.4755 118.064 51.108 103.242 57.3192C82.4847 65.9917 55.8117 70.4635 43.63 67.2575C40.1606 66.383 38.2118 64.9143 37.7297 63.115Z" fill="white"/>
</mask>
<g mask="url(#mask6_1433_31117)">
<path d="M37.7297 63.115L35.4434 54.5823C35.9255 56.3817 37.8588 57.7923 41.3437 58.7249C43.4231 59.2876 45.9937 59.5941 48.8235 59.7069L51.1098 68.2395C48.28 68.1268 45.7094 67.8202 43.63 67.2575C40.1606 66.383 38.2118 64.9143 37.7297 63.115Z" fill="#858585"/>
<path d="M51.1096 68.2395L48.8232 59.7069C49.9458 59.7171 51.0839 59.7855 52.3226 59.7646L54.6089 68.2972C53.3703 68.3181 52.1741 68.2653 51.1096 68.2395Z" fill="#8A8A8A"/>
<path d="M54.551 68.3128L52.2646 59.7802C53.1975 59.7791 54.1885 59.7624 55.2219 59.6721L57.5082 68.2047C56.5173 68.2214 55.5263 68.2381 54.551 68.3128Z" fill="#8F8F8F"/>
<path d="M57.5085 68.2047L55.2222 59.6721C56.0815 59.6285 56.9988 59.5693 57.9161 59.5102L60.2024 68.0428C59.2851 68.102 58.4258 68.1456 57.5085 68.2047Z" fill="#949494"/>
<path d="M60.1867 67.9848L57.9004 59.4521C58.7597 59.4085 59.6034 59.3069 60.4472 59.2052L62.7179 67.6798C61.8897 67.8395 61.046 67.9412 60.1867 67.9848Z" fill="#999999"/>
<path d="M62.7918 67.7223L60.521 59.2477C61.3647 59.1461 62.2085 59.0444 63.0522 58.9428L65.3385 67.4754C64.4948 67.577 63.651 67.6787 62.7918 67.7223Z" fill="#9E9E9E"/>
<path d="M65.3386 67.4754L63.0522 58.9428C63.896 58.8411 64.6817 58.755 65.5099 58.5953L67.7962 67.1279C66.9524 67.2296 66.1087 67.3312 65.3386 67.4754Z" fill="#A3A3A3"/>
<path d="M67.7961 67.1279L65.5098 58.5953C66.3535 58.4937 67.1236 58.3495 67.9518 58.1898L70.2226 66.6644C69.4099 66.8821 68.6243 66.9682 67.7961 67.1279Z" fill="#A8A8A8"/>
<path d="M70.238 66.7224L67.9673 58.2479C68.7955 58.0882 69.5812 58.0021 70.4093 57.8424L72.6801 66.3169C71.91 66.4611 71.0662 66.5627 70.238 66.7224Z" fill="#ADADAD"/>
<path d="M72.738 66.3014L70.4673 57.8268C71.2955 57.6671 72.1236 57.5074 72.9518 57.3477L75.2381 65.8803C74.3944 65.982 73.5662 66.1417 72.738 66.3014Z" fill="#B3B3B3"/>
<path d="M75.2228 65.8223L72.9365 57.2897C73.7647 57.13 74.5929 56.9703 75.4055 56.7525L77.6763 65.2271C76.8636 65.4448 76.0355 65.6045 75.2228 65.8223Z" fill="#B8B8B8"/>
<path d="M77.6917 65.2852L75.4209 56.8106C76.2491 56.6509 77.0617 56.4331 77.8899 56.2734L80.1762 64.8061C79.3325 64.9077 78.5198 65.1255 77.6917 65.2852Z" fill="#BDBDBD"/>
<path d="M80.1452 64.69L77.8589 56.1573C78.6715 55.9396 79.4997 55.7799 80.3123 55.5622L82.5831 64.0367C81.786 64.3125 80.9734 64.5303 80.1452 64.69Z" fill="#C2C2C2"/>
<path d="M82.5989 64.0948L80.3281 55.6202C81.1408 55.4025 82.0114 55.1692 82.8241 54.9514L85.1104 63.484C84.2977 63.7018 83.4271 63.9351 82.5989 64.0948Z" fill="#C7C7C7"/>
<path d="M85.11 63.484L82.8237 54.9514C83.6944 54.7181 84.5651 54.4848 85.3777 54.2671L87.664 62.7997C86.8358 62.9594 85.9807 63.2507 85.11 63.484Z" fill="#CCCCCC"/>
<path d="M87.6485 62.7417L85.3622 54.209C86.291 53.9602 87.2041 53.6533 88.0748 53.42L90.3611 61.9526C89.4904 62.1859 88.5773 62.4928 87.6485 62.7417Z" fill="#D1D1D1"/>
<path d="M90.4194 61.9371L88.1331 53.4045C89.2784 53.0353 90.3657 52.6818 91.5111 52.3127L93.7974 60.8453C92.652 61.2144 91.5067 61.5835 90.4194 61.9371Z" fill="#D6D6D6"/>
<path d="M93.7389 60.8609L91.4526 52.3282C94.7145 51.2676 97.8717 50.0483 100.955 48.7866C103.257 47.8587 105.354 46.8614 107.277 45.9107L109.548 54.3853C107.625 55.3359 105.513 56.2752 103.226 57.2612C100.158 58.5809 97.0008 59.8002 93.7389 60.8609Z" fill="#DBDBDB"/>
<path d="M109.563 54.4433L107.293 45.9687C108.724 45.2741 110.024 44.5525 111.266 43.8466L113.536 52.3211C112.295 53.0271 110.995 53.7487 109.563 54.4433Z" fill="#D6D6D6"/>
<path d="M113.536 52.3211L111.266 43.8466C112.175 43.2919 113.099 42.7954 113.95 42.2563L116.236 50.7889C115.37 51.2699 114.503 51.751 113.536 52.3211Z" fill="#D1D1D1"/>
<path d="M116.221 50.7309L113.935 42.1983C114.627 41.7639 115.261 41.3451 115.88 40.8682L118.166 49.4008C117.532 49.8196 116.898 50.2385 116.221 50.7309Z" fill="#CCCCCC"/>
<path d="M118.166 49.4008L115.88 40.8682C116.398 40.4805 116.916 40.0927 117.435 39.705L119.705 48.1796C119.203 48.6254 118.685 49.0131 118.166 49.4008Z" fill="#C7C7C7"/>
<path d="M119.721 48.2377L117.45 39.7631C117.911 39.3909 118.313 39.0343 118.715 38.6777L121.001 47.2103C120.583 47.5089 120.123 47.8811 119.721 48.2377Z" fill="#C2C2C2"/>
<path d="M120.927 47.1678L118.641 38.6352C118.985 38.2942 119.329 37.9531 119.689 37.6701L121.975 46.2027C121.673 46.4702 121.329 46.8112 120.927 47.1678Z" fill="#BDBDBD"/>
<path d="M121.975 46.2028L119.689 37.6701C119.975 37.3446 120.261 37.0191 120.563 36.7517L122.849 45.2843C122.548 45.5518 122.32 45.8617 121.975 46.2028Z" fill="#B8B8B8"/>
<path d="M122.833 45.2262L120.547 36.6936C120.775 36.3837 121.003 36.0737 121.231 35.7638L123.517 44.2964C123.289 44.6063 123.061 44.9163 122.833 45.2262Z" fill="#B3B3B3"/>
<path d="M123.533 44.3545L121.247 35.8218C121.475 35.5119 121.645 35.2175 121.757 34.9387L124.043 43.4713C123.931 43.7501 123.703 44.0601 123.533 44.3545Z" fill="#ADADAD"/>
<path d="M124.043 43.4713L121.756 34.9387C121.926 34.6443 122.038 34.3654 122.15 34.0866L124.437 42.6192C124.325 42.8981 124.213 43.1769 124.043 43.4713Z" fill="#A8A8A8"/>
<path d="M124.437 42.6192L122.151 34.0866C122.262 33.8077 122.374 33.5289 122.428 33.2656L124.699 41.7402C124.661 42.0615 124.549 42.3404 124.437 42.6192Z" fill="#A3A3A3"/>
<path d="M124.715 41.7982L122.444 33.3237C122.498 33.0604 122.536 32.7391 122.532 32.4913L124.803 40.9659C124.807 41.2136 124.753 41.4769 124.715 41.7982Z" fill="#9E9E9E"/>
<path d="M124.802 40.9659L122.532 32.4913C122.512 32.1855 122.508 31.9378 122.43 31.6476L124.701 40.1221C124.779 40.4124 124.783 40.6601 124.802 40.9659Z" fill="#999999"/>
</g>
<path d="M116.557 27.3734C128.723 30.5214 121.786 40.1566 101.029 48.8291C80.272 57.5015 53.599 61.9734 41.4173 58.7674C29.1775 55.5769 36.1298 45.9997 56.8869 37.3272C77.6439 28.6548 104.375 24.1674 116.557 27.3734ZM113.198 28.7709C102.101 25.8965 77.7384 29.9359 58.8346 37.863C39.9153 45.7319 33.5465 54.4685 44.6595 57.4009C55.757 60.2753 80.1195 56.2359 99.0233 48.3089C117.985 40.3663 124.296 31.6453 113.198 28.7709Z" fill="#F7F8F8"/>
<mask id="mask7_1433_31117" style="mask-type:luminance" maskUnits="userSpaceOnUse" x="111" y="23" width="8" height="10">
<path d="M118.553 32.4999C118.117 30.8747 116.389 29.5336 113.183 28.7129L111.659 23.0245C114.807 23.8607 116.577 25.1282 117.028 26.8115C117.542 28.727 118.055 30.6425 118.553 32.4999Z" fill="white"/>
</mask>
<g mask="url(#mask7_1433_31117)">
<path d="M118.553 32.4999L117.028 26.8115C116.593 25.1863 114.865 23.8451 111.659 23.0245L113.183 28.7129C116.405 29.5916 118.117 30.8747 118.553 32.4999Z" fill="#838383"/>
</g>
<mask id="mask8_1433_31117" style="mask-type:luminance" maskUnits="userSpaceOnUse" x="37" y="22" width="77" height="32">
<path d="M37.8238 47.9099C36.7351 43.8467 43.8193 37.7803 57.353 32.101C76.2723 24.232 100.619 20.1345 111.717 23.0089L113.241 28.6973C102.143 25.8229 77.7809 29.8623 58.8772 37.7894C45.3435 43.4687 38.2593 49.5352 39.348 53.5983C38.7923 51.7564 38.279 49.8409 37.8238 47.9099Z" fill="white"/>
</mask>
<g mask="url(#mask8_1433_31117)">
<path d="M113.198 28.7709L111.674 23.0825C109.742 22.6048 107.477 22.2785 104.837 22.1772L106.361 27.8656C109.001 27.9669 111.324 28.2777 113.198 28.7709Z" fill="#838383"/>
<path d="M106.419 27.85L104.895 22.1616C103.888 22.1203 102.824 22.0944 101.717 22.1422L103.241 27.8306C104.348 27.7828 105.413 27.8087 106.419 27.85Z" fill="#868686"/>
<path d="M103.241 27.8306L101.717 22.1422C100.842 22.1278 99.9247 22.1869 99.0073 22.2461L100.532 27.9345C101.449 27.8753 102.366 27.8162 103.241 27.8306Z" fill="#898989"/>
<path d="M100.531 27.9345L99.0073 22.2461C98.206 22.2742 97.3623 22.3758 96.561 22.4039L98.0852 28.0923C98.929 27.9906 99.7302 27.9626 100.531 27.9345Z" fill="#8C8C8C"/>
<path d="M98.0853 28.0922L96.5611 22.4038C95.7754 22.4899 94.9897 22.576 94.1885 22.6041L95.7127 28.2925C96.4984 28.2064 97.2996 28.1784 98.0853 28.0922Z" fill="#8F8F8F"/>
<path d="M95.7129 28.2925L94.1887 22.6041C93.461 22.6747 92.6753 22.7608 91.8896 22.8469L93.4139 28.5353C94.2151 28.5072 94.9852 28.3631 95.7129 28.2925Z" fill="#929292"/>
<path d="M93.4293 28.5933L91.9051 22.9049C91.1774 22.9754 90.4073 23.1196 89.6216 23.2057L91.1458 28.8941C91.9315 28.808 92.7016 28.6639 93.4293 28.5933Z" fill="#959595"/>
<path d="M91.1456 28.8941L89.6214 23.2057C88.9093 23.3343 88.1237 23.4204 87.3535 23.5645L88.8777 29.253C89.6479 29.1088 90.4335 29.0227 91.1456 28.8941Z" fill="#989898"/>
<path d="M88.9358 29.2374L87.4116 23.549C86.6995 23.6776 85.9293 23.8217 85.1592 23.9659L86.6834 29.6543C87.4535 29.5101 88.1656 29.3815 88.9358 29.2374Z" fill="#9B9B9B"/>
<path d="M86.6833 29.6542L85.1591 23.9658C84.389 24.11 83.6769 24.2386 82.9067 24.3827L84.4309 30.0711C85.2011 29.927 85.9132 29.7984 86.6833 29.6542Z" fill="#9E9E9E"/>
<path d="M84.4309 30.0711L82.9067 24.3827C82.1366 24.5269 81.382 24.7291 80.6699 24.8577L82.1941 30.5461C82.9062 30.4175 83.6608 30.2153 84.4309 30.0711Z" fill="#A1A1A1"/>
<path d="M82.1365 30.5616L80.6123 24.8732C79.8422 25.0174 79.0876 25.2196 78.333 25.4218L79.8572 31.1102C80.6698 30.8924 81.44 30.7483 82.1365 30.5616Z" fill="#A4A4A4"/>
<path d="M79.9149 31.0946L78.3907 25.4062C77.6361 25.6084 76.866 25.7525 76.1694 25.9392L77.6936 31.6276C78.3902 31.441 79.1448 31.2388 79.9149 31.0946Z" fill="#A7A7A7"/>
<path d="M77.6356 31.6432L76.1114 25.9547C75.3568 26.1569 74.6022 26.3591 73.8477 26.5613L75.3719 32.2497C76.1264 32.0475 76.881 31.8453 77.6356 31.6432Z" fill="#AAAAAA"/>
<path d="M75.3719 32.2497L73.8477 26.5613C73.0931 26.7635 72.2805 26.9812 71.5259 27.1834L73.0501 32.8718C73.8047 32.6696 74.6173 32.4519 75.3719 32.2497Z" fill="#ADADAD"/>
<path d="M73.0499 32.8718L71.5257 27.1834C70.7131 27.4012 69.858 27.6925 69.0453 27.9102L70.5695 33.5987C71.3822 33.3809 72.2373 33.0896 73.0499 32.8718Z" fill="#B0B0B0"/>
<path d="M70.5698 33.5987L69.0456 27.9103C68.0163 28.2483 66.987 28.5863 65.9578 28.9243L67.482 34.6127C68.5113 34.2747 69.5405 33.9367 70.5698 33.5987Z" fill="#B4B4B4"/>
<path d="M67.4819 34.6127L65.9577 28.9243C63.044 29.8916 60.1035 30.9906 57.3681 32.159C55.2982 33.0247 53.36 33.9173 51.5958 34.7633L53.12 40.4517C54.8842 39.6057 56.8224 38.7131 58.8923 37.8474C61.6277 36.679 64.5102 35.5956 67.4819 34.6127Z" fill="#B7B7B7"/>
<path d="M53.1198 40.4517L51.5956 34.7633C50.2802 35.4268 49.081 36.0592 47.9398 36.676L49.464 42.3644C50.6052 41.7476 51.8044 41.1152 53.1198 40.4517Z" fill="#B4B4B4"/>
<path d="M49.4644 42.3644L47.9402 36.676C47.0736 37.1571 46.2807 37.6806 45.5303 38.1305L47.0545 43.8189C47.8049 43.369 48.5978 42.8455 49.4644 42.3644Z" fill="#B0B0B0"/>
<path d="M46.9963 43.8345L45.4721 38.1461C44.8377 38.5649 44.2615 38.9681 43.6852 39.3714L45.2094 45.0598C45.7857 44.6566 46.42 44.2377 46.9963 43.8345Z" fill="#ADADAD"/>
<path d="M45.2677 45.0443L43.7435 39.3559C43.2252 39.7436 42.7495 40.0577 42.3474 40.4143L43.8716 46.1027C44.2737 45.7461 44.7495 45.432 45.2677 45.0443Z" fill="#AAAAAA"/>
<path d="M43.8134 46.1182L42.2892 40.4298C41.8715 40.7284 41.5274 41.0694 41.1833 41.4105L42.7075 47.0989C43.0516 46.7579 43.4693 46.4593 43.8134 46.1182Z" fill="#A7A7A7"/>
<path d="M42.7076 47.0989L41.1834 41.4105C40.8238 41.6935 40.5377 42.019 40.2361 42.2864L41.7603 47.9749C42.0619 47.7074 42.348 47.3819 42.7076 47.0989Z" fill="#A4A4A4"/>
<path d="M41.7601 47.9748L40.2358 42.2864C39.9342 42.5539 39.7062 42.8638 39.4627 43.1157L40.9869 48.8041C41.2304 48.5522 41.474 48.3003 41.7601 47.9748Z" fill="#A1A1A1"/>
<path d="M41.0029 48.8622L39.4786 43.1738C39.2351 43.4257 39.0651 43.7201 38.8215 43.972L40.3458 49.6604C40.5313 49.4241 40.7593 49.1141 41.0029 48.8622Z" fill="#9E9E9E"/>
<path d="M40.3453 49.6604L38.8211 43.972C38.6511 44.2664 38.4656 44.5027 38.3537 44.7816L39.8779 50.47C39.9898 50.1911 40.1754 49.9548 40.3453 49.6604Z" fill="#9B9B9B"/>
<path d="M39.8782 50.47L38.3539 44.7816C38.242 45.0604 38.1145 45.2812 38.0026 45.56L39.5268 51.2484C39.5807 50.9852 39.7507 50.6908 39.8782 50.47Z" fill="#989898"/>
<path d="M39.5267 51.2485L38.0025 45.56C37.8906 45.8389 37.8212 46.0441 37.7673 46.3074L39.2915 51.9958C39.3454 51.7325 39.3992 51.4692 39.5267 51.2485Z" fill="#959595"/>
<path d="M39.2915 51.9958L37.7673 46.3074C37.7134 46.5707 37.7176 46.8184 37.6637 47.0817L39.1879 52.7701C39.1837 52.5224 39.2376 52.2591 39.2915 51.9958Z" fill="#929292"/>
<path d="M39.1877 52.7701L37.6635 47.0817C37.6676 47.3295 37.6718 47.5772 37.734 47.8094L39.2582 53.4978C39.254 53.25 39.1918 53.0179 39.1877 52.7701Z" fill="#8F8F8F"/>
</g>
<mask id="mask9_1433_31117" style="mask-type:luminance" maskUnits="userSpaceOnUse" x="37" y="26" width="82" height="33">
<path d="M39.2898 53.6139C38.7766 51.6984 38.2789 49.8409 37.7656 47.9254C38.2011 49.5507 39.9291 50.8918 43.1352 51.7125C54.2327 54.5869 78.5952 50.5475 97.499 42.6205C111.048 36.9992 118.117 30.8747 117.028 26.8115C117.541 28.727 118.039 30.5845 118.552 32.4999C119.641 36.5631 112.557 42.6295 99.0232 48.3089C80.1194 56.2359 55.7569 60.2753 44.6594 57.4009C41.5114 56.5647 39.7253 55.2391 39.2898 53.6139Z" fill="white"/>
</mask>
<g mask="url(#mask9_1433_31117)">
<path d="M39.2898 53.6139L37.7656 47.9254C38.2011 49.5507 39.9291 50.8918 43.1352 51.7125C45.0674 52.1902 47.3323 52.5165 49.9723 52.6179L51.4966 58.3063C48.9145 58.1894 46.6072 57.9366 44.6594 57.4009C41.5114 56.5647 39.7253 55.2391 39.2898 53.6139Z" fill="#838383"/>
<path d="M51.4807 58.2482L49.9565 52.5598C50.963 52.6012 52.0276 52.627 53.1346 52.5792L54.6588 58.2676C53.5518 58.3154 52.4872 58.2896 51.4807 58.2482Z" fill="#868686"/>
<path d="M54.659 58.2677L53.1348 52.5793C54.0096 52.5937 54.9269 52.5345 55.8443 52.4754L57.3685 58.1638C56.3931 58.2385 55.5338 58.2821 54.659 58.2677Z" fill="#898989"/>
<path d="M57.326 58.2374L55.8018 52.549C56.603 52.5209 57.4467 52.4192 58.248 52.3912L59.7722 58.0796C58.9709 58.1077 58.1697 58.1357 57.326 58.2374Z" fill="#8C8C8C"/>
<path d="M59.8147 58.006L58.2905 52.3176C59.0762 52.2315 59.8619 52.1454 60.6632 52.1173L62.1874 57.8058C61.3436 57.9074 60.5579 57.9935 59.8147 58.006Z" fill="#8F8F8F"/>
<path d="M62.1292 57.8213L60.605 52.1329C61.3326 52.0623 62.1183 51.9762 62.904 51.8901L64.4282 57.5785C63.7006 57.6491 62.9149 57.7352 62.1292 57.8213Z" fill="#929292"/>
<path d="M64.4285 57.5785L62.9043 51.8901C63.6319 51.8196 64.4021 51.6754 65.1878 51.5893L66.712 57.2778C65.9263 57.3639 65.1986 57.4344 64.4285 57.5785Z" fill="#959595"/>
<path d="M66.6961 57.2197L65.1719 51.5313C65.884 51.4027 66.6697 51.3166 67.4398 51.1724L68.964 56.8609C68.1939 57.005 67.4818 57.1336 66.6961 57.2197Z" fill="#989898"/>
<path d="M68.9641 56.8609L67.4399 51.1725C68.152 51.0439 68.9222 50.8997 69.6923 50.7556L71.2165 56.444C70.4619 56.6462 69.6762 56.7323 68.9641 56.8609Z" fill="#9B9B9B"/>
<path d="M71.2322 56.502L69.708 50.8136C70.4781 50.6695 71.1902 50.5409 71.9604 50.3967L73.4846 56.0852C72.6989 56.1713 71.9443 56.3734 71.2322 56.502Z" fill="#9E9E9E"/>
<path d="M73.469 56.0271L71.9448 50.3387C72.715 50.1946 73.4695 49.9924 74.1816 49.8638L75.7058 55.5522C74.9513 55.7544 74.1811 55.8985 73.469 56.0271Z" fill="#A1A1A1"/>
<path d="M75.7058 55.5522L74.1816 49.8638C74.9518 49.7196 75.7064 49.5174 76.4609 49.3152L77.9852 55.0037C77.2306 55.2058 76.476 55.408 75.7058 55.5522Z" fill="#A4A4A4"/>
<path d="M78.0008 55.0617L76.4766 49.3733C77.2311 49.1711 78.0013 49.027 78.6978 48.8403L80.222 54.5287C79.4519 54.6729 78.6973 54.8751 78.0008 55.0617Z" fill="#A7A7A7"/>
<path d="M80.222 54.5287L78.6978 48.8403C79.4523 48.6381 80.2069 48.4359 80.9615 48.2337L82.4857 53.9221C81.7311 54.1243 80.9765 54.3265 80.222 54.5287Z" fill="#AAAAAA"/>
<path d="M82.4856 53.9222L80.9614 48.2338C81.716 48.0316 82.5286 47.8138 83.2832 47.6116L84.8074 53.3001C84.0528 53.5022 83.2983 53.7044 82.4856 53.9222Z" fill="#ADADAD"/>
<path d="M84.8498 53.2264L83.3256 47.538C84.1382 47.3203 84.9934 47.0289 85.806 46.8112L87.3302 52.4996C86.4751 52.7909 85.6624 53.0087 84.8498 53.2264Z" fill="#B0B0B0"/>
<path d="M87.3301 52.4996L85.8059 46.8112C86.8352 46.4732 87.8644 46.1352 88.8937 45.7972L90.4179 51.4856C89.4042 51.8816 88.3594 52.1616 87.3301 52.4996Z" fill="#B4B4B4"/>
<path d="M90.3759 51.5592L88.8517 45.8708C91.8234 44.8879 94.7059 43.8044 97.4993 42.6205C99.5692 41.7548 101.507 40.8622 103.272 40.0162L104.796 45.7046C103.032 46.5506 101.093 47.4432 99.0235 48.3089C96.2301 49.4929 93.332 50.5182 90.3759 51.5592Z" fill="#B7B7B7"/>
<path d="M104.796 45.7046L103.271 40.0162C104.587 39.3527 105.786 38.7203 106.927 38.1034L108.451 43.7919C107.31 44.4087 106.111 45.0411 104.796 45.7046Z" fill="#B4B4B4"/>
<path d="M108.436 43.7338L106.912 38.0454C107.778 37.5644 108.571 37.0409 109.321 36.5909L110.846 42.2794C110.111 42.7873 109.302 43.2528 108.436 43.7338Z" fill="#B0B0B0"/>
<path d="M110.846 42.2794L109.321 36.5909C109.956 36.1721 110.532 35.7689 111.108 35.3656L112.632 41.054C112.056 41.4573 111.48 41.8605 110.846 42.2794Z" fill="#ADADAD"/>
<path d="M112.632 41.054L111.108 35.3656C111.626 34.9779 112.102 34.6638 112.504 34.3072L114.028 39.9956C113.626 40.3522 113.166 40.7244 112.632 41.054Z" fill="#AAAAAA"/>
<path d="M114.028 39.9956L112.504 34.3072C112.922 34.0086 113.266 33.6676 113.61 33.3265L115.134 39.0149C114.848 39.3404 114.446 39.697 114.028 39.9956Z" fill="#A7A7A7"/>
<path d="M115.208 39.0574L113.684 33.369C114.044 33.086 114.33 32.7605 114.631 32.493L116.155 38.1814C115.854 38.4489 115.494 38.7319 115.208 39.0574Z" fill="#A4A4A4"/>
<path d="M116.14 38.1234L114.615 32.435C114.917 32.1675 115.145 31.8576 115.389 31.6057L116.913 37.2941C116.669 37.546 116.383 37.8715 116.14 38.1234Z" fill="#A1A1A1"/>
<path d="M116.913 37.2941L115.388 31.6057C115.632 31.3538 115.802 31.0594 116.046 30.8075L117.57 36.4959C117.326 36.7478 117.141 36.9842 116.913 37.2941Z" fill="#9E9E9E"/>
<path d="M117.497 36.4534L115.972 30.765C116.142 30.4706 116.328 30.2343 116.44 29.9554L117.964 35.6439C117.852 35.9227 117.682 36.2171 117.497 36.4534Z" fill="#9B9B9B"/>
<path d="M118.038 35.6863L116.513 29.9979C116.625 29.7191 116.753 29.4983 116.865 29.2195L118.389 34.9079C118.261 35.1287 118.149 35.4075 118.038 35.6863Z" fill="#989898"/>
<path d="M118.389 34.9078L116.864 29.2194C116.976 28.9406 117.046 28.7353 117.1 28.4721L118.624 34.1605C118.554 34.3657 118.501 34.629 118.389 34.9078Z" fill="#959595"/>
<path d="M118.608 34.1024L117.084 28.414C117.138 28.1508 117.134 27.903 117.188 27.6397L118.712 33.3281C118.674 33.6495 118.678 33.8972 118.608 34.1024Z" fill="#929292"/>
<path d="M118.669 33.4017L117.145 27.7133C117.141 27.4656 117.137 27.2179 117.075 26.9857L118.599 32.6741C118.645 32.8482 118.65 33.096 118.669 33.4017Z" fill="#8F8F8F"/>
</g>
<path d="M111.732 23.067C122.83 25.9414 116.476 34.7359 97.5571 42.6049C78.6378 50.4739 54.2908 54.5714 43.1933 51.6969C32.0378 48.8381 38.391 40.0435 57.3684 32.159C76.2722 24.232 100.635 20.1925 111.732 23.067Z" fill="white"/>
<path d="M97.9874 33.531C98.3088 33.5693 98.5876 33.6813 98.8509 33.7351C100.699 31.8091 100.163 30.273 96.9454 29.642C90.7737 28.4339 77.0698 30.9238 66.2673 35.187C56.0297 39.2366 52.1638 43.3831 57.0274 44.8173C58.6743 43.0695 62.1828 41.0718 67.2938 39.018C78.0538 34.8284 91.8158 32.3229 97.9874 33.531Z" fill="#DBDBDB"/>
<path d="M88.5845 39.5344C93.7111 37.5387 97.204 35.4829 98.851 33.7351C98.5877 33.6813 98.3088 33.5693 97.9875 33.531C91.8158 32.3229 78.1119 34.8128 67.3094 39.076C62.1829 41.0718 58.6899 43.1276 57.043 44.8753C57.3063 44.9292 57.5851 45.0411 57.9065 45.0795C64.0781 46.2875 77.8401 43.7821 88.5845 39.5344Z" fill="#F7F8F8"/>
<mask id="mask10_1433_31117" style="mask-type:luminance" maskUnits="userSpaceOnUse" x="116" y="89" width="15" height="24">
<path d="M116.014 111.257C123.771 107.934 128.2 98.2242 125.867 89.5174C127.067 89.8179 128.267 90.1184 129.452 90.3609C131.785 99.0676 127.357 108.777 119.6 112.1C118.531 111.826 117.141 111.515 116.014 111.257Z" fill="white"/>
</mask>
<g mask="url(#mask10_1433_31117)">
<path d="M119.658 112.085L116.072 111.241C117.519 110.605 118.803 109.825 119.967 108.829L123.553 109.672C122.389 110.668 121.062 111.522 119.658 112.085Z" fill="#001E61"/>
<path d="M123.553 109.672L119.968 108.829C120.671 108.205 121.359 107.523 121.974 106.798L125.56 107.641C124.961 108.424 124.257 109.048 123.553 109.672Z" fill="#001E61"/>
<path d="M125.575 107.699L121.989 106.856C122.519 106.279 122.975 105.659 123.358 104.996L126.943 105.84C126.545 106.444 126.089 107.064 125.575 107.699Z" fill="#001E61"/>
<path d="M126.927 105.782L123.342 104.938C123.74 104.334 124.122 103.672 124.447 103.025L128.032 103.868C127.723 104.573 127.325 105.177 126.927 105.782Z" fill="#001E61"/>
<path d="M128.048 103.926L124.462 103.083C124.787 102.436 125.095 101.731 125.346 101.042L128.932 101.885C128.681 102.574 128.357 103.221 128.048 103.926Z" fill="#001E61"/>
<path d="M128.932 101.885L125.346 101.042C125.581 100.294 125.817 99.547 125.994 98.8152L129.579 99.6586C129.402 100.39 129.167 101.138 128.932 101.885Z" fill="#001E61"/>
<path d="M129.564 99.6006L125.978 98.7572C126.167 97.8357 126.356 96.9142 126.428 96.0238L130.014 96.8672C129.957 97.8156 129.826 98.7216 129.564 99.6006Z" fill="#001E61"/>
<path d="M130.014 96.8672L126.428 96.0238C126.596 93.8636 126.442 91.6651 125.867 89.5174C124.358 83.8871 120.475 80.075 115.763 78.9736L119.348 79.817C124.002 80.934 127.944 84.7305 129.452 90.3609C130.086 92.493 130.239 94.6915 130.014 96.8672Z" fill="#001E61"/>
</g>
<mask id="mask11_1433_31117" style="mask-type:luminance" maskUnits="userSpaceOnUse" x="116" y="87" width="9" height="15">
<path d="M116.578 100.592C120.706 95.5661 122.193 89.5063 119.922 87.0665L123.507 87.91C125.794 90.4078 124.307 96.4676 120.164 101.435C119.111 101.22 117.647 100.865 116.578 100.592Z" fill="white"/>
</mask>
<g mask="url(#mask11_1433_31117)">
<path d="M120.179 101.493L116.593 100.65C117.15 99.9406 117.648 99.2471 118.147 98.5536L121.732 99.3971C121.234 100.091 120.735 100.784 120.179 101.493Z" fill="#AC4F47"/>
<path d="M121.733 99.3971L118.147 98.5536C118.588 97.8757 119.013 97.1397 119.38 96.4193L122.965 97.2627C122.583 97.9251 122.158 98.6611 121.733 99.3971Z" fill="#A84D46"/>
<path d="M122.965 97.2627L119.379 96.4193C119.704 95.7724 119.97 95.1412 120.178 94.5254L123.764 95.3689C123.556 95.9846 123.289 96.6159 122.965 97.2627Z" fill="#A54A44"/>
<path d="M123.748 95.3109L120.163 94.4674C120.387 93.9097 120.537 93.3096 120.703 92.7674L124.288 93.6109C124.138 94.2111 123.972 94.7532 123.748 95.3109Z" fill="#A14842"/>
<path d="M124.288 93.6108L120.702 92.7674C120.868 92.2253 120.902 91.6562 120.952 91.1452L124.537 91.9886C124.503 92.5577 124.396 93.0843 124.288 93.6108Z" fill="#9D4640"/>
<path d="M124.554 92.0467L120.968 91.2033C121.129 89.4805 120.798 88.0138 119.937 87.1246L123.523 87.968C124.383 88.8573 124.714 90.3239 124.554 92.0467Z" fill="#99443E"/>
</g>
<mask id="mask12_1433_31117" style="mask-type:luminance" maskUnits="userSpaceOnUse" x="117" y="84" width="6" height="3">
<path d="M118.705 85.7751C118.259 85.2724 117.686 84.9905 117.086 84.8403L120.671 85.6837C121.272 85.834 121.845 86.1158 122.291 86.6185C121.222 86.345 119.662 86.3275 118.705 85.7751Z" fill="white"/>
</mask>
<g mask="url(#mask12_1433_31117)">
<path d="M122.291 86.6185L118.705 85.7751C118.259 85.2724 117.686 84.9905 117.086 84.8403L120.671 85.6837C121.33 85.8184 121.86 86.1739 122.291 86.6185Z" fill="#99443E"/>
</g>
<mask id="mask13_1433_31117" style="mask-type:luminance" maskUnits="userSpaceOnUse" x="110" y="100" width="11" height="7">
<path d="M110.337 105.624C112.348 104.773 114.622 103.044 116.594 100.65C117.194 100.8 117.794 100.95 118.394 101.1C118.863 101.224 119.316 101.289 119.784 101.412L120.179 101.493C118.208 103.888 115.934 105.617 113.922 106.467C112.722 106.166 111.521 105.866 110.337 105.624Z" fill="white"/>
</mask>
<g mask="url(#mask13_1433_31117)">
<path d="M111.221 107.066L107.635 106.223C108.437 106.195 109.381 106.004 110.337 105.624C111.509 105.123 112.735 104.359 113.957 103.347L117.542 104.19C116.32 105.202 115.11 106.024 113.922 106.467C112.966 106.847 112.038 107.096 111.221 107.066Z" fill="#B4534B"/>
<path d="M117.527 104.132L113.941 103.289C114.746 102.576 115.592 101.789 116.392 100.828L119.978 101.671C119.178 102.632 118.405 103.462 117.527 104.132Z" fill="#B05149"/>
<path d="M119.993 101.729L116.408 100.886C116.45 100.812 116.551 100.723 116.594 100.65L120.179 101.493C120.136 101.567 120.036 101.656 119.993 101.729Z" fill="#AC4F47"/>
</g>
<mask id="mask14_1433_31117" style="mask-type:luminance" maskUnits="userSpaceOnUse" x="107" y="111" width="13" height="3">
<path d="M107.878 112.006C110.469 112.618 113.279 112.425 116.014 111.257L119.6 112.1C116.806 113.284 113.996 113.477 111.464 112.849C110.395 112.576 108.947 112.279 107.878 112.006Z" fill="white"/>
</mask>
<g mask="url(#mask14_1433_31117)">
<path d="M111.464 112.849L107.878 112.006C108.01 112.033 108.215 112.102 108.405 112.113L111.99 112.957C111.801 112.946 111.669 112.919 111.464 112.849Z" fill="#001E61"/>
<path d="M111.991 112.957L108.405 112.113C109.253 112.26 110.086 112.348 110.96 112.362L114.546 113.205C113.671 113.191 112.781 113.119 111.991 112.957Z" fill="#001E61"/>
<path d="M114.487 113.221L110.902 112.378C112.578 112.364 114.292 112.029 116.014 111.257L119.599 112.1C117.936 112.857 116.221 113.192 114.487 113.221Z" fill="#001E61"/>
</g>
<mask id="mask15_1433_31117" style="mask-type:luminance" maskUnits="userSpaceOnUse" x="115" y="78" width="15" height="13">
<path d="M125.925 89.5019C124.416 83.8715 120.533 80.0594 115.821 78.958L119.406 79.8014C124.06 80.9184 128.017 84.773 129.51 90.3453C128.326 90.1029 127.125 89.8024 125.925 89.5019Z" fill="white"/>
</mask>
<g mask="url(#mask15_1433_31117)">
<path d="M130.014 96.8672L126.428 96.0238C126.596 93.8636 126.442 91.6651 125.867 89.5174C124.358 83.8871 120.475 80.075 115.763 78.9736L119.348 79.817C124.002 80.934 127.944 84.7305 129.452 90.3609C130.086 92.493 130.239 94.6915 130.014 96.8672Z" fill="#001E61"/>
</g>
<mask id="mask16_1433_31117" style="mask-type:luminance" maskUnits="userSpaceOnUse" x="113" y="84" width="8" height="3">
<path d="M117.086 84.8403L120.671 85.6837C119.602 85.4101 118.294 85.6362 116.948 86.1836L113.363 85.3402C114.767 84.7772 116.017 84.5667 117.086 84.8403Z" fill="white"/>
</mask>
<g mask="url(#mask16_1433_31117)">
<path d="M116.964 86.2417L113.378 85.3982C114.334 85.0177 115.263 84.7689 116.064 84.7408L119.649 85.5843C118.848 85.6123 117.904 85.8031 116.964 86.2417Z" fill="#B88E6E"/>
<path d="M119.649 85.5843L116.064 84.7408C116.37 84.7211 116.691 84.7594 116.954 84.8133L120.54 85.6568C120.277 85.6029 119.955 85.5646 119.649 85.5843Z" fill="#B48B6C"/>
<path d="M120.54 85.6568L116.955 84.8133C117.013 84.7978 117.028 84.8558 117.086 84.8403L120.672 85.6837C120.672 85.6837 120.598 85.6412 120.54 85.6568Z" fill="#B1896A"/>
</g>
<mask id="mask17_1433_31117" style="mask-type:luminance" maskUnits="userSpaceOnUse" x="106" y="105" width="8" height="3">
<path d="M106.613 106.123C107.682 106.397 108.99 106.171 110.336 105.624C111.537 105.924 112.737 106.224 113.922 106.467C112.518 107.03 111.267 107.24 110.199 106.967C109.072 106.709 107.682 106.397 106.613 106.123Z" fill="white"/>
</mask>
<g mask="url(#mask17_1433_31117)">
<path d="M110.199 106.967L106.613 106.123C106.671 106.108 106.745 106.15 106.745 106.15L110.33 106.994C110.272 107.009 110.214 107.025 110.199 106.967Z" fill="#AC4F47"/>
<path d="M110.331 106.994L106.745 106.15C107.008 106.204 107.33 106.243 107.636 106.223L111.221 107.066C110.915 107.086 110.594 107.048 110.331 106.994Z" fill="#B05149"/>
<path d="M111.221 107.066L107.635 106.223C108.437 106.195 109.381 106.004 110.337 105.624C111.509 105.123 112.735 104.359 113.957 103.347L117.542 104.19C116.32 105.202 115.11 106.024 113.922 106.467C112.966 106.847 112.038 107.096 111.221 107.066Z" fill="#B4534B"/>
</g>
<mask id="mask18_1433_31117" style="mask-type:luminance" maskUnits="userSpaceOnUse" x="104" y="105" width="7" height="2">
<path d="M110.199 106.967C108.998 106.666 107.798 106.366 106.613 106.123C106.013 105.973 105.424 105.633 104.994 105.189L108.58 106.032C109.025 106.535 109.541 106.832 110.199 106.967Z" fill="white"/>
</mask>
<g mask="url(#mask18_1433_31117)">
<path d="M110.199 106.967L106.613 106.123C106.013 105.973 105.424 105.633 104.994 105.189L108.58 106.032C109.025 106.535 109.541 106.832 110.199 106.967Z" fill="#9E7A5E"/>
</g>
<path d="M123.507 87.9099C125.794 90.4078 124.307 96.4676 120.163 101.435C118.192 103.83 115.918 105.559 113.906 106.409C111.736 107.364 109.723 107.281 108.564 105.974L123.507 87.9099Z" fill="white"/>
<path d="M108.579 106.032L104.994 105.189L119.922 87.0665L123.507 87.9099L108.579 106.032Z" fill="#BB9170"/>
<path d="M107.363 104.741L103.777 103.897L118.705 85.7751L122.29 86.6185L107.363 104.741Z" fill="#B7554D"/>
<mask id="mask19_1433_31117" style="mask-type:luminance" maskUnits="userSpaceOnUse" x="107" y="78" width="13" height="3">
<path d="M115.821 78.958L119.406 79.8014C116.816 79.1891 114.006 79.3821 111.27 80.5505L107.685 79.7071C110.42 78.5387 113.23 78.3456 115.821 78.958Z" fill="white"/>
</mask>
<g mask="url(#mask19_1433_31117)">
<path d="M111.27 80.5506L107.685 79.7071C109.422 78.9928 111.121 78.5998 112.797 78.5862L116.382 79.4296C114.664 79.5168 112.949 79.8518 111.27 80.5506Z" fill="#B4534B"/>
<path d="M116.34 79.5032L112.754 78.6597C113.629 78.6742 114.446 78.7042 115.309 78.9083L118.895 79.7517C118.09 79.532 117.199 79.4596 116.34 79.5032Z" fill="#B05149"/>
<path d="M118.879 79.6937L115.294 78.8502C115.484 78.8616 115.631 78.9466 115.821 78.958L119.406 79.8014C119.216 79.79 119.085 79.7631 118.879 79.6937Z" fill="#AC4F47"/>
</g>
<mask id="mask20_1433_31117" style="mask-type:luminance" maskUnits="userSpaceOnUse" x="102" y="85" width="15" height="20">
<path d="M107.363 104.741L103.777 103.897C101.49 101.399 102.977 95.3396 107.121 90.3721C109.092 87.9775 111.366 86.2484 113.378 85.3982L116.964 86.2417C114.952 87.0918 112.678 88.821 110.706 91.2155C106.578 96.2411 105.091 102.301 107.363 104.741Z" fill="white"/>
</mask>
<g mask="url(#mask20_1433_31117)">
<path d="M107.362 104.741L103.777 103.897C102.901 102.95 102.586 101.541 102.746 99.8185L106.332 100.662C106.171 102.385 106.486 103.793 107.362 104.741Z" fill="#9E7A5E"/>
<path d="M106.332 100.662L102.746 99.8185C102.796 99.3074 102.904 98.7809 102.996 98.1963L106.581 99.0397C106.489 99.6243 106.381 100.151 106.332 100.662Z" fill="#A27D60"/>
<path d="M106.582 99.0397L102.996 98.1963C103.104 97.6697 103.312 97.054 103.536 96.4963L107.122 97.3397C106.913 97.9555 106.748 98.4976 106.582 99.0397Z" fill="#A68063"/>
<path d="M107.121 97.3397L103.536 96.4963C103.744 95.8806 104.068 95.2337 104.335 94.6025L107.92 95.4459C107.596 96.0927 107.329 96.724 107.121 97.3397Z" fill="#A98365"/>
<path d="M107.92 95.4459L104.335 94.6025C104.702 93.882 105.069 93.1616 105.567 92.4681L109.153 93.3116C108.728 94.0475 108.287 94.7255 107.92 95.4459Z" fill="#AD8667"/>
<path d="M109.153 93.3116L105.567 92.4681C106.05 91.7166 106.549 91.0231 107.121 90.3721C107.221 90.283 107.264 90.2094 107.364 90.1202L110.95 90.9636C110.849 91.0528 110.807 91.1264 110.706 91.2155C110.15 91.9246 109.593 92.6336 109.153 93.3116Z" fill="#B1896A"/>
<path d="M110.95 90.9636L107.364 90.1202C108.18 89.2173 108.953 88.388 109.815 87.6592L113.401 88.5027C112.538 89.2314 111.692 90.0182 110.95 90.9636Z" fill="#B48B6C"/>
<path d="M113.343 88.5182L109.757 87.6748C110.979 86.663 112.205 85.899 113.378 85.3982L116.963 86.2417C115.775 86.6844 114.565 87.5065 113.343 88.5182Z" fill="#B88E6E"/>
</g>
<path d="M111.271 80.5505C119.028 77.2277 127.177 81.6386 129.51 90.3453C131.843 99.0521 127.415 108.762 119.658 112.085C111.901 115.407 103.751 110.996 101.418 102.29C99.085 93.583 103.455 83.8889 111.271 80.5505ZM120.179 101.493C124.307 96.4676 125.794 90.4078 123.523 87.968L108.595 106.09C109.812 107.382 111.752 107.422 113.938 106.525C115.992 105.601 118.208 103.888 120.179 101.493ZM110.707 91.2155C106.578 96.2411 105.091 102.301 107.363 104.741L122.291 86.6185C121.073 85.3271 119.134 85.2868 116.948 86.1836C114.952 87.0918 112.678 88.821 110.707 91.2155Z" fill="#D9665C"/>
<mask id="mask21_1433_31117" style="mask-type:luminance" maskUnits="userSpaceOnUse" x="97" y="79" width="15" height="34">
<path d="M111.464 112.849L107.878 112.006C103.224 110.889 99.283 107.092 97.7743 101.462C95.4414 92.7551 99.8697 83.0454 107.627 79.7226L111.212 80.5661C103.455 83.8889 99.0268 93.5985 101.36 102.305C102.868 107.936 106.81 111.732 111.464 112.849Z" fill="white"/>
</mask>
<g mask="url(#mask21_1433_31117)">
<path d="M111.464 112.849L107.879 112.006C103.224 110.889 99.2832 107.092 97.7745 101.462C97.1991 99.3142 97.0455 97.1157 97.2132 94.9555L100.799 95.7989C100.631 97.9591 100.785 100.158 101.36 102.305C102.869 107.936 106.81 111.732 111.464 112.849Z" fill="#99443E"/>
<path d="M100.856 95.7834L97.2709 94.94C97.3278 93.9915 97.5164 93.07 97.7205 92.2066L101.306 93.05C101.102 93.9135 100.929 94.893 100.856 95.7834Z" fill="#9D4640"/>
<path d="M101.306 93.05L97.7208 92.2066C97.898 91.4748 98.1176 90.6693 98.3684 89.98L101.954 90.8235C101.703 91.5128 101.468 92.2601 101.306 93.05Z" fill="#A14842"/>
<path d="M101.954 90.8235L98.3685 89.98C98.6193 89.2907 98.9281 88.5858 99.2525 87.939L102.838 88.7824C102.514 89.4293 102.205 90.1341 101.954 90.8235Z" fill="#A54A44"/>
<path d="M102.838 88.7824L99.252 87.939C99.5764 87.2921 99.9588 86.6298 100.357 86.0254L103.942 86.8689C103.544 87.4732 103.162 88.1356 102.838 88.7824Z" fill="#A84D46"/>
<path d="M103.943 86.8689L100.357 86.0254C100.798 85.3475 101.254 84.7276 101.725 84.1658L105.311 85.0092C104.781 85.5866 104.325 86.2065 103.943 86.8689Z" fill="#AC4F47"/>
<path d="M105.311 85.0092L101.725 84.1658C102.34 83.4412 103.028 82.7591 103.732 82.135L107.317 82.9784C106.614 83.6025 105.925 84.2846 105.311 85.0092Z" fill="#B05149"/>
<path d="M107.317 82.9784L103.732 82.135C104.896 81.1388 106.222 80.2856 107.685 79.7071L111.27 80.5505C109.823 81.1871 108.481 81.9822 107.317 82.9784Z" fill="#B4534B"/>
</g>
<mask id="mask22_1433_31117" style="mask-type:luminance" maskUnits="userSpaceOnUse" x="93" y="75" width="18" height="42">
<path d="M110.524 116.771C110.055 116.648 109.587 116.525 109.06 116.417C108.665 116.336 108.197 116.213 107.802 116.132C107.539 116.078 107.202 115.982 106.88 115.944C101.1 114.569 96.2243 109.84 94.3579 102.875C91.4651 92.0785 96.9473 80.0335 106.558 75.9652L110.143 76.8087C100.533 80.8769 95.0505 92.922 97.9434 103.718C99.8678 110.668 104.743 115.396 110.524 116.771Z" fill="white"/>
</mask>
<g mask="url(#mask22_1433_31117)">
<path d="M110.524 116.771L106.938 115.928C101.157 114.553 96.2822 109.825 94.4158 102.859C93.7004 100.189 93.5384 97.4953 93.7559 94.8241L97.3413 95.6676C97.1239 98.3388 97.3014 101.091 98.0013 103.703C99.8676 110.668 104.743 115.396 110.524 116.771Z" fill="#001E61"/>
<path d="M97.3415 95.6676L93.756 94.8241C93.8824 93.6704 94.0668 92.5012 94.3403 91.4325L97.9258 92.276C97.6678 93.4027 97.4679 94.5139 97.3415 95.6676Z" fill="#001E61"/>
<path d="M97.9258 92.276L94.3403 91.4325C94.5869 90.4955 94.8335 89.5584 95.1538 88.6638L98.7392 89.5073C98.419 90.4018 98.1724 91.3389 97.9258 92.276Z" fill="#001E61"/>
<path d="M98.7396 89.5073L95.1542 88.6638C95.4899 87.8273 95.8257 86.9908 96.2195 86.1387L99.805 86.9822C99.3956 87.7762 99.0598 88.6127 98.7396 89.5073Z" fill="#001E61"/>
<path d="M99.8049 86.9822L96.2194 86.1388C96.6287 85.3447 97.0962 84.5351 97.5791 83.7836L101.165 84.627C100.682 85.3786 100.214 86.1882 99.8049 86.9822Z" fill="#001E61"/>
<path d="M101.164 84.6271L97.5789 83.7836C98.1044 82.9585 98.7034 82.1758 99.318 81.4512L102.903 82.2947C102.289 83.0193 101.69 83.8019 101.164 84.6271Z" fill="#001E61"/>
<path d="M102.903 82.2947L99.3177 81.4512C100.075 80.5639 100.907 79.7191 101.827 78.9747L105.412 79.8182C104.492 80.5625 103.661 81.4073 102.903 82.2947Z" fill="#001E61"/>
<path d="M105.413 79.8182L101.828 78.9747C103.293 77.711 104.895 76.722 106.69 75.9922L110.275 76.8356C108.48 77.5655 106.821 78.57 105.413 79.8182Z" fill="#001E61"/>
</g>
<path d="M110.26 76.7776C119.87 72.7094 129.976 78.1514 132.869 88.9477C135.762 99.7441 130.279 111.789 120.669 115.857C111.058 119.926 100.953 114.484 98.0753 103.745C95.1824 92.9489 100.665 80.9038 110.26 76.7776ZM119.658 112.084C127.415 108.762 131.843 99.052 129.51 90.3453C127.177 81.6385 119.028 77.2277 111.271 80.5505C103.513 83.8733 99.0851 93.583 101.418 102.29C103.693 111.012 111.843 115.423 119.658 112.084Z" fill="#2E5B9C"/>
<path d="M116.964 86.2417C119.134 85.2868 121.147 85.3696 122.306 86.6766L107.363 104.741C105.076 102.243 106.563 96.183 110.707 91.2155C112.678 88.821 114.952 87.0918 116.964 86.2417Z" fill="white"/>
<mask id="mask23_1433_31117" style="mask-type:luminance" maskUnits="userSpaceOnUse" x="106" y="74" width="15" height="3">
<path d="M116.76 75.0356L120.346 75.8791C117.155 75.1165 113.676 75.3645 110.259 76.7776L106.674 75.9341C110.075 74.463 113.554 74.215 116.76 75.0356Z" fill="white"/>
</mask>
<g mask="url(#mask23_1433_31117)">
<path d="M110.259 76.7776L106.674 75.9341C108.802 75.0529 110.922 74.6091 113.02 74.5446L116.606 75.3881C114.508 75.4525 112.329 75.9119 110.259 76.7776Z" fill="#001E61"/>
<path d="M116.563 75.4617L112.978 74.6183C114.027 74.586 115.123 74.7279 116.102 74.901L119.688 75.7444C118.693 75.5133 117.612 75.4295 116.563 75.4617Z" fill="#001E61"/>
<path d="M119.688 75.7444L116.102 74.9009C116.307 74.9704 116.497 74.9818 116.702 75.0512L120.288 75.8946C120.14 75.8096 119.951 75.7983 119.688 75.7444Z" fill="#001E61"/>
</g>
<path d="M104.293 36.6318L87.3584 43.7823L82.8837 43.7992L99.8762 36.6332L104.293 36.6318Z" fill="#727171"/>
</g>
</svg>
