<svg width="1042" height="478" viewBox="0 0 1042 478" fill="none" xmlns="http://www.w3.org/2000/svg">
<path d="M834.433 16.3633C833.181 16.1844 832.108 16.3633 830.856 16.5421C827.637 16.5421 824.239 16.3633 821.02 15.8268C815.119 14.5749 817.265 8.4946 819.053 4.73909C819.411 3.84492 819.053 3.12959 818.516 2.59309C818.516 2.05659 818.516 1.34125 818.338 0.804752C818.159 -0.268251 816.37 -0.268251 816.192 0.804752C815.476 4.56026 814.403 7.9581 811.542 10.6406C809.575 12.6078 807.25 13.8596 804.567 14.3961C803.494 14.3961 802.243 14.5749 801.17 14.7538C799.024 14.9326 799.024 17.9728 801.17 18.1516C802.243 18.1516 803.494 17.9728 804.567 17.794C808.323 17.6151 812.615 17.9728 814.582 21.3706C816.907 25.6626 815.297 31.0276 817.98 35.3196C819.053 36.9292 821.378 35.8562 821.02 34.0678C819.411 26.7356 824.418 20.4765 831.214 19.5823C832.108 19.5823 833.181 19.5823 834.075 19.5823C836.579 19.4035 836.579 16.5421 834.433 16.3633ZM819.232 25.305C818.874 22.4436 818.516 19.7611 816.192 17.4363C814.761 16.0056 813.151 15.2903 811.363 14.7538C812.257 14.0384 813.151 13.3231 814.046 12.6078C814.224 14.2173 815.119 15.8268 816.549 17.0786C818.516 18.6881 821.199 18.867 823.524 19.2246C823.703 19.2246 823.881 19.2246 824.06 19.2246C822.093 20.6553 820.305 22.8013 819.232 25.305Z" fill="#FEDA56"/>
<path d="M849.455 48.1956C848.739 43.7248 848.203 39.2539 847.666 34.6042C847.487 32.9947 845.163 32.8159 844.984 34.6042C844.805 38.7174 845.163 43.0094 846.057 47.1226C845.878 47.3014 845.878 47.6591 846.057 47.8379C846.236 48.3744 846.414 48.7321 846.593 49.2686C847.308 51.0569 849.633 49.8051 849.455 48.1956Z" fill="#FEDA56"/>
<path d="M853.21 39.6117C849.454 38.5387 844.089 40.5059 841.049 42.6519C840.155 43.3672 840.691 44.9767 841.943 44.619C843.732 44.0825 845.52 43.3672 847.487 43.0095C849.454 42.6519 851.421 42.8307 853.21 42.2942C854.64 42.1154 854.64 40.1482 853.21 39.6117Z" fill="#FEDA56"/>
<path d="M917.59 10.8195C917.053 6.70636 912.225 5.81219 908.827 6.70636C908.469 6.88519 908.112 7.06403 907.933 7.24286C907.039 7.77936 906.144 8.67353 905.787 9.74653C904.356 13.1444 907.575 15.8269 910.615 16.1845C913.834 16.3634 918.126 14.575 917.59 10.8195ZM911.509 12.2502C910.794 12.2502 909.363 12.0714 909.185 10.9984C909.006 10.4619 909.363 9.92537 909.9 9.74653C910.258 9.74653 910.615 9.74653 910.973 9.74653C911.152 9.74653 911.331 9.74653 911.509 9.74653C912.404 9.74653 913.298 9.92537 913.834 10.6407C914.55 11.8925 912.404 12.2502 911.509 12.2502Z" fill="#FEDA56"/>
<path d="M1035.98 183.93C1034.91 178.565 1033.83 173.558 1033.83 168.193C1033.83 166.047 1030.79 166.226 1030.61 168.193C1030.08 173.022 1030.26 178.387 1031.69 183.215C1031.51 183.573 1031.51 184.109 1031.69 184.467C1032.04 185.003 1032.22 185.361 1032.76 185.719C1034.19 187.149 1036.34 185.898 1035.98 183.93Z" fill="#FEDA56"/>
<path d="M1039.91 173.2C1035.62 171.949 1029.54 173.558 1025.43 175.168C1024 175.704 1024.53 177.671 1026.14 177.492C1028.65 177.135 1031.15 176.777 1033.65 176.598C1035.8 176.419 1037.94 176.777 1039.91 176.241C1041.52 175.883 1041.34 173.558 1039.91 173.2Z" fill="#FEDA56"/>
<path d="M879.856 164.974C878.783 161.934 875.027 160.324 871.987 161.397C871.63 161.219 871.272 161.04 870.914 161.219C867.338 161.934 865.728 166.226 866.801 169.445C867.874 173.022 872.166 174.81 875.564 173.737C879.141 172.664 881.108 168.551 879.856 164.974ZM873.597 170.518C871.987 170.697 870.199 169.624 869.841 168.014C869.662 166.941 869.841 166.047 870.378 165.332C870.914 165.868 871.63 165.868 872.345 165.511C873.776 164.616 875.922 164.974 876.279 166.941C876.995 168.551 875.564 170.339 873.597 170.518Z" fill="#FEDA56"/>
<path d="M890.586 177.314C889.871 176.956 888.977 176.956 888.44 177.671C887.725 177.85 887.367 178.565 887.188 179.281C887.188 179.996 887.367 180.533 887.904 181.069C888.619 181.784 889.692 181.784 890.586 181.248C892.017 180.533 892.196 178.208 890.586 177.314Z" fill="#FEDA56"/>
<path d="M1028.29 315.016C1024.71 313.764 1020.24 315.194 1016.84 313.406C1014.7 312.333 1014.7 310.366 1014.52 308.22V308.041C1014.88 306.61 1014.7 305.359 1014.34 303.928C1014.34 303.749 1014.34 303.749 1014.16 303.749C1014.16 302.855 1013.98 301.961 1013.98 301.066C1013.8 298.742 1010.05 298.563 1010.23 301.066C1010.4 303.57 1010.58 306.074 1010.76 308.756C1008.62 312.691 1001.28 312.87 997.529 312.691C995.383 312.691 995.025 315.91 996.992 316.446C998.78 316.983 1000.57 316.983 1002.54 316.804C1004.32 316.804 1006.47 316.267 1008.26 316.983C1010.76 318.056 1010.76 321.99 1011.12 324.315C1011.12 324.673 1011.12 325.03 1011.12 325.388C1010.58 327.534 1010.58 330.038 1011.12 332.541C1011.66 334.687 1014.7 334.151 1014.88 332.005C1015.05 329.859 1015.05 327.892 1014.88 325.746C1016.31 320.738 1021.49 317.34 1027.39 318.771C1029.72 319.308 1030.61 315.91 1028.29 315.016ZM1014.16 319.486C1013.8 317.698 1013.09 315.91 1011.66 314.658C1011.3 314.3 1010.94 314.121 1010.58 313.764L1010.76 313.585C1011.12 313.406 1011.3 313.048 1011.66 312.87C1012.01 313.943 1012.73 314.837 1013.62 315.552C1014.52 316.267 1015.59 316.804 1016.66 317.162C1015.59 318.056 1014.88 318.771 1014.16 319.486Z" fill="#FEDA56"/>
<path d="M810.468 376.177C810.468 373.494 810.468 370.454 809.216 367.95C808.68 366.877 807.07 367.235 806.892 368.308C806.176 370.812 806.713 373.673 806.713 376.355C806.713 378.859 805.997 382.078 806.892 384.403C807.428 385.476 808.859 386.012 809.574 384.761C811.184 382.257 810.647 378.859 810.468 376.177Z" fill="#FEDA56"/>
<path d="M820.304 373.315C814.403 371.885 806.534 374.209 801.527 377.428C800.275 378.144 801.169 380.29 802.421 379.753C805.103 378.859 807.965 377.965 810.647 377.607C813.687 377.071 816.728 377.428 819.768 377.071C821.735 376.713 822.629 373.673 820.304 373.315Z" fill="#FEDA56"/>
<path d="M827.637 268.876C824.418 268.876 818.516 272.453 820.841 276.209C821.02 276.387 821.199 276.566 821.377 276.745C821.735 279.07 823.523 281.216 825.848 281.931C829.783 283.362 833.359 280.322 833.896 276.387C834.432 272.453 831.75 268.876 827.637 268.876ZM827.279 278.355C825.491 277.997 824.596 275.672 825.133 274.063C825.133 274.063 825.133 274.063 825.133 273.884C825.491 273.526 826.027 273.168 826.921 272.99C828.71 272.632 829.961 273.884 829.961 275.493C829.961 276.924 829.067 278.712 827.279 278.355Z" fill="#FEDA56"/>
<path d="M873.06 362.764C872.703 362.228 871.987 361.87 871.451 361.87C870.736 361.87 870.199 362.228 869.841 362.764C869.484 363.301 869.484 364.195 869.841 364.731C869.841 364.91 870.02 365.089 870.02 365.089C870.378 365.625 870.914 365.983 871.451 365.983C871.987 365.983 872.524 365.625 872.882 365.089C873.061 364.91 873.06 364.731 873.06 364.552C873.418 364.195 873.418 363.479 873.06 362.764Z" fill="#FEDA56"/>
<path d="M864.655 390.304C861.436 387.622 855.714 388.516 853.925 392.45C853.747 392.987 853.747 393.523 853.747 393.881C853.031 395.491 852.852 397.637 853.747 399.246C855.893 403.002 861.258 404.253 864.655 401.392C868.053 398.531 868.053 392.987 864.655 390.304ZM862.867 397.815C861.794 399.425 859.648 399.425 858.039 398.531C856.787 397.637 855.893 394.418 858.396 394.418C859.29 394.418 859.827 393.523 859.827 392.629C860.721 392.45 861.436 392.629 862.331 393.166C863.582 394.06 863.761 396.385 862.867 397.815Z" fill="#FEDA56"/>
<path d="M719.085 248.847C718.548 244.913 718.19 240.978 717.117 237.044C716.76 235.435 714.077 235.792 714.077 237.402C714.077 241.336 714.792 245.27 715.15 249.205C715.508 252.603 715.329 256.716 716.938 259.756C717.654 261.008 719.442 260.65 719.8 259.398C720.694 256.179 719.442 252.245 719.085 248.847Z" fill="#FEDA56"/>
<path d="M726.953 247.953C724.092 246.88 720.336 247.416 717.296 247.595C714.077 247.774 710.858 248.311 707.639 249.026C706.208 249.384 706.387 251.887 707.997 251.708C711.216 251.53 714.435 251.172 717.654 251.172C720.694 251.172 723.913 251.708 726.953 251.172C728.741 250.814 728.384 248.489 726.953 247.953Z" fill="#FEDA56"/>
<path d="M542.755 17.9729C540.609 18.3306 538.463 18.6882 536.317 18.8671C534.529 19.0459 530.773 19.7612 529.879 18.1517C528.985 16.7211 528.985 13.502 528.806 12.0714C528.627 9.92537 528.627 7.77937 528.448 5.63336C528.448 4.73919 527.912 4.20269 527.196 4.02386C526.481 3.12969 524.872 3.12969 524.514 4.56036C523.977 6.3487 523.977 8.31587 524.156 10.1042C524.156 11.7137 524.514 13.6809 523.977 15.2904C523.083 17.4364 520.58 17.7941 518.612 18.5094C515.93 19.4036 513.247 20.2977 510.565 21.1919C508.598 21.9072 508.776 25.3051 511.101 25.1262C515.393 24.9474 521.295 20.2977 524.335 25.1262C526.123 27.9876 527.018 31.3854 527.375 34.7833C527.375 36.9293 527.375 39.0753 527.375 41.2213C527.375 43.9038 531.131 43.7249 531.488 41.2213C531.667 38.8964 531.667 36.3928 531.488 33.8891C531.488 31.9219 531.131 29.5971 531.488 27.6299C531.846 25.3051 535.065 24.9474 537.032 24.2321C539.357 23.3379 541.682 22.6226 544.007 21.7284C545.974 20.8342 545.259 17.6152 542.755 17.9729ZM526.839 21.9072C526.302 21.1919 525.587 20.6554 524.872 20.1189C525.229 19.7612 525.766 19.4036 526.123 19.0459C526.481 20.1189 526.839 21.0131 527.554 21.7284C528.091 22.2649 528.806 22.6226 529.521 22.8014C528.985 23.1591 528.627 23.5167 528.269 23.8744C527.912 23.1591 527.375 22.4437 526.839 21.9072Z" fill="#FEDA56"/>
<path d="M550.981 58.0316C550.087 56.4221 548.12 55.3491 546.152 55.1702C545.974 54.9914 545.616 54.8126 545.258 54.8126C543.47 54.8126 542.218 55.3491 541.145 56.9586C540.072 58.3892 539.714 60.1776 540.072 61.9659C540.787 65.3637 544.543 66.9733 547.583 65.9003C550.981 64.6484 552.948 61.0717 550.981 58.0316ZM546.152 62.1447C545.079 62.3236 544.006 61.9659 543.828 60.7141C543.828 60.3564 543.828 60.1776 543.828 59.8199C544.006 59.8199 544.185 59.6411 544.364 59.6411C545.258 58.9257 546.689 59.1046 547.404 60.1776C548.298 61.0717 547.225 61.9659 546.152 62.1447Z" fill="#FEDA56"/>
<path d="M684.033 76.6302C681.351 75.3784 675.986 75.736 675.628 79.4915C674.555 81.4587 674.913 84.32 676.165 86.1084C678.668 89.5062 683.318 89.1485 685.822 86.1084C688.325 82.8894 687.61 78.4185 684.033 76.6302ZM683.139 83.6047C682.066 85.0354 680.099 85.5719 679.026 83.9624C678.311 82.8894 678.311 81.6375 678.668 80.3857C679.741 79.8492 680.814 79.3127 682.245 79.6704C683.854 80.3857 684.212 82.174 683.139 83.6047Z" fill="#FEDA56"/>
<path d="M562.069 157.463C561.89 153.529 561.89 149.237 560.817 145.302C560.459 144.229 558.85 144.051 558.492 145.302C557.777 149.237 558.134 153.35 558.313 157.463C558.492 161.04 557.777 165.511 559.565 168.73C559.923 169.445 561.174 169.445 561.532 168.73C563.142 165.332 562.247 161.219 562.069 157.463Z" fill="#FEDA56"/>
<path d="M568.506 156.032C563.141 155.317 556.703 155.496 551.517 156.748C549.908 157.105 550.265 159.609 551.875 159.609C554.557 159.609 557.24 159.43 559.922 159.43C562.605 159.43 565.287 159.609 567.97 159.609C569.937 159.788 570.652 156.39 568.506 156.032Z" fill="#FEDA56"/>
<path d="M533.634 199.847C532.204 197.879 529.7 197.879 527.733 198.774C525.766 199.489 524.335 201.098 523.441 202.887C523.083 203.602 522.725 204.675 522.725 205.569C522.189 207.536 523.083 209.861 524.871 210.934C528.806 213.259 533.634 210.219 534.528 206.106C534.886 204.317 534.886 201.635 533.634 199.847ZM530.773 204.675C530.594 206.463 528.985 208.609 527.017 207.894C526.839 207.894 526.66 207.715 526.481 207.536C526.839 206.106 526.66 204.675 527.912 203.602C528.448 203.066 529.342 202.35 530.236 202.35C530.773 202.35 530.415 202.35 530.773 202.887C530.773 203.423 530.773 204.139 530.773 204.675Z" fill="#FEDA56"/>
<path d="M545.258 219.697C544.901 219.161 544.185 218.803 543.649 218.982C543.112 218.982 542.397 219.518 542.218 220.234C542.039 221.128 542.039 221.843 542.397 222.558C542.576 222.916 542.755 223.453 543.291 223.631C543.649 223.81 544.006 223.989 544.543 223.81C545.437 223.631 546.152 222.916 546.152 222.022C545.795 221.128 545.616 220.412 545.258 219.697Z" fill="#FEDA56"/>
<path d="M584.423 232.573C584.423 232.037 584.244 231.5 583.887 231.143C583.529 230.785 582.992 230.606 582.456 230.606C581.919 230.606 581.383 230.785 581.025 231.143C580.846 231.321 580.846 231.5 580.667 231.5C580.489 231.858 580.31 232.216 580.31 232.573C580.131 233.467 580.131 234.362 580.489 235.256C581.204 236.508 583.171 236.508 584.065 235.256C584.602 234.362 584.602 233.467 584.423 232.573Z" fill="#FEDA56"/>
<path d="M471.579 324.136C469.969 323.599 468.181 323.599 466.572 323.778C464.962 323.957 462.28 324.851 461.028 323.421C460.67 323.063 460.491 322.348 460.312 321.811C460.312 319.129 460.491 316.088 459.776 313.585C459.776 313.406 459.597 313.227 459.418 313.048C459.239 311.439 459.061 309.829 458.882 308.399C458.524 306.074 454.947 306.074 455.126 308.399C455.484 311.796 456.02 315.194 456.378 318.413C456.557 319.665 456.557 321.096 456.915 322.526C456.915 324.136 456.199 324.494 454.769 325.03C450.476 326.64 446.184 328.07 441.892 329.501C439.746 330.216 440.641 333.793 442.787 333.078C446.9 331.647 451.192 330.753 455.663 330.216C456.736 334.687 457.63 339.158 458.703 343.629C459.061 345.596 462.458 345.238 462.28 343.092C462.101 340.946 462.101 338.8 461.922 336.654C461.922 335.045 461.207 332.541 461.564 330.932C461.922 329.501 464.426 329.501 465.677 329.143C467.645 328.607 469.791 328.07 471.758 327.534C473.546 327.176 473.367 324.672 471.579 324.136ZM458.703 328.07V327.891C458.703 327.713 458.524 327.355 458.345 327.176L458.524 326.997C458.703 326.818 458.882 326.818 458.882 326.64C459.061 326.818 459.418 326.997 459.597 327.176C459.239 327.355 458.882 327.713 458.703 328.07Z" fill="#FEDA56"/>
<path d="M542.934 434.119C542.755 431.257 543.112 427.144 541.145 424.998C540.609 424.462 539.715 424.641 539.357 425.177C537.747 427.502 538.641 431.794 538.82 434.655C538.999 437.695 538.463 441.63 540.072 444.312C540.609 445.206 542.218 445.385 542.755 444.312C544.185 441.272 543.112 437.338 542.934 434.119Z" fill="#FEDA56"/>
<path d="M549.55 434.655C544.721 432.509 537.926 434.476 533.455 436.444C532.024 437.159 533.097 439.305 534.528 438.947C537.032 438.232 539.714 437.874 542.397 437.874C544.721 437.874 547.046 438.411 549.192 438.053C550.623 437.874 550.981 435.371 549.55 434.655Z" fill="#FEDA56"/>
<path d="M657.387 351.319C656.314 348.457 653.095 346.669 649.876 346.49C649.697 346.311 649.697 346.133 649.519 346.133C645.227 345.417 642.723 350.603 643.259 354.18C643.975 358.472 648.446 361.512 652.738 360.439C656.493 359.366 658.639 354.895 657.387 351.319ZM651.665 356.863C649.161 357.578 646.657 355.253 646.657 352.928C646.657 351.855 647.015 351.14 647.551 350.246C649.519 350.603 651.843 350.067 653.274 351.855C654.526 353.465 653.632 356.147 651.665 356.863Z" fill="#FEDA56"/>
<path d="M640.219 378.501C640.219 378.323 640.04 378.323 640.04 378.144C640.04 377.965 640.04 377.965 640.04 377.786C639.861 376.892 638.967 376.177 638.073 376.355C637.179 376.355 636.285 376.892 636.106 377.786C636.106 377.965 636.106 378.144 635.927 378.144C635.748 378.68 635.748 379.217 635.748 379.574C635.927 380.469 637 381.363 637.894 381.184C638.788 381.184 639.682 380.647 640.04 379.753C640.219 379.574 640.219 379.038 640.219 378.501Z" fill="#FEDA56"/>
<path d="M541.324 473.999C540.966 473.641 540.787 473.462 540.251 473.462C539.893 473.283 539.536 473.283 538.999 473.462C538.105 473.641 537.39 473.641 536.674 474.356C535.959 475.072 535.959 476.323 536.674 477.039C537.39 477.754 538.105 477.754 538.999 477.933C539.714 478.112 540.609 477.933 541.145 477.396C541.503 477.039 541.86 476.323 541.86 475.787C542.039 475.072 541.86 474.535 541.324 473.999Z" fill="#FEDA56"/>
<path d="M354.8 440.736C351.223 441.809 348.899 446.458 351.223 449.498C351.402 449.856 351.76 450.035 352.118 450.214C352.833 451.466 353.906 452.36 354.979 452.717C358.913 453.969 363.026 450.214 362.669 446.458C362.669 442.703 358.556 439.841 354.8 440.736ZM356.588 449.32C355.337 449.32 354.442 447.889 354.8 446.637C354.979 446.279 354.8 445.922 354.621 445.564C354.8 445.206 354.979 445.028 355.337 444.67C356.588 443.955 358.198 444.67 358.734 445.922C359.271 447.531 358.019 449.32 356.588 449.32Z" fill="#FEDA56"/>
<path d="M374.651 464.342C374.472 463.984 374.472 463.626 374.114 463.269C373.936 463.09 373.936 463.09 373.757 462.911C373.399 462.553 372.863 462.375 372.326 462.375C371.79 462.375 371.253 462.553 370.895 462.911C370.18 463.805 370.18 464.878 370.895 465.772C371.074 465.951 371.074 465.951 371.253 466.13C371.611 466.488 371.968 466.488 372.326 466.667C373.757 467.203 375.187 465.772 374.651 464.342Z" fill="#FEDA56"/>
<path d="M439.388 108.641C439.21 106.674 436.169 106.495 436.169 108.641C436.348 114.364 436.348 120.444 437.242 126.167C437.6 128.492 441.177 127.777 441.177 125.631C441.177 119.908 440.104 114.185 439.388 108.641Z" fill="#FEDA56"/>
<path d="M451.192 114.722C445.111 114.364 437.6 115.258 432.057 117.941C430.984 118.477 431.341 120.623 432.772 120.444C435.812 120.087 438.852 119.193 441.892 118.835C444.933 118.477 448.152 118.477 451.192 118.477C453.874 118.656 453.695 114.901 451.192 114.722Z" fill="#FEDA56"/>
<path d="M366.246 88.4333C364.815 87.3603 363.027 86.6449 361.239 86.6449C359.629 86.6449 356.768 87.3603 356.589 89.3274C356.589 89.8639 356.589 90.2216 356.768 90.7581C355.874 92.3676 355.695 94.3348 356.41 96.1231C357.841 100.057 362.49 101.13 365.888 98.6268C368.928 95.9443 369.465 91.1158 366.246 88.4333ZM363.563 95.0501C360.523 98.0903 358.377 92.5464 361.239 90.9369C361.418 90.7581 361.596 90.7581 361.775 90.5793C362.312 90.5793 362.848 90.7581 363.206 90.9369C364.815 91.8311 364.815 93.7983 363.563 95.0501Z" fill="#FEDA56"/>
<path d="M281.478 115.974C281.299 115.08 280.405 114.364 279.511 114.007C279.153 113.828 278.796 113.828 278.617 113.828C278.259 113.828 277.901 113.828 277.723 114.007C277.544 114.007 277.544 114.185 277.365 114.185C277.365 114.185 277.365 114.185 277.186 114.185C276.65 114.364 276.471 114.722 276.292 115.258C276.113 115.437 276.113 115.616 276.113 115.795C276.292 115.437 275.934 116.331 275.934 116.331C275.755 117.583 276.113 118.656 276.828 119.55C277.365 120.087 278.259 120.087 278.974 119.908C280.584 119.193 282.015 117.762 281.478 115.974Z" fill="#FEDA56"/>
<path d="M374.83 9.74639C374.651 9.56755 374.651 9.20989 374.293 9.03105C373.936 8.85222 373.578 8.67339 373.22 8.67339C372.863 8.67339 372.505 8.85222 372.326 8.85222C371.968 9.03105 371.79 9.38872 371.611 9.74639C371.611 9.74639 371.611 9.74639 371.611 9.56755C371.253 10.2829 371.074 11.1771 371.074 11.8924C371.074 12.4289 371.253 12.9654 371.79 13.5019C372.147 13.8596 372.863 14.2172 373.399 14.2172C373.936 14.2172 374.472 14.0384 375.009 13.5019C375.187 13.3231 375.187 13.1442 375.366 13.1442C375.545 12.7866 375.724 12.4289 375.724 12.0712C375.545 11.3559 375.187 10.4617 374.83 9.74639Z" fill="#FEDA56"/>
<path d="M408.629 7.95799C407.378 5.63315 404.695 4.73899 402.191 5.09665C401.118 5.27549 399.33 5.45432 398.615 6.16965C398.436 6.34849 398.436 6.34849 398.257 6.52732C396.29 7.95799 395.396 11.177 396.29 13.323C398.078 17.7938 404.337 17.615 407.377 14.5748C408.808 12.9653 409.881 10.2828 408.629 7.95799ZM400.045 12.4288C399.151 11.3558 399.509 10.104 400.403 9.20983C400.939 9.20983 401.655 8.85216 402.191 8.85216C403.264 8.67333 405.41 8.67333 405.589 10.2828C405.41 12.6077 401.297 14.0383 400.045 12.4288Z" fill="#FEDA56"/>
<path d="M160.766 20.1188C160.408 16.5421 160.408 12.7866 159.514 9.3888C159.156 8.13696 157.01 7.95813 156.831 9.3888C156.295 12.9655 156.652 16.5421 156.652 20.1188C156.652 22.6225 155.937 26.9145 158.62 28.3452C158.977 28.524 159.514 28.524 159.693 28.3452C162.196 26.5568 160.944 22.8013 160.766 20.1188Z" fill="#FEDA56"/>
<path d="M168.098 17.9727C163.806 15.6479 156.832 17.6151 152.718 19.4034C151.109 20.1187 152.182 22.8013 153.97 22.2648C156.295 21.5494 158.799 21.1917 161.302 21.0129C163.448 20.8341 165.594 21.3706 167.74 21.0129C168.992 20.8341 169.35 18.6881 168.098 17.9727Z" fill="#FEDA56"/>
<path d="M21.9909 151.025C20.5602 152.098 18.593 152.277 17.1624 151.562C15.7317 150.846 15.0164 149.773 14.8375 148.343C15.374 146.018 15.374 143.693 14.6587 141.368C14.4799 139.937 13.7645 138.507 12.3339 137.791C11.2609 137.076 9.47253 138.149 10.009 139.58C10.5455 140.831 11.082 142.083 11.082 143.514C11.082 144.945 10.9032 146.375 11.082 147.806C11.082 147.985 11.082 148.343 11.082 148.521C10.9032 149.058 10.5455 149.773 10.1879 150.31C9.8302 150.846 9.47253 151.383 9.11486 151.74C8.75719 151.74 8.39953 151.74 8.04186 151.919C5.53819 152.456 3.92869 154.602 1.42501 155.138C-0.72099 155.675 -0.363322 159.251 1.96152 159.073C4.82285 158.894 7.50536 157.642 9.65136 156.032C10.1879 156.211 10.9032 156.569 11.2609 157.463C12.155 159.073 12.5127 160.861 12.8704 162.649C13.4069 165.332 13.9434 168.014 14.4799 170.518C14.8375 172.664 18.593 172.306 18.4142 169.981C18.0565 167.299 17.8777 164.795 17.52 162.113C17.3412 161.219 16.8047 159.073 17.52 158.178C17.8777 157.642 18.7719 157.463 19.3084 157.463C21.8121 156.748 24.6734 156.211 25.2099 153.35C25.5676 151.025 23.4216 149.773 21.9909 151.025ZM14.301 154.423C14.4799 154.602 14.8375 154.781 15.0164 154.959C14.8375 154.959 14.8375 155.138 14.6587 155.138C14.4799 154.781 14.4799 154.602 14.301 154.423Z" fill="#FEDA56"/>
<path d="M51.1406 168.372C49.7099 166.047 46.8486 164.795 44.5237 165.689C44.3449 165.689 44.3449 165.689 44.1661 165.689C41.3047 166.762 39.8741 169.981 40.9471 172.843C42.0201 175.883 45.4179 176.956 48.2793 175.704C51.1406 174.631 52.7501 171.233 51.1406 168.372ZM46.6698 172.485C45.5968 172.843 44.7026 172.485 44.3449 171.412C44.1661 170.876 44.1661 170.339 44.3449 169.803C44.5237 169.803 44.7026 169.803 44.8814 169.624C45.9544 169.087 47.2063 169.087 47.9216 170.339C48.2793 171.233 47.5639 172.127 46.6698 172.485Z" fill="#FEDA56"/>
<path d="M132.868 215.584C131.974 215.405 131.258 215.942 130.901 216.836C130.901 216.836 130.901 217.015 130.722 217.015C130.543 217.193 130.543 217.372 130.364 217.551C130.364 217.551 130.185 217.73 130.185 217.909C130.007 218.088 130.007 218.088 129.828 218.266C128.576 219.518 129.828 221.485 131.437 221.128C133.226 220.77 134.299 218.982 134.299 217.193C134.477 216.478 133.762 215.763 132.868 215.584Z" fill="#FEDA56"/>
<path d="M98.8892 291.409C98.1739 290.694 96.922 290.515 96.0279 291.052C95.1337 291.588 94.776 292.661 94.9549 293.734C95.1337 294.628 95.849 295.344 96.7432 295.523C97.1009 295.523 97.4585 295.523 97.8162 295.523C98.7104 295.344 99.4257 294.807 99.6045 293.913C99.9622 292.84 99.6045 291.946 98.8892 291.409Z" fill="#FEDA56"/>
<path d="M15.9106 318.056C15.553 315.731 15.3741 313.585 15.0165 311.26C14.6588 307.147 14.6588 302.855 14.1223 298.563C13.9435 296.953 11.4398 296.238 11.0821 298.205C10.3668 302.676 10.5456 307.326 10.9033 311.796C11.0821 313.942 11.261 316.088 11.6186 318.056C11.9763 320.202 11.9763 322.169 13.407 323.778C14.3011 324.672 15.553 324.136 15.9106 323.063C16.626 321.453 16.0895 319.844 15.9106 318.056Z" fill="#FEDA56"/>
<path d="M17.5196 308.578C13.943 309.114 9.82979 309.651 6.43195 311.26C5.18012 311.797 5.89545 313.406 7.14729 313.585C10.724 313.943 14.6583 313.227 18.0561 312.333C20.2021 311.975 19.6656 308.22 17.5196 308.578Z" fill="#FEDA56"/>
<path d="M128.039 390.841C127.682 389.41 126.609 388.159 125.357 387.443C124.105 386.549 122.853 386.549 121.423 386.907C120.886 386.549 119.992 386.549 119.455 386.907C116.773 388.159 116.057 391.735 116.952 394.239C118.025 397.1 121.065 398.531 123.926 397.637C126.788 396.743 128.934 393.881 128.039 390.841ZM122.674 393.702C121.78 393.881 120.886 393.524 120.707 392.629C120.35 391.378 121.065 390.662 121.959 389.947C122.138 389.768 122.138 389.768 122.317 389.589C123.926 390.305 125.357 393.166 122.674 393.702Z" fill="#FEDA56"/>
<path d="M121.78 427.681C121.601 426.071 119.991 425.356 118.561 425.535C118.024 425.714 117.488 425.892 117.13 426.25C116.772 426.608 116.594 426.965 116.594 427.323C116.057 428.217 116.772 429.469 117.488 430.006C118.203 430.363 118.74 430.542 119.455 430.363C121.064 430.184 121.959 429.111 121.78 427.681Z" fill="#FEDA56"/>
<path d="M261.628 381.899C261.449 381.184 260.913 380.648 260.198 380.469C259.661 379.753 258.588 379.575 257.873 380.29C256.8 381.363 256.263 382.972 256.263 384.582C256.263 386.013 257.515 386.728 258.767 386.549C260.913 386.013 261.986 383.867 261.628 381.899Z" fill="#FEDA56"/>
<path d="M232.836 222.022C230.69 221.843 228.365 222.737 226.934 224.526C225.682 226.135 224.609 228.639 225.682 230.427C225.861 230.606 226.04 230.964 226.398 230.964C226.755 232.037 227.471 233.11 228.365 233.825C231.584 236.508 236.77 234.898 238.379 231.143C239.989 227.387 236.949 222.559 232.836 222.022ZM234.982 229.712C234.445 231.321 231.941 232.216 230.511 231.143C229.617 230.427 229.259 228.818 229.438 227.387C229.795 226.672 230.511 225.956 231.584 225.778C233.73 225.599 235.697 227.745 234.982 229.712Z" fill="#FEDA56"/>
<path d="M175.073 101.13C174.894 100.415 174.178 99.8786 173.463 99.8786C171.675 99.8786 169.886 99.8786 168.098 99.6998C166.667 99.6998 166.131 101.13 166.489 102.203C165.416 102.919 164.7 104.349 164.7 105.78C164.7 107.926 166.131 109.714 168.277 110.251C170.423 110.787 172.748 110.072 174.178 108.284C175.609 106.138 175.967 103.455 175.073 101.13ZM169.35 106.853C167.74 106.853 167.383 104.707 168.813 103.992C169.171 103.813 169.35 103.455 169.529 103.276C170.423 103.276 171.138 103.276 172.032 103.276C172.211 105.065 171.496 106.853 169.35 106.853Z" fill="#FEDA56"/>
</svg>
