<svg width="798" height="748" viewBox="0 0 798 748" fill="none" xmlns="http://www.w3.org/2000/svg">
<path id="logo" fill-rule="evenodd" clip-rule="evenodd" d="M580.5 0C677.702 0 756.5 78.7979 756.5 176C756.5 273.202 677.702 352 580.5 352H599.5C708.852 352 797.5 440.648 797.5 550C797.5 659.352 708.852 748 599.5 748H371.5C305.725 748 247.44 715.927 211.433 666.567L195 683C214.6 711 257.167 737.667 276 747.5H0C0.400024 641.5 67.8333 568 101.5 544.5C49.5 477.3 46.1667 391.5 51 357H194.5L251.23 392.701L251.251 392.684L500.5 536.588L509.5 521L268.688 381.967L268.427 382.038L170.744 323.93L170.809 323.738C122.473 292.366 90.5 237.917 90.5 176C90.5 78.7979 169.298 0 266.5 0H580.5ZM291.023 183.466C286.39 182.086 281.402 184.196 279.24 188.52C276.512 193.977 279.384 200.539 285.279 202.11C311.161 209.012 376.223 225 423.5 225C470.777 225 535.839 209.012 561.721 202.11C567.616 200.539 570.488 193.977 567.76 188.52C565.598 184.196 560.61 182.086 555.977 183.466C534.196 189.953 472.317 207 423.5 207C374.683 207 312.804 189.953 291.023 183.466Z" fill="#2D313D"/>
</svg>
