<svg width="60" height="60" viewBox="0 0 60 60" fill="none" xmlns="http://www.w3.org/2000/svg">
<rect x="1" y="1" width="58" height="58" rx="14" fill="#0769AD"/>
<mask id="mask0_1558_87" style="mask-type:alpha" maskUnits="userSpaceOnUse" x="0" y="0" width="60" height="60">
<rect width="60" height="60" rx="14" fill="#D9D9D9"/>
</mask>
<g mask="url(#mask0_1558_87)">
<path d="M45.9375 0H14.0625C6.296 0 0 6.296 0 14.0625V45.9375C0 53.704 6.296 60 14.0625 60H45.9375C53.704 60 60 53.704 60 45.9375V14.0625C60 6.296 53.704 0 45.9375 0Z" fill="#001E36"/>
<path d="M13.5 41.7281V16.0031C13.5 15.8281 13.575 15.7282 13.7501 15.7282C14.175 15.7282 14.5751 15.7282 15.15 15.7031C15.75 15.6781 16.3751 15.6781 17.0501 15.6532C17.7251 15.6281 18.45 15.6281 19.2251 15.6031C19.9999 15.5782 20.7499 15.5782 21.4999 15.5782C23.55 15.5782 25.2499 15.8281 26.6501 16.3531C27.9051 16.7793 29.0494 17.4796 30 18.4031C30.8056 19.2114 31.428 20.1833 31.8251 21.2531C32.2001 22.3031 32.4 23.3782 32.4 24.5032C32.4 26.6531 31.9001 28.4281 30.9 29.8282C29.8999 31.2281 28.5 32.2781 26.8751 32.8781C25.1749 33.5032 23.2999 33.7282 21.2501 33.7282C20.6501 33.7282 20.25 33.7282 19.9999 33.7031C19.7501 33.6781 19.3999 33.6781 18.9251 33.6781V41.7031C18.9499 41.8781 18.825 42.0281 18.6499 42.0532H13.8C13.6001 42.0532 13.5 41.9531 13.5 41.7281ZM18.9499 20.5531V28.9531C19.3001 28.9781 19.6249 29.0032 19.9249 29.0032H21.2501C22.2251 29.0032 23.2001 28.8532 24.1249 28.5532C24.9251 28.3282 25.6249 27.8531 26.175 27.2281C26.7 26.6032 26.9501 25.7531 26.9501 24.6532C26.9735 23.8719 26.7741 23.1001 26.3749 22.4281C25.95 21.7781 25.35 21.2782 24.6251 21.0031C23.7 20.6281 22.6999 20.4781 21.675 20.5031C21.0251 20.5031 20.4499 20.5031 19.9751 20.5282C19.4749 20.5031 19.125 20.5282 18.9499 20.5531ZM48 27.4282C47.25 27.0281 46.4501 26.7532 45.6 26.5781C44.6749 26.3782 43.7501 26.2531 42.7999 26.2531C42.3 26.2282 41.775 26.3032 41.2999 26.4281C40.9751 26.5031 40.6999 26.6782 40.5251 26.9281C40.3999 27.1282 40.3249 27.3781 40.3249 27.6031C40.3249 27.8281 40.425 28.0531 40.575 28.2532C40.8 28.5281 41.1 28.7531 41.4251 28.9282C42.0047 29.2284 42.5969 29.5037 43.2 29.7532C44.55 30.2032 45.8501 30.8281 47.0501 31.5781C47.8751 32.1031 48.5501 32.8031 49.0249 33.6532C49.425 34.4531 49.6249 35.3281 49.6001 36.2281C49.6249 37.4032 49.275 38.5781 48.6251 39.5531C47.9277 40.5511 46.9547 41.3242 45.825 41.7781C44.5999 42.3031 43.0999 42.5782 41.2999 42.5782C40.1501 42.5782 39.0251 42.4781 37.9001 42.2531C37.0183 42.1008 36.1608 41.8318 35.3501 41.4532C35.175 41.3531 35.0501 41.1781 35.0749 40.9781V36.6281C35.0749 36.5531 35.1 36.4531 35.175 36.4031C35.25 36.3532 35.325 36.3781 35.4 36.4282C36.375 37.0031 37.3999 37.4032 38.5001 37.6531C39.45 37.9031 40.4501 38.0281 41.4499 38.0281C42.4001 38.0281 43.0751 37.9031 43.5251 37.6781C43.9249 37.5031 44.2001 37.0781 44.2001 36.6281C44.2001 36.2782 43.9999 35.9531 43.6001 35.6281C43.2 35.3032 42.375 34.9282 41.1499 34.4531C39.8933 34.0103 38.6999 33.4052 37.6001 32.6531C36.8167 32.0948 36.1676 31.3688 35.7 30.5281C35.2999 29.7281 35.1 28.8532 35.1251 27.9781C35.1251 26.9032 35.4251 25.8781 35.9749 24.9532C36.6 23.9531 37.5251 23.1532 38.5999 22.6531C39.7751 22.0531 41.25 21.7781 43.0249 21.7781C44.0501 21.7781 45.1001 21.8531 46.125 22.0031C46.875 22.1032 47.5999 22.3031 48.2749 22.5781C48.375 22.6031 48.4751 22.7032 48.525 22.8031C48.5501 22.9031 48.5749 23.0032 48.5749 23.1031V27.1781C48.5749 27.2782 48.525 27.3781 48.45 27.4282C48.225 27.4781 48.1001 27.4781 48 27.4282Z" fill="#31A8FF"/>
</g>
</svg>
