<svg width="60" height="60" viewBox="0 0 60 60" fill="none" xmlns="http://www.w3.org/2000/svg">
<rect x="1" y="1" width="58" height="58" rx="14" fill="#0769AD"/>
<mask id="mask0_1558_102" style="mask-type:alpha" maskUnits="userSpaceOnUse" x="0" y="0" width="60" height="60">
<rect width="60" height="60" rx="14" fill="#D9D9D9"/>
</mask>
<g mask="url(#mask0_1558_102)">
<path d="M46.4688 -1H13.5312C5.50586 -1 -1 5.50586 -1 13.5312V46.4688C-1 54.4941 5.50586 61 13.5312 61H46.4688C54.4941 61 61 54.4941 61 46.4688V13.5312C61 5.50586 54.4941 -1 46.4688 -1Z" fill="#E14E1D"/>
<path d="M10.625 8.20312L12.7102 31.5967H39.5228L38.6231 41.6306L29.9901 43.9648L21.3733 41.634L20.7971 35.1913H13.0323L14.1428 47.6109L29.9884 52.0119L45.8541 47.6109L47.9812 23.8618H19.7855L19.0776 15.9398H48.6821L49.375 8.20312H10.625Z" fill="white"/>
<path d="M30 8.20312H10.625L12.7102 31.5967H30V23.8618H19.7855L19.0776 15.9398H30V8.20312ZM30 43.9614L29.9901 43.9648L21.3733 41.634L20.7971 35.1913H13.0323L14.1428 47.6109L29.9884 52.0119L30.0002 52.0085V43.9614H30Z" fill="#EBEBEB"/>
</g>
</svg>
