<svg width="60" height="60" viewBox="0 0 60 60" fill="none" xmlns="http://www.w3.org/2000/svg">
<rect width="60" height="60" rx="14" fill="#1E1E1E"/>
<mask id="mask0_1558_121" style="mask-type:alpha" maskUnits="userSpaceOnUse" x="0" y="0" width="60" height="60">
<rect width="60" height="60" rx="14" fill="#D9D9D9"/>
</mask>
<g mask="url(#mask0_1558_121)">
<path d="M22 54C26.4279 54 30 50.4279 30 46V38H22C17.5721 38 14 41.5721 14 46C14 50.4279 17.5721 54 22 54Z" fill="#0ACF83"/>
<path d="M14 29.9999C14 25.572 17.5721 21.9999 22 21.9999H30V37.9999H22C17.5721 37.9999 14 34.4278 14 29.9999Z" fill="#A259FF"/>
<path d="M14 14C14 9.57209 17.5721 6 22 6H30V22H22C17.5721 22 14 18.4279 14 14Z" fill="#F24E1E"/>
<path d="M30.001 6H38.001C42.4289 6 46.001 9.57209 46.001 14C46.001 18.4279 42.4289 22 38.001 22H30.001V6Z" fill="#FF7262"/>
<path d="M46.001 29.9999C46.001 34.4278 42.4289 37.9999 38.001 37.9999C33.5731 37.9999 30.001 34.4278 30.001 29.9999C30.001 25.572 33.5731 21.9999 38.001 21.9999C42.4289 21.9999 46.001 25.572 46.001 29.9999Z" fill="#1ABCFE"/>
</g>
</svg>
