<svg width="60" height="60" viewBox="0 0 60 60" fill="none" xmlns="http://www.w3.org/2000/svg">
<rect x="1" y="1" width="58" height="58" rx="14" fill="#0769AD"/>
<mask id="mask0_1558_60" style="mask-type:alpha" maskUnits="userSpaceOnUse" x="0" y="0" width="60" height="60">
<rect width="60" height="60" rx="14" fill="#D9D9D9"/>
</mask>
<g mask="url(#mask0_1558_60)">
<path d="M10.7942 18.9549C6.89864 24.5536 7.38359 31.8385 10.3594 37.788C10.43 37.9307 10.5042 38.0709 10.5773 38.2112L10.7165 38.4792L10.8034 38.6336L10.9584 38.9112C11.051 39.074 11.1456 39.2362 11.2424 39.3983L11.4045 39.6653C11.5119 39.8387 11.6218 40.0101 11.7341 40.181L11.8747 40.3979C12.0297 40.6292 12.1883 40.8602 12.3522 41.087L12.366 41.1047L12.4465 41.2134C12.5881 41.4088 12.734 41.6016 12.8817 41.7924L13.0455 42.0007C13.1773 42.1664 13.3112 42.331 13.4475 42.4949L13.6011 42.6786C13.7845 42.8949 13.9712 43.1082 14.1613 43.3186L14.173 43.3302L14.1945 43.3542C14.3814 43.557 14.5712 43.7571 14.7639 43.9543L14.9465 44.1384C15.0959 44.2888 15.2478 44.4368 15.4011 44.5841L15.5872 44.7607C15.7921 44.9539 15.9991 45.1433 16.2103 45.3283L16.2202 45.3361L16.3286 45.4286C16.5148 45.5897 16.7041 45.7497 16.8948 45.9065L17.1294 46.0934C17.2851 46.2184 17.4427 46.3413 17.6012 46.4621L17.8534 46.6539C18.0286 46.7829 18.2049 46.9097 18.3829 47.0336L18.5758 47.1703L18.6287 47.2081C18.7976 47.3243 18.9703 47.4363 19.143 47.5483L19.3655 47.6966C19.6304 47.864 19.8989 48.0297 20.1705 48.1897L20.393 48.3151C20.5926 48.4302 20.7936 48.5433 20.997 48.6538C21.1072 48.7131 21.2202 48.7693 21.3311 48.8262C21.4749 48.9014 21.6176 48.9777 21.7638 49.0508L21.8638 49.0992L22.0407 49.1847C22.2671 49.2928 22.4953 49.3991 22.726 49.5015L22.8708 49.5665C23.1352 49.6822 23.4017 49.793 23.6701 49.8989L23.8647 49.9755C24.1134 50.0712 24.3656 50.1659 24.6188 50.2549L24.7135 50.2878C24.9915 50.3849 25.2719 50.475 25.5545 50.5629L25.7576 50.6237C26.0451 50.7102 26.3294 50.8137 26.6258 50.8684C45.4656 54.3041 50.9382 39.547 50.9382 39.547C46.3419 45.535 38.1835 47.1145 30.4535 45.3559C30.1607 45.2898 29.8767 45.1984 29.591 45.1139L29.3758 45.0486C29.0974 44.9633 28.8205 44.8732 28.5451 44.7784L28.431 44.7371C28.1855 44.6503 27.9412 44.5597 27.6985 44.4654L27.4929 44.3846C27.2273 44.2797 26.9631 44.1702 26.7021 44.0557L26.5442 43.9858C26.3206 43.8848 26.0982 43.7813 25.877 43.6753L25.6841 43.5828C25.5107 43.4984 25.339 43.4086 25.1681 43.3203C25.0536 43.2599 24.9371 43.2031 24.8237 43.1402C24.6156 43.0281 24.4094 42.9125 24.2052 42.7933L23.9965 42.6768C23.7253 42.5167 23.4569 42.3522 23.1911 42.1834L22.9739 42.0385C22.7808 41.9147 22.5896 41.7876 22.4007 41.6574L22.2163 41.5278C22.0343 41.3991 21.8537 41.2686 21.6745 41.1361L21.4346 40.9545C21.27 40.8294 21.107 40.702 20.9458 40.5724L20.7279 40.3975C20.5226 40.2292 20.3196 40.0581 20.1189 39.8843L20.0522 39.8282C19.836 39.6374 19.6226 39.4434 19.4122 39.2464L19.2317 39.073C19.0759 38.9246 18.9226 38.7752 18.7718 38.6219L18.5916 38.4422C18.4002 38.2463 18.2121 38.0473 18.0272 37.8452L17.9993 37.8156C17.8045 37.602 17.6136 37.3848 17.4268 37.1642L17.277 36.9862C17.1374 36.8183 17 36.6485 16.8648 36.4769L16.714 36.289C16.5524 36.0801 16.3938 35.8688 16.2382 35.6553C11.9467 29.8012 10.4046 21.7276 13.8346 15.0971M22.887 14.2374C20.0695 18.2915 20.2228 23.719 22.4204 28.0066C22.7882 28.7273 23.2046 29.4223 23.6666 30.0866C24.0887 30.6917 24.5567 31.4115 25.1168 31.8975C25.3217 32.1219 25.5325 32.3407 25.7491 32.5538L25.9158 32.718C26.1262 32.9231 26.3415 33.1231 26.5615 33.3178L26.5876 33.3404L26.594 33.3468C26.8401 33.5611 27.0915 33.7692 27.3481 33.9709L27.5194 34.1044C27.7773 34.3031 28.0403 34.4952 28.3081 34.6805L28.3311 34.6978C28.4497 34.7797 28.5705 34.856 28.691 34.9351L28.8616 35.0478C29.0537 35.1711 29.2483 35.2912 29.4461 35.4063L29.5291 35.4544C29.6997 35.5525 29.8725 35.6493 30.0459 35.7433L30.2299 35.839C30.3496 35.9015 30.4694 35.9655 30.5912 36.0262L30.646 36.0509C30.8943 36.1731 31.1447 36.2911 31.4004 36.4024L31.5672 36.4709C31.7717 36.5578 31.9783 36.6426 32.1853 36.7217L32.4502 36.8188C32.6384 36.8887 32.8274 36.9523 33.0178 37.0163L33.2746 37.0985C33.5455 37.1826 33.8132 37.2889 34.0954 37.3359C48.6417 39.7459 52 28.5459 52 28.5459C48.973 32.9056 43.1104 34.986 36.8547 33.3619C36.5782 33.2892 36.3034 33.2098 36.0307 33.1239L35.7831 33.0437C35.5898 32.9812 35.3977 32.915 35.207 32.8452L34.947 32.7484C34.7389 32.6685 34.5321 32.5852 34.3268 32.4983L34.1597 32.4277C33.9039 32.3164 33.651 32.1987 33.401 32.0748C33.2728 32.0123 33.1467 31.9463 33.0203 31.8813L32.8006 31.7683C32.6385 31.6804 32.478 31.5898 32.3191 31.4963L32.204 31.4309C32.0072 31.3162 31.8128 31.1975 31.6209 31.0749L31.445 30.9576C31.3182 30.8757 31.1924 30.7925 31.0674 30.7079C30.8007 30.5226 30.5386 30.3308 30.2811 30.1329L30.1042 29.9934C27.3661 27.8317 25.1953 24.8768 24.1635 21.5266C23.082 18.0524 23.3151 14.1523 25.1889 10.9868M33.0577 10.7131C31.3969 13.1573 31.2337 16.1928 32.3863 18.892C33.6017 21.7576 36.0918 24.0051 38.9983 25.0714C39.1181 25.1156 39.2382 25.1551 39.3593 25.1964L39.5186 25.2469C39.6899 25.3006 39.8598 25.3632 40.0368 25.3967C48.0688 26.9487 50.2474 21.2751 50.827 20.4398C48.9189 23.1874 45.7118 23.8468 41.7767 22.8917C41.4659 22.8165 41.1243 22.7042 40.8248 22.5979C40.44 22.4612 40.0626 22.3045 39.6942 22.1285C38.9951 21.7919 38.3311 21.3868 37.712 20.9191C34.1908 18.247 32.0034 13.1506 34.301 9" fill="white"/>
</g>
</svg>
