<svg width="60" height="60" viewBox="0 0 60 60" fill="none" xmlns="http://www.w3.org/2000/svg">
<rect x="1" y="1" width="58" height="58" rx="14" fill="#0769AD"/>
<mask id="mask0_1558_74" style="mask-type:alpha" maskUnits="userSpaceOnUse" x="0" y="0" width="60" height="60">
<rect width="60" height="60" rx="14" fill="#D9D9D9"/>
</mask>
<g mask="url(#mask0_1558_74)">
<path d="M45.9375 0H14.0625C6.296 0 0 6.296 0 14.0625V45.9375C0 53.704 6.296 60 14.0625 60H45.9375C53.704 60 60 53.704 60 45.9375V14.0625C60 6.296 53.704 0 45.9375 0Z" fill="#330000"/>
<path d="M28.9999 35.7031H19.6999L17.7998 41.5781C17.7499 41.8031 17.55 41.9531 17.325 41.9281H12.6248C12.3499 41.9281 12.2749 41.7781 12.3499 41.4781L20.4 18.3031C20.475 18.0532 20.55 17.7781 20.6498 17.4781C20.7499 16.9531 20.7998 16.4032 20.7998 15.8531C20.775 15.7282 20.8748 15.6031 21 15.5782H27.4748C27.675 15.5782 27.7748 15.6532 27.7999 15.7781L36.9248 41.5282C36.9998 41.8031 36.9248 41.9281 36.675 41.9281H31.4498C31.275 41.9531 31.0999 41.8282 31.05 41.6531L28.9999 35.7031ZM21.15 30.6281H27.4999C27.3499 30.1031 27.15 29.4781 26.925 28.8281C26.7 28.1531 26.475 27.4282 26.25 26.6782C25.9999 25.9031 25.7749 25.1531 25.5248 24.3781C25.275 23.6032 25.05 22.8781 24.8498 22.1531C24.6499 21.4533 24.4748 20.8031 24.3 20.2031H24.2498C24.0248 21.2782 23.7499 22.3533 23.4 23.4281C23.025 24.6281 22.65 25.8781 22.2499 27.1282C21.927 28.3082 21.5601 29.4756 21.15 30.6281ZM42.4999 19.9531C41.6749 19.9781 40.875 19.6531 40.275 19.0781C39.7001 18.4531 39.4001 17.6281 39.4249 16.7782C39.4001 15.9281 39.7249 15.1282 40.3249 14.5531C40.9249 13.9781 41.7251 13.6781 42.5501 13.6781C43.5251 13.6781 44.2751 13.9781 44.8249 14.5531C45.379 15.1592 45.6749 15.9574 45.6499 16.7782C45.675 17.6281 45.375 18.4531 44.775 19.0781C44.2001 19.6781 43.35 20.0032 42.4999 19.9531ZM39.7001 41.6531V22.4032C39.7001 22.1531 39.7999 22.0531 40.0249 22.0531H44.9749C45.1999 22.0531 45.3 22.1782 45.3 22.4032V41.6531C45.3 41.9281 45.1999 42.0532 44.9749 42.0532H40.0751C39.825 42.0532 39.7001 41.9032 39.7001 41.6531Z" fill="#FF9A00"/>
</g>
</svg>
