<svg width="61" height="61" viewBox="0 0 61 61" fill="none" xmlns="http://www.w3.org/2000/svg">
<rect x="1" y="1" width="60" height="60" rx="14" fill="#6DAFE0"/>
<mask id="mask0_1558_54" style="mask-type:alpha" maskUnits="userSpaceOnUse" x="0" y="0" width="60" height="60">
<rect width="60" height="60" rx="14" fill="#D9D9D9"/>
</mask>
<g mask="url(#mask0_1558_54)">
<path d="M44.8212 23.2652C44.3316 23.0973 43.8379 22.9417 43.3405 22.7986C43.4241 22.4572 43.501 22.1199 43.5693 21.7885C44.6902 16.3474 43.9574 11.964 41.4545 10.5207C39.0548 9.13711 35.1303 10.5798 31.1667 14.0293C30.7761 14.3698 30.3941 14.7202 30.0212 15.0801C29.7716 14.8408 29.5175 14.6061 29.2591 14.3763C25.1051 10.688 20.9414 9.13352 18.4412 10.5809C16.0437 11.9688 15.3337 16.0896 16.3429 21.2462C16.4432 21.757 16.5566 22.265 16.6828 22.77C16.0934 22.9375 15.5247 23.1157 14.9805 23.3055C10.1102 25.0035 7 27.6645 7 30.4247C7 33.2754 10.339 36.1348 15.4115 37.8686C15.8228 38.0086 16.2374 38.1383 16.6551 38.2576C16.5195 38.8015 16.3991 39.349 16.294 39.8996C15.3319 44.9668 16.0832 48.9902 18.4743 50.3693C20.9439 51.7935 25.089 50.3297 29.1249 46.8016C29.4522 46.5147 29.7723 46.2198 30.0848 45.917C30.4887 46.3066 30.9033 46.685 31.3282 47.0515C35.2379 50.4156 39.099 51.7741 41.4878 50.3912C43.9551 48.9629 44.757 44.6407 43.7159 39.3821C43.6339 38.9701 43.5419 38.5602 43.4401 38.1527C43.7312 38.0664 44.0169 37.9777 44.2954 37.8853C49.5689 36.1382 53 33.3135 53 30.4247C53 27.6544 49.7893 24.9755 44.8212 23.2652ZM43.6775 36.0202C43.4259 36.1034 43.1679 36.1837 42.9048 36.2618C42.3226 34.4188 41.537 32.4591 40.5755 30.4342C41.493 28.4576 42.2484 26.523 42.8142 24.6919C43.2848 24.8281 43.7414 24.9717 44.1817 25.1232C48.4385 26.5887 51.0349 28.7552 51.0349 30.4247C51.0349 32.2029 48.2307 34.5113 43.6775 36.0202ZM41.7882 39.7638C42.2486 42.0889 42.3142 44.1913 42.0092 45.8349C41.7354 47.3117 41.1845 48.2962 40.5031 48.6906C39.0536 49.5298 35.9534 48.4391 32.61 45.5619C32.2147 45.2211 31.829 44.8694 31.4533 44.5072C32.7496 43.0896 34.0449 41.4417 35.3092 39.6114C37.533 39.4141 39.6339 39.0914 41.5392 38.651C41.631 39.0199 41.714 39.3909 41.7882 39.7638ZM22.6824 48.5456C21.2661 49.0457 20.138 49.0601 19.4561 48.6669C18.0051 47.8301 17.4019 44.5995 18.2247 40.2662C18.3225 39.7541 18.4345 39.2449 18.5606 38.739C20.4448 39.1559 22.5304 39.4556 24.7594 39.6364C26.0323 41.4273 27.3651 43.0734 28.7082 44.5149C28.4228 44.7911 28.1306 45.0602 27.8319 45.322C26.0471 46.8821 24.2586 47.989 22.6824 48.5456ZM16.0473 36.0092C13.8042 35.2425 11.9518 34.2461 10.6822 33.1588C9.54114 32.1819 8.96524 31.2117 8.96524 30.4247C8.96524 28.7496 11.4624 26.6132 15.6273 25.1611C16.1328 24.985 16.6618 24.8188 17.2107 24.6628C17.7865 26.5352 18.5415 28.4929 19.4527 30.4725C18.5296 32.4814 17.7638 34.4704 17.1825 36.3648C16.8013 36.2556 16.4227 36.137 16.0473 36.0092ZM18.2714 20.8687C17.407 16.4507 17.9811 13.1181 19.4259 12.2816C20.9648 11.3907 24.3677 12.661 27.9544 15.8457C28.1883 16.0539 28.4184 16.2663 28.6446 16.4827C27.3081 17.9179 25.9876 19.5518 24.726 21.3321C22.5626 21.5327 20.4917 21.8547 18.5877 22.2861C18.4704 21.8164 18.3649 21.3437 18.2714 20.8687ZM38.1138 25.7684C37.6641 24.9916 37.1977 24.2246 36.7149 23.4679C38.1826 23.6535 39.5888 23.8999 40.9094 24.201C40.513 25.4718 40.0188 26.8002 39.4372 28.1622C39.012 27.3556 38.5708 26.5575 38.1138 25.7684ZM30.0221 17.8872C30.9284 18.8692 31.8362 19.9654 32.7291 21.155C30.9178 21.0694 29.1036 21.0691 27.2923 21.1539C28.1861 19.9753 29.1016 18.8805 30.0221 17.8872ZM21.8785 25.7819C21.4272 26.5646 20.9942 27.3577 20.5799 28.1606C20.0078 26.8034 19.5181 25.4689 19.1183 24.1802C20.4307 23.8866 21.8303 23.6465 23.2887 23.4643C22.8005 24.2256 22.3303 24.9985 21.8785 25.7819ZM23.3305 37.5249C21.8239 37.3567 20.4033 37.129 19.0912 36.8433C19.4973 35.5316 19.9977 34.1687 20.5822 32.7824C20.9982 33.5859 21.433 34.3795 21.8862 35.1625C22.3523 35.9675 22.835 36.756 23.3305 37.5249ZM30.0764 43.1006C29.1449 42.0957 28.2159 40.984 27.3086 39.7884C28.1895 39.8229 29.0874 39.8405 30 39.8405C30.9376 39.8405 31.8644 39.8195 32.7767 39.7789C31.881 40.9961 30.9766 42.1094 30.0764 43.1006ZM39.4557 32.7116C40.0706 34.1131 40.5888 35.4689 41.0003 36.7581C39.6666 37.0625 38.2266 37.3076 36.7094 37.4896C37.1955 36.7189 37.6664 35.9385 38.1215 35.149C38.5843 34.3465 39.0291 33.5339 39.4557 32.7116ZM36.4193 34.1672C35.7225 35.3777 34.9866 36.5651 34.2126 37.7277C32.8106 37.827 31.4055 37.8763 30 37.8756C28.5684 37.8756 27.176 37.831 25.8352 37.7441C25.041 36.5842 24.291 35.3946 23.5868 34.178C22.8858 32.9678 22.2313 31.7315 21.6242 30.4716C22.2298 29.2114 22.8825 27.9745 23.581 26.7634L23.5808 26.7636C24.2791 25.5521 25.0231 24.3677 25.8113 23.2127C27.1793 23.1092 28.5821 23.0553 29.9998 23.0553C31.424 23.0553 32.8288 23.1098 34.1964 23.214C34.9766 24.3672 35.7159 25.5476 36.4129 26.753C37.1137 27.9614 37.7751 29.1923 38.3959 30.4437C37.7815 31.708 37.1222 32.9499 36.4193 34.1672ZM40.4731 12.2231C42.0134 13.1114 42.6124 16.6939 41.6446 21.3918C41.5828 21.6915 41.5135 21.9968 41.438 22.3064C39.5294 21.8658 37.457 21.5382 35.2873 21.3347C34.0234 19.5347 32.7136 17.8983 31.3989 16.4817C31.7434 16.1495 32.0962 15.826 32.4569 15.5113C35.853 12.556 39.027 11.3891 40.4731 12.2231ZM30 26.317C32.2686 26.317 34.1077 28.1561 34.1077 30.4247C34.1077 32.6932 32.2686 34.5323 30 34.5323C27.7314 34.5323 25.8923 32.6932 25.8923 30.4247C25.8923 28.1561 27.7314 26.317 30 26.317Z" fill="white"/>
</g>
</svg>
