<svg width="60" height="60" viewBox="0 0 60 60" fill="none" xmlns="http://www.w3.org/2000/svg">
<rect x="1" y="1" width="58" height="58" rx="14" fill="#0769AD"/>
<mask id="mask0_1558_66" style="mask-type:alpha" maskUnits="userSpaceOnUse" x="0" y="0" width="60" height="60">
<rect width="60" height="60" rx="14" fill="#D9D9D9"/>
</mask>
<g mask="url(#mask0_1558_66)">
<path d="M46.4688 -1H13.5312C5.50586 -1 -1 5.50586 -1 13.5312V46.4688C-1 54.4941 5.50586 61 13.5312 61H46.4688C54.4941 61 61 54.4941 61 46.4688V13.5312C61 5.50586 54.4941 -1 46.4688 -1Z" fill="#0277BD"/>
<path d="M12.0183 23.8608L12.7114 31.5967H30.0232V23.8608H12.0183ZM30.023 8.20312H10.625L11.3283 15.9391H30.023V8.20312ZM30.023 52.0006V43.9519L29.9891 43.9609L21.3735 41.6347L20.8228 35.4647H13.057L14.1408 47.6114L29.9874 52.0105L30.023 52.0006Z" fill="#EBEBEB"/>
<path d="M39.5225 31.5967L38.6245 41.6296L29.9966 43.9585V52.0066L45.8557 47.6114L45.972 46.3043L47.7899 25.9383L47.9785 23.8608L49.3752 8.20312H29.9966V15.9391H40.8972L40.1934 23.8608H29.9966V31.5967H39.5225Z" fill="white"/>
</g>
</svg>
