<svg width="100" height="100" viewBox="0 0 100 100" fill="none" xmlns="http://www.w3.org/2000/svg">
<rect width="100" height="100" rx="18" fill="#2D313D"/>
<mask id="mask0_1403_719" style="mask-type:alpha" maskUnits="userSpaceOnUse" x="0" y="0" width="100" height="100">
<rect width="100" height="100" rx="18" fill="#9D9D9D"/>
</mask>
<g mask="url(#mask0_1403_719)">
<mask id="mask1_1403_719" style="mask-type:luminance" maskUnits="userSpaceOnUse" x="8" y="8" width="84" height="84">
<path d="M8 8H92V92H8V8Z" fill="white"/>
</mask>
<g mask="url(#mask1_1403_719)">
<path fill-rule="evenodd" clip-rule="evenodd" d="M50 8C26.795 8 8 26.795 8 50C8 68.585 20.0225 84.2825 36.7175 89.8475C38.8175 90.215 39.605 88.955 39.605 87.8525C39.605 86.855 39.5525 83.5475 39.5525 80.03C29 81.9725 26.27 77.4575 25.43 75.095C24.9575 73.8875 22.91 70.16 21.125 69.1625C19.655 68.375 17.555 66.4325 21.0725 66.38C24.38 66.3275 26.7425 69.425 27.53 70.685C31.31 77.0375 37.3475 75.2525 39.7625 74.15C40.13 71.42 41.2325 69.5825 42.44 68.5325C33.095 67.4825 23.33 63.86 23.33 47.795C23.33 43.2275 24.9575 39.4475 27.635 36.5075C27.215 35.4575 25.745 31.1525 28.055 25.3775C28.055 25.3775 31.5725 24.275 39.605 29.6825C42.965 28.7375 46.535 28.265 50.105 28.265C53.675 28.265 57.245 28.7375 60.605 29.6825C68.6375 24.2225 72.155 25.3775 72.155 25.3775C74.465 31.1525 72.995 35.4575 72.575 36.5075C75.2525 39.4475 76.88 43.175 76.88 47.795C76.88 63.9125 67.0625 67.4825 57.7175 68.5325C59.24 69.845 60.5525 72.365 60.5525 76.3025C60.5525 81.92 60.5 86.435 60.5 87.8525C60.5 88.955 61.2875 90.2675 63.3875 89.8475C71.7251 87.0325 78.9701 81.6739 84.1028 74.5258C89.2355 67.3777 91.9975 58.8 92 50C92 26.795 73.205 8 50 8Z" fill="white"/>
</g>
</g>
</svg>
