<svg width="542" height="587" viewBox="0 0 542 587" fill="none" xmlns="http://www.w3.org/2000/svg">
<path d="M121.548 124.144C136.307 124.144 148.272 112.179 148.272 97.4198C148.272 82.6606 136.307 70.6959 121.548 70.6959C106.789 70.6959 94.8242 82.6606 94.8242 97.4198C94.8242 112.179 106.789 124.144 121.548 124.144Z" fill="#FFC136"/>
<path d="M200.952 110.638L192.436 135.634C190.061 142.591 190.061 150.148 192.436 157.105L200.952 182.101L175.955 173.585C168.998 171.21 161.442 171.21 154.485 173.585L129.488 182.101L137.98 157.129C140.355 150.172 140.355 142.615 137.98 135.658L129.464 110.662L154.461 119.178C161.418 121.553 168.974 121.553 175.931 119.178L200.952 110.638Z" fill="#AC74E2"/>
<path d="M409.034 227.105C409.034 218.949 402.509 212.304 394.376 212.136C399.99 206.282 399.942 196.975 394.16 191.193C388.379 185.412 379.071 185.364 373.218 190.977C373.05 182.845 366.429 176.32 358.249 176.32C350.068 176.32 343.447 182.845 343.279 190.977C337.426 185.364 328.118 185.412 322.337 191.193C316.555 196.975 316.508 206.282 322.121 212.136C313.989 212.304 307.464 218.925 307.464 227.105C307.464 235.261 313.989 241.906 322.121 242.074C316.508 247.928 316.555 257.235 322.337 263.017C328.118 268.798 337.426 268.846 343.279 263.233C343.447 271.365 350.068 277.89 358.249 277.89C366.429 277.89 373.05 271.365 373.218 263.233C379.071 268.846 388.379 268.798 394.16 263.017C399.942 257.235 399.99 247.928 394.376 242.074C402.509 241.906 409.034 235.285 409.034 227.105Z" fill="#F96BA5"/>
<path d="M424.962 102.458C396.679 102.458 373.746 79.5239 373.746 51.2408C373.746 22.9576 396.679 0 424.962 0V102.458Z" fill="#F4BAC9"/>
<path d="M7 262.945C7 234.662 29.9336 211.728 58.2168 211.728C86.4999 211.728 109.434 234.662 109.434 262.945H7Z" fill="#FFC136"/>
<path d="M115.356 257.673C132.004 248.054 153.282 253.763 162.902 270.411C172.522 287.06 166.812 308.338 150.164 317.958L62.2197 368.743C45.5712 378.362 24.2929 372.653 14.6732 356.005C5.05359 339.356 10.763 318.078 27.4114 308.458L115.356 257.673Z" fill="#588ADB"/>
<path d="M471.861 99.8907L476.083 110.902C478.626 116.083 482.824 120.257 488.006 122.824L499.017 127.046C503.551 128.774 503.551 135.179 499.017 136.906L488.006 141.128C482.824 143.671 478.65 147.869 476.083 153.051L471.861 164.062C470.134 168.596 463.729 168.596 462.002 164.062L457.78 153.051C455.237 147.869 451.039 143.695 445.857 141.128L434.846 136.906C430.312 135.179 430.312 128.774 434.846 127.046L445.857 122.824C451.039 120.281 455.213 116.083 457.78 110.902L462.002 99.8907C463.729 95.3567 470.134 95.3567 471.861 99.8907Z" fill="#59D8CB"/>
<path d="M441 509.05L457.96 492.09C471.514 505.644 493.536 505.644 507.09 492.09C520.644 478.536 520.644 456.514 507.09 442.96L524.05 426C535.133 437.083 541.251 451.836 541.251 467.525C541.251 483.214 535.133 497.967 524.05 509.05C512.967 520.133 498.214 526.251 482.525 526.251C466.836 526.251 452.107 520.133 441 509.05Z" fill="#F4BAC9"/>
<path d="M145.86 503.566C137.896 500.303 128.684 502.294 120.408 508.1C118.417 506.156 116.138 504.621 113.547 503.566C105.583 500.303 96.371 502.294 88.0947 508.1C86.1036 506.156 83.8247 504.621 81.2338 503.566C73.2694 500.303 64.0576 502.294 55.7814 508.1C53.7903 506.156 51.5113 504.621 48.9205 503.566C33.6154 497.304 13.7524 510.403 4.5886 532.808C-4.57525 555.214 0.414491 578.46 15.7435 584.721C23.7079 587.983 32.9197 585.992 41.196 580.187C43.1871 582.13 45.4661 583.665 48.0569 584.721C56.0213 587.983 65.2331 585.992 73.5093 580.187C75.5004 582.13 77.7794 583.665 80.3702 584.721C88.3346 587.983 97.5464 585.992 105.823 580.187C107.814 582.13 110.093 583.665 112.684 584.721C127.989 590.982 147.852 577.884 157.015 555.478C166.155 533.048 161.166 509.827 145.86 503.566Z" fill="#5BD690"/>
<path d="M87.7627 198.663C91.5474 194.879 91.5474 188.742 87.7626 184.958C83.9779 181.173 77.8416 181.173 74.0568 184.958C70.272 188.742 70.272 194.879 74.0568 198.663C77.8416 202.448 83.9779 202.448 87.7627 198.663Z" fill="#59D8CB"/>
<path d="M28.4942 80.5315C33.8467 80.5315 38.1858 76.1924 38.1858 70.8399C38.1858 65.4874 33.8467 61.1483 28.4942 61.1483C23.1417 61.1483 18.8026 65.4874 18.8026 70.8399C18.8026 76.1924 23.1417 80.5315 28.4942 80.5315Z" fill="#F96BA5"/>
<path d="M341.692 523.383C347.044 523.383 351.383 519.044 351.383 513.692C351.383 508.339 347.044 504 341.692 504C336.339 504 332 508.339 332 513.692C332 519.044 336.339 523.383 341.692 523.383Z" fill="#AC74E2"/>
<path d="M285.107 134.244C290.052 132.195 292.4 126.526 290.352 121.581C288.303 116.635 282.634 114.287 277.689 116.335C272.743 118.384 270.395 124.053 272.444 128.999C274.492 133.944 280.161 136.292 285.107 134.244Z" fill="#5BD690"/>
<path d="M511.812 43.7004C513.02 38.486 509.773 33.2791 504.559 32.0705C499.344 30.8619 494.137 34.1092 492.929 39.3237C491.72 44.5381 494.967 49.745 500.182 50.9536C505.396 52.1622 510.603 48.9148 511.812 43.7004Z" fill="#AC74E2"/>
<path d="M285.105 374.812C290.05 372.764 292.399 367.095 290.35 362.149C288.302 357.204 282.632 354.856 277.687 356.904C272.742 358.953 270.394 364.622 272.442 369.567C274.491 374.513 280.16 376.861 285.105 374.812Z" fill="#F4BAC9"/>
<path d="M56.5588 488.559C60.3436 484.774 60.3436 478.638 56.5588 474.853C52.774 471.068 46.6377 471.068 42.8529 474.853C39.0682 478.638 39.0682 484.774 42.8529 488.559C46.6377 492.344 52.774 492.343 56.5588 488.559Z" fill="#FFC136"/>
<path d="M327.279 60.9084C332.631 60.9084 336.97 56.5693 336.97 51.2167C336.97 45.8642 332.631 41.5251 327.279 41.5251C321.926 41.5251 317.587 45.8642 317.587 51.2167C317.587 56.5693 321.926 60.9084 327.279 60.9084Z" fill="#FFC136"/>
<path d="M412.755 401.875C417.7 399.827 420.048 394.158 418 389.212C415.952 384.267 410.282 381.919 405.337 383.967C400.392 386.016 398.043 391.685 400.092 396.63C402.14 401.576 407.81 403.924 412.755 401.875Z" fill="#5BD690"/>
<path d="M186.295 279.425C227.268 282.064 228.707 323.757 228.707 323.757C228.707 323.757 230.147 282.064 271.12 279.425C230.147 276.786 228.707 235.093 228.707 235.093C228.707 235.093 227.268 276.786 186.295 279.425Z" fill="#59D8CB"/>
<path d="M503.935 343.02C514.034 332.921 514.778 316.992 506.166 306.029C514.802 295.066 514.058 279.137 503.935 269.038C493.835 258.939 477.906 258.195 466.943 266.807C455.98 258.171 440.052 258.915 429.952 269.038C419.853 279.137 419.109 295.066 427.721 306.029C419.085 316.992 419.829 332.921 429.952 343.02C440.075 353.12 455.98 353.864 466.943 345.251C477.882 353.888 493.811 353.144 503.935 343.02Z" fill="#FFC136"/>
</svg>
