<svg width="100" height="100" viewBox="0 0 100 100" fill="none" xmlns="http://www.w3.org/2000/svg">
<mask id="mask0_1403_688" style="mask-type:alpha" maskUnits="userSpaceOnUse" x="0" y="0" width="100" height="100">
<rect width="100" height="100" rx="18" fill="#9D9D9D"/>
</mask>
<g mask="url(#mask0_1403_688)">
<mask id="mask1_1403_688" style="mask-type:luminance" maskUnits="userSpaceOnUse" x="0" y="0" width="100" height="100">
<path d="M100 0H0V100H100V0Z" fill="white"/>
</mask>
<g mask="url(#mask1_1403_688)">
<path d="M100 91.9298C100 96.3158 96.4912 100 91.9298 100H8.07018C3.50877 100 0 96.4912 0 91.9298V8.07018C0 3.50877 3.50877 0 8.07018 0H92.1053C96.4912 0 100 3.50877 100 8.07018V91.9298Z" fill="#FFE600"/>
</g>
<path d="M51.0526 15.9649C29.8246 15.9649 12.6316 29.4737 12.6316 46.3158C12.6316 57.0175 19.8246 66.4912 30.3509 71.9298L26.6667 85.4386C26.4912 85.7895 26.6667 86.3158 27.0176 86.6667C27.193 86.8421 27.5439 87.0175 27.7193 87.0175C27.8948 87.0175 28.2456 86.8421 28.4211 86.8421L44.0351 76.3158C46.3158 76.6667 48.5965 76.8421 50.8772 76.8421C72.1053 76.8421 89.2983 63.3333 89.2983 46.4912C89.4737 29.4737 72.2807 15.9649 51.0526 15.9649Z" fill="#381E1E"/>
<path d="M26.1405 41.579H21.93C21.4037 41.579 20.8773 41.4035 20.5265 41.2281C20.1756 41.0527 19.8247 40.5264 19.8247 40.1755C19.8247 40 19.8247 39.8246 19.8247 39.8246C19.8247 39.2983 20.0001 38.772 20.5265 38.4211C20.8773 38.0702 21.5791 37.8948 22.1054 37.8948H34.9124C35.4387 37.8948 35.9651 38.0702 36.3159 38.2457C36.6668 38.4211 37.0177 38.9474 37.0177 39.2983C37.0177 39.4737 37.0177 39.6492 37.0177 39.6492C37.0177 40.3509 36.8423 40.7018 36.3159 41.0527C35.9651 41.4035 35.2633 41.579 34.737 41.579H30.5265V55.9649C30.5265 56.6667 30.351 57.193 30.0001 57.5439C29.6493 57.8948 29.123 58.2457 28.4212 58.2457C27.8949 58.2457 27.3686 58.0702 27.0177 57.7193C26.6668 57.3685 26.3159 57.0176 26.3159 56.4913C26.3159 56.3158 26.3159 56.1404 26.3159 55.9649L26.1405 41.579Z" fill="#FFE600"/>
<path d="M38.0704 38.5965C38.2459 38.0702 38.5967 37.7193 38.9476 37.5439C39.2985 37.3684 39.8248 37.193 40.3511 37.193H41.4038C41.9301 37.193 42.4564 37.3684 42.8073 37.5439C43.1581 37.7193 43.509 38.2456 43.6845 38.9474L48.9476 54.386C49.1231 54.9123 49.2985 55.2632 49.2985 55.614C49.2985 55.7895 49.2985 55.9649 49.2985 56.1404C49.2985 56.6667 49.1231 57.193 48.5967 57.5439C48.2459 57.8947 47.7195 58.0702 47.1932 58.0702C46.1406 58.0702 45.4388 57.7193 45.2634 56.8421L44.0353 53.5088H36.8424L35.6143 56.8421C35.2634 57.7193 34.7371 58.0702 33.6845 58.0702C33.1581 58.0702 32.8073 57.8948 32.4564 57.7193C32.1055 57.3684 31.9301 57.0176 31.7546 56.4912C31.7546 56.3158 31.7546 56.1404 31.7546 55.9649C31.7546 55.7895 31.7546 55.4386 31.9301 55.0877C31.9301 54.7369 32.1055 54.386 32.281 54.2105L38.0704 38.5965ZM40.702 42.2807L38.0704 50.3509H43.1581L40.702 42.2807Z" fill="#FFE600"/>
<path d="M50.1754 39.4737C50.1754 38.7719 50.3509 38.2456 50.7018 37.8947C51.0526 37.5439 51.5789 37.193 52.2807 37.193C52.807 37.193 53.3333 37.3684 53.6842 37.7193C54.0351 38.0702 54.386 38.4211 54.386 38.9474C54.386 39.1228 54.386 39.2983 54.386 39.4737V53.8597H61.7544C62.2807 53.8597 62.807 54.0351 63.3333 54.2105C63.6842 54.5614 64.0351 54.9123 64.0351 55.2632C64.0351 55.4386 64.0351 55.614 64.0351 55.614C64.0351 56.1404 63.8596 56.6667 63.3333 57.0176C63.1579 57.7193 62.6316 57.8947 61.9298 57.8947H52.6316C51.9298 57.8947 51.4035 57.7193 51.0526 57.5439C50.7018 57.193 50.3509 56.8421 50.1754 56.1404C50.1754 55.7895 50.1754 55.614 50 55.2632L50.1754 39.4737Z" fill="#FFE600"/>
<path d="M64.5615 39.4737C64.5615 38.7719 64.737 38.2456 65.0878 37.8947C65.4387 37.5439 65.965 37.193 66.6668 37.193C67.1931 37.193 67.7194 37.3684 68.0703 37.7193C68.4212 38.0702 68.7721 38.4211 68.7721 38.9474C68.7721 39.1228 68.7721 39.2983 68.7721 39.4737V46.1404L75.7896 38.2456C76.1405 37.8947 76.3159 37.7193 76.6668 37.5439C76.8422 37.3684 77.1931 37.3684 77.544 37.3684C78.0703 37.3684 78.4212 37.5439 78.9475 37.7193C79.2984 38.0702 79.6492 38.4211 79.6492 38.7719C79.6492 38.7719 79.6492 38.7719 79.6492 38.9474V39.1228C79.6492 39.4737 79.6492 39.6491 79.4738 40C79.2984 40.1754 79.1229 40.5263 78.9475 40.7018L74.5615 45.614L80.0001 54.0351L80.1756 54.2105C80.5264 54.7369 80.7019 55.2632 80.8773 55.4386C80.8773 55.4386 80.8773 55.4386 80.8773 55.614V55.7895C80.8773 56.4912 80.7019 57.193 80.1756 57.5439C79.6492 57.8947 79.1229 58.0702 78.5966 58.0702C78.0703 58.0702 77.7194 58.0702 77.544 57.8947C77.1931 57.7193 77.0177 57.3684 76.6668 57.0176L71.5791 48.7719L69.1229 51.2281V55.7895C69.1229 56.4912 68.9475 57.0176 68.5966 57.3684C68.2457 57.7193 67.7194 58.0702 67.0177 58.0702C66.4914 58.0702 65.965 57.8947 65.6142 57.5439C65.2633 57.193 64.9124 56.8421 64.9124 56.3158C64.9124 56.1404 64.9124 55.9649 64.9124 55.7895L64.5615 39.4737Z" fill="#FFE600"/>
</g>
</svg>
