<svg width="507" height="168" viewBox="0 0 507 168" fill="none" xmlns="http://www.w3.org/2000/svg">
<g clip-path="url(#clip0_1819_164)">
<mask id="mask0_1819_164" style="mask-type:alpha" maskUnits="userSpaceOnUse" x="0" y="0" width="507" height="168">
<rect width="507" height="168" rx="30" fill="#D9D9D9"/>
</mask>
<g mask="url(#mask0_1819_164)">
<path d="M508 -105H0V272.017H508V-105Z" fill="url(#paint0_linear_1819_164)"/>
<g opacity="0.6">
<path d="M279.972 1.7873C280.489 2.14969 280.696 2.82269 280.334 3.39215C279.972 3.90984 279.299 4.11692 278.729 3.75453C278.211 3.39215 278.004 2.71915 278.367 2.14969C278.729 1.63199 279.454 1.47669 279.972 1.7873Z" fill="white"/>
<path opacity="0.5" d="M251.498 26.4813C251.912 26.7402 252.016 27.2579 251.757 27.672C251.498 28.0862 250.981 28.1897 250.566 27.9309C250.152 27.672 250.049 27.1543 250.308 26.7402C250.515 26.3778 251.084 26.2225 251.498 26.4813Z" fill="white"/>
<path opacity="0.4" d="M272.569 27.2578C272.983 27.5167 273.086 28.0344 272.827 28.4485C272.569 28.8627 272.051 28.9662 271.637 28.7074C271.223 28.4485 271.119 27.9308 271.378 27.5167C271.637 27.1025 272.154 26.999 272.569 27.2578Z" fill="white"/>
<path opacity="0.4" d="M281.887 38.6987C282.301 38.9576 282.405 39.4753 282.146 39.8894C281.887 40.3036 281.369 40.4071 280.955 40.1483C280.541 39.8894 280.437 39.3717 280.696 38.9576C280.955 38.5434 281.525 38.4399 281.887 38.6987Z" fill="white"/>
<path opacity="0.5" d="M262.214 32.7971C262.629 33.0559 262.732 33.5736 262.473 33.9878C262.214 34.4019 261.697 34.5055 261.283 34.2466C260.868 33.9878 260.765 33.4701 261.024 33.0559C261.231 32.6935 261.8 32.59 262.214 32.7971Z" fill="white"/>
<path d="M288.41 33.1594C288.824 33.4183 288.927 33.936 288.669 34.3501C288.41 34.7643 287.892 34.8678 287.478 34.609C287.064 34.3501 286.96 33.8324 287.219 33.4183C287.478 33.0559 287.996 32.9006 288.41 33.1594Z" fill="white"/>
<path d="M277.952 29.7946C278.366 30.0534 278.47 30.5711 278.211 30.9853C277.952 31.3994 277.434 31.503 277.02 31.2441C276.606 30.9853 276.502 30.4676 276.761 30.0534C277.02 29.6393 277.538 29.5357 277.952 29.7946Z" fill="white"/>
<path opacity="0.5" d="M286.909 15.9721C287.323 16.2309 287.426 16.7486 287.167 17.1627C286.909 17.5769 286.391 17.6804 285.977 17.4216C285.562 17.1627 285.459 16.6451 285.718 16.2309C285.977 15.8167 286.546 15.7132 286.909 15.9721Z" fill="white"/>
<path d="M303.526 8.98327C303.94 9.24212 304.044 9.75981 303.785 10.174C303.526 10.5881 303.008 10.6917 302.594 10.4328C302.18 10.174 302.076 9.65627 302.335 9.24212C302.594 8.87973 303.164 8.72443 303.526 8.98327Z" fill="white"/>
<path d="M306.373 26.6366C306.787 26.8954 306.891 27.4131 306.632 27.8273C306.373 28.2414 305.855 28.345 305.441 28.0861C305.027 27.8273 304.924 27.3096 305.182 26.8954C305.441 26.5331 305.959 26.3777 306.373 26.6366Z" fill="white"/>
<path d="M333.863 44.1345C334.277 44.3934 334.381 44.9111 334.122 45.3252C333.863 45.7394 333.345 45.8429 332.931 45.5841C332.517 45.3252 332.414 44.8075 332.672 44.3934C332.879 44.031 333.449 43.8757 333.863 44.1345Z" fill="white"/>
<path d="M311.343 33.936C311.757 34.1949 311.861 34.7126 311.602 35.1267C311.343 35.5409 310.826 35.6444 310.411 35.3856C309.997 35.1267 309.894 34.609 310.153 34.1949C310.36 33.7807 310.929 33.6772 311.343 33.936Z" fill="white"/>
<path opacity="0.5" d="M332.362 26.9472C332.776 27.206 332.88 27.7237 332.621 28.1378C332.362 28.552 331.844 28.6555 331.43 28.3967C331.016 28.1378 330.912 27.6202 331.171 27.206C331.43 26.7918 331.948 26.6883 332.362 26.9472Z" fill="white"/>
<path d="M259.004 23.5822C259.418 23.841 259.522 24.3587 259.263 24.7729C259.004 25.187 258.486 25.2905 258.072 25.0317C257.658 24.7729 257.555 24.2552 257.813 23.841C258.072 23.4269 258.59 23.3233 259.004 23.5822Z" fill="white"/>
<path d="M248.185 7.32655C248.599 7.58539 248.703 8.10309 248.444 8.51724C248.185 8.9314 247.667 9.03493 247.253 8.77609C246.839 8.51724 246.735 7.99955 246.994 7.58539C247.253 7.17124 247.771 7.0677 248.185 7.32655Z" fill="white"/>
<path d="M255.795 56.9215C256.209 57.1804 256.313 57.6981 256.054 58.1122C255.795 58.5264 255.277 58.6299 254.863 58.3711C254.449 58.1122 254.345 57.5945 254.604 57.1804C254.863 56.7662 255.381 56.6627 255.795 56.9215Z" fill="white"/>
<path d="M236.9 46.9302C237.314 47.189 237.417 47.7067 237.159 48.1209C236.9 48.535 236.382 48.6386 235.968 48.3797C235.554 48.1209 235.45 47.6032 235.709 47.189C235.968 46.8266 236.486 46.6713 236.9 46.9302Z" fill="white"/>
<path opacity="0.4" d="M267.08 76.6975C267.494 76.9564 267.598 77.4741 267.339 77.8882C267.08 78.3024 266.563 78.4059 266.149 78.1471C265.734 77.8882 265.631 77.3705 265.89 76.9564C266.149 76.5422 266.666 76.4387 267.08 76.6975Z" fill="white"/>
<path d="M293.793 61.0632C294.208 61.322 294.311 61.8397 294.052 62.2539C293.793 62.668 293.276 62.7716 292.862 62.5127C292.447 62.2539 292.344 61.7362 292.603 61.322C292.862 60.9596 293.431 60.8561 293.793 61.0632Z" fill="white"/>
<path d="M274.898 51.1234C275.312 51.3823 275.415 51.9 275.157 52.3141C274.898 52.7283 274.38 52.8318 273.966 52.573C273.552 52.3141 273.448 51.7964 273.707 51.3823C273.966 51.0199 274.484 50.8646 274.898 51.1234Z" fill="white"/>
<path opacity="0.4" d="M234.518 29.1732C234.932 29.4321 235.035 29.9498 234.776 30.3639C234.518 30.7781 234 30.8816 233.586 30.6228C233.172 30.3639 233.068 29.8462 233.327 29.4321C233.586 29.0697 234.103 28.9144 234.518 29.1732Z" fill="white"/>
<g opacity="0.5">
<path d="M373.57 2.97798C374.088 3.34036 374.295 4.01336 373.933 4.58283C373.57 5.10052 372.897 5.3076 372.328 4.94521C371.81 4.58283 371.603 3.90983 371.966 3.34036C372.328 2.82267 373.053 2.66736 373.57 2.97798Z" fill="white"/>
<path opacity="0.5" d="M345.045 27.6719C345.459 27.9308 345.563 28.4485 345.304 28.8626C345.045 29.2768 344.528 29.3803 344.113 29.1215C343.699 28.8626 343.596 28.3449 343.855 27.9308C344.113 27.5684 344.631 27.4649 345.045 27.6719Z" fill="white"/>
<path opacity="0.4" d="M366.116 28.4485C366.53 28.7073 366.633 29.225 366.375 29.6392C366.116 30.0533 365.598 30.1569 365.184 29.898C364.77 29.6392 364.666 29.1215 364.925 28.7073C365.184 28.2932 365.753 28.1896 366.116 28.4485Z" fill="white"/>
<path opacity="0.4" d="M375.485 39.8895C375.9 40.1484 376.003 40.6661 375.744 41.0802C375.485 41.4944 374.968 41.5979 374.554 41.3391C374.139 41.0802 374.036 40.5625 374.295 40.1484C374.554 39.7342 375.071 39.6307 375.485 39.8895Z" fill="white"/>
<path opacity="0.5" d="M355.761 34.0396C356.175 34.2984 356.279 34.8161 356.02 35.2303C355.761 35.6444 355.244 35.7479 354.829 35.4891C354.415 35.2303 354.312 34.7126 354.571 34.2984C354.829 33.8843 355.347 33.7807 355.761 34.0396Z" fill="white"/>
<path d="M382.009 34.3502C382.423 34.6091 382.527 35.1268 382.268 35.5409C382.009 35.9551 381.491 36.0586 381.077 35.7998C380.663 35.5409 380.559 35.0232 380.818 34.6091C381.077 34.2467 381.595 34.0914 382.009 34.3502Z" fill="white"/>
<path d="M371.551 30.9852C371.965 31.2441 372.069 31.7618 371.81 32.1759C371.551 32.5901 371.033 32.6936 370.619 32.4348C370.205 32.1759 370.102 31.6582 370.36 31.2441C370.567 30.8299 371.137 30.7264 371.551 30.9852Z" fill="white"/>
<path opacity="0.5" d="M380.508 17.1627C380.922 17.4216 381.025 17.9393 380.766 18.3534C380.508 18.7676 379.99 18.8711 379.576 18.6123C379.162 18.3534 379.058 17.8357 379.317 17.4216C379.576 17.0074 380.093 16.9039 380.508 17.1627Z" fill="white"/>
<path d="M397.126 10.1739C397.54 10.4327 397.643 10.9504 397.384 11.3646C397.126 11.7787 396.608 11.8823 396.194 11.6234C395.78 11.3646 395.676 10.8469 395.935 10.4327C396.194 10.0704 396.711 9.96682 397.126 10.1739Z" fill="white"/>
<path d="M399.972 27.879C400.386 28.1379 400.49 28.6556 400.231 29.0697C399.972 29.4839 399.455 29.5874 399.04 29.3286C398.626 29.0697 398.523 28.552 398.782 28.1379C398.989 27.7237 399.558 27.6202 399.972 27.879Z" fill="white"/>
<path d="M427.41 45.3253C427.824 45.5841 427.928 46.1018 427.669 46.516C427.41 46.9301 426.892 47.0337 426.478 46.7748C426.064 46.516 425.961 45.9983 426.219 45.5841C426.478 45.2217 426.996 45.1182 427.41 45.3253Z" fill="white"/>
<path d="M404.89 35.1268C405.305 35.3857 405.408 35.9034 405.149 36.3175C404.89 36.7317 404.373 36.8352 403.959 36.5764C403.544 36.3175 403.441 35.7998 403.7 35.3857C403.959 35.0233 404.476 34.868 404.89 35.1268Z" fill="white"/>
<path opacity="0.5" d="M425.909 28.1379C426.323 28.3968 426.426 28.9145 426.168 29.3286C425.909 29.7428 425.391 29.8463 424.977 29.5875C424.563 29.3286 424.459 28.8109 424.718 28.3968C424.977 27.9826 425.546 27.8791 425.909 28.1379Z" fill="white"/>
<path d="M352.604 24.773C353.018 25.0318 353.121 25.5495 352.863 25.9637C352.604 26.3778 352.086 26.4813 351.672 26.2225C351.258 25.9637 351.154 25.446 351.413 25.0318C351.672 24.6176 352.19 24.5141 352.604 24.773Z" fill="white"/>
<path d="M341.732 8.51734C342.146 8.77619 342.25 9.29388 341.991 9.70803C341.732 10.1222 341.214 10.2257 340.8 9.96688C340.386 9.70803 340.282 9.19034 340.541 8.77619C340.8 8.36203 341.37 8.2585 341.732 8.51734Z" fill="white"/>
<path d="M349.394 58.1123C349.808 58.3712 349.912 58.8889 349.653 59.303C349.394 59.7172 348.876 59.8207 348.462 59.5619C348.048 59.303 347.944 58.7853 348.203 58.3712C348.41 57.957 348.98 57.8535 349.394 58.1123Z" fill="white"/>
<path d="M330.447 48.1208C330.861 48.3796 330.964 48.8973 330.706 49.3115C330.447 49.7256 329.929 49.8292 329.515 49.5703C329.101 49.3115 328.997 48.7938 329.256 48.3796C329.515 48.0173 330.084 47.9137 330.447 48.1208Z" fill="white"/>
<path opacity="0.4" d="M360.627 77.8882C361.042 78.147 361.145 78.6647 360.886 79.0789C360.627 79.493 360.11 79.5966 359.696 79.3377C359.281 79.0789 359.178 78.5612 359.437 78.147C359.696 77.7329 360.265 77.6293 360.627 77.8882Z" fill="white"/>
<path d="M387.393 62.3055C387.807 62.5644 387.911 63.0821 387.652 63.4962C387.393 63.9104 386.875 64.0139 386.461 63.7551C386.047 63.4962 385.944 62.9786 386.202 62.5644C386.461 62.1502 386.979 62.0467 387.393 62.3055Z" fill="white"/>
<path d="M368.497 52.3141C368.911 52.5729 369.015 53.0906 368.756 53.5048C368.497 53.9189 367.979 54.0225 367.565 53.7636C367.151 53.5048 367.047 52.9871 367.306 52.5729C367.565 52.2105 368.083 52.0552 368.497 52.3141Z" fill="white"/>
<path opacity="0.4" d="M328.117 30.364C328.531 30.6229 328.635 31.1405 328.376 31.5547C328.117 31.9689 327.6 32.0724 327.185 31.8135C326.771 31.5547 326.668 31.037 326.927 30.6229C327.185 30.2605 327.703 30.1052 328.117 30.364Z" fill="white"/>
</g>
<path d="M453.761 0.182358C454.278 0.544743 454.485 1.21774 454.123 1.7872C453.761 2.3049 453.088 2.51197 452.518 2.14959C452 1.7872 451.793 1.1142 452.156 0.544741C452.466 0.0270481 453.191 -0.180028 453.761 0.182358Z" fill="white"/>
<path opacity="0.5" d="M425.236 24.8763C425.65 25.1352 425.754 25.6529 425.495 26.067C425.236 26.4812 424.718 26.5847 424.304 26.3259C423.89 26.067 423.786 25.5493 424.045 25.1352C424.304 24.7728 424.822 24.6175 425.236 24.8763Z" fill="white"/>
<path opacity="0.4" d="M446.306 25.6528C446.72 25.9117 446.823 26.4294 446.565 26.8435C446.306 27.2577 445.788 27.3612 445.374 27.1024C444.96 26.8435 444.856 26.3258 445.115 25.9117C445.374 25.4975 445.892 25.394 446.306 25.6528Z" fill="white"/>
<path opacity="0.4" d="M455.676 37.0939C456.09 37.3527 456.194 37.8704 455.935 38.2846C455.676 38.6987 455.158 38.8023 454.744 38.5434C454.33 38.2846 454.226 37.7669 454.485 37.3527C454.744 36.9386 455.262 36.835 455.676 37.0939Z" fill="white"/>
<path opacity="0.5" d="M435.952 31.1921C436.366 31.451 436.47 31.9687 436.211 32.3828C435.952 32.797 435.434 32.9005 435.02 32.6417C434.606 32.3828 434.502 31.8651 434.761 31.451C435.02 31.0886 435.538 30.9333 435.952 31.1921Z" fill="white"/>
<path d="M462.147 31.5546C462.561 31.8134 462.665 32.3311 462.406 32.7453C462.147 33.1594 461.63 33.263 461.215 33.0041C460.801 32.7453 460.698 32.2276 460.957 31.8134C461.215 31.451 461.785 31.2957 462.147 31.5546Z" fill="white"/>
<path d="M451.689 28.1896C452.104 28.4484 452.207 28.9661 451.948 29.3803C451.689 29.7944 451.172 29.898 450.758 29.6391C450.343 29.3803 450.24 28.8626 450.499 28.4484C450.758 28.0343 451.275 27.9307 451.689 28.1896Z" fill="white"/>
<path opacity="0.5" d="M460.698 14.3672C461.112 14.626 461.216 15.1437 460.957 15.5579C460.698 15.972 460.18 16.0756 459.766 15.8167C459.352 15.5579 459.248 15.0402 459.507 14.626C459.766 14.2119 460.284 14.1083 460.698 14.3672Z" fill="white"/>
<path d="M477.315 7.37829C477.73 7.63714 477.833 8.15483 477.574 8.56899C477.315 8.98314 476.798 9.08668 476.384 8.82783C475.969 8.56899 475.866 8.05129 476.125 7.63714C476.332 7.27475 476.901 7.11945 477.315 7.37829Z" fill="white"/>
<path d="M480.111 25.0316C480.525 25.2905 480.629 25.8082 480.37 26.2223C480.111 26.6365 479.594 26.74 479.18 26.4812C478.765 26.2223 478.662 25.7046 478.921 25.2905C479.18 24.9281 479.749 24.7728 480.111 25.0316Z" fill="white"/>
<path d="M507.6 42.5297C508.014 42.7885 508.118 43.3062 507.859 43.7203C507.6 44.1345 507.082 44.238 506.668 43.9792C506.254 43.7203 506.151 43.2027 506.409 42.7885C506.668 42.4261 507.186 42.2708 507.6 42.5297Z" fill="white"/>
<path d="M485.081 32.3311C485.495 32.5899 485.598 33.1076 485.34 33.5218C485.081 33.9359 484.563 34.0395 484.149 33.7806C483.735 33.5218 483.631 33.0041 483.89 32.5899C484.149 32.1758 484.667 32.0722 485.081 32.3311Z" fill="white"/>
<path opacity="0.5" d="M506.099 25.3422C506.514 25.601 506.617 26.1187 506.358 26.5329C506.099 26.947 505.582 27.0506 505.168 26.7917C504.753 26.5329 504.65 26.0152 504.909 25.601C505.168 25.1869 505.685 25.0833 506.099 25.3422Z" fill="white"/>
<path d="M432.794 21.9772C433.208 22.236 433.312 22.7537 433.053 23.1679C432.794 23.582 432.276 23.6856 431.862 23.4267C431.448 23.1679 431.344 22.6502 431.603 22.236C431.81 21.8219 432.38 21.7183 432.794 21.9772Z" fill="white"/>
<path d="M421.922 5.72169C422.337 5.98053 422.44 6.49823 422.181 6.91238C421.922 7.32654 421.405 7.43008 420.991 7.17123C420.576 6.91238 420.473 6.39469 420.732 5.98053C420.991 5.56638 421.508 5.46284 421.922 5.72169Z" fill="white"/>
<path d="M429.533 55.2649C429.947 55.5237 430.051 56.0414 429.792 56.4556C429.533 56.8697 429.015 56.9733 428.601 56.7144C428.187 56.4556 428.083 55.9379 428.342 55.5237C428.601 55.1614 429.171 55.006 429.533 55.2649Z" fill="white"/>
<path d="M410.637 45.3252C411.051 45.584 411.154 46.1017 410.896 46.5159C410.637 46.93 410.119 47.0336 409.705 46.7747C409.291 46.5159 409.187 45.9982 409.446 45.584C409.705 45.2217 410.223 45.0663 410.637 45.3252Z" fill="white"/>
<path opacity="0.4" d="M440.818 75.0927C441.232 75.3515 441.336 75.8692 441.077 76.2834C440.818 76.6975 440.3 76.801 439.886 76.5422C439.472 76.2834 439.369 75.7657 439.627 75.3515C439.886 74.9374 440.404 74.8338 440.818 75.0927Z" fill="white"/>
<path d="M467.583 59.4581C467.997 59.717 468.101 60.2347 467.842 60.6488C467.583 61.063 467.065 61.1665 466.651 60.9077C466.237 60.6488 466.133 60.1311 466.392 59.717C466.651 59.3546 467.169 59.1993 467.583 59.4581Z" fill="white"/>
<path d="M448.636 49.5184C449.05 49.7773 449.153 50.295 448.894 50.7091C448.636 51.1233 448.118 51.2268 447.704 50.968C447.29 50.7091 447.186 50.1914 447.445 49.7773C447.704 49.4149 448.273 49.2596 448.636 49.5184Z" fill="white"/>
<path opacity="0.4" d="M408.307 27.5684C408.721 27.8272 408.825 28.3449 408.566 28.7591C408.307 29.1732 407.789 29.2768 407.375 29.0179C406.961 28.7591 406.858 28.2414 407.116 27.8272C407.324 27.4131 407.893 27.3095 408.307 27.5684Z" fill="white"/>
</g>
<g opacity="0.6">
<path d="M42.3494 11.1574C42.8153 11.468 42.9707 12.0892 42.66 12.6069C42.3494 13.0729 41.6764 13.2282 41.2105 12.9175C40.7446 12.6069 40.5893 11.9339 40.8999 11.468C41.2105 10.9503 41.8835 10.8468 42.3494 11.1574Z" fill="white"/>
<path opacity="0.5" d="M16.5677 33.5217C16.9301 33.7806 17.0336 34.2465 16.8265 34.6089C16.6195 34.9713 16.1018 35.0748 15.7394 34.8677C15.377 34.6089 15.2735 34.143 15.4805 33.7806C15.6876 33.3664 16.2053 33.2629 16.5677 33.5217Z" fill="white"/>
<path opacity="0.4" d="M35.6192 34.1946C35.9816 34.4534 36.0851 34.9194 35.8781 35.2817C35.671 35.6441 35.1533 35.7477 34.7909 35.5406C34.4285 35.2817 34.325 34.8158 34.5321 34.4534C34.7909 34.0393 35.2568 33.9357 35.6192 34.1946Z" fill="white"/>
<path opacity="0.4" d="M44.1094 44.5485C44.4718 44.7555 44.5754 45.2732 44.3683 45.6356C44.1094 45.998 43.6435 46.1016 43.2811 45.8945C42.9188 45.6874 42.8152 45.1697 43.0223 44.8073C43.2294 44.3932 43.7471 44.2896 44.1094 44.5485Z" fill="white"/>
<path opacity="0.5" d="M26.2491 39.2163C26.6115 39.4751 26.715 39.941 26.5079 40.3034C26.3009 40.6658 25.7832 40.7693 25.4208 40.5623C25.0584 40.3552 24.9549 39.8375 25.1619 39.4751C25.4208 39.1127 25.8867 39.0092 26.2491 39.2163Z" fill="white"/>
<path d="M50.0113 39.5269C50.3737 39.734 50.4772 40.2517 50.2701 40.6141C50.0113 40.9765 49.5454 41.08 49.183 40.8729C48.8206 40.6141 48.7171 40.1482 48.9241 39.7858C49.1312 39.4234 49.6489 39.3199 50.0113 39.5269Z" fill="white"/>
<path d="M40.5374 36.4726C40.8998 36.7315 41.0033 37.1974 40.7963 37.5598C40.5374 37.9221 40.0715 38.0257 39.7091 37.8186C39.3467 37.5598 39.2432 37.0938 39.4503 36.7315C39.6573 36.3691 40.175 36.2655 40.5374 36.4726Z" fill="white"/>
<path opacity="0.5" d="M48.6653 23.9444C49.0277 24.2033 49.1313 24.6692 48.9242 25.0316C48.6653 25.394 48.1994 25.4975 47.837 25.2904C47.4747 25.0833 47.3711 24.5656 47.5782 24.2033C47.7853 23.8409 48.303 23.7373 48.6653 23.9444Z" fill="white"/>
<path d="M63.6781 17.6803C64.0404 17.9392 64.144 18.4051 63.9369 18.7675C63.6781 19.1298 63.2121 19.2334 62.8497 19.0263C62.4874 18.7675 62.3838 18.3015 62.5909 17.9392C62.8497 17.525 63.3157 17.4215 63.6781 17.6803Z" fill="white"/>
<path d="M66.2667 33.6252C66.6291 33.8323 66.7326 34.35 66.5255 34.7124C66.3184 35.0747 65.8007 35.1783 65.4384 34.9712C65.076 34.7641 64.9724 34.2464 65.1795 33.884C65.3866 33.5217 65.9043 33.4181 66.2667 33.6252Z" fill="white"/>
<path d="M91.1156 49.4666C91.4779 49.7255 91.5815 50.1914 91.3744 50.5538C91.1673 50.9162 90.6496 51.0197 90.2872 50.8126C89.9249 50.5538 89.8213 50.0879 90.0284 49.7255C90.2872 49.3631 90.7532 49.2595 91.1156 49.4666Z" fill="white"/>
<path d="M70.7191 40.2517C71.0814 40.4588 71.185 40.9765 70.9779 41.3389C70.7191 41.7013 70.2531 41.8048 69.8908 41.5977C69.5284 41.3389 69.4248 40.8729 69.6319 40.5106C69.8908 40.0964 70.3567 39.9929 70.7191 40.2517Z" fill="white"/>
<path opacity="0.5" d="M89.7696 33.884C90.132 34.1428 90.2355 34.6088 90.0284 34.9711C89.7696 35.3335 89.3037 35.4371 88.9413 35.23C88.5789 34.9711 88.4754 34.5052 88.6824 34.1428C88.9413 33.7804 89.4072 33.6769 89.7696 33.884Z" fill="white"/>
<path d="M23.4017 30.8815C23.7641 31.1403 23.8676 31.6062 23.6605 31.9686C23.4534 32.331 22.9358 32.4346 22.5734 32.2275C22.211 31.9686 22.1074 31.5027 22.3145 31.1403C22.5216 30.7262 23.0393 30.6226 23.4017 30.8815Z" fill="white"/>
<path d="M13.5655 16.1273C13.9279 16.3861 14.0314 16.852 13.8243 17.2144C13.6173 17.5768 13.0996 17.6803 12.7372 17.4733C12.3748 17.2662 12.2713 16.7485 12.4783 16.3861C12.6854 16.0237 13.2031 15.9202 13.5655 16.1273Z" fill="white"/>
<path d="M20.4505 61.0112C20.8129 61.27 20.9164 61.7359 20.7094 62.0983C20.5023 62.4607 19.9846 62.5643 19.6222 62.3572C19.2598 62.0983 19.1563 61.6324 19.3634 61.27C19.6222 60.9076 20.0881 60.8041 20.4505 61.0112Z" fill="white"/>
<path d="M3.31501 52.0032C3.6774 52.2621 3.78094 52.728 3.57386 53.0904C3.36678 53.4528 2.84909 53.5563 2.4867 53.3493C2.12432 53.1422 2.02078 52.6245 2.22786 52.2621C2.4867 51.8997 2.95263 51.7962 3.31501 52.0032Z" fill="white"/>
<path opacity="0.4" d="M30.6495 78.9234C31.0119 79.1823 31.1154 79.6482 30.9083 80.0106C30.7012 80.373 30.1836 80.4765 29.8212 80.2694C29.4588 80.0623 29.3553 79.5446 29.5623 79.1823C29.8212 78.8199 30.2871 78.7163 30.6495 78.9234Z" fill="white"/>
<path d="M54.877 64.842C55.2394 65.0491 55.3429 65.5668 55.1359 65.9292C54.9288 66.2916 54.4111 66.3951 54.0487 66.1881C53.6863 65.9292 53.5828 65.4633 53.7899 65.1009C54.0487 64.6867 54.5146 64.5832 54.877 64.842Z" fill="white"/>
<path d="M37.7415 55.8342C38.1039 56.0413 38.2075 56.559 38.0004 56.9214C37.7415 57.2838 37.2756 57.3873 36.9132 57.1802C36.5508 56.9732 36.4473 56.4555 36.6544 56.0931C36.9132 55.6789 37.3791 55.5754 37.7415 55.8342Z" fill="white"/>
<path opacity="0.4" d="M1.1927 35.9548C1.55508 36.1619 1.65862 36.6796 1.45155 37.042C1.1927 37.4044 0.726772 37.5079 0.364387 37.3008C0.00200203 37.0938 -0.101537 36.5761 0.105541 36.2137C0.364387 35.7995 0.830314 35.696 1.1927 35.9548Z" fill="white"/>
<g opacity="0.5">
<path d="M127.095 12.2445C127.561 12.5552 127.716 13.1764 127.406 13.6941C127.095 14.16 126.422 14.3153 125.956 14.0047C125.49 13.6941 125.335 13.0211 125.645 12.5552C125.956 12.0375 126.629 11.9339 127.095 12.2445Z" fill="white"/>
<path opacity="0.5" d="M101.262 34.6089C101.625 34.8677 101.728 35.3337 101.521 35.696C101.262 36.0584 100.796 36.162 100.434 35.9549C100.072 35.696 99.968 35.2301 100.175 34.8677C100.434 34.4536 100.9 34.35 101.262 34.6089Z" fill="white"/>
<path opacity="0.4" d="M120.365 35.2817C120.727 35.5406 120.831 36.0065 120.624 36.3689C120.417 36.7313 119.899 36.8348 119.537 36.6277C119.174 36.3689 119.071 35.903 119.278 35.5406C119.537 35.1264 120.002 35.0229 120.365 35.2817Z" fill="white"/>
<path opacity="0.4" d="M128.855 45.6356C129.218 45.8427 129.321 46.3604 129.114 46.7228C128.855 47.0852 128.389 47.1887 128.027 46.9816C127.665 46.7745 127.561 46.2569 127.768 45.8945C127.975 45.4803 128.493 45.3768 128.855 45.6356Z" fill="white"/>
<path opacity="0.5" d="M110.995 40.3035C111.357 40.5106 111.461 41.0283 111.254 41.3907C111.046 41.7531 110.529 41.8566 110.166 41.6495C109.804 41.4425 109.7 40.9248 109.908 40.5624C110.166 40.2 110.632 40.0965 110.995 40.3035Z" fill="white"/>
<path d="M134.757 40.6141C135.119 40.8212 135.223 41.3389 135.016 41.7012C134.757 42.0636 134.291 42.1672 133.928 41.9601C133.566 41.7012 133.462 41.2353 133.67 40.8729C133.877 40.5105 134.394 40.407 134.757 40.6141Z" fill="white"/>
<path d="M125.283 37.5596C125.645 37.8185 125.749 38.2844 125.542 38.6468C125.283 39.0092 124.817 39.1127 124.455 38.9056C124.092 38.6468 123.989 38.1809 124.196 37.8185C124.403 37.4561 124.869 37.3526 125.283 37.5596Z" fill="white"/>
<path opacity="0.5" d="M133.411 25.0316C133.774 25.2386 133.877 25.7563 133.67 26.1187C133.411 26.4811 132.945 26.5846 132.583 26.3776C132.221 26.1705 132.117 25.6528 132.324 25.2904C132.531 24.928 133.049 24.8245 133.411 25.0316Z" fill="white"/>
<path d="M148.424 18.7675C148.787 19.0263 148.89 19.4922 148.683 19.8546C148.424 20.217 147.958 20.3205 147.596 20.1135C147.234 19.8546 147.13 19.3887 147.337 19.0263C147.596 18.6122 148.062 18.5086 148.424 18.7675Z" fill="white"/>
<path d="M151.012 34.7124C151.375 34.9194 151.478 35.4371 151.271 35.7995C151.064 36.1619 150.546 36.2654 150.184 36.0584C149.822 35.8513 149.718 35.3336 149.925 34.9712C150.132 34.6088 150.65 34.5053 151.012 34.7124Z" fill="white"/>
<path d="M175.862 50.5538C176.224 50.8126 176.328 51.2785 176.121 51.6409C175.914 52.0033 175.396 52.1069 175.034 51.8998C174.671 51.6409 174.568 51.175 174.775 50.8126C175.034 50.4502 175.5 50.3467 175.862 50.5538Z" fill="white"/>
<path d="M155.465 41.3389C155.827 41.546 155.931 42.0636 155.724 42.426C155.465 42.7884 154.999 42.8919 154.637 42.6849C154.274 42.426 154.171 41.9601 154.378 41.5977C154.637 41.1836 155.103 41.08 155.465 41.3389Z" fill="white"/>
<path opacity="0.5" d="M174.515 34.9711C174.878 35.23 174.981 35.6959 174.774 36.0583C174.515 36.4207 174.05 36.5242 173.687 36.3171C173.325 36.0583 173.221 35.5924 173.428 35.23C173.687 34.8676 174.153 34.7641 174.515 34.9711Z" fill="white"/>
<path d="M108.096 31.9686C108.458 32.2275 108.561 32.6934 108.354 33.0558C108.147 33.4182 107.63 33.5217 107.267 33.3146C106.905 33.0558 106.801 32.5899 107.008 32.2275C107.267 31.8133 107.733 31.7098 108.096 31.9686Z" fill="white"/>
<path d="M98.3111 17.2143C98.6735 17.4214 98.777 17.9391 98.57 18.3015C98.3111 18.6638 97.8452 18.7674 97.4828 18.5603C97.1204 18.3532 97.0169 17.8355 97.2239 17.4732C97.431 17.1108 97.9487 17.0072 98.3111 17.2143Z" fill="white"/>
<path d="M105.196 62.0983C105.559 62.3572 105.662 62.8231 105.455 63.1855C105.248 63.5479 104.73 63.6514 104.368 63.4443C104.006 63.1855 103.902 62.7196 104.109 62.3572C104.368 61.9948 104.834 61.8913 105.196 62.0983Z" fill="white"/>
<path d="M88.0606 53.0904C88.423 53.2975 88.5265 53.8152 88.3194 54.1776C88.0606 54.5399 87.5947 54.6435 87.2323 54.4364C86.8699 54.2293 86.7664 53.7116 86.9735 53.3493C87.2323 52.9869 87.6982 52.8833 88.0606 53.0904Z" fill="white"/>
<path opacity="0.4" d="M115.395 80.0104C115.758 80.2175 115.861 80.7352 115.654 81.0976C115.447 81.46 114.929 81.5635 114.567 81.3565C114.205 81.1494 114.101 80.6317 114.308 80.2693C114.567 79.9069 115.033 79.8034 115.395 80.0104Z" fill="white"/>
<path d="M139.623 65.9292C139.986 66.1363 140.089 66.654 139.882 67.0164C139.675 67.3787 139.157 67.4823 138.795 67.2752C138.433 67.0164 138.329 66.5504 138.536 66.1881C138.795 65.7739 139.261 65.6704 139.623 65.9292Z" fill="white"/>
<path d="M122.487 56.9214C122.85 57.1802 122.953 57.6462 122.746 58.0086C122.487 58.3709 122.021 58.4745 121.659 58.2674C121.296 58.0086 121.193 57.5426 121.4 57.1802C121.659 56.7661 122.125 56.6625 122.487 56.9214Z" fill="white"/>
<path opacity="0.4" d="M85.9383 37.042C86.3007 37.3008 86.4042 37.7668 86.1972 38.1292C85.9901 38.4915 85.4724 38.5951 85.11 38.388C84.7476 38.1809 84.6441 37.6632 84.8511 37.3008C85.11 36.8867 85.5759 36.7832 85.9383 37.042Z" fill="white"/>
</g>
<path d="M199.728 9.65611C200.194 9.96672 200.349 10.6397 200.038 11.1056C199.728 11.5716 199.055 11.7269 198.589 11.4163C198.123 11.1056 197.967 10.4326 198.278 9.96672C198.589 9.5008 199.21 9.34549 199.728 9.65611Z" fill="white"/>
<path opacity="0.5" d="M173.895 32.0205C174.258 32.2793 174.361 32.7452 174.154 33.1076C173.947 33.47 173.429 33.5735 173.067 33.3665C172.705 33.1076 172.601 32.6417 172.808 32.2793C173.015 31.9169 173.533 31.8134 173.895 32.0205Z" fill="white"/>
<path opacity="0.4" d="M192.998 32.7452C193.36 33.0041 193.464 33.47 193.257 33.8324C193.05 34.1948 192.532 34.2983 192.17 34.0913C191.807 33.8324 191.704 33.3665 191.911 33.0041C192.118 32.5899 192.584 32.4864 192.998 32.7452Z" fill="white"/>
<path opacity="0.4" d="M201.436 43.0991C201.799 43.358 201.902 43.8239 201.695 44.1863C201.436 44.5487 200.97 44.6522 200.608 44.4451C200.246 44.2381 200.142 43.7204 200.349 43.358C200.608 42.9438 201.074 42.8403 201.436 43.0991Z" fill="white"/>
<path opacity="0.5" d="M183.576 37.7668C183.938 37.9739 184.042 38.4916 183.835 38.854C183.628 39.2163 183.11 39.3199 182.747 39.1128C182.385 38.854 182.282 38.388 182.489 38.0256C182.747 37.6633 183.213 37.5597 183.576 37.7668Z" fill="white"/>
<path d="M207.338 38.0775C207.7 38.2845 207.804 38.8022 207.597 39.1646C207.338 39.527 206.872 39.6305 206.509 39.4235C206.147 39.1646 206.043 38.6987 206.251 38.3363C206.458 37.9739 206.975 37.8704 207.338 38.0775Z" fill="white"/>
<path d="M197.864 35.023C198.226 35.2301 198.33 35.7478 198.123 36.1102C197.864 36.4726 197.398 36.5761 197.036 36.369C196.673 36.1102 196.57 35.6443 196.777 35.2819C196.984 34.9195 197.502 34.8159 197.864 35.023Z" fill="white"/>
<path opacity="0.5" d="M205.992 22.4949C206.355 22.7538 206.458 23.2197 206.251 23.5821C205.992 23.9445 205.526 24.048 205.164 23.8409C204.802 23.6339 204.698 23.1162 204.905 22.7538C205.112 22.3914 205.63 22.2879 205.992 22.4949Z" fill="white"/>
<path d="M221.056 16.179C221.419 16.4379 221.522 16.9038 221.315 17.2662C221.056 17.6286 220.591 17.7321 220.228 17.525C219.866 17.2662 219.762 16.8003 219.969 16.4379C220.176 16.0755 220.642 15.9719 221.056 16.179Z" fill="white"/>
<path d="M223.593 32.1759C223.956 32.4347 224.059 32.9006 223.852 33.263C223.645 33.6254 223.127 33.7289 222.765 33.5219C222.403 33.263 222.299 32.7971 222.506 32.4347C222.765 32.0723 223.231 31.9688 223.593 32.1759Z" fill="white"/>
<path d="M248.442 48.0172C248.805 48.276 248.908 48.7419 248.701 49.1043C248.494 49.4667 247.977 49.5702 247.614 49.3632C247.252 49.1043 247.148 48.6384 247.355 48.276C247.614 47.9136 248.08 47.8101 248.442 48.0172Z" fill="white"/>
<path d="M228.097 38.8023C228.46 39.0093 228.563 39.527 228.356 39.8894C228.097 40.2518 227.631 40.3553 227.269 40.1483C226.907 39.8894 226.803 39.4235 227.01 39.0611C227.217 38.6469 227.683 38.5434 228.097 38.8023Z" fill="white"/>
<path opacity="0.5" d="M247.096 32.4346C247.459 32.6935 247.562 33.1594 247.355 33.5218C247.096 33.8842 246.631 33.9877 246.268 33.7806C245.906 33.5218 245.802 33.0559 246.009 32.6935C246.268 32.3311 246.734 32.2276 247.096 32.4346Z" fill="white"/>
<path d="M180.729 29.3802C181.091 29.639 181.194 30.105 180.987 30.4674C180.78 30.8297 180.263 30.9333 179.9 30.7262C179.538 30.4674 179.434 30.0014 179.641 29.639C179.849 29.2767 180.366 29.1731 180.729 29.3802Z" fill="white"/>
<path d="M170.892 14.6777C171.255 14.8848 171.358 15.4025 171.151 15.7648C170.892 16.1272 170.426 16.2308 170.064 16.0237C169.701 15.8166 169.598 15.2989 169.805 14.9365C170.064 14.5741 170.53 14.4706 170.892 14.6777Z" fill="white"/>
<path d="M177.777 59.5617C178.14 59.8206 178.243 60.2865 178.036 60.6489C177.829 61.0113 177.311 61.1148 176.949 60.9077C176.587 60.6489 176.483 60.1829 176.69 59.8206C176.949 59.4582 177.415 59.3546 177.777 59.5617Z" fill="white"/>
<path d="M160.694 50.5539C161.056 50.761 161.16 51.2787 160.953 51.6411C160.694 52.0034 160.228 52.107 159.865 51.8999C159.503 51.6928 159.399 51.1751 159.607 50.8128C159.814 50.4504 160.331 50.3468 160.694 50.5539Z" fill="white"/>
<path opacity="0.4" d="M188.028 77.4739C188.39 77.681 188.494 78.1987 188.287 78.5611C188.08 78.9235 187.562 79.027 187.2 78.8199C186.837 78.6129 186.734 78.0952 186.941 77.7328C187.148 77.3704 187.614 77.2669 188.028 77.4739Z" fill="white"/>
<path d="M212.204 63.3927C212.567 63.5998 212.67 64.1175 212.463 64.4799C212.256 64.8423 211.738 64.9458 211.376 64.7387C211.014 64.4799 210.91 64.0139 211.117 63.6516C211.376 63.2374 211.842 63.1339 212.204 63.3927Z" fill="white"/>
<path d="M195.12 54.333C195.483 54.54 195.586 55.0577 195.379 55.4201C195.12 55.7825 194.654 55.886 194.292 55.679C193.929 55.4719 193.826 54.9542 194.033 54.5918C194.24 54.2294 194.758 54.1259 195.12 54.333Z" fill="white"/>
<path opacity="0.4" d="M158.519 34.4536C158.882 34.6606 158.985 35.1783 158.778 35.5407C158.571 35.9031 158.053 36.0066 157.691 35.7996C157.329 35.5925 157.225 35.0748 157.432 34.7124C157.691 34.35 158.157 34.2465 158.519 34.4536Z" fill="white"/>
</g>
</g>
</g>
<defs>
<linearGradient id="paint0_linear_1819_164" x1="254.016" y1="-94.625" x2="254.016" y2="245.085" gradientUnits="userSpaceOnUse">
<stop offset="0.00428492" stop-color="#66A4ED"/>
<stop offset="0.0461022" stop-color="#71A8ED"/>
<stop offset="0.0859176" stop-color="#80AEED"/>
<stop offset="0.193" stop-color="#8BB3EC"/>
<stop offset="0.381" stop-color="#A9BFE9"/>
<stop offset="0.5633" stop-color="#CBCEE5"/>
<stop offset="0.5966" stop-color="#D4D3E0"/>
<stop offset="0.7609" stop-color="#FFE9C9"/>
<stop offset="0.8205" stop-color="#FFE3C9"/>
<stop offset="0.8973" stop-color="#FFD3C9"/>
<stop offset="0.9501" stop-color="#FFC4C9"/>
</linearGradient>
<clipPath id="clip0_1819_164">
<rect width="507" height="168" fill="white"/>
</clipPath>
</defs>
</svg>
