<svg width="470" height="73" viewBox="0 0 470 73" fill="none" xmlns="http://www.w3.org/2000/svg">
<g clip-path="url(#clip0_1821_174)">
<path opacity="0.6" d="M468.136 44.9389H464.706C465.179 44.6432 465.475 44.17 465.475 43.5786C465.475 42.6914 464.765 41.9225 463.819 41.9225H388.29C387.403 41.9225 386.634 42.6323 386.634 43.5786C386.634 44.4658 387.343 45.2347 388.29 45.2347H391.72C391.247 45.5304 390.951 46.0035 390.951 46.595C390.951 47.4822 391.661 48.2511 392.607 48.2511H378.531C377.644 48.2511 376.875 48.9608 376.875 49.9071C376.875 50.3211 377.052 50.7352 377.348 51.0309H350.614C349.727 51.0309 348.958 51.7406 348.958 52.687C348.958 53.5741 349.668 54.343 350.614 54.343H426.202C427.089 54.343 427.858 53.6333 427.858 52.687C427.858 52.2729 427.681 51.859 427.385 51.5632H454.119C455.006 51.5632 455.775 50.8535 455.775 49.9071C455.775 49.0199 455.065 48.2511 454.119 48.2511H468.195C469.082 48.2511 469.851 47.5413 469.851 46.595C469.792 45.6487 469.082 44.9389 468.136 44.9389Z" fill="white"/>
<path opacity="0.3" d="M231.318 62.9192H227.887C228.36 62.6235 228.656 62.1504 228.656 61.5589C228.656 60.6717 227.946 59.9028 227 59.9028H151.412C150.525 59.9028 149.756 60.6126 149.756 61.5589C149.756 62.4461 150.466 63.215 151.412 63.215H154.842C154.369 63.5107 154.074 63.9839 154.074 64.5753C154.074 65.4625 154.783 66.2314 155.73 66.2314H141.653C140.766 66.2314 139.997 66.9411 139.997 67.8875C139.997 68.3015 140.174 68.7155 140.47 69.0112H113.736C112.849 69.0112 112.08 69.721 112.08 70.6673C112.08 71.5545 112.79 72.3234 113.736 72.3234H189.324C190.211 72.3234 190.98 71.6136 190.98 70.6673C190.98 70.2533 190.803 69.8393 190.507 69.5435H217.241C218.128 69.5435 218.897 68.8338 218.897 67.8875C218.897 67.0003 218.187 66.2314 217.241 66.2314H231.318C232.205 66.2314 232.974 65.5217 232.974 64.5753C232.915 63.629 232.205 62.9192 231.318 62.9192Z" fill="white"/>
<path opacity="0.6" d="M119.237 29.8569H115.807C116.28 29.5612 116.576 29.088 116.576 28.4966C116.576 27.6094 115.866 26.8405 114.92 26.8405H39.3909C38.5037 26.8405 37.7348 27.5502 37.7348 28.4966C37.7348 29.3837 38.4446 30.1526 39.3909 30.1526H42.8213C42.3481 30.4483 42.0524 30.9215 42.0524 31.513C42.0524 32.4001 42.7622 33.169 43.7085 33.169H29.5727C28.6855 33.169 27.9167 33.8788 27.9167 34.8251C27.9167 35.2391 28.0941 35.6531 28.3898 35.9489H1.65607C0.768893 35.9489 0 36.6586 0 37.6049C0 38.4921 0.709747 39.261 1.65607 39.261H77.244C78.1312 39.261 78.9 38.5513 78.9 37.6049C78.9 37.1909 78.7226 36.7769 78.4269 36.4812H105.161C106.048 36.4812 106.817 35.7714 106.817 34.8251C106.817 33.9379 106.107 33.169 105.161 33.169H119.237C120.124 33.169 120.893 32.4593 120.893 31.513C120.893 30.5666 120.124 29.8569 119.237 29.8569Z" fill="white"/>
<path d="M356.884 21.8132H401.065C401.065 21.8132 401.952 14.5974 392.134 16.1944C392.134 16.1944 392.667 10.3981 387.225 9.15607C381.015 7.73658 378.708 13.3554 378.708 13.3554C378.708 13.3554 379.3 7.1451 372.084 6.43535C364.868 5.72561 363.744 13.178 363.744 13.178C363.744 13.178 356.884 13.7694 356.884 21.8132Z" fill="white"/>
<path opacity="0.5" d="M273.902 53.8109H318.084C318.084 53.8109 318.971 46.5951 309.153 48.192C309.153 48.192 309.685 42.3958 304.244 41.1537C298.034 39.7342 295.727 45.3531 295.727 45.3531C295.727 45.3531 296.318 39.1428 289.103 38.433C281.887 37.7233 280.763 45.1756 280.763 45.1756C280.763 45.1756 273.902 45.7671 273.902 53.8109Z" fill="white"/>
<path d="M135.265 15.4255H179.447C179.447 15.4255 180.334 8.20973 170.516 9.80666C170.516 9.80666 171.048 4.01043 165.607 2.76837C159.397 1.34888 157.09 6.96769 157.09 6.96769C157.09 6.96769 157.682 0.757404 150.466 0.0476585C143.25 -0.662087 142.126 6.79026 142.126 6.79026C142.126 6.79026 135.265 7.32255 135.265 15.4255Z" fill="white"/>
</g>
<defs>
<clipPath id="clip0_1821_174">
<rect width="469.851" height="72.3234" fill="white"/>
</clipPath>
</defs>
</svg>
