<svg width="570" height="140" viewBox="0 0 570 140" fill="none" xmlns="http://www.w3.org/2000/svg">
<g clip-path="url(#clip0_1819_166)">
<path d="M1.08299 15.7301C4.91152 3.77762 17.6577 -2.75889 29.5635 1.11633C41.3292 4.94486 47.8658 17.551 44.2707 29.4101C45.0644 29.27 45.8581 29.3167 46.6518 29.5969C49.3598 30.484 50.8539 33.3787 49.9668 36.0867C49.7333 36.8804 49.3131 37.5341 48.7529 38.0943C50.2469 38.141 51.741 38.3745 53.235 38.8881C59.6782 40.9891 63.9269 46.7786 64.3471 53.175C65.9812 52.7081 67.7554 52.7081 69.4363 53.2684C71.6774 53.9687 73.4049 55.5095 74.432 57.4237C76.6264 54.3889 80.595 52.9416 84.3302 54.2022C86.2444 54.8091 87.8319 56.0697 88.9057 57.6105C93.9949 53.922 100.765 52.6147 107.208 54.7157C116.826 57.8439 122.569 67.4153 121.261 77.1267C122.289 76.7531 123.456 76.7065 124.576 77.08C126.304 77.6402 127.518 78.9942 127.938 80.6284C131.813 77.0333 137.463 75.5859 142.879 77.3601C150.863 79.928 155.251 88.5189 152.683 96.5495C152.403 97.3899 152.076 98.1836 151.656 98.9773C153.15 98.6505 154.691 98.6972 156.232 99.2108C160.901 100.705 163.469 105.747 161.975 110.416C160.481 115.085 155.485 117.653 150.816 116.159L1.9234 85.4374L2.57705 33.2386C-0.130935 28.0094 -0.831276 21.753 1.08299 15.7301Z" fill="url(#paint0_linear_1819_166)"/>
<path d="M568.364 38.7301C564.535 26.7776 551.789 20.2411 539.883 24.1163C528.117 27.9449 521.581 40.551 525.176 52.4101C524.382 52.27 523.588 52.3167 522.748 52.5969C520.04 53.484 518.546 56.3787 519.433 59.0867C519.667 59.8804 520.087 60.5341 520.647 61.0943C519.153 61.141 517.659 61.3745 516.165 61.8881C509.722 63.9891 505.473 69.7786 505.053 76.175C503.419 75.7081 501.644 75.7081 499.964 76.2684C497.723 76.9687 495.995 78.5095 494.968 80.4237C492.773 77.3889 488.805 75.9416 485.07 77.2022C483.155 77.8091 481.568 79.0697 480.494 80.6105C475.405 76.922 468.635 75.6147 462.192 77.7157C452.574 80.8439 446.831 90.4153 448.138 100.127C447.111 99.7531 445.944 99.7065 444.823 100.08C443.096 100.64 441.882 101.994 441.462 103.628C437.587 100.033 431.937 98.5859 426.521 100.36C418.537 102.928 414.149 111.519 416.716 119.549C416.997 120.39 417.323 121.184 417.744 121.977C416.25 121.65 414.709 121.697 413.168 122.211C408.499 123.705 405.931 128.747 407.425 133.416C408.919 138.085 413.915 140.653 418.584 139.159L567.57 108.484L566.916 56.2853C569.577 51.0094 570.325 44.753 568.364 38.7301Z" fill="url(#paint1_linear_1819_166)"/>
</g>
<defs>
<linearGradient id="paint0_linear_1819_166" x1="71.555" y1="111.043" x2="84.3476" y2="49.5305" gradientUnits="userSpaceOnUse">
<stop offset="0.2183" stop-color="white"/>
<stop offset="1" stop-color="white"/>
</linearGradient>
<linearGradient id="paint1_linear_1819_166" x1="497.925" y1="134.041" x2="485.132" y2="72.5291" gradientUnits="userSpaceOnUse">
<stop offset="0.2183" stop-color="white"/>
<stop offset="1" stop-color="white"/>
</linearGradient>
<clipPath id="clip0_1819_166">
<rect width="570" height="139.584" fill="white"/>
</clipPath>
</defs>
</svg>
