<svg width="500" height="500" viewBox="0 0 500 500" fill="none" xmlns="http://www.w3.org/2000/svg">
<rect width="500" height="500" fill="white"/>
<mask id="mask0_2080_136" style="mask-type:alpha" maskUnits="userSpaceOnUse" x="0" y="0" width="500" height="500">
<rect width="500" height="500" fill="white"/>
</mask>
<g mask="url(#mask0_2080_136)">
<rect width="500" height="500" fill="url(#paint0_linear_2080_136)"/>
<g opacity="0.2">
<path d="M257.016 403.51C257.016 365.72 226.298 335.223 188.508 335.223C150.718 335.223 120 365.941 120 403.51C120 441.3 150.718 472.018 188.508 472.018C190.497 472.018 192.486 471.797 194.475 471.576C194.254 469.808 194.254 468.04 194.254 466.051C194.254 464.062 194.254 462.073 194.475 460.084C192.486 460.305 190.497 460.526 188.508 460.526C157.127 460.526 131.492 435.112 131.492 403.51C131.492 372.129 157.127 346.493 188.508 346.493C220.11 346.493 245.525 371.908 245.525 403.51C245.525 428.924 229.171 450.361 206.188 457.653C205.746 460.526 205.525 463.399 205.525 466.272C205.525 467.377 205.525 468.703 205.525 469.808C235.359 462.073 257.016 435.333 257.016 403.51Z" fill="#0E7CC1"/>
<path d="M553.591 403.508C553.591 441.298 522.872 472.016 485.082 472.016C449.502 472.016 420.11 444.392 417.016 409.475C420.994 409.917 424.972 410.801 428.729 412.127C432.928 439.53 456.353 460.746 485.082 460.746C516.685 460.746 542.099 435.331 542.099 403.729C542.099 372.348 516.464 346.713 485.082 346.713C454.806 346.713 430.055 370.359 428.287 400.193C424.53 399.088 420.773 398.646 417.016 398.204C419.889 363.066 449.281 335.221 485.082 335.221C522.872 335 553.591 365.718 553.591 403.508Z" fill="#EE3550"/>
<path d="M410.828 409.254C439.337 409.254 463.204 430.249 467.182 457.873C470.939 458.978 474.917 460.083 478.895 460.304C475.801 425.387 446.408 397.983 410.607 397.983C408.618 397.983 406.63 397.983 404.862 398.204C404.862 399.972 404.862 401.74 404.862 403.729C404.862 405.718 404.862 407.928 404.641 409.696C407.071 409.254 409.06 409.254 410.828 409.254ZM467.845 469.807C466.077 499.641 441.326 523.287 410.828 523.287C379.447 523.287 353.812 497.652 353.812 466.271C353.812 441.077 370.386 419.641 393.149 412.127C393.591 409.475 393.812 406.602 393.812 403.729C393.812 402.624 393.812 401.519 393.591 400.193C364.199 407.707 342.541 434.668 342.541 466.492C342.541 504.282 373.038 535 410.828 535C446.85 535 476.243 507.376 479.116 472.016C475.359 471.353 471.602 470.691 467.845 469.807Z" fill="#099E4E"/>
<path d="M256.795 409.475C257.016 407.707 257.016 405.497 257.016 403.508C257.016 401.741 257.016 399.973 256.795 397.984C258.784 397.763 260.773 397.763 262.762 397.763C298.563 397.763 327.735 425.166 330.829 460.083C326.851 459.641 322.873 458.757 319.116 457.652C315.138 430.249 291.271 409.033 262.762 409.033C260.773 409.254 258.784 409.254 256.795 409.475ZM331.049 471.575C328.177 506.934 298.784 534.558 262.762 534.558C224.972 534.558 194.254 503.84 194.254 466.05C194.254 434.227 216.132 407.486 245.525 399.752C245.525 400.857 245.525 401.962 245.525 403.288C245.525 406.16 245.304 409.033 244.862 411.685C222.099 419.199 205.525 440.636 205.525 465.829C205.525 497.21 231.16 522.845 262.541 522.845C292.817 522.845 317.569 499.199 319.337 469.365C323.315 470.691 327.072 471.354 331.049 471.575Z" fill="#FCB232"/>
<path d="M336.795 335C300.773 335 271.381 362.845 268.508 397.983C272.265 398.425 276.243 398.867 279.779 399.972C281.547 370.138 306.298 346.492 336.574 346.492C367.956 346.492 393.591 371.906 393.591 403.508C393.591 428.923 377.016 450.359 354.254 457.652C353.812 460.525 353.591 463.398 353.591 466.271C353.591 467.376 353.591 468.702 353.591 469.807C382.983 462.293 404.641 435.552 404.641 403.508C405.304 365.718 374.585 335 336.795 335ZM336.795 460.525C308.287 460.525 284.42 439.53 280.442 411.906C276.685 410.58 272.707 409.917 268.729 409.254C271.823 444.171 301.215 471.796 337.016 471.796C339.005 471.796 340.994 471.574 342.983 471.353C342.762 469.586 342.762 467.818 342.762 465.829C342.762 463.84 342.762 461.851 342.983 459.862C340.773 460.304 338.784 460.525 336.795 460.525Z" fill="#15191A"/>
</g>
</g>
<defs>
<linearGradient id="paint0_linear_2080_136" x1="0.0166784" y1="250.049" x2="500.033" y2="250.049" gradientUnits="userSpaceOnUse">
<stop stop-color="#F4D321"/>
<stop offset="0.0333759" stop-color="#F3C420"/>
<stop offset="0.1416" stop-color="#EF971D"/>
<stop offset="0.2384" stop-color="#EC771B"/>
<stop offset="0.3193" stop-color="#EB6319"/>
<stop offset="0.3744" stop-color="#EA5C19"/>
<stop offset="0.5959" stop-color="#729557"/>
<stop offset="0.6793" stop-color="#44AB6F"/>
</linearGradient>
</defs>
</svg>
