<svg width="500" height="500" viewBox="0 0 500 500" fill="none" xmlns="http://www.w3.org/2000/svg">
<rect width="500" height="500" fill="#2E9AD8"/>
<mask id="mask0_2138_2" style="mask-type:alpha" maskUnits="userSpaceOnUse" x="0" y="0" width="500" height="500">
<rect width="500" height="500" fill="#007DB6"/>
</mask>
<g mask="url(#mask0_2138_2)">
<path d="M155.219 -42.4727H105.291V17.2657H160.887V26.6407H105.291V86.3791H155.219C190.756 86.3791 219.535 57.6 219.535 22.0622C219.535 -13.6936 190.756 -42.4727 155.219 -42.4727Z" fill="white" fill-opacity="0.4"/>
<path d="M105.291 17.2666H80V26.6416H105.291V17.2666Z" fill="white" fill-opacity="0.4"/>
<path d="M276.003 56.9447C275.349 56.0726 274.477 55.2005 273.387 54.5465C272.297 53.8924 270.988 53.6744 269.68 53.6744C266.41 53.6744 263.794 54.5465 262.049 56.5087C260.305 58.4709 259.215 61.0872 259.215 64.1395C259.215 67.4098 260.087 69.8081 262.049 71.7703C263.794 73.7325 266.41 74.6046 269.68 74.6046C271.206 74.6046 272.297 74.3866 273.387 73.7325C274.477 73.0784 275.349 72.4244 276.003 71.5523L284.506 80.4912C282.544 82.6715 280.145 83.9796 277.311 84.8517C274.477 85.7238 271.861 86.1598 269.462 86.1598C266.192 86.1598 263.14 85.7238 260.305 84.6337C257.471 83.5436 255.073 82.0174 252.893 80.2732C250.712 78.311 249.186 75.9128 247.878 73.2965C246.57 70.6802 246.134 67.6279 246.134 64.1395C246.134 60.8691 246.788 57.8168 247.878 54.9825C249.186 52.3662 250.712 49.968 252.893 48.0058C255.073 46.0436 257.471 44.5174 260.305 43.6453C263.14 42.5552 266.192 42.1191 269.462 42.1191C271.861 42.1191 274.477 42.5552 277.311 43.4273C280.145 44.2994 282.326 45.8255 284.506 47.7878L276.003 56.9447Z" fill="white" fill-opacity="0.4"/>
<path d="M292.355 64.3563C292.355 61.0859 293.009 58.0336 294.099 55.1993C295.407 52.583 296.933 50.1848 299.113 48.2226C301.294 46.2603 303.692 44.7342 306.526 43.8621C309.361 42.772 312.413 42.3359 315.683 42.3359C318.954 42.3359 322.006 42.772 324.84 43.8621C327.675 44.9522 330.073 46.4784 332.253 48.2226C334.433 50.1848 335.959 52.583 337.268 55.1993C338.576 57.8156 339.012 60.8679 339.012 64.3563C339.012 67.6266 338.358 70.679 337.268 73.5133C335.959 76.1295 334.433 78.5278 332.253 80.49C330.073 82.4522 327.675 83.9784 324.84 84.8505C322.006 85.9406 318.954 86.3766 315.683 86.3766C312.413 86.3766 309.361 85.9406 306.526 84.8505C303.692 83.7604 301.294 82.2342 299.113 80.49C296.933 78.5278 295.407 76.1295 294.099 73.5133C293.009 70.679 292.355 67.6266 292.355 64.3563ZM305.436 64.3563C305.436 67.6266 306.308 70.0249 308.27 71.9871C310.015 73.9493 312.631 74.8214 315.901 74.8214C319.172 74.8214 321.788 73.7313 323.532 71.9871C325.276 70.0249 326.366 67.4086 326.366 64.3563C326.366 61.0859 325.494 58.6877 323.532 56.7255C321.788 54.7633 319.172 53.8912 315.901 53.8912C312.631 53.8912 310.015 54.7633 308.27 56.7255C306.308 58.6877 305.436 61.304 305.436 64.3563Z" fill="white" fill-opacity="0.4"/>
<path d="M351.439 43.4273H363.867V49.0959H364.085C364.521 48.2238 364.957 47.5697 365.829 46.6976C366.483 45.8255 367.573 45.1715 368.445 44.5174C369.535 43.8633 370.625 43.4273 371.934 42.9912C373.242 42.5552 374.768 42.3372 376.294 42.3372C379.128 42.3372 381.745 42.9912 384.143 44.0814C386.323 45.3895 388.067 47.1337 389.375 49.75C390.902 47.1337 392.646 45.1715 394.826 43.8633C397.006 42.7732 399.623 42.1191 402.675 42.1191C405.509 42.1191 407.907 42.5552 409.87 43.6453C411.832 44.5174 413.358 45.8255 414.448 47.5697C415.538 49.3139 416.41 51.0581 416.846 53.4564C417.282 55.6366 417.501 58.0348 417.501 60.6511V85.5058H404.419V60.8691C404.419 58.9069 403.983 57.1627 403.111 55.8546C402.239 54.5465 400.713 53.6744 398.751 53.6744C397.224 53.6744 395.916 53.8924 395.044 54.3285C393.954 54.7645 393.3 55.4186 392.646 56.2907C391.992 57.1627 391.556 58.2529 391.338 59.343C391.12 60.4331 390.902 61.7412 390.902 63.0494V85.2878H377.82V63.2674C377.82 62.6133 377.82 61.5232 377.82 60.4331C377.82 59.343 377.602 58.2529 377.166 57.3808C376.73 56.5087 376.294 55.6366 375.422 54.7645C374.55 54.1104 373.46 53.6744 371.934 53.6744C370.189 53.6744 368.881 53.8924 367.791 54.5465C366.701 55.2005 366.047 55.8546 365.393 56.9447C364.739 58.0348 364.521 59.125 364.303 60.4331C364.085 61.7412 364.085 63.0494 364.085 64.3575V85.2878H351.003V43.4273H351.439Z" fill="white" fill-opacity="0.4"/>
<path d="M432.762 43.4273H444.753V48.8779H444.971C445.407 48.2238 446.061 47.3517 446.933 46.4796C447.805 45.6075 448.677 44.9534 449.768 44.2994C450.858 43.6453 452.166 43.2093 453.474 42.7732C454.782 42.3372 456.308 42.1191 457.616 42.1191C460.669 42.1191 463.503 42.5552 466.119 43.6453C468.736 44.7354 470.916 46.2616 472.66 48.2238C474.404 50.186 475.93 52.3662 476.802 55.2005C477.675 57.8168 478.329 60.8691 478.329 63.9215C478.329 66.7558 477.893 69.5901 477.02 72.4244C476.148 75.0407 474.84 77.4389 473.314 79.6191C471.57 81.7994 469.608 83.3255 467.209 84.6337C464.811 85.9418 462.195 86.5959 459.143 86.5959C456.526 86.5959 453.91 86.1598 451.512 85.2877C449.113 84.4157 447.151 83.1075 445.843 80.9273H445.625V105.128H432.544V43.4273H432.762ZM444.753 64.3575C444.753 67.6279 445.625 70.0261 447.587 71.9883C449.332 73.9505 451.948 74.8226 455.218 74.8226C458.488 74.8226 461.105 73.7325 462.849 71.9883C464.593 70.0261 465.683 67.4098 465.683 64.3575C465.683 61.0872 464.811 58.6889 462.849 56.7267C461.105 54.7645 458.488 53.8924 455.218 53.8924C451.948 53.8924 449.332 54.7645 447.587 56.7267C445.625 58.6889 444.753 61.3052 444.753 64.3575Z" fill="white" fill-opacity="0.4"/>
<path d="M517.137 80.054C515.61 82.2342 513.648 83.9784 511.25 84.8505C508.852 85.9406 506.235 86.3766 503.619 86.3766C501.657 86.3766 499.695 86.1586 497.951 85.5045C496.206 84.8505 494.462 84.1964 493.154 83.1063C491.846 82.0162 490.756 80.708 489.884 78.9638C489.012 77.4377 488.576 75.4755 488.576 73.2952C488.576 70.897 489.012 68.7167 489.884 67.1906C490.756 65.4464 492.064 64.1383 493.59 63.0481C495.116 61.958 496.86 61.0859 498.823 60.4319C500.785 59.7778 502.747 59.3417 504.927 59.1237C507.108 58.9057 509.07 58.6877 511.25 58.6877C513.43 58.6877 515.392 58.6877 517.137 58.6877C517.137 56.2894 516.265 54.5452 514.738 53.2371C512.994 51.929 511.25 51.2749 508.852 51.2749C506.672 51.2749 504.709 51.7109 502.965 52.583C501.221 53.4551 499.695 54.7633 498.169 56.2894L491.192 49.0947C493.59 46.9144 496.424 45.1702 499.695 44.0801C502.965 42.99 506.235 42.3359 509.724 42.3359C513.43 42.3359 516.701 42.772 519.099 43.8621C521.497 44.7342 523.459 46.2604 524.985 48.0045C526.512 49.7487 527.384 52.147 528.038 54.7633C528.692 57.3795 528.91 60.6499 528.91 64.1383V85.5045H516.919V80.054H517.137ZM514.084 66.9726C512.994 66.9726 511.904 66.9726 510.378 67.1906C508.852 67.1906 507.544 67.6266 506.235 67.8447C504.927 68.2807 503.619 68.9348 502.747 69.5888C501.875 70.4609 501.221 71.5511 501.221 72.8592C501.221 74.3854 501.875 75.4755 503.183 76.3476C504.491 77.0016 505.799 77.4377 507.326 77.4377C508.634 77.4377 509.724 77.2197 511.032 77.0016C512.122 76.5656 513.212 76.1295 514.084 75.4755C514.956 74.8214 515.829 73.9493 516.265 73.0772C516.919 71.9871 517.137 70.897 517.137 69.5888V66.7545H514.084V66.9726Z" fill="white" fill-opacity="0.4"/>
<path d="M247.224 -43.5635H269.244C274.695 -43.5635 279.709 -42.9094 284.506 -41.6013C289.302 -40.2931 293.445 -38.3309 297.151 -35.4966C300.64 -32.6623 303.692 -28.9559 305.654 -24.5955C307.834 -20.017 308.924 -14.5664 308.924 -8.2437C308.924 -2.5751 307.834 2.43944 305.872 6.7999C303.91 11.1604 301.076 14.8668 297.587 17.7011C294.099 20.5354 290.174 22.9336 285.596 24.4598C281.017 25.986 276.221 26.64 271.424 26.64H247.442V-43.5635H247.224ZM261.831 12.2505H269.462C272.951 12.2505 276.003 11.8144 278.837 11.1604C281.672 10.5063 284.288 9.19816 286.468 7.45397C288.648 5.70978 290.392 3.52955 291.483 0.913271C292.791 -1.92103 293.227 -5.19138 293.227 -9.1158C293.227 -12.6042 292.573 -15.4385 291.483 -18.0548C290.174 -20.671 288.648 -22.6332 286.468 -24.3774C284.288 -26.1216 281.89 -27.2117 279.055 -28.0838C276.221 -28.9559 273.387 -29.392 270.334 -29.392H261.613V12.2505H261.831Z" fill="white" fill-opacity="0.4"/>
<path d="M346.425 15.5201L355.364 24.8951H344.462L341.192 21.1887C339.448 22.9329 337.704 24.023 335.96 24.8951C333.997 25.5492 331.817 25.9852 329.637 25.9852C327.893 25.9852 326.148 25.7672 324.404 25.3311C322.66 24.8951 321.134 24.023 319.826 23.1509C318.518 22.0608 317.428 20.9707 316.555 19.4445C315.683 17.9184 315.465 16.1742 315.465 14.212C315.465 12.9038 315.683 11.8137 316.119 10.5056C316.555 9.41545 317.21 8.32533 317.864 7.45324C318.736 6.58115 319.608 5.70905 320.48 5.05498C321.57 4.40091 322.66 3.74684 323.75 3.3108C323.096 2.65673 322.442 2.00266 322.006 1.34859C321.352 0.69452 320.916 0.0404506 320.698 -0.613619C320.262 -1.26769 320.044 -2.13978 319.826 -2.79385C319.608 -3.66595 319.608 -4.53804 319.608 -5.41013C319.608 -7.15432 320.044 -8.68048 320.698 -9.98862C321.352 -11.2968 322.224 -12.3869 323.532 -13.259C324.622 -14.1311 325.93 -14.7851 327.457 -15.0032C328.983 -15.4392 330.509 -15.6572 332.035 -15.6572C333.561 -15.6572 335.087 -15.4392 336.396 -15.0032C337.704 -14.5671 339.012 -13.913 340.102 -13.259C341.192 -12.3869 342.064 -11.5148 342.718 -10.2066C343.372 -8.8985 343.59 -7.59037 343.59 -5.84618C343.59 -4.53804 343.372 -3.44793 342.936 -2.57583C342.5 -1.48572 342.064 -0.61362 341.41 0.258473C340.756 1.13057 339.884 2.00266 339.012 2.65673C338.14 3.3108 337.268 3.96487 336.178 4.40091L341.41 9.8515L345.335 4.61894H355.146L346.425 15.5201ZM328.983 7.88929C328.329 8.32533 327.893 8.54336 327.239 8.9794C326.803 9.41545 326.148 9.63347 325.712 10.0695C325.276 10.5056 324.84 10.9416 324.622 11.5957C324.404 12.2498 324.186 12.9038 324.186 13.5579C324.186 14.212 324.404 15.0841 324.622 15.5201C324.84 16.1742 325.276 16.6102 325.712 17.0463C326.148 17.4823 326.803 17.7003 327.457 18.1364C328.111 18.3544 328.765 18.5724 329.419 18.5724C330.727 18.5724 331.817 18.3544 332.907 17.7003C333.779 17.0463 334.869 16.3922 335.742 15.5201L328.983 7.88929ZM331.599 -9.33455C330.509 -9.33455 329.637 -8.8985 328.765 -8.24443C328.111 -7.59036 327.675 -6.71827 327.675 -5.62816C327.675 -5.19211 327.893 -4.75606 328.111 -4.10199C328.329 -3.66595 328.547 -3.2299 328.983 -2.79385C329.201 -2.35781 329.637 -1.92176 330.073 -1.48572C330.509 -1.04967 330.945 -0.831646 331.163 -0.395599C331.599 -0.613623 332.035 -1.04967 332.689 -1.26769C333.125 -1.70374 333.779 -1.92176 334.215 -2.35781C334.651 -2.79385 335.087 -3.2299 335.305 -3.66595C335.523 -4.102 335.742 -4.75606 335.742 -5.19211C335.742 -6.28223 335.305 -7.15432 334.651 -7.80839C333.779 -8.89851 332.689 -9.33455 331.599 -9.33455Z" fill="white" fill-opacity="0.4"/>
<path d="M406.817 -24.5959C405.291 -26.3401 403.547 -27.6483 401.585 -28.7384C399.404 -29.6105 397.006 -30.2645 394.172 -30.2645C391.338 -30.2645 388.939 -29.8285 386.541 -28.7384C384.143 -27.6483 382.181 -26.1221 380.436 -24.1599C378.692 -22.1977 377.384 -20.0174 376.294 -17.4012C375.422 -14.7849 374.768 -11.9506 374.768 -8.89825C374.768 -5.84593 375.204 -2.7936 376.294 -0.177321C377.166 2.43896 378.692 4.61919 380.218 6.5814C381.962 8.54361 383.925 10.0698 386.105 11.1599C388.503 12.25 390.901 12.6861 393.518 12.6861C396.57 12.6861 399.186 12.032 401.585 10.7238C403.983 9.4157 405.727 7.67152 407.253 5.49129L419.462 14.6483C416.628 18.5727 413.14 21.625 408.779 23.3692C404.419 25.3314 400.058 26.2035 395.48 26.2035C390.247 26.2035 385.451 25.3314 381.09 23.8052C376.73 22.0611 372.805 19.8808 369.753 16.8285C366.483 13.7762 364.085 10.0698 362.34 5.70931C360.596 1.34884 359.724 -3.44767 359.724 -8.89825C359.724 -14.3488 360.596 -19.1453 362.34 -23.5058C364.085 -27.8663 366.701 -31.5727 369.753 -34.625C373.024 -37.6773 376.73 -40.0756 381.09 -41.6017C385.451 -43.1279 390.247 -44 395.48 -44C397.442 -44 399.404 -43.782 401.367 -43.564C403.329 -43.1279 405.509 -42.6919 407.471 -41.8198C409.433 -41.1657 411.396 -40.0756 413.14 -38.7674C414.884 -37.4593 416.628 -35.9331 418.154 -34.189L406.817 -24.5959Z" fill="white" fill-opacity="0.4"/>
<path d="M432.762 5.49414H439.085C440.611 5.49414 442.137 5.71217 443.445 5.93019C444.753 6.36624 446.061 6.80228 446.933 7.67437C448.024 8.32844 448.678 9.41856 449.332 10.7267C449.986 12.0348 450.204 13.343 450.204 15.0872C450.204 16.6133 449.986 17.9215 449.332 19.2296C448.678 20.3197 448.024 21.4098 446.933 22.0639C445.843 22.936 444.753 23.372 443.445 23.8081C442.137 24.2441 440.829 24.4622 439.303 24.4622H432.544V5.49414H432.762ZM436.904 20.5377H439.085C439.957 20.5377 441.047 20.5377 441.701 20.3197C442.573 20.1017 443.227 19.8837 443.881 19.4476C444.535 19.0116 444.971 18.3575 445.407 17.7034C445.843 17.0494 445.843 15.9593 445.843 15.0872C445.843 14.2151 445.625 13.343 445.407 12.6889C444.971 12.0348 444.535 11.3808 444.099 10.9447C443.445 10.5087 442.791 10.0726 441.919 9.85461C441.047 9.63658 440.393 9.41856 439.521 9.41856H437.122V20.5377H436.904Z" fill="white" fill-opacity="0.4"/>
<path d="M464.811 22.0642C464.157 22.9363 463.285 23.5904 462.413 24.0265C461.323 24.4625 460.451 24.6805 459.361 24.6805C458.271 24.6805 457.398 24.4625 456.526 24.2445C455.654 24.0265 454.782 23.3724 454.128 22.9363C453.474 22.2823 453.038 21.6282 452.602 20.7561C452.166 19.884 451.948 19.0119 451.948 17.9218C451.948 16.8317 452.166 15.9596 452.602 15.0875C453.038 14.2154 453.474 13.5613 454.128 12.9073C454.782 12.2532 455.654 11.8172 456.526 11.5991C457.398 11.3811 458.271 11.1631 459.361 11.1631C460.233 11.1631 461.105 11.3811 461.977 11.5991C462.631 11.8172 463.285 12.4712 463.939 12.9073C464.375 13.5613 464.811 14.2154 465.247 15.0875C465.465 15.9596 465.683 16.8317 465.683 17.9218V19.2299H456.308C456.526 20.102 456.744 20.5381 457.398 20.9741C457.835 21.4102 458.489 21.6282 459.361 21.6282C460.015 21.6282 460.669 21.4102 461.105 21.1922C461.541 20.9741 461.977 20.5381 462.195 20.102L464.811 22.0642ZM461.541 16.3956C461.541 15.7416 461.323 15.0875 460.887 14.6515C460.451 14.2154 459.797 13.9974 459.143 13.9974C458.707 13.9974 458.271 13.9974 458.053 14.2154C457.616 14.4334 457.398 14.4334 457.18 14.8695C456.962 15.0875 456.744 15.3055 456.526 15.7416C456.308 15.9596 456.308 16.3956 456.308 16.6137H461.541V16.3956Z" fill="white" fill-opacity="0.4"/>
<path d="M475.276 15.3041C474.622 14.65 473.968 14.2139 472.878 14.2139C472.442 14.2139 472.224 14.2139 471.788 14.432C471.57 14.65 471.352 14.868 471.352 15.3041C471.352 15.5221 471.57 15.9581 471.788 15.9581C472.224 16.1761 472.442 16.1761 473.096 16.3942C473.532 16.6122 474.186 16.6122 474.84 16.8302C475.495 17.0482 475.931 17.2663 476.367 17.4843C476.803 17.7023 477.239 18.1384 477.675 18.5744C478.111 19.0104 478.111 19.6645 478.111 20.5366C478.111 21.4087 477.893 22.0628 477.457 22.7168C477.021 23.3709 476.585 23.807 476.149 24.025C475.494 24.461 474.84 24.6791 474.186 24.6791C473.532 24.8971 472.66 24.8971 472.006 24.8971C471.134 24.8971 470.262 24.6791 469.172 24.461C468.3 24.243 467.428 23.807 466.774 23.1529L469.172 20.5366C469.608 20.9727 470.044 21.4087 470.48 21.6267C470.916 21.8448 471.57 22.0628 472.006 22.0628C472.442 22.0628 472.878 22.0628 473.314 21.8448C473.75 21.6267 473.968 21.4087 473.968 21.1907C473.968 20.7546 473.75 20.5366 473.532 20.5366C473.096 20.3186 472.878 20.3186 472.224 20.1006C471.788 19.8825 471.134 19.8825 470.48 19.6645C469.826 19.4465 469.39 19.2285 468.954 19.0105C468.518 18.7924 468.082 18.3564 467.646 17.9203C467.21 17.4843 467.21 16.8302 467.21 15.9581C467.21 15.086 467.428 14.432 467.646 13.9959C467.864 13.3418 468.3 12.9058 468.954 12.6878C469.39 12.2517 470.044 12.0337 470.698 11.8157C471.352 11.5977 472.006 11.5977 472.66 11.5977C473.532 11.5977 474.404 11.8157 475.276 12.0337C476.149 12.2517 476.803 12.6878 477.457 13.3418L475.276 15.3041Z" fill="white" fill-opacity="0.4"/>
<path d="M480.073 7.2381C480.073 6.58403 480.291 6.14798 480.727 5.49391C481.163 5.05787 481.817 4.83984 482.472 4.83984C483.126 4.83984 483.562 5.05787 484.216 5.49391C484.652 5.92996 484.87 6.58403 484.87 7.2381C484.87 7.89217 484.652 8.32822 484.216 8.98229C483.78 9.41833 483.126 9.63635 482.472 9.63635C481.817 9.63635 481.381 9.41833 480.727 8.98229C480.291 8.54624 480.073 7.89217 480.073 7.2381ZM480.291 11.3805H484.216V24.4619H480.291V11.3805Z" fill="white" fill-opacity="0.4"/>
<path d="M501.003 23.3724C501.003 25.7706 500.349 27.7329 499.041 29.041C497.733 30.3491 495.989 31.0032 493.373 31.0032C492.283 31.0032 490.974 30.7852 489.884 30.5672C488.794 30.3491 487.704 29.6951 486.832 29.041L489.012 25.7706C489.666 26.2067 490.32 26.6427 490.974 27.0788C491.628 27.2968 492.501 27.5148 493.155 27.5148C494.463 27.5148 495.335 27.2968 495.771 26.6427C496.425 25.9887 496.643 25.3346 496.643 24.2445V22.9363C496.207 23.5904 495.553 24.0265 494.899 24.2445C494.245 24.4625 493.591 24.6805 492.937 24.6805C492.064 24.6805 491.192 24.4625 490.32 24.2445C489.448 23.8084 488.794 23.3724 488.358 22.9363C487.704 22.2823 487.268 21.6282 487.05 20.7561C486.832 19.884 486.614 19.0119 486.614 18.1398C486.614 17.2677 486.832 16.3956 487.05 15.5236C487.268 14.6515 487.704 13.9974 488.14 13.3433C488.576 12.6892 489.23 12.2532 490.102 11.8172C490.756 11.3811 491.628 11.1631 492.501 11.1631C493.155 11.1631 493.591 11.1631 494.027 11.3811C494.463 11.5991 494.899 11.5991 495.335 11.8172C495.771 12.0352 495.989 12.2532 496.207 12.4712C496.425 12.6892 496.643 12.9073 496.861 13.1253V11.3811H500.567V23.3724H501.003ZM490.756 17.7038C490.756 18.1398 490.756 18.5759 490.974 19.0119C491.192 19.448 491.41 19.666 491.628 20.102C491.846 20.3201 492.283 20.5381 492.719 20.7561C493.155 20.9741 493.591 20.9741 494.027 20.9741C494.463 20.9741 494.899 20.9741 495.335 20.7561C495.771 20.5381 495.989 20.3201 496.425 20.102C496.643 19.884 496.861 19.448 497.079 19.0119C497.297 18.5759 497.297 18.1398 497.297 17.7038C497.297 17.2677 497.297 16.8317 497.079 16.3956C496.861 15.9596 496.643 15.7416 496.425 15.3055C496.207 15.0875 495.771 14.8695 495.335 14.6515C494.899 14.4334 494.463 14.4334 494.027 14.4334C493.591 14.4334 493.155 14.4334 492.719 14.6515C492.283 14.8695 492.064 15.0875 491.628 15.3055C491.41 15.5236 491.192 15.9596 490.974 16.3956C490.974 17.0497 490.756 17.4858 490.756 17.7038Z" fill="white" fill-opacity="0.4"/>
<path d="M-25.7814 392.527H-75.7087V452.266H-20.1128V461.641H-75.7087V521.379H-25.7814C9.75639 521.379 38.5355 492.6 38.5355 457.062C38.5355 421.306 9.75639 392.527 -25.7814 392.527Z" fill="white" fill-opacity="0.4"/>
<path d="M95.003 491.945C94.3489 491.073 93.4768 490.201 92.3867 489.546C91.2966 488.892 89.9885 488.674 88.6803 488.674C85.41 488.674 82.7937 489.546 81.0495 491.509C79.3053 493.471 78.2152 496.087 78.2152 499.139C78.2152 502.41 79.0873 504.808 81.0495 506.77C82.7937 508.733 85.41 509.605 88.6803 509.605C90.2065 509.605 91.2966 509.387 92.3867 508.733C93.4768 508.078 94.3489 507.424 95.003 506.552L103.506 515.491C101.544 517.671 99.1454 518.98 96.3111 519.852C93.4768 520.724 90.8605 521.16 88.4623 521.16C85.1919 521.16 82.1396 520.724 79.3053 519.634C76.471 518.544 74.0728 517.017 71.8925 515.273C69.7123 513.311 68.1861 510.913 66.878 508.296C65.5698 505.68 65.1338 502.628 65.1338 499.139C65.1338 495.869 65.7879 492.817 66.878 489.983C68.1861 487.366 69.7123 484.968 71.8925 483.006C74.0728 481.044 76.471 479.517 79.3053 478.645C82.1396 477.555 85.1919 477.119 88.4623 477.119C90.8605 477.119 93.4768 477.555 96.3111 478.427C99.1454 479.299 101.326 480.826 103.506 482.788L95.003 491.945Z" fill="white" fill-opacity="0.4"/>
<path d="M111.355 499.356C111.355 496.086 112.009 493.034 113.099 490.199C114.407 487.583 115.933 485.185 118.113 483.223C120.294 481.26 122.692 479.734 125.526 478.862C128.361 477.772 131.413 477.336 134.683 477.336C137.954 477.336 141.006 477.772 143.84 478.862C146.675 479.952 149.073 481.478 151.253 483.223C153.433 485.185 154.959 487.583 156.268 490.199C157.576 492.816 158.012 495.868 158.012 499.356C158.012 502.627 157.358 505.679 156.268 508.513C154.959 511.13 153.433 513.528 151.253 515.49C149.073 517.452 146.675 518.978 143.84 519.85C141.006 520.941 137.954 521.377 134.683 521.377C131.413 521.377 128.361 520.941 125.526 519.85C122.692 518.76 120.294 517.234 118.113 515.49C115.933 513.528 114.407 511.13 113.099 508.513C112.009 505.679 111.355 502.627 111.355 499.356ZM124.436 499.356C124.436 502.627 125.308 505.025 127.27 506.987C129.015 508.949 131.631 509.821 134.901 509.821C138.172 509.821 140.788 508.731 142.532 506.987C144.276 505.025 145.366 502.409 145.366 499.356C145.366 496.086 144.494 493.688 142.532 491.725C140.788 489.763 138.172 488.891 134.901 488.891C131.631 488.891 129.015 489.763 127.27 491.725C125.308 493.688 124.436 496.304 124.436 499.356Z" fill="white" fill-opacity="0.4"/>
<path d="M170.439 478.427H182.867V484.096H183.085C183.521 483.224 183.957 482.57 184.829 481.698C185.483 480.826 186.573 480.171 187.445 479.517C188.535 478.863 189.625 478.427 190.934 477.991C192.242 477.555 193.768 477.337 195.294 477.337C198.128 477.337 200.745 477.991 203.143 479.081C205.323 480.389 207.067 482.134 208.375 484.75C209.902 482.134 211.646 480.171 213.826 478.863C216.006 477.773 218.623 477.119 221.675 477.119C224.509 477.119 226.907 477.555 228.87 478.645C230.832 479.517 232.358 480.826 233.448 482.57C234.538 484.314 235.41 486.058 235.846 488.456C236.282 490.637 236.501 493.035 236.501 495.651V520.506H223.419V495.869C223.419 493.907 222.983 492.163 222.111 490.855C221.239 489.546 219.713 488.674 217.751 488.674C216.224 488.674 214.916 488.892 214.044 489.328C212.954 489.764 212.3 490.419 211.646 491.291C210.992 492.163 210.556 493.253 210.338 494.343C210.12 495.433 209.902 496.741 209.902 498.049V520.288H196.82V498.267C196.82 497.613 196.82 496.523 196.82 495.433C196.82 494.343 196.602 493.253 196.166 492.381C195.73 491.509 195.294 490.637 194.422 489.764C193.55 489.11 192.46 488.674 190.934 488.674C189.189 488.674 187.881 488.892 186.791 489.546C185.701 490.201 185.047 490.855 184.393 491.945C183.739 493.035 183.521 494.125 183.303 495.433C183.085 496.741 183.085 498.049 183.085 499.358V520.288H170.003V478.427H170.439Z" fill="white" fill-opacity="0.4"/>
<path d="M251.762 478.427H263.753V483.878H263.971C264.407 483.224 265.061 482.352 265.933 481.48C266.805 480.608 267.677 479.953 268.768 479.299C269.858 478.645 271.166 478.209 272.474 477.773C273.782 477.337 275.308 477.119 276.616 477.119C279.669 477.119 282.503 477.555 285.119 478.645C287.736 479.735 289.916 481.262 291.66 483.224C293.404 485.186 294.93 487.366 295.802 490.201C296.675 492.817 297.329 495.869 297.329 498.921C297.329 501.756 296.893 504.59 296.02 507.424C295.148 510.041 293.84 512.439 292.314 514.619C290.57 516.799 288.608 518.326 286.209 519.634C283.811 520.942 281.195 521.596 278.143 521.596C275.526 521.596 272.91 521.16 270.512 520.288C268.113 519.416 266.151 518.108 264.843 515.927H264.625V540.128H251.544V478.427H251.762ZM263.753 499.358C263.753 502.628 264.625 505.026 266.587 506.988C268.332 508.951 270.948 509.823 274.218 509.823C277.488 509.823 280.105 508.733 281.849 506.988C283.593 505.026 284.683 502.41 284.683 499.358C284.683 496.087 283.811 493.689 281.849 491.727C280.105 489.764 277.488 488.892 274.218 488.892C270.948 488.892 268.332 489.764 266.587 491.727C264.625 493.689 263.753 496.305 263.753 499.358Z" fill="white" fill-opacity="0.4"/>
<path d="M336.137 515.054C334.61 517.234 332.648 518.978 330.25 519.85C327.852 520.941 325.235 521.377 322.619 521.377C320.657 521.377 318.695 521.159 316.95 520.505C315.206 519.85 313.462 519.196 312.154 518.106C310.846 517.016 309.756 515.708 308.884 513.964C308.011 512.438 307.575 510.475 307.575 508.295C307.575 505.897 308.011 503.717 308.884 502.191C309.756 500.446 311.064 499.138 312.59 498.048C314.116 496.958 315.86 496.086 317.823 495.432C319.785 494.778 321.747 494.342 323.927 494.124C326.107 493.906 328.07 493.688 330.25 493.688C332.43 493.688 334.392 493.688 336.137 493.688C336.137 491.289 335.264 489.545 333.738 488.237C331.994 486.929 330.25 486.275 327.852 486.275C325.671 486.275 323.709 486.711 321.965 487.583C320.221 488.455 318.695 489.763 317.168 491.289L310.192 484.095C312.59 481.914 315.424 480.17 318.695 479.08C321.965 477.99 325.235 477.336 328.724 477.336C332.43 477.336 335.7 477.772 338.099 478.862C340.497 479.734 342.459 481.26 343.985 483.005C345.512 484.749 346.384 487.147 347.038 489.763C347.692 492.38 347.91 495.65 347.91 499.138V520.505H335.918V515.054H336.137ZM333.084 501.973C331.994 501.973 330.904 501.973 329.378 502.191C327.852 502.191 326.543 502.627 325.235 502.845C323.927 503.281 322.619 503.935 321.747 504.589C320.875 505.461 320.221 506.551 320.221 507.859C320.221 509.385 320.875 510.475 322.183 511.348C323.491 512.002 324.799 512.438 326.325 512.438C327.634 512.438 328.724 512.22 330.032 512.002C331.122 511.566 332.212 511.13 333.084 510.475C333.956 509.821 334.828 508.949 335.264 508.077C335.918 506.987 336.137 505.897 336.137 504.589V501.755H333.084V501.973Z" fill="white" fill-opacity="0.4"/>
<path d="M360.992 478.426H373.419V484.095H373.637C374.073 483.223 374.509 482.568 375.381 481.696C376.035 480.824 377.125 480.17 377.998 479.516C379.088 478.862 380.178 478.426 381.486 477.99C382.794 477.554 384.32 477.336 385.846 477.336C389.117 477.336 391.733 477.772 393.913 478.862C395.875 479.952 397.402 481.26 398.71 483.005C399.8 484.749 400.672 486.929 401.108 489.327C401.544 491.725 401.762 494.342 401.762 497.176V520.287H388.681V499.792C388.681 498.484 388.681 497.394 388.463 496.086C388.463 494.778 388.027 493.688 387.591 492.598C387.155 491.507 386.5 490.635 385.628 489.981C384.756 489.327 383.448 488.891 381.704 488.891C379.96 488.891 378.652 489.109 377.561 489.763C376.471 490.417 375.817 491.071 375.163 492.162C374.509 493.252 374.291 494.342 374.073 495.65C373.855 496.958 373.855 498.266 373.855 499.574V520.505H360.774V478.426H360.992Z" fill="white" fill-opacity="0.4"/>
<path d="M439.698 527.264C438.826 529.444 437.954 531.407 437.082 533.151C436.21 534.895 435.338 536.421 434.029 537.511C432.721 538.601 431.195 539.692 429.233 540.128C427.271 540.782 424.872 541 421.602 541C418.332 541 415.061 540.564 412.009 539.474L413.753 528.79C415.715 529.662 417.678 530.099 419.858 530.099C421.384 530.099 422.474 529.881 423.346 529.662C424.218 529.444 425.09 528.79 425.745 528.354C426.399 527.7 426.835 527.046 427.271 526.174C427.707 525.302 428.143 524.212 428.579 523.122L429.451 520.724L410.919 478.209H424.872L435.774 505.898H435.992L445.149 478.209H458.448L439.698 527.264Z" fill="white" fill-opacity="0.4"/>
<path d="M66.2239 391.437H88.2442C93.6948 391.437 98.7094 392.091 103.506 393.399C108.302 394.707 112.445 396.669 116.151 399.503C119.64 402.338 122.692 406.044 124.654 410.405C126.834 414.983 127.924 420.434 127.924 426.756C127.924 432.425 126.834 437.439 124.872 441.8C122.91 446.16 120.076 449.867 116.587 452.701C113.099 455.535 109.174 457.934 104.596 459.46C100.017 460.986 95.221 461.64 90.4245 461.64H66.4419V391.437H66.2239ZM80.8314 447.25H88.4623C91.9506 447.25 95.0029 446.814 97.8373 446.16C100.672 445.506 103.288 444.198 105.468 442.454C107.648 440.71 109.392 438.53 110.483 435.913C111.791 433.079 112.227 429.809 112.227 425.884C112.227 422.396 111.573 419.562 110.483 416.945C109.174 414.329 107.648 412.367 105.468 410.623C103.288 408.878 100.89 407.788 98.0553 406.916C95.221 406.044 92.3867 405.608 89.3344 405.608H80.6134V447.25H80.8314Z" fill="white" fill-opacity="0.4"/>
<path d="M165.425 450.52L174.364 459.895H163.462L160.192 456.189C158.448 457.933 156.704 459.023 154.96 459.895C152.997 460.549 150.817 460.985 148.637 460.985C146.893 460.985 145.148 460.767 143.404 460.331C141.66 459.895 140.134 459.023 138.826 458.151C137.518 457.061 136.428 455.971 135.555 454.445C134.683 452.918 134.465 451.174 134.465 449.212C134.465 447.904 134.683 446.814 135.119 445.506C135.555 444.415 136.21 443.325 136.864 442.453C137.736 441.581 138.608 440.709 139.48 440.055C140.57 439.401 141.66 438.747 142.75 438.311C142.096 437.657 141.442 437.003 141.006 436.349C140.352 435.695 139.916 435.04 139.698 434.386C139.262 433.732 139.044 432.86 138.826 432.206C138.608 431.334 138.608 430.462 138.608 429.59C138.608 427.846 139.044 426.32 139.698 425.011C140.352 423.703 141.224 422.613 142.532 421.741C143.622 420.869 144.93 420.215 146.457 419.997C147.983 419.561 149.509 419.343 151.035 419.343C152.561 419.343 154.087 419.561 155.396 419.997C156.704 420.433 158.012 421.087 159.102 421.741C160.192 422.613 161.064 423.485 161.718 424.793C162.372 426.101 162.59 427.41 162.59 429.154C162.59 430.462 162.372 431.552 161.936 432.424C161.5 433.514 161.064 434.386 160.41 435.258C159.756 436.131 158.884 437.003 158.012 437.657C157.14 438.311 156.268 438.965 155.178 439.401L160.41 444.851L164.335 439.619H174.146L165.425 450.52ZM147.983 442.889C147.329 443.325 146.893 443.543 146.239 443.979C145.803 444.415 145.148 444.633 144.712 445.07C144.276 445.506 143.84 445.942 143.622 446.596C143.404 447.25 143.186 447.904 143.186 448.558C143.186 449.212 143.404 450.084 143.622 450.52C143.84 451.174 144.276 451.61 144.712 452.046C145.148 452.482 145.803 452.7 146.457 453.136C147.111 453.354 147.765 453.572 148.419 453.572C149.727 453.572 150.817 453.354 151.907 452.7C152.779 452.046 153.869 451.392 154.742 450.52L147.983 442.889ZM150.599 425.665C149.509 425.665 148.637 426.101 147.765 426.756C147.111 427.41 146.675 428.282 146.675 429.372C146.675 429.808 146.893 430.244 147.111 430.898C147.329 431.334 147.547 431.77 147.983 432.206C148.201 432.642 148.637 433.078 149.073 433.514C149.509 433.95 149.945 434.168 150.163 434.604C150.599 434.386 151.035 433.95 151.689 433.732C152.125 433.296 152.779 433.078 153.215 432.642C153.651 432.206 154.087 431.77 154.305 431.334C154.523 430.898 154.742 430.244 154.742 429.808C154.742 428.718 154.305 427.846 153.651 427.192C152.779 426.101 151.689 425.665 150.599 425.665Z" fill="white" fill-opacity="0.4"/>
<path d="M225.817 410.404C224.291 408.66 222.547 407.352 220.585 406.262C218.404 405.39 216.006 404.735 213.172 404.735C210.338 404.735 207.939 405.172 205.541 406.262C203.143 407.352 201.181 408.878 199.436 410.84C197.692 412.802 196.384 414.983 195.294 417.599C194.422 420.215 193.768 423.049 193.768 426.102C193.768 429.154 194.204 432.206 195.294 434.823C196.166 437.439 197.692 439.619 199.218 441.581C200.962 443.544 202.925 445.07 205.105 446.16C207.503 447.25 209.901 447.686 212.518 447.686C215.57 447.686 218.186 447.032 220.585 445.724C222.983 444.416 224.727 442.672 226.253 440.491L238.462 449.648C235.628 453.573 232.14 456.625 227.779 458.369C223.419 460.331 219.058 461.203 214.48 461.203C209.247 461.203 204.451 460.331 200.09 458.805C195.73 457.061 191.805 454.881 188.753 451.828C185.483 448.776 183.085 445.07 181.34 440.709C179.596 436.349 178.724 431.552 178.724 426.102C178.724 420.651 179.596 415.855 181.34 411.494C183.085 407.134 185.701 403.427 188.753 400.375C192.024 397.323 195.73 394.924 200.09 393.398C204.451 391.872 209.247 391 214.48 391C216.442 391 218.404 391.218 220.367 391.436C222.329 391.872 224.509 392.308 226.471 393.18C228.433 393.834 230.396 394.924 232.14 396.233C233.884 397.541 235.628 399.067 237.154 400.811L225.817 410.404Z" fill="white" fill-opacity="0.4"/>
<path d="M251.762 440.494H258.085C259.611 440.494 261.137 440.712 262.445 440.93C263.753 441.366 265.061 441.802 265.933 442.674C267.024 443.328 267.678 444.419 268.332 445.727C268.986 447.035 269.204 448.343 269.204 450.087C269.204 451.613 268.986 452.921 268.332 454.23C267.678 455.32 267.024 456.41 265.933 457.064C264.843 457.936 263.753 458.372 262.445 458.808C261.137 459.244 259.829 459.462 258.303 459.462H251.544V440.494H251.762ZM255.904 455.538H258.085C258.957 455.538 260.047 455.538 260.701 455.32C261.573 455.102 262.227 454.884 262.881 454.448C263.535 454.012 263.971 453.358 264.407 452.703C264.843 452.049 264.843 450.959 264.843 450.087C264.843 449.215 264.625 448.343 264.407 447.689C263.971 447.035 263.535 446.381 263.099 445.945C262.445 445.509 261.791 445.073 260.919 444.855C260.047 444.637 259.393 444.419 258.521 444.419H256.122V455.538H255.904Z" fill="white" fill-opacity="0.4"/>
<path d="M283.811 457.064C283.157 457.936 282.285 458.59 281.413 459.026C280.323 459.463 279.451 459.681 278.361 459.681C277.27 459.681 276.398 459.463 275.526 459.244C274.654 459.026 273.782 458.372 273.128 457.936C272.474 457.282 272.038 456.628 271.602 455.756C271.166 454.884 270.948 454.012 270.948 452.922C270.948 451.832 271.166 450.96 271.602 450.088C272.038 449.215 272.474 448.561 273.128 447.907C273.782 447.253 274.654 446.817 275.526 446.599C276.398 446.381 277.27 446.163 278.361 446.163C279.233 446.163 280.105 446.381 280.977 446.599C281.631 446.817 282.285 447.471 282.939 447.907C283.375 448.561 283.811 449.215 284.247 450.088C284.465 450.96 284.683 451.832 284.683 452.922V454.23H275.308C275.526 455.102 275.744 455.538 276.398 455.974C276.834 456.41 277.488 456.628 278.361 456.628C279.015 456.628 279.669 456.41 280.105 456.192C280.541 455.974 280.977 455.538 281.195 455.102L283.811 457.064ZM280.541 451.396C280.541 450.742 280.323 450.088 279.887 449.651C279.451 449.215 278.797 448.997 278.142 448.997C277.706 448.997 277.27 448.997 277.052 449.215C276.616 449.433 276.398 449.433 276.18 449.869C275.962 450.088 275.744 450.306 275.526 450.742C275.308 450.96 275.308 451.396 275.308 451.614H280.541V451.396Z" fill="white" fill-opacity="0.4"/>
<path d="M294.277 450.304C293.623 449.65 292.968 449.214 291.878 449.214C291.442 449.214 291.224 449.214 290.788 449.432C290.57 449.65 290.352 449.868 290.352 450.304C290.352 450.522 290.57 450.958 290.788 450.958C291.224 451.176 291.442 451.176 292.096 451.394C292.532 451.612 293.187 451.612 293.841 451.83C294.495 452.048 294.931 452.266 295.367 452.484C295.803 452.702 296.239 453.138 296.675 453.574C297.111 454.01 297.111 454.665 297.111 455.537C297.111 456.409 296.893 457.063 296.457 457.717C296.021 458.371 295.585 458.807 295.149 459.025C294.495 459.461 293.841 459.679 293.186 459.679C292.532 459.897 291.66 459.897 291.006 459.897C290.134 459.897 289.262 459.679 288.172 459.461C287.3 459.243 286.428 458.807 285.774 458.153L288.172 455.537C288.608 455.973 289.044 456.409 289.48 456.627C289.916 456.845 290.57 457.063 291.006 457.063C291.442 457.063 291.878 457.063 292.314 456.845C292.75 456.627 292.968 456.409 292.968 456.191C292.968 455.755 292.75 455.537 292.532 455.537C292.096 455.319 291.878 455.319 291.224 455.101C290.788 454.883 290.134 454.883 289.48 454.665C288.826 454.446 288.39 454.228 287.954 454.01C287.518 453.792 287.082 453.356 286.646 452.92C286.21 452.484 286.21 451.83 286.21 450.958C286.21 450.086 286.428 449.432 286.646 448.996C286.864 448.342 287.3 447.906 287.954 447.688C288.39 447.252 289.044 447.034 289.698 446.816C290.352 446.598 291.006 446.598 291.66 446.598C292.532 446.598 293.405 446.816 294.277 447.034C295.149 447.252 295.803 447.688 296.457 448.342L294.277 450.304Z" fill="white" fill-opacity="0.4"/>
<path d="M299.073 442.238C299.073 441.584 299.291 441.148 299.727 440.494C300.163 440.058 300.817 439.84 301.472 439.84C302.126 439.84 302.562 440.058 303.216 440.494C303.652 440.93 303.87 441.584 303.87 442.238C303.87 442.892 303.652 443.328 303.216 443.982C302.78 444.418 302.126 444.636 301.472 444.636C300.817 444.636 300.381 444.418 299.727 443.982C299.291 443.546 299.073 442.892 299.073 442.238ZM299.291 446.381H303.216V459.462H299.291V446.381Z" fill="white" fill-opacity="0.4"/>
<path d="M320.003 458.372C320.003 460.771 319.349 462.733 318.041 464.041C316.733 465.349 314.989 466.003 312.373 466.003C311.282 466.003 309.974 465.785 308.884 465.567C307.794 465.349 306.704 464.695 305.832 464.041L308.012 460.771C308.666 461.207 309.32 461.643 309.974 462.079C310.628 462.297 311.5 462.515 312.154 462.515C313.463 462.515 314.335 462.297 314.771 461.643C315.425 460.989 315.643 460.335 315.643 459.244V457.936C315.207 458.59 314.553 459.026 313.899 459.244C313.245 459.463 312.591 459.681 311.936 459.681C311.064 459.681 310.192 459.463 309.32 459.244C308.448 458.808 307.794 458.372 307.358 457.936C306.704 457.282 306.268 456.628 306.05 455.756C305.832 454.884 305.614 454.012 305.614 453.14C305.614 452.268 305.832 451.396 306.05 450.524C306.268 449.651 306.704 448.997 307.14 448.343C307.576 447.689 308.23 447.253 309.102 446.817C309.756 446.381 310.628 446.163 311.5 446.163C312.154 446.163 312.591 446.163 313.027 446.381C313.463 446.599 313.899 446.599 314.335 446.817C314.771 447.035 314.989 447.253 315.207 447.471C315.425 447.689 315.643 447.907 315.861 448.125V446.381H319.567V458.372H320.003ZM309.756 452.704C309.756 453.14 309.756 453.576 309.974 454.012C310.192 454.448 310.41 454.666 310.628 455.102C310.846 455.32 311.282 455.538 311.718 455.756C312.154 455.974 312.591 455.974 313.027 455.974C313.463 455.974 313.899 455.974 314.335 455.756C314.771 455.538 314.989 455.32 315.425 455.102C315.643 454.884 315.861 454.448 316.079 454.012C316.297 453.576 316.297 453.14 316.297 452.704C316.297 452.268 316.297 451.832 316.079 451.396C315.861 450.96 315.643 450.742 315.425 450.306C315.207 450.088 314.771 449.869 314.335 449.651C313.899 449.433 313.463 449.433 313.027 449.433C312.591 449.433 312.154 449.433 311.718 449.651C311.282 449.869 311.064 450.088 310.628 450.306C310.41 450.524 310.192 450.96 309.974 451.396C309.974 452.05 309.756 452.486 309.756 452.704Z" fill="white" fill-opacity="0.4"/>
<path d="M323.056 446.381H326.98V448.125C327.198 447.907 327.198 447.689 327.416 447.471C327.634 447.253 327.852 447.035 328.288 446.817C328.506 446.599 328.942 446.381 329.378 446.381C329.814 446.163 330.25 446.163 330.686 446.163C331.777 446.163 332.431 446.381 333.085 446.599C333.739 446.817 334.175 447.253 334.611 447.907C335.047 448.561 335.265 449.215 335.265 449.869C335.483 450.524 335.483 451.396 335.483 452.268V459.463H331.559V453.14C331.559 452.704 331.559 452.486 331.559 452.05C331.559 451.614 331.559 451.178 331.341 450.96C331.123 450.524 330.905 450.306 330.686 450.088C330.468 449.869 330.032 449.869 329.596 449.869C329.16 449.869 328.724 449.869 328.288 450.088C328.07 450.306 327.634 450.524 327.634 450.742C327.416 450.96 327.416 451.396 327.198 451.832C327.198 452.268 327.198 452.704 327.198 453.14V459.681H323.274V446.381H323.056Z" fill="white" fill-opacity="0.4"/>
<path d="M367.314 445.292C366.878 444.856 366.442 444.42 365.788 444.202C365.134 443.984 364.48 443.766 363.608 443.766C362.736 443.766 362.082 443.984 361.427 444.202C360.773 444.42 360.119 444.856 359.683 445.51C359.247 446.164 358.811 446.6 358.593 447.472C358.375 448.126 358.157 448.998 358.157 449.87C358.157 450.742 358.375 451.615 358.593 452.269C358.811 452.923 359.247 453.577 359.683 454.231C360.119 454.885 360.773 455.103 361.427 455.539C362.082 455.757 362.736 455.975 363.608 455.975C364.48 455.975 365.134 455.757 365.788 455.539C366.442 455.103 367.096 454.667 367.314 454.013L370.802 456.629C369.93 457.719 369.058 458.591 367.75 459.027C366.442 459.463 365.352 459.899 364.044 459.899C362.518 459.899 361.209 459.681 359.901 459.245C358.593 458.809 357.503 458.155 356.631 457.283C355.759 456.411 355.105 455.321 354.451 454.231C354.015 452.923 353.797 451.615 353.797 450.088C353.797 448.562 354.015 447.254 354.451 445.946C354.887 444.638 355.759 443.766 356.631 442.894C357.503 442.022 358.593 441.367 359.901 440.931C361.209 440.495 362.518 440.277 364.044 440.277C364.48 440.277 365.134 440.277 365.788 440.495C366.442 440.495 366.878 440.713 367.532 440.931C368.186 441.149 368.622 441.367 369.058 441.804C369.494 442.24 369.93 442.676 370.366 443.112L367.314 445.292Z" fill="white" fill-opacity="0.4"/>
<path d="M372.765 446.381H376.69V448.561C377.126 447.689 377.562 447.253 378.216 446.817C378.87 446.381 379.524 446.163 380.396 446.163C380.614 446.163 380.832 446.163 381.05 446.163C381.268 446.163 381.486 446.163 381.704 446.163V449.869C381.486 449.869 381.05 449.651 380.832 449.651C380.614 449.651 380.178 449.651 379.96 449.651C379.088 449.651 378.652 449.651 378.216 449.869C377.78 450.088 377.344 450.306 377.126 450.742C376.908 451.178 376.69 451.614 376.69 452.05C376.69 452.486 376.69 453.14 376.69 453.794V459.244H372.765V446.381Z" fill="white" fill-opacity="0.4"/>
<path d="M395.44 457.064C394.785 457.936 393.913 458.59 393.041 459.026C391.951 459.463 391.079 459.681 389.989 459.681C388.899 459.681 388.027 459.463 387.155 459.244C386.283 459.026 385.41 458.372 384.756 457.936C384.102 457.282 383.666 456.628 383.23 455.756C382.794 454.884 382.576 454.012 382.576 452.922C382.576 451.832 382.794 450.96 383.23 450.088C383.666 449.215 384.102 448.561 384.756 447.907C385.41 447.253 386.283 446.817 387.155 446.599C388.027 446.381 388.899 446.163 389.989 446.163C390.861 446.163 391.733 446.381 392.605 446.599C393.259 446.817 393.913 447.471 394.567 447.907C395.003 448.561 395.44 449.215 395.876 450.088C396.094 450.96 396.312 451.832 396.312 452.922V454.23H386.937C387.155 455.102 387.373 455.538 388.027 455.974C388.463 456.41 389.117 456.628 389.989 456.628C390.643 456.628 391.297 456.41 391.733 456.192C392.169 455.974 392.605 455.538 392.823 455.102L395.44 457.064ZM391.951 451.396C391.951 450.742 391.733 450.088 391.297 449.651C390.861 449.215 390.207 448.997 389.553 448.997C389.117 448.997 388.681 448.997 388.463 449.215C388.027 449.433 387.809 449.433 387.591 449.869C387.373 450.088 387.155 450.306 386.937 450.742C386.719 450.96 386.719 451.396 386.719 451.614H391.951V451.396Z" fill="white" fill-opacity="0.4"/>
<path d="M406.559 457.718C406.123 458.372 405.468 458.808 404.814 459.244C404.16 459.462 403.288 459.68 402.416 459.68C401.762 459.68 401.326 459.68 400.672 459.462C400.018 459.244 399.582 459.026 399.146 458.808C398.71 458.372 398.274 458.154 398.056 457.5C397.838 457.064 397.62 456.409 397.62 455.755C397.62 455.101 397.838 454.447 398.056 453.793C398.274 453.357 398.71 452.921 399.146 452.485C399.582 452.049 400.236 451.831 400.672 451.613C401.326 451.395 401.98 451.395 402.634 451.177C403.288 451.177 403.942 450.959 404.596 450.959C405.25 450.959 405.905 450.959 406.341 450.959C406.341 450.305 406.123 449.651 405.686 449.215C405.25 448.779 404.596 448.561 403.942 448.561C403.288 448.561 402.634 448.779 402.198 448.997C401.544 449.215 401.108 449.651 400.672 450.087L398.492 447.907C399.146 447.252 400.018 446.598 401.108 446.38C402.198 445.944 403.07 445.944 404.16 445.944C405.25 445.944 406.341 446.162 406.995 446.38C407.649 446.598 408.303 447.034 408.739 447.689C409.175 448.343 409.611 448.997 409.611 449.869C409.829 450.741 409.829 451.613 409.829 452.703V459.244H406.123V457.718H406.559ZM405.686 453.793C405.468 453.793 405.032 453.793 404.596 453.793C404.16 453.793 403.724 453.793 403.288 454.011C402.852 454.229 402.416 454.229 402.198 454.665C401.98 454.883 401.762 455.319 401.762 455.755C401.762 456.191 401.98 456.627 402.416 456.845C402.852 457.064 403.288 457.282 403.724 457.282C404.16 457.282 404.596 457.282 404.814 457.064C405.25 457.064 405.468 456.845 405.686 456.627C405.905 456.409 406.123 456.191 406.341 455.973C406.559 455.755 406.559 455.319 406.559 454.883V454.011H405.686V453.793Z" fill="white" fill-opacity="0.4"/>
<path d="M421.602 449.65H418.114V454.011C418.114 454.447 418.114 454.665 418.114 454.883C418.114 455.101 418.332 455.537 418.332 455.537C418.55 455.755 418.55 455.973 418.986 455.973C419.204 456.191 419.64 456.191 420.076 456.191C420.294 456.191 420.512 456.191 420.948 456.191C421.384 456.191 421.602 455.973 421.82 455.973V459.243C421.384 459.461 420.948 459.461 420.512 459.461C420.076 459.461 419.64 459.461 418.986 459.461C418.332 459.461 417.678 459.461 417.024 459.243C416.37 459.025 415.933 458.807 415.497 458.589C415.061 458.371 414.625 457.935 414.407 457.281C414.189 456.845 413.971 456.191 413.971 455.537V449.432H411.355V446.162H413.971V442.237H417.896V446.162H421.384V449.65H421.602Z" fill="white" fill-opacity="0.4"/>
<path d="M423.346 442.238C423.346 441.584 423.564 441.148 424.001 440.494C424.437 440.058 425.091 439.84 425.745 439.84C426.399 439.84 426.835 440.058 427.489 440.494C427.925 440.93 428.143 441.584 428.143 442.238C428.143 442.892 427.925 443.328 427.489 443.982C427.053 444.418 426.399 444.636 425.745 444.636C425.091 444.636 424.655 444.418 424.001 443.982C423.782 443.546 423.346 442.892 423.346 442.238ZM423.782 446.381H427.707V459.462H423.782V446.381Z" fill="white" fill-opacity="0.4"/>
<path d="M429.233 446.38H433.593L436.864 455.319L439.916 446.38H444.059L438.826 459.461H434.465L429.233 446.38Z" fill="white" fill-opacity="0.4"/>
<path d="M457.794 457.064C457.14 457.936 456.268 458.59 455.396 459.026C454.306 459.463 453.433 459.681 452.343 459.681C451.253 459.681 450.381 459.463 449.509 459.244C448.637 459.026 447.765 458.372 447.111 457.936C446.457 457.282 446.021 456.628 445.585 455.756C445.149 454.884 444.931 454.012 444.931 452.922C444.931 451.832 445.149 450.96 445.585 450.088C446.021 449.215 446.457 448.561 447.111 447.907C447.765 447.253 448.637 446.817 449.509 446.599C450.381 446.381 451.253 446.163 452.343 446.163C453.215 446.163 454.088 446.381 454.96 446.599C455.614 446.817 456.268 447.471 456.922 447.907C457.358 448.561 457.794 449.215 458.23 450.088C458.448 450.96 458.666 451.832 458.666 452.922V454.23H449.291C449.509 455.102 449.727 455.538 450.381 455.974C450.817 456.41 451.471 456.628 452.343 456.628C452.997 456.628 453.651 456.41 454.088 456.192C454.524 455.974 454.96 455.538 455.178 455.102L457.794 457.064ZM454.524 451.396C454.524 450.742 454.306 450.088 453.87 449.651C453.433 449.215 452.779 448.997 452.125 448.997C451.689 448.997 451.253 448.997 451.035 449.215C450.599 449.433 450.381 449.433 450.163 449.869C449.945 450.088 449.727 450.306 449.509 450.742C449.291 450.96 449.291 451.396 449.291 451.614H454.524V451.396Z" fill="white" fill-opacity="0.4"/>
<path d="M352.053 457.064H340.062V459.245H352.053V457.064Z" fill="white" fill-opacity="0.4"/>
</g>
</svg>
