<svg width="500" height="500" viewBox="0 0 500 500" fill="none" xmlns="http://www.w3.org/2000/svg">
<rect width="500" height="500" fill="#007DB6"/>
<mask id="mask0_2098_138" style="mask-type:alpha" maskUnits="userSpaceOnUse" x="0" y="0" width="500" height="500">
<rect width="500" height="500" fill="#007DB6"/>
</mask>
<g mask="url(#mask0_2098_138)">
<g opacity="0.4">
<path d="M265.201 415.286C265.201 417.305 265.524 418.96 266.17 420.253C266.816 421.504 267.603 422.494 268.532 423.221C269.42 423.988 270.349 424.513 271.318 424.795C272.328 425.038 273.176 425.159 273.862 425.159C274.226 425.159 274.892 425.078 275.861 424.917C276.83 424.715 277.799 424.27 278.769 423.584C279.778 422.938 280.666 421.949 281.434 420.616C282.201 419.283 282.585 417.507 282.585 415.286V387.302H295.062V417.769C294.739 423.746 292.74 428.228 289.066 431.216C285.431 434.204 280.465 435.698 274.165 435.698C271.056 435.819 268.189 435.476 265.564 434.669C262.98 433.861 260.739 432.71 258.841 431.216C256.983 429.682 255.509 427.784 254.419 425.522C253.329 423.221 252.763 420.636 252.723 417.769V387.302H265.201V415.286Z" fill="white"/>
<path d="M213.319 410.985C213.319 413.287 213.562 415.528 214.046 417.709C214.571 419.849 215.318 421.747 216.287 423.402C217.216 425.017 218.387 426.31 219.801 427.279C221.214 428.208 222.769 428.611 224.465 428.49C226.686 428.49 228.503 427.885 229.916 426.673C231.37 425.462 232.521 423.947 233.369 422.13C234.176 420.394 234.741 418.516 235.065 416.497C235.388 414.478 235.549 412.641 235.549 410.985C235.549 409.451 235.388 407.734 235.065 405.837C234.741 403.898 234.176 402.041 233.369 400.264C232.521 398.568 231.37 397.134 229.916 395.963C228.503 394.792 226.686 394.207 224.465 394.207C222.203 394.207 220.346 394.853 218.892 396.145C217.479 397.437 216.348 398.972 215.5 400.749C214.692 402.525 214.127 404.383 213.804 406.321C213.481 408.219 213.319 409.774 213.319 410.985ZM224.586 437.697C220.588 437.697 217.095 436.99 214.107 435.577C211.119 434.123 208.635 432.165 206.657 429.702C204.638 427.319 203.123 424.513 202.114 421.282C201.145 418.052 200.64 414.619 200.599 410.985C200.519 407.23 201.023 403.757 202.114 400.567C203.244 397.377 204.88 394.611 207.02 392.269C209.12 390.007 211.644 388.23 214.591 386.938C217.539 385.646 220.871 385 224.586 385C229.068 385 232.823 385.828 235.852 387.483C238.921 389.099 241.384 391.178 243.242 393.722C245.14 396.266 246.472 399.073 247.239 402.142C248.047 405.17 248.451 408.118 248.451 410.985C248.451 414.902 247.865 418.516 246.694 421.827C245.564 425.098 243.989 427.905 241.97 430.247C239.829 432.589 237.285 434.426 234.338 435.759C231.43 437.051 228.18 437.697 224.586 437.697Z" fill="white"/>
<path d="M185.105 423.826V387.181H196.25V435.577H186.074C185.146 435.577 184.237 435.476 183.349 435.274C182.46 435.072 181.612 434.648 180.805 434.002C179.997 433.437 179.21 432.589 178.442 431.458C177.675 430.328 176.948 428.834 176.262 426.976C175.212 424.351 174.081 421.585 172.87 418.678C171.658 415.77 170.528 413.085 169.478 410.622C168.428 408.159 167.54 406.14 166.813 404.565C166.086 402.949 165.722 402.142 165.722 402.142L165.359 401.233V435.577H154.214V387.181H162.997C164.168 387.261 165.278 387.564 166.328 388.089C167.257 388.533 168.206 389.24 169.175 390.209C170.185 391.138 171.053 392.45 171.78 394.146L185.105 423.826Z" fill="white"/>
<path d="M136.12 435.698C135.07 431.216 133.919 427.743 132.667 425.28C131.456 422.776 130.244 420.939 129.033 419.768C127.781 418.678 126.59 418.032 125.459 417.83C124.328 417.587 123.278 417.507 122.309 417.587H120.916V435.698H107.288V387.302H120.916V408.865H122.067L133.576 389.301C134.222 388.533 134.827 388.069 135.393 387.907C135.998 387.706 136.907 387.605 138.118 387.605H148.84L132.788 411.894C133.717 412.176 134.686 412.58 135.696 413.105C136.503 413.59 137.392 414.155 138.361 414.801C139.33 415.407 140.218 416.154 141.026 417.042C142.278 418.415 143.368 419.829 144.297 421.282C145.225 422.736 146.073 424.23 146.841 425.765C147.527 427.339 148.193 428.955 148.84 430.61C149.486 432.226 150.172 433.922 150.899 435.698H136.12Z" fill="white"/>
<path d="M53.5593 415.286C53.5593 417.305 53.8823 418.96 54.5284 420.253C55.1745 421.504 55.9619 422.494 56.8907 423.221C57.7791 423.988 58.7078 424.513 59.677 424.795C60.6865 425.038 61.5345 425.159 62.221 425.159C62.5844 425.159 63.2507 425.078 64.2198 424.917C65.189 424.715 66.1581 424.27 67.1272 423.584C68.1368 422.938 69.0251 421.949 69.7924 420.616C70.5596 419.283 70.9432 417.507 70.9432 415.286V387.302H83.4209V417.769C83.0979 423.746 81.099 428.228 77.4244 431.216C73.7901 434.204 68.8232 435.698 62.5238 435.698C59.4145 435.819 56.5474 435.476 53.9227 434.669C51.3383 433.861 49.0972 432.71 47.1993 431.216C45.3417 429.682 43.8678 427.784 42.7775 425.522C41.6873 423.221 41.1219 420.636 41.0815 417.769V387.302H53.5593V415.286Z" fill="white"/>
<path d="M1.67708 410.985C1.67708 413.287 1.91936 415.528 2.40393 417.709C2.92888 419.849 3.67593 421.747 4.64507 423.402C5.57383 425.017 6.74488 426.31 8.15821 427.279C9.57154 428.208 11.1262 428.611 12.8222 428.49C15.0432 428.49 16.8603 427.885 18.2736 426.673C19.7273 425.462 20.8782 423.947 21.7262 422.13C22.5338 420.394 23.0992 418.516 23.4222 416.497C23.7452 414.478 23.9068 412.641 23.9068 410.985C23.9068 409.451 23.7452 407.734 23.4222 405.837C23.0992 403.898 22.5338 402.041 21.7262 400.264C20.8782 398.568 19.7273 397.134 18.2736 395.963C16.8603 394.792 15.0432 394.207 12.8222 394.207C10.5609 394.207 8.70336 394.853 7.24964 396.145C5.83631 397.437 4.70564 398.972 3.85765 400.749C3.05003 402.525 2.4847 404.383 2.16165 406.321C1.8386 408.219 1.67708 409.774 1.67708 410.985ZM12.9434 437.697C8.94564 437.697 5.45269 436.99 2.46451 435.577C-0.523682 434.123 -3.00711 432.165 -4.98577 429.702C-7.00482 427.319 -8.51911 424.513 -9.52863 421.282C-10.4978 418.052 -11.0025 414.619 -11.0429 410.985C-11.1237 407.23 -10.6189 403.757 -9.52863 400.567C-8.39796 397.377 -6.76253 394.611 -4.62234 392.269C-2.52254 390.007 0.00127013 388.23 2.94908 386.938C5.89688 385.646 9.22831 385 12.9434 385C17.4256 385 21.1811 385.828 24.2096 387.483C27.2786 389.099 29.7418 391.178 31.5993 393.722C33.4972 396.266 34.8298 399.073 35.597 402.142C36.4047 405.17 36.8085 408.118 36.8085 410.985C36.8085 414.902 36.2229 418.516 35.0519 421.827C33.9212 425.098 32.3464 427.905 30.3273 430.247C28.1872 432.589 25.6432 434.426 22.6953 435.759C19.7879 437.051 16.5373 437.697 12.9434 437.697Z" fill="white"/>
<path d="M319.752 485.749C319.752 488.47 320.188 490.702 321.058 492.443C321.929 494.13 322.99 495.464 324.242 496.444C325.44 497.478 326.691 498.185 327.998 498.566C329.358 498.893 330.501 499.056 331.427 499.056C331.916 499.056 332.814 498.947 334.121 498.729C335.427 498.457 336.733 497.859 338.039 496.933C339.4 496.063 340.597 494.729 341.632 492.933C342.666 491.137 343.183 488.742 343.183 485.749V448.031H360V489.096C359.565 497.151 356.871 503.192 351.918 507.22C347.02 511.248 340.325 513.261 331.835 513.261C327.644 513.425 323.78 512.962 320.242 511.873C316.759 510.785 313.738 509.234 311.18 507.22C308.676 505.152 306.69 502.594 305.22 499.546C303.751 496.444 302.989 492.96 302.934 489.096V448.031H319.752V485.749Z" fill="white"/>
<path d="M249.457 479.952C249.457 483.054 249.784 486.075 250.437 489.014C251.145 491.899 252.151 494.457 253.458 496.688C254.71 498.865 256.288 500.607 258.193 501.913C260.098 503.165 262.193 503.709 264.479 503.546C267.473 503.546 269.922 502.73 271.827 501.097C273.786 499.464 275.337 497.423 276.48 494.974C277.569 492.633 278.331 490.103 278.766 487.381C279.201 484.66 279.419 482.184 279.419 479.952C279.419 477.884 279.201 475.571 278.766 473.013C278.331 470.4 277.569 467.897 276.48 465.502C275.337 463.216 273.786 461.284 271.827 459.705C269.922 458.127 267.473 457.338 264.479 457.338C261.431 457.338 258.928 458.209 256.968 459.95C255.063 461.692 253.539 463.76 252.396 466.155C251.308 468.55 250.546 471.053 250.11 473.666C249.675 476.224 249.457 478.319 249.457 479.952ZM264.642 515.955C259.254 515.955 254.546 515.003 250.519 513.098C246.491 511.138 243.144 508.499 240.477 505.179C237.756 501.968 235.715 498.185 234.354 493.831C233.048 489.477 232.367 484.851 232.313 479.952C232.204 474.89 232.885 470.21 234.354 465.91C235.878 461.61 238.082 457.882 240.967 454.725C243.797 451.678 247.199 449.283 251.172 447.541C255.145 445.8 259.635 444.929 264.642 444.929C270.684 444.929 275.745 446.044 279.827 448.276C283.964 450.453 287.284 453.256 289.787 456.685C292.345 460.114 294.141 463.896 295.176 468.033C296.264 472.115 296.808 476.088 296.808 479.952C296.808 485.231 296.019 490.103 294.441 494.566C292.917 498.974 290.794 502.757 288.073 505.914C285.188 509.07 281.759 511.547 277.786 513.343C273.868 515.084 269.486 515.955 264.642 515.955Z" fill="white"/>
<path d="M211.063 497.259V447.867H226.084V513.097H212.369C211.117 513.097 209.892 512.961 208.695 512.689C207.498 512.417 206.355 511.845 205.266 510.975C204.178 510.213 203.116 509.07 202.082 507.546C201.048 506.022 200.068 504.008 199.143 501.504C197.728 497.967 196.204 494.239 194.571 490.32C192.939 486.401 191.415 482.782 189.999 479.462C188.584 476.142 187.387 473.42 186.407 471.298C185.428 469.121 184.938 468.032 184.938 468.032L184.448 466.808V513.097H169.426V447.867H181.264C182.842 447.976 184.339 448.384 185.754 449.092C187.006 449.69 188.285 450.643 189.591 451.949C190.952 453.201 192.122 454.97 193.102 457.256L211.063 497.259Z" fill="white"/>
<path d="M144.672 513.261C143.257 507.22 141.706 502.539 140.018 499.219C138.386 495.845 136.753 493.368 135.12 491.79C133.433 490.321 131.827 489.45 130.303 489.178C128.779 488.851 127.364 488.742 126.058 488.851H124.18V513.261H105.811V448.031H124.18V477.095H125.731L141.243 450.725C142.114 449.691 142.93 449.065 143.692 448.848C144.508 448.576 145.733 448.439 147.366 448.439H161.816L140.182 481.177C141.433 481.558 142.74 482.102 144.1 482.81C145.189 483.463 146.386 484.225 147.692 485.096C148.999 485.912 150.196 486.919 151.285 488.116C152.972 489.967 154.441 491.872 155.693 493.831C156.945 495.79 158.088 497.804 159.122 499.872C160.047 501.995 160.945 504.172 161.816 506.404C162.687 508.581 163.612 510.867 164.592 513.261H144.672Z" fill="white"/>
<path d="M44.3461 496.688C44.3461 499.736 46.0877 501.26 49.571 501.26H75.9406V513.097H43.8562C37.5428 513.097 32.8893 511.709 29.8958 508.934C26.9568 506.103 25.4873 501.586 25.4873 495.381V447.867H74.7977V459.705H44.3461V473.584H71.2055V485.421H44.3461V496.688Z" fill="white"/>
<path d="M6.04933 450.644C6.26703 449.664 6.86573 448.984 7.8454 448.603C8.82508 448.222 9.83197 448.031 10.8661 448.031H21.071L7.68212 513.261H-6.93138C-8.50975 513.261 -9.76156 512.717 -10.6868 511.629C-11.5576 510.54 -12.2924 509.343 -12.8911 508.036C-13.653 506.512 -14.1701 504.771 -14.4422 502.811C-15.3131 497.369 -16.1022 492.47 -16.8098 488.116C-17.1363 486.211 -17.4357 484.361 -17.7078 482.565C-17.9799 480.769 -18.2521 479.109 -18.5242 477.585C-18.7963 476.17 -19.014 474.945 -19.1773 473.911C-19.3406 472.877 -19.4767 472.251 -19.5855 472.033C-19.5855 472.033 -19.776 472.877 -20.157 474.564C-20.4836 476.251 -20.8645 478.401 -21.3 481.014C-21.8987 483.626 -22.4973 486.565 -23.096 489.831C-23.6403 493.042 -24.1846 496.144 -24.7288 499.138C-25.3275 502.24 -25.8718 505.043 -26.3616 507.547C-26.797 510.05 -27.1236 511.955 -27.3413 513.261H-40.6486C-42.5535 513.261 -44.0774 512.69 -45.2204 511.547C-46.3633 510.404 -47.2342 509.098 -47.8329 507.628C-48.6493 506.05 -49.2207 504.199 -49.5473 502.077L-59.9155 448.031H-49.6289C-48.5948 448.031 -47.6151 448.249 -46.6899 448.684C-45.7102 449.12 -45.1115 449.773 -44.8938 450.644L-36.4849 495.954L-27.3413 454.644C-27.1236 453.828 -26.8242 453.066 -26.4433 452.358C-26.0623 451.759 -25.5724 451.215 -24.9737 450.725C-24.3751 450.236 -23.6403 449.991 -22.7695 449.991H-12.238L-3.01268 495.219L6.04933 450.644Z" fill="white"/>
</g>
<g opacity="0.4">
<path d="M463.038 10.7552C463.038 13.3909 463.315 15.9572 463.87 18.4541C464.471 20.9049 465.327 23.0781 466.436 24.9739C467.5 26.8235 468.841 28.3032 470.459 29.413C472.078 30.4765 473.858 30.9389 475.8 30.8002C478.343 30.8002 480.424 30.1066 482.042 28.7194C483.707 27.3322 485.025 25.5982 485.996 23.5174C486.921 21.5291 487.568 19.3789 487.938 17.067C488.308 14.755 488.493 12.6511 488.493 10.7552C488.493 8.99813 488.308 7.03295 487.938 4.85968C487.568 2.64018 486.921 0.51315 485.996 -1.52139C485.025 -3.46346 483.707 -5.10497 482.042 -6.44592C480.424 -7.78687 478.343 -8.45735 475.8 -8.45735C473.21 -8.45735 471.083 -7.71751 469.419 -6.23784C467.8 -4.75817 466.506 -3.00106 465.535 -0.966517C464.61 1.06803 463.963 3.19505 463.593 5.41456C463.223 7.58782 463.038 9.36805 463.038 10.7552ZM475.939 41.3428C471.361 41.3428 467.361 40.5336 463.939 38.9152C460.518 37.2506 457.674 35.008 455.408 32.1873C453.096 29.4592 451.362 26.2455 450.206 22.5464C449.096 18.8472 448.518 14.9168 448.472 10.7552C448.38 6.45495 448.958 2.47834 450.206 -1.1746C451.501 -4.82753 453.374 -7.99495 455.824 -10.6769C458.229 -13.2663 461.119 -15.3008 464.494 -16.7805C467.87 -18.2602 471.685 -19 475.939 -19C481.071 -19 485.371 -18.0521 488.839 -16.1563C492.354 -14.3067 495.174 -11.9253 497.301 -9.01223C499.475 -6.09913 501.001 -2.88547 501.879 0.628748C502.804 4.09673 503.266 7.47222 503.266 10.7552C503.266 15.2405 502.596 19.3789 501.255 23.1706C499.96 26.916 498.157 30.1297 495.845 32.8116C493.394 35.4935 490.481 37.5974 487.105 39.1233C483.776 40.603 480.054 41.3428 475.939 41.3428Z" fill="white"/>
<path d="M430.73 25.4591V-16.5034H443.492V38.9149H431.84C430.776 38.9149 429.736 38.7993 428.719 38.5681C427.701 38.3369 426.73 37.8513 425.806 37.1115C424.881 36.4642 423.979 35.4931 423.1 34.1984C422.222 32.9037 421.39 31.1928 420.604 29.0658C419.401 26.0602 418.107 22.8928 416.719 19.5635C415.332 16.2343 414.038 13.1593 412.835 10.3387C411.633 7.5181 410.616 5.20612 409.783 3.40277C408.951 1.55318 408.535 0.628386 408.535 0.628386L408.119 -0.412006V38.9149H395.357V-16.5034H405.414C406.755 -16.4109 408.026 -16.0641 409.229 -15.463C410.292 -14.9544 411.379 -14.1452 412.488 -13.0354C413.644 -11.9719 414.639 -10.4691 415.471 -8.52707L430.73 25.4591Z" fill="white"/>
<path d="M374.637 39.054C373.435 33.9214 372.117 29.9448 370.683 27.1242C369.296 24.2573 367.909 22.1534 366.522 20.8125C365.088 19.564 363.724 18.8242 362.43 18.593C361.135 18.3155 359.933 18.223 358.823 18.3155H357.228V39.054H341.622V-16.3643H357.228V8.32774H358.546L371.724 -14.0754C372.464 -14.9539 373.157 -15.4857 373.805 -15.6707C374.498 -15.9019 375.539 -16.0175 376.926 -16.0175H389.202L370.822 11.7957C371.886 12.1194 372.995 12.5818 374.151 13.1829C375.076 13.7378 376.094 14.3851 377.203 15.125C378.313 15.8186 379.33 16.674 380.255 17.6913C381.689 19.2634 382.937 20.8818 384.001 22.5464C385.064 24.2111 386.035 25.9219 386.914 27.6791C387.7 29.4824 388.463 31.332 389.202 33.2278C389.942 35.0774 390.728 37.0195 391.561 39.054H374.637Z" fill="white"/>
<path d="M280.098 15.6799C280.098 17.9918 280.468 19.8877 281.208 21.3673C281.948 22.8008 282.85 23.9336 283.913 24.766C284.93 25.6445 285.994 26.2456 287.104 26.5693C288.26 26.8467 289.231 26.9855 290.017 26.9855C290.433 26.9855 291.196 26.893 292.306 26.708C293.415 26.4768 294.525 25.9682 295.635 25.1821C296.791 24.4423 297.808 23.3094 298.687 21.7835C299.565 20.2576 300.005 18.223 300.005 15.6799V-16.3643H314.293V18.5236C313.923 25.3671 311.634 30.4997 307.426 33.9214C303.264 37.3431 297.577 39.054 290.364 39.054C286.803 39.1927 283.52 38.7997 280.515 37.8749C277.555 36.9501 274.989 35.6323 272.816 33.9214C270.689 32.1643 269.001 29.991 267.752 27.4016C266.504 24.766 265.857 21.8066 265.81 18.5236V-16.3643H280.098V15.6799Z" fill="white"/>
<path d="M220.689 10.7552C220.689 13.3909 220.966 15.9572 221.521 18.4541C222.122 20.9049 222.978 23.0781 224.087 24.9739C225.151 26.8235 226.492 28.3032 228.11 29.413C229.729 30.4765 231.509 30.9389 233.451 30.8002C235.994 30.8002 238.075 30.1066 239.693 28.7194C241.358 27.3322 242.676 25.5982 243.647 23.5174C244.572 21.5291 245.219 19.3789 245.589 17.067C245.959 14.755 246.144 12.6511 246.144 10.7552C246.144 8.99813 245.959 7.03295 245.589 4.85968C245.219 2.64018 244.572 0.51315 243.647 -1.52139C242.676 -3.46346 241.358 -5.10497 239.693 -6.44592C238.075 -7.78687 235.994 -8.45735 233.451 -8.45735C230.862 -8.45735 228.735 -7.71751 227.07 -6.23784C225.452 -4.75817 224.157 -3.00106 223.186 -0.966517C222.261 1.06803 221.614 3.19505 221.244 5.41456C220.874 7.58782 220.689 9.36805 220.689 10.7552ZM233.59 41.3428C229.012 41.3428 225.012 40.5336 221.591 38.9152C218.169 37.2506 215.325 35.008 213.059 32.1873C210.747 29.4592 209.013 26.2455 207.857 22.5464C206.748 18.8472 206.17 14.9168 206.123 10.7552C206.031 6.45495 206.609 2.47834 207.857 -1.1746C209.152 -4.82753 211.025 -7.99495 213.475 -10.6769C215.88 -13.2663 218.77 -15.3008 222.145 -16.7805C225.521 -18.2602 229.336 -19 233.59 -19C238.722 -19 243.023 -18.0521 246.491 -16.1563C250.005 -14.3067 252.825 -11.9253 254.952 -9.01223C257.126 -6.09913 258.652 -2.88547 259.53 0.628748C260.455 4.09673 260.917 7.47222 260.917 10.7552C260.917 15.2405 260.247 19.3789 258.906 23.1706C257.611 26.916 255.808 30.1297 253.496 32.8116C251.045 35.4935 248.132 37.5974 244.757 39.1233C241.427 40.603 237.705 41.3428 233.59 41.3428Z" fill="white"/>
<path d="M188.558 -13.4516C189.529 -15.0237 190.361 -15.9254 191.054 -16.1566C191.794 -16.3878 192.788 -16.5034 194.037 -16.5034H205.481L185.228 16.7892V38.9149H170.385V16.9972L150.063 -16.5034H160.606C161.9 -16.5034 162.871 -16.3647 163.519 -16.0873C164.212 -15.8098 165.022 -14.9081 165.946 -13.3822L177.807 7.42562L188.558 -13.4516Z" fill="white"/>
<path d="M504.419 89.7284C504.419 93.2808 504.793 96.7398 505.541 100.105C506.351 103.408 507.504 106.338 509 108.893C510.433 111.386 512.241 113.38 514.422 114.876C516.603 116.309 519.003 116.932 521.62 116.745C525.048 116.745 527.852 115.811 530.034 113.941C532.277 112.071 534.054 109.734 535.362 106.93C536.609 104.25 537.481 101.352 537.98 98.2355C538.479 95.1194 538.728 92.2837 538.728 89.7284C538.728 87.3601 538.479 84.7114 537.98 81.7822C537.481 78.7907 536.609 75.9239 535.362 73.1817C534.054 70.5641 532.277 68.3516 530.034 66.5442C527.852 64.7369 525.048 63.8332 521.62 63.8332C518.13 63.8332 515.263 64.8304 513.02 66.8247C510.838 68.819 509.093 71.1873 507.784 73.9295C506.538 76.6717 505.665 79.5386 505.167 82.5301C504.668 85.4593 504.419 87.8587 504.419 89.7284ZM521.807 130.955C515.637 130.955 510.246 129.864 505.634 127.683C501.022 125.44 497.189 122.417 494.136 118.615C491.02 114.938 488.682 110.607 487.124 105.621C485.629 100.635 484.85 95.3375 484.787 89.7284C484.663 83.9324 485.442 78.5726 487.124 73.6491C488.869 68.7256 491.393 64.4564 494.697 60.8417C497.937 57.3516 501.833 54.6094 506.382 52.615C510.932 50.6207 516.073 49.6235 521.807 49.6235C528.725 49.6235 534.521 50.9012 539.195 53.4564C543.932 55.9493 547.733 59.159 550.6 63.0853C553.53 67.0117 555.586 71.3431 556.77 76.0797C558.017 80.7539 558.64 85.3035 558.64 89.7284C558.64 95.7738 557.736 101.352 555.929 106.462C554.184 111.51 551.753 115.842 548.637 119.457C545.334 123.071 541.408 125.907 536.858 127.964C532.371 129.958 527.354 130.955 521.807 130.955Z" fill="white"/>
<path d="M460.454 109.546V52.9883H477.655V127.682H461.949C460.516 127.682 459.114 127.527 457.742 127.215C456.371 126.903 455.063 126.249 453.816 125.252C452.57 124.379 451.354 123.071 450.17 121.326C448.986 119.58 447.864 117.275 446.805 114.408C445.184 110.357 443.439 106.088 441.57 101.6C439.7 97.113 437.955 92.9685 436.334 89.1668C434.714 85.3651 433.343 82.249 432.221 79.8184C431.099 77.3254 430.538 76.079 430.538 76.079L429.978 74.6767V127.682H412.776V52.9883H426.332C428.139 53.1129 429.853 53.5803 431.473 54.3905C432.907 55.0761 434.371 56.1668 435.867 57.6625C437.425 59.0959 438.765 61.1214 439.887 63.739L460.454 109.546Z" fill="white"/>
<path d="M384.431 127.87C382.81 120.952 381.034 115.592 379.102 111.791C377.232 107.927 375.363 105.091 373.493 103.284C371.561 101.601 369.722 100.604 367.977 100.292C366.232 99.9181 364.612 99.7934 363.116 99.9181H360.966V127.87H339.932V53.1758H360.966V86.4563H362.742L380.504 56.2608C381.501 55.0766 382.436 54.3599 383.309 54.1106C384.244 53.799 385.646 53.6432 387.516 53.6432H404.062L379.289 91.1305C380.722 91.5668 382.218 92.19 383.776 93.0002C385.023 93.7481 386.394 94.6206 387.889 95.6178C389.385 96.5526 390.756 97.7056 392.003 99.0767C393.935 101.196 395.618 103.377 397.051 105.621C398.484 107.864 399.793 110.17 400.977 112.539C402.037 114.969 403.065 117.462 404.062 120.017C405.059 122.51 406.119 125.128 407.241 127.87H384.431Z" fill="white"/>
<path d="M269.549 108.892C269.549 112.382 271.543 114.127 275.532 114.127H305.727V127.682H268.988C261.758 127.682 256.43 126.093 253.002 122.915C249.636 119.674 247.954 114.501 247.954 107.396V52.9883H304.418V66.5435H269.549V82.4359H300.305V95.9912H269.549V108.892Z" fill="white"/>
<path d="M225.695 56.1673C225.945 55.0455 226.63 54.2664 227.752 53.8302C228.874 53.3939 230.027 53.1758 231.211 53.1758H242.897L227.565 127.87H210.831C209.024 127.87 207.591 127.247 206.531 126C205.534 124.754 204.693 123.383 204.007 121.887C203.135 120.142 202.542 118.148 202.231 115.904C201.234 109.672 200.33 104.063 199.52 99.0767C199.146 96.8954 198.803 94.7764 198.491 92.7198C198.18 90.6631 197.868 88.7623 197.557 87.0172C197.245 85.3968 196.996 83.9945 196.809 82.8104C196.622 81.6263 196.466 80.9095 196.341 80.6603C196.341 80.6603 196.123 81.6263 195.687 83.5583C195.313 85.4903 194.877 87.9521 194.378 90.9436C193.693 93.9351 193.007 97.3005 192.321 101.04C191.698 104.717 191.075 108.269 190.452 111.697C189.766 115.25 189.143 118.459 188.582 121.326C188.083 124.193 187.71 126.374 187.46 127.87H172.222C170.041 127.87 168.296 127.216 166.987 125.907C165.678 124.598 164.681 123.102 163.996 121.42C163.061 119.612 162.406 117.493 162.032 115.063L150.16 53.1758H161.939C163.123 53.1758 164.245 53.4251 165.304 53.9237C166.426 54.4222 167.112 55.1701 167.361 56.1673L176.99 108.051L187.46 60.748C187.71 59.8132 188.052 58.9407 188.489 58.1305C188.925 57.4449 189.486 56.8217 190.171 56.2608C190.857 55.6999 191.698 55.4194 192.695 55.4194H204.755L215.319 107.21L225.695 56.1673Z" fill="white"/>
</g>
<path opacity="0.4" fill-rule="evenodd" clip-rule="evenodd" d="M427.959 515.469C436.393 523.903 444.826 523.2 444.826 523.2C460.288 523.2 464.856 514.063 464.856 514.063C455.017 520.037 445.881 513.009 445.881 513.009C438.15 508.09 439.204 495.088 439.204 495.088L438.853 448H420.931V470.49C408.984 471.544 401.604 473.301 401.604 473.301C385.088 476.815 381.574 481.032 381.574 481.032C375.952 487.357 387.197 491.222 387.197 491.222C396.685 496.142 421.283 498.602 421.283 498.602C421.634 511.955 427.959 515.469 427.959 515.469ZM482.778 496.845C502.456 494.034 507.727 489.817 507.727 489.817C520.729 481.383 502.456 476.463 502.456 476.463C490.86 471.895 471.182 470.138 471.182 470.138V448H452.909V475.409L471.182 488.06V477.166C479.967 478.923 481.021 479.977 481.021 479.977C489.806 483.843 476.804 487.357 476.804 487.357C468.019 490.168 453.26 490.52 453.26 490.52V496.845C453.611 501.413 451.854 503.873 451.854 503.873C448.692 507.738 443.421 505.63 443.421 505.63C448.692 515.469 458.882 513.712 458.882 513.712C472.236 511.252 471.533 498.25 471.533 498.25C476.804 497.548 482.778 496.845 482.778 496.845ZM410.741 480.328C404.064 483.842 415.66 487.005 415.66 487.005C423.391 489.816 438.853 489.816 438.853 489.816L421.634 477.165C414.957 477.868 410.741 480.328 410.741 480.328Z" fill="white"/>
<path opacity="0.4" fill-rule="evenodd" clip-rule="evenodd" d="M44.9592 85.469C53.3928 93.9026 61.8265 93.1998 61.8265 93.1998C77.2881 93.1998 81.8563 84.0634 81.8563 84.0634C72.0171 90.0372 62.8807 83.0092 62.8807 83.0092C55.1498 78.0896 56.204 65.0877 56.204 65.0877L55.8526 18H37.9312V40.4897C25.9836 41.5439 18.6041 43.3009 18.6041 43.3009C2.08829 46.8149 -1.42572 51.0317 -1.42572 51.0317C-7.04814 57.3569 4.19669 61.2223 4.19669 61.2223C13.6845 66.1419 38.2826 68.6017 38.2826 68.6017C38.634 81.955 44.9592 85.469 44.9592 85.469ZM99.7778 66.8447C119.456 64.0335 124.727 59.8167 124.727 59.8167C137.729 51.3831 119.456 46.4635 119.456 46.4635C107.86 41.8953 88.1815 40.1383 88.1815 40.1383V18H69.9087V45.4093L88.1815 58.0597V47.1663C96.9666 48.9233 98.0208 49.9775 98.0208 49.9775C106.806 53.8429 93.8039 57.3569 93.8039 57.3569C85.0189 60.1681 70.2601 60.5195 70.2601 60.5195V66.8447C70.6115 71.413 68.8545 73.8728 68.8545 73.8728C65.6919 77.7382 60.4208 75.6298 60.4208 75.6298C65.6919 85.469 75.8825 83.712 75.8825 83.712C89.2357 81.2522 88.5329 68.2503 88.5329 68.2503C93.8039 67.5475 99.7778 66.8447 99.7778 66.8447ZM27.7406 50.3279C21.064 53.8419 32.6602 57.0045 32.6602 57.0045C40.391 59.8157 55.8527 59.8158 55.8527 59.8158L38.634 47.1653C31.9574 47.8681 27.7406 50.3279 27.7406 50.3279Z" fill="white"/>
</g>
</svg>
