<svg width="505" height="505" viewBox="0 0 505 505" fill="none" xmlns="http://www.w3.org/2000/svg">
<mask id="mask0_1577_239" style="mask-type:alpha" maskUnits="userSpaceOnUse" x="0" y="0" width="505" height="505">
<rect width="505" height="505" rx="24" fill="#D9D9D9"/>
</mask>
<g mask="url(#mask0_1577_239)">
<rect x="-228" width="961.905" height="505" fill="#F9EAE6"/>
<mask id="mask1_1577_239" style="mask-type:alpha" maskUnits="userSpaceOnUse" x="-228" y="0" width="962" height="505">
<rect x="-228" width="961.905" height="505" fill="white"/>
</mask>
<g mask="url(#mask1_1577_239)">
<path d="M439.618 149.475H403.537C383.808 149.475 367.814 165.468 367.814 185.197C367.814 204.927 383.808 220.92 403.537 220.92H439.618C459.347 220.92 475.341 204.927 475.341 185.197C475.341 165.468 459.347 149.475 439.618 149.475Z" fill="#FFFAF9"/>
<path d="M475.104 185.197H368.05C348.321 185.197 332.328 201.191 332.328 220.92C332.328 240.649 348.321 256.643 368.05 256.643H475.104C494.834 256.643 510.827 240.649 510.827 220.92C510.827 201.191 494.834 185.197 475.104 185.197Z" fill="#FFFAF9"/>
<ellipse cx="24.1743" cy="45.1322" rx="24.1743" ry="45.1322" transform="matrix(-0.995996 0.0893953 0.0893953 0.995996 86.3237 287.183)" fill="#CDCA88"/>
<path d="M80.9116 455.705C77.6869 415.461 74.3906 382.207 71.3007 357.851C70.5577 351.993 65.9591 352.548 66.2356 358.446C68.3234 402.976 70.24 439.787 69.5218 455.705H80.9116Z" fill="#C99F88"/>
<ellipse cx="504.896" cy="312.968" rx="25.7738" ry="48.1184" transform="rotate(5.12882 504.896 312.968)" fill="#CDCA88"/>
<path d="M489.298 442.411C492.857 397.996 496.497 361.568 499.891 335.381C500.65 329.525 505.348 330.101 505.072 335.999C502.798 384.691 500.661 425.116 501.441 442.411H489.298Z" fill="#C99F88"/>
<ellipse cx="336.809" cy="311.749" rx="23.3688" ry="43.6284" transform="rotate(2.89754 336.809 311.749)" fill="#C6B57B"/>
<path d="M327.247 429.575C328.817 391.321 330.706 359.563 332.73 336.049C333.236 330.167 337.799 330.541 337.752 336.445C337.412 378.922 336.97 413.96 338.249 429.146L327.247 429.575Z" fill="#B89684"/>
<path d="M483.257 375.154C477.72 383.762 487.304 393.772 492.789 397.702C502.696 398.969 524.841 400.993 534.163 398.955C545.815 396.407 549.773 389.558 545.983 382.908C542.951 377.588 536.182 382.995 533.176 386.364C535.677 380.037 537.63 367.052 525.429 365.72C513.228 364.387 510.649 373.553 510.885 378.302C510.527 375.469 508.673 369.893 504.124 370.25C499.575 370.606 499.154 376.361 499.512 379.193C496.401 374.261 488.795 366.547 483.257 375.154Z" fill="#B4C06E"/>
<path d="M194.392 363.33C190.635 371.588 200.322 379.144 205.635 381.89C214.488 381.735 234.172 380.68 242.088 377.701C251.984 373.977 254.581 367.463 250.406 362.114C247.066 357.835 241.819 363.443 239.614 366.782C240.999 360.913 241.052 349.273 230.179 349.664C219.306 350.054 218.216 358.424 219.029 362.56C218.353 360.121 216.015 355.466 212.07 356.36C208.125 357.255 208.491 362.356 209.167 364.795C205.808 360.866 198.15 355.072 194.392 363.33Z" fill="#B4C06E"/>
<path d="M227.782 374.371C42.7502 374.371 -134.483 395.862 -238.998 418.619C-283.383 428.283 -311.399 468.668 -311.399 514.093C-311.399 575.085 -261.956 624.528 -200.964 624.528H665.145C724.348 624.528 772.342 576.534 772.342 517.331C772.342 470.572 741.994 429.169 696.25 419.484C587.263 396.409 415.157 374.371 227.782 374.371Z" fill="#CBD68B"/>
<path d="M433.323 406.989C427.467 411.747 425.051 422.688 424.388 429.132C424.272 430.261 425.162 431.213 426.297 431.228L455.223 431.631C461.287 431.715 461.98 430.373 462.027 426.993C462.065 424.29 457.597 422.425 456.009 423.529C457.432 418.141 454.803 413.372 451.443 412.649C448.755 412.071 445.767 416.852 444.61 419.314C445.35 414.592 441.504 400.342 433.323 406.989Z" fill="#AEB971"/>
<path d="M402.034 436.232C399.385 438.326 398.078 442.937 397.565 446.179C397.388 447.299 398.266 448.269 399.4 448.302L412.713 448.698C415.723 448.787 416.078 448.123 416.128 446.437C416.168 445.088 413.965 444.123 413.167 444.662C413.917 441.985 412.649 439.585 410.986 439.198C409.656 438.888 408.135 441.25 407.541 442.47C407.945 440.12 406.149 432.98 402.034 436.232Z" fill="#AEB971"/>
<path d="M174.192 469.109C168.181 473.86 165.562 484.972 164.793 491.505C164.661 492.632 165.536 493.598 166.67 493.632L195.944 494.501C202.077 494.684 202.799 493.33 202.901 489.896C202.983 487.149 198.494 485.183 196.87 486.28C198.396 480.826 195.814 475.938 192.427 475.15C189.717 474.519 186.619 479.331 185.409 481.815C186.233 477.028 182.573 462.484 174.192 469.109Z" fill="#AEB971"/>
<path d="M-10.6538 403.71C-16.2466 403.927 -16.7486 414.119 -16.3004 419.188H3.86598C4.13486 416.201 3.86598 410.227 0.639355 410.227C-2.58727 410.227 -4.29021 413.847 -4.73835 415.658C-4.37984 411.585 -5.06101 403.493 -10.6538 403.71Z" fill="#AEB971"/>
<path d="M217.162 461.563C212.688 461.734 212.287 469.78 212.645 473.782H228.778C228.993 471.424 228.778 466.708 226.197 466.708C223.616 466.708 222.253 469.566 221.895 470.995C222.182 467.78 221.637 461.391 217.162 461.563Z" fill="#AEB971"/>
<ellipse cx="581.071" cy="459.023" rx="116.295" ry="46.3361" transform="rotate(3.20464 581.071 459.023)" fill="#ABB66B"/>
<path d="M630.483 238.493C667.671 190.846 649.017 114.131 588.817 67.1447C528.617 20.1585 449.668 20.6943 412.479 68.3414C375.29 115.988 393.945 192.704 454.145 239.69C514.345 286.676 593.294 286.14 630.483 238.493Z" fill="#A5B54B"/>
<path d="M551.378 249.055C602.244 295.102 690.643 280.332 748.821 216.065C807 151.798 812.928 62.37 762.062 16.3227C711.196 -29.7246 622.798 -14.9545 564.619 49.3126C506.44 113.58 500.512 203.007 551.378 249.055Z" fill="#A5B54B"/>
<path d="M599.654 284.585C685.646 282.656 753.449 196.093 751.096 91.2412C748.744 -13.6103 677.126 -97.0452 591.135 -95.1157C505.143 -93.1863 437.34 -6.6232 439.692 98.2283C442.045 203.08 513.662 286.515 599.654 284.585Z" fill="#BFCE68"/>
<path d="M672.078 65.5096C656.224 81.2925 638.207 97.5961 622.775 107.383C619.751 78.0534 616.175 48.3458 611.967 18.7763C609.277 -0.0918739 584.527 1.38464 583.215 20.4797C580.487 60.208 576.85 108.125 572.134 162.001C554.433 155.303 530.808 138.229 510.283 121.572C499.497 112.815 484.964 126.694 493.273 137.845C518.624 171.807 553.241 200.755 567.577 212.087C560.789 284.062 552.181 364.383 541.372 448.692C540.085 458.664 547.545 467.633 557.575 468.195L620.901 471.741C630.793 472.294 639.125 464.452 639.193 454.55C639.451 410.607 638.869 292.424 627.528 158.199C642.074 143.782 670.512 113.612 690.644 79.9931C697.781 68.0763 681.924 55.722 672.076 65.5442L672.078 65.5096Z" fill="#B08965"/>
<path d="M515.2 413.814C492.464 419.225 485.635 446.917 496.43 466.237C504.966 478.747 530.109 477.481 535.446 476.443C540.782 475.405 558.256 469.699 558.284 445.637C558.311 421.575 537.936 408.403 515.2 413.814Z" fill="#E2E2E2"/>
<ellipse cx="245.139" cy="499.45" rx="74.9655" ry="29.7418" fill="#ABB66B"/>
<ellipse cx="80.5417" cy="499.45" rx="74.9655" ry="29.7418" fill="#ABB66B"/>
<ellipse cx="408.108" cy="499.45" rx="74.9655" ry="29.7418" fill="#ABB66B"/>
<path d="M-214.609 428.585C-260.24 418.155 -309.131 475.581 -309.131 505.862C-309.131 505.862 -351.503 495.27 -358.021 532.752C-364.54 570.235 -318.909 587.887 -318.909 587.887H14.7693C20.4732 571.997 21.9399 545.596 -12.9353 521.477C-47.8106 497.358 -86.8144 507.625 -102.568 521.477C-97.5432 499.34 -93.9307 455.067 -119.68 455.067C-145.429 455.067 -157.027 481.686 -159.607 494.995C-158.928 477.204 -168.978 439.015 -214.609 428.585Z" fill="#81954D"/>
<path d="M222.692 499.111C184.557 501.393 179.098 553.57 181.135 579.373V587.929H364.067C368.141 562.805 364.067 526.816 327.399 522.334C288.554 517.586 278.237 560.903 278.101 579.373C275.521 551.668 260.826 496.829 222.692 499.111Z" fill="#81954D"/>
<path d="M646.044 487.042C652.97 435.3 686.378 403.113 738.121 410.446C789.863 417.78 786.197 500.487 786.197 500.487C786.197 500.487 821.235 492.744 830.198 526.561C839.161 560.378 762.974 588.081 762.974 588.081H425.221C404.443 562.007 396.294 526.561 425.221 506.598C454.517 486.38 494.755 509.857 495.298 526.561C497.471 509.857 513.387 477.182 559.67 467.078C605.953 456.974 633.685 473.733 646.044 487.042Z" fill="#81954D"/>
</g>
<path d="M383.371 332.201C383.314 332.201 383.162 332.177 383.178 332.185C383.178 332.217 383.146 332.217 383.202 332.25C386.593 333.668 390.425 333.925 394.136 333.853C408.388 333.564 420.147 323.312 427.241 311.184C430.368 306.086 438.223 309.388 436.812 315.16C435.362 320.931 433.245 326.719 430.191 332.298C421.045 349.86 401.366 361.708 381.359 362.02C380.228 362.037 378.922 362.029 377.784 361.876C358.249 357.387 363.547 329.268 383.379 332.201H383.371Z" fill="#86B316"/>
<path d="M362.802 302.551C368.188 307.473 366.345 312.627 362.144 316.747C357.944 320.867 348.99 330.35 345.976 332.931C342.962 335.512 336.462 336.843 331.572 331.584C327.724 327.448 329.231 321.901 332.638 318.647C336.045 315.392 346.65 304.531 348.982 302.591C351.323 300.651 357.006 297.261 362.802 302.559V302.551Z" fill="#9EBF46"/>
<path d="M364.437 347.039C357.311 347.039 351.339 352.426 351.571 359.864C351.804 367.303 353.567 381.395 352.685 382.718C351.804 384.04 344.95 383.76 344.541 391.543C344.197 398.14 349.383 398.79 350.706 398.79H370.857C370.857 398.79 378.008 398.79 378.008 389.98V360.474C378.008 360.474 378.609 347.039 364.437 347.039V347.039Z" fill="#ADD04D"/>
<path d="M396.717 347.039C403.843 347.039 409.815 352.426 409.582 359.864C409.35 367.303 407.586 381.395 408.468 382.718C409.35 384.04 416.203 383.76 416.612 391.543C416.957 398.14 411.77 398.79 410.448 398.79C409.125 398.79 390.296 398.79 390.296 398.79C390.296 398.79 383.146 398.79 383.146 389.98C383.146 381.171 383.146 360.474 383.146 360.474C383.146 360.474 382.545 347.039 396.717 347.039V347.039Z" fill="#ADD04D"/>
<path d="M398.144 299.689C401.951 296.595 408.548 296.371 416.252 306.495C423.947 316.627 437.205 337.155 439.313 338.414C441.422 339.672 446.632 340.682 447.185 342.967C447.738 345.251 446.456 345.716 446.343 346.31C446.231 346.903 449.421 349.364 446.993 352.097C444.564 354.83 442.023 351.68 441.341 352.265C440.66 352.85 443.361 356.313 439.081 357.7C434.8 359.087 432.692 354.598 431.819 354.766C430.945 354.935 430.672 357.708 426.937 357.171C423.201 356.634 422.536 347.784 421.374 345.275C420.212 342.767 397.727 313.012 396.741 310.214C395.755 307.417 394.304 302.807 398.144 299.689V299.689Z" fill="#9EBF46"/>
<path d="M416.204 342.775C416.204 362.454 400.252 367.856 380.581 367.856C360.91 367.856 344.958 362.454 344.958 342.775C344.958 323.096 360.91 287.866 380.581 287.866C400.252 287.866 416.204 323.096 416.204 342.775Z" fill="#ADD04D"/>
<path d="M404.653 334.775C404.653 348.073 393.871 354.887 380.581 354.887C367.291 354.887 356.509 348.073 356.509 334.775C356.509 321.476 367.291 293.381 380.581 293.381C393.871 293.381 404.653 321.476 404.653 334.775Z" fill="#FEE6B4"/>
<path d="M368.918 193.487L358.609 214.817L396.637 212.661L383.98 192.637C380.364 186.914 371.868 187.395 368.926 193.495L368.918 193.487Z" fill="#91B040"/>
<path d="M382.817 305.149C420.514 303.008 449.766 278.231 448.152 249.806C446.538 221.381 414.669 200.074 376.972 202.215C339.274 204.355 310.023 229.133 311.637 257.558C313.251 285.982 345.119 307.29 382.817 305.149Z" fill="#ADD04D"/>
<path d="M399.362 246.496C401.686 246.496 403.57 244.612 403.57 242.288C403.57 239.963 401.686 238.079 399.362 238.079C397.038 238.079 395.154 239.963 395.154 242.288C395.154 244.612 397.038 246.496 399.362 246.496Z" fill="#2C0000"/>
<path d="M359.243 248.773C361.567 248.773 363.451 246.888 363.451 244.564C363.451 242.24 361.567 240.356 359.243 240.356C356.918 240.356 355.034 242.24 355.034 244.564C355.034 246.888 356.918 248.773 359.243 248.773Z" fill="#2C0000"/>
<path d="M379.068 253.538C379.283 252.408 378.184 251.249 376.614 250.95C375.044 250.652 373.597 251.326 373.382 252.457C373.167 253.588 374.265 254.746 375.835 255.045C377.405 255.344 378.853 254.669 379.068 253.538Z" fill="#2C0000"/>
<path d="M384.074 254.562C385.6 254.088 386.56 252.813 386.219 251.713C385.877 250.614 384.363 250.108 382.837 250.582C381.311 251.056 380.351 252.331 380.692 253.431C381.034 254.53 382.548 255.036 384.074 254.562Z" fill="#2C0000"/>
<path d="M328.614 268.828C335.361 268.828 340.83 263.359 340.83 256.612C340.83 249.865 335.361 244.396 328.614 244.396C321.867 244.396 316.398 249.865 316.398 256.612C316.398 263.359 321.867 268.828 328.614 268.828Z" fill="#CADB44"/>
<path d="M431.153 263.017C437.9 263.017 443.369 257.547 443.369 250.8C443.369 244.054 437.9 238.584 431.153 238.584C424.406 238.584 418.937 244.054 418.937 250.8C418.937 257.547 424.406 263.017 431.153 263.017Z" fill="#CADB44"/>
<path d="M362.497 263.666C351.131 264.307 348.076 258.135 347.948 257.871C347.676 257.293 347.924 256.604 348.493 256.332C349.07 256.059 349.752 256.299 350.024 256.869C350.137 257.093 352.67 261.903 362.361 261.358H362.401C366.248 261.133 369.246 260.644 372.14 260.179C374.785 259.754 377.286 259.346 380.196 259.177C380.829 259.145 381.374 259.626 381.414 260.259C381.455 260.893 380.966 261.438 380.332 261.478C377.543 261.638 375.098 262.031 372.509 262.448C369.559 262.929 366.505 263.418 362.537 263.65H362.497V263.666Z" fill="#79A82C"/>
<path d="M398.288 261.63H398.248C394.28 261.854 391.194 261.71 388.204 261.566C385.591 261.446 383.114 261.325 380.324 261.486C379.691 261.518 379.146 261.037 379.106 260.404C379.066 259.77 379.555 259.225 380.188 259.185C383.098 259.017 385.631 259.137 388.308 259.265C391.234 259.402 394.264 259.546 398.111 259.329H398.152C407.867 258.776 409.823 253.686 409.903 253.47C410.119 252.877 410.777 252.556 411.37 252.772C411.963 252.981 412.284 253.63 412.083 254.223C411.987 254.496 409.646 260.981 398.288 261.622V261.63Z" fill="#79A82C"/>
<path d="M353.479 307.128C351.892 312.795 348.886 325.492 347.571 329.228C346.257 332.963 341.287 337.372 334.425 335.264C329.023 333.604 327.556 328.049 328.878 323.528C330.201 319.007 334.914 304.483 335.011 301.453C335.171 296.307 332.189 292.691 332.189 289.317C332.189 285.942 334.369 286.495 334.369 285.213C334.369 283.93 332.277 281.229 335.155 279.024C337.672 277.1 339.499 279.385 340.197 278.984C340.894 278.583 340.004 277.878 342.249 276.724C345.062 275.265 351.892 278.808 353.88 289.597C355.78 299.874 353.487 307.136 353.487 307.136L353.479 307.128Z" fill="#9EBF46"/>
<path d="M272.911 364.369C270.266 364.369 268.607 364.153 268.286 364.105L271.276 343.568L271.148 343.552C272.302 343.688 299.596 346.478 318.161 307.825C320.646 302.655 326.842 300.483 332.004 302.968C337.167 305.453 339.347 311.649 336.862 316.811C316.101 360.033 284.687 364.377 272.903 364.377L272.911 364.369Z" fill="#EB6100"/>
<path d="M286.106 313.324C285.216 323.649 295.653 325.436 299.645 325.436C303.637 325.436 316.205 324.482 322.827 324.971C329.72 325.476 333.985 325.957 337.031 326.631C340.069 327.304 355.291 335.48 358.385 331.512C360.774 328.458 358.537 326.727 358.874 325.212C359.211 323.697 365.607 325.957 366.265 321.324C366.89 316.907 361.006 316.426 361.174 314.759C361.343 313.092 366.385 314.23 366.385 309.284C366.385 302.511 354.666 306.431 354.329 305.156C353.992 303.882 356.605 300.05 352.541 298.367C347.788 296.403 341.96 302.439 339.9 302.607C337.84 302.775 329.343 302.326 323.163 302.326C316.983 302.326 303.757 301.813 298.947 302.158C294.138 302.503 286.875 304.346 286.098 313.324H286.106Z" fill="#ED6D0F"/>
<path d="M354.257 315.801C354.257 320.066 349.343 323.521 345.078 323.521C340.814 323.521 338.81 320.066 338.81 315.801C338.81 311.537 340.814 308.082 345.078 308.082C349.343 308.082 354.257 311.537 354.257 315.801Z" fill="#FEE6B4"/>
<path d="M359.347 312.779C361.467 312.779 363.187 311.462 363.187 309.837C363.187 308.213 361.467 306.896 359.347 306.896C357.226 306.896 355.507 308.213 355.507 309.837C355.507 311.462 357.226 312.779 359.347 312.779Z" fill="#FEE6B4"/>
<path d="M363.496 320.41C363.8 318.814 362.358 317.198 360.275 316.802C358.192 316.405 356.256 317.377 355.953 318.974C355.649 320.57 357.091 322.185 359.174 322.582C361.257 322.978 363.192 322.006 363.496 320.41Z" fill="#FEE6B4"/>
<path d="M356.548 329.018C357.36 327.611 356.53 325.611 354.693 324.551C352.857 323.491 350.71 323.772 349.897 325.179C349.085 326.586 349.915 328.586 351.751 329.646C353.588 330.706 355.735 330.425 356.548 329.018Z" fill="#FEE6B4"/>
<path d="M350.623 306.13C352.415 304.996 353.163 302.964 352.294 301.591C351.426 300.218 349.269 300.024 347.477 301.158C345.685 302.292 344.937 304.325 345.806 305.697C346.675 307.07 348.832 307.264 350.623 306.13Z" fill="#FEE6B4"/>
<path d="M253.561 313.324C254.451 323.649 244.014 325.436 240.022 325.436C236.03 325.436 223.462 324.482 216.84 324.971C210.219 325.46 205.682 325.957 202.636 326.631C199.59 327.304 184.376 335.48 181.282 331.512C178.893 328.458 181.13 326.727 180.793 325.212C180.456 323.697 174.06 325.957 173.402 321.324C172.777 316.907 178.661 316.426 178.493 314.759C178.324 313.092 173.282 314.23 173.282 309.284C173.282 302.511 185.001 306.431 185.338 305.156C185.675 303.882 183.062 300.05 187.126 298.367C191.879 296.403 197.707 302.439 199.767 302.607C201.827 302.775 210.324 302.326 216.504 302.326C222.684 302.326 235.91 301.813 240.72 302.158C245.529 302.503 252.792 304.346 253.569 313.324H253.561Z" fill="#ED6D0F"/>
<path d="M185.41 315.801C185.41 320.066 190.324 323.521 194.588 323.521C198.853 323.521 200.857 320.066 200.857 315.801C200.857 311.537 198.853 308.082 194.588 308.082C190.324 308.082 185.41 311.537 185.41 315.801Z" fill="#FEE6B4"/>
<path d="M180.32 312.779C182.441 312.779 184.16 311.462 184.16 309.837C184.16 308.213 182.441 306.896 180.32 306.896C178.2 306.896 176.48 308.213 176.48 309.837C176.48 311.462 178.2 312.779 180.32 312.779Z" fill="#FEE6B4"/>
<path d="M180.5 322.577C182.583 322.181 184.026 320.565 183.722 318.969C183.418 317.373 181.483 316.401 179.4 316.798C177.317 317.194 175.874 318.81 176.178 320.406C176.482 322.002 178.417 322.974 180.5 322.577Z" fill="#FEE6B4"/>
<path d="M187.916 329.651C189.752 328.591 190.583 326.59 189.77 325.183C188.958 323.776 186.811 323.495 184.974 324.555C183.138 325.616 182.307 327.616 183.12 329.023C183.932 330.43 186.079 330.711 187.916 329.651Z" fill="#FEE6B4"/>
<path d="M193.864 305.745C194.733 304.372 193.985 302.34 192.193 301.206C190.401 300.072 188.244 300.265 187.376 301.638C186.507 303.011 187.255 305.043 189.047 306.177C190.838 307.311 192.995 307.118 193.864 305.745Z" fill="#FEE6B4"/>
<path d="M252.19 351.688C244.399 351.688 237.866 357.572 238.123 365.708C238.379 373.836 240.303 389.251 239.341 390.694C238.379 392.136 230.884 391.84 230.435 400.345C230.059 407.559 235.726 408.272 237.169 408.272H259.204C259.204 408.272 267.028 408.272 267.028 398.645V366.381C267.028 366.381 267.685 351.696 252.19 351.696V351.688Z" fill="#EE782F"/>
<path d="M287.476 351.688C295.268 351.688 301.801 357.572 301.544 365.708C301.288 373.836 299.364 389.251 300.326 390.694C301.288 392.136 308.782 391.84 309.231 400.345C309.608 407.559 303.941 408.272 302.498 408.272C301.055 408.272 280.462 408.272 280.462 408.272C280.462 408.272 272.639 408.272 272.639 398.645C272.639 389.018 272.639 366.381 272.639 366.381C272.639 366.381 271.981 351.696 287.476 351.696V351.688Z" fill="#EE782F"/>
<path d="M308.783 347.023C308.783 368.538 291.348 374.445 269.833 374.445C248.319 374.445 230.884 368.538 230.884 347.023C230.884 325.508 248.319 286.992 269.833 286.992C291.348 286.992 308.783 325.508 308.783 347.023Z" fill="#EE782F"/>
<path d="M296.149 338.278C296.149 352.811 284.366 360.265 269.833 360.265C255.3 360.265 243.517 352.811 243.517 338.278C243.517 323.745 255.3 293.028 269.833 293.028C284.366 293.028 296.149 323.745 296.149 338.278Z" fill="#FEE6B4"/>
<path d="M269.785 314.767C289.437 314.767 305.368 308.207 305.368 300.114C305.368 292.021 289.437 285.461 269.785 285.461C250.133 285.461 234.203 292.021 234.203 300.114C234.203 308.207 250.133 314.767 269.785 314.767Z" fill="#EA5027"/>
<path d="M206.292 225.815C205.458 215.306 203.358 171.451 225.498 163.115C247.638 154.778 262.018 198.97 262.708 204.725C263.405 210.481 250.788 222.665 239.59 227.194C228.392 231.723 206.725 231.45 206.284 225.823L206.292 225.815Z" fill="#EE782F"/>
<path d="M222.139 208.3C221.779 204.076 220.961 186.425 229.867 183.074C238.78 179.723 244.536 197.503 244.84 199.819C246.484 212.188 244.191 217.639 240.183 220.388C238.708 221.398 223.791 227.586 222.131 208.3H222.139Z" fill="#FEE6B4"/>
<path d="M338.538 231.258C340.229 220.853 345.928 177.319 324.55 167.187C303.164 157.055 285.208 199.916 284.046 205.599C282.883 211.274 294.45 224.452 305.232 229.887C316.021 235.322 337.632 236.829 338.538 231.258V231.258Z" fill="#EE782F"/>
<path d="M324.173 212.501C324.879 208.317 327.147 190.794 318.546 186.722C309.945 182.65 302.747 199.9 302.25 202.176C299.597 214.369 301.432 219.988 305.2 223.058C306.586 224.188 320.943 231.579 324.181 212.501H324.173Z" fill="#FEE6B4"/>
<path d="M294.867 248.284C286.795 242.392 281.649 237.582 278.371 233.863C275.148 230.208 269.561 229.983 266.05 233.358C262.475 236.797 256.944 241.165 248.423 246.376C225.313 260.5 198.116 254.472 197.771 254.4C197.17 285.91 227.694 304.804 269.216 306.511C310.731 308.218 342.69 291.898 344.686 260.452C343.98 260.548 316.606 264.163 294.875 248.292L294.867 248.284Z" fill="#FEE6B4"/>
<path d="M273.906 192.357C230.219 190.561 199.158 220.084 197.795 253.317C197.779 253.678 197.771 254.031 197.771 254.391C198.124 254.472 225.314 260.5 248.423 246.368C256.952 241.157 262.475 236.789 266.05 233.35C269.561 229.975 275.148 230.208 278.371 233.855C281.657 237.574 286.803 242.384 294.867 248.275C316.59 264.147 343.964 260.532 344.678 260.435C344.702 260.075 344.742 259.722 344.758 259.361C346.129 226.128 317.6 194.152 273.914 192.349L273.906 192.357Z" fill="#EE782F"/>
<path d="M255.726 238.528C257.561 240.524 257.433 243.626 255.437 245.462C253.441 247.297 250.339 247.169 248.503 245.173C246.668 243.177 246.066 239.666 248.062 237.823C250.058 235.987 253.89 236.524 255.726 238.52V238.528Z" fill="#2F2725"/>
<path d="M288.222 239.867C286.226 241.702 286.098 244.812 287.934 246.8C289.769 248.796 292.879 248.925 294.867 247.089C296.863 245.253 297.745 241.798 295.909 239.803C294.074 237.807 290.21 238.031 288.214 239.867H288.222Z" fill="#2F2725"/>
<path d="M281.481 266.795C281.683 261.89 277.096 257.717 271.235 257.476C265.374 257.234 260.459 261.015 260.257 265.921C260.055 270.826 264.642 274.998 270.503 275.24C276.364 275.481 281.279 271.701 281.481 266.795Z" fill="#C14E38"/>
<path d="M278.579 272.531C276.711 270.599 273.914 269.309 270.739 269.181C267.565 269.052 264.671 270.11 262.651 271.874C264.519 273.806 267.317 275.096 270.491 275.225C273.665 275.353 276.559 274.295 278.579 272.531Z" fill="#ED6D49"/>
<path d="M280.439 250.897C273.296 251.329 271.252 256.796 271.252 256.796C271.252 256.796 269.665 251.185 262.579 250.167C258.315 249.55 252.054 251.963 251.766 258.945C251.485 265.846 256.431 268.395 260.912 268.54C266.844 268.732 267.733 263.954 270.956 264.083C274.17 264.219 274.667 269.053 280.599 269.349C285.072 269.574 290.218 267.441 290.507 260.532C290.795 253.55 284.751 250.632 280.447 250.897H280.439Z" fill="white"/>
<path d="M275.413 255.466C275.317 257.726 273.409 259.49 271.148 259.393C268.888 259.297 267.124 257.389 267.221 255.129C267.317 252.868 269.176 252.259 271.437 252.347C273.697 252.436 275.509 253.197 275.413 255.466Z" fill="#2F2725"/>
<path d="M282.627 322.783C282.627 315.721 276.903 309.99 269.833 309.99C262.763 309.99 257.04 315.713 257.04 322.783C257.04 329.14 261.689 334.406 267.765 335.392V326.967C266.603 326.398 265.825 325.388 265.825 324.218C265.825 322.438 267.621 320.987 269.833 320.987C272.046 320.987 273.841 322.43 273.841 324.218C273.841 325.42 273.016 326.462 271.797 327.015V335.408C277.929 334.462 282.627 329.18 282.627 322.783V322.783Z" fill="#FED300"/>
<path d="M273.842 324.21C273.842 322.43 272.046 320.98 269.834 320.98C267.621 320.98 265.826 322.422 265.826 324.21C265.826 325.38 266.611 326.398 267.766 326.959V335.384C268.439 335.496 269.128 335.568 269.834 335.568C270.539 335.568 271.156 335.504 271.798 335.4V327.007C273.008 326.454 273.842 325.412 273.842 324.21Z" fill="#A0452B"/>
<path d="M297.496 259.666C296.711 259.666 296.021 259.081 295.909 258.279C295.789 257.405 296.398 256.596 297.28 256.476L312.558 254.367C313.424 254.247 314.241 254.856 314.362 255.738C314.482 256.62 313.873 257.421 312.991 257.542L297.713 259.65C297.641 259.658 297.568 259.666 297.488 259.666H297.496Z" fill="#2F2725"/>
<path d="M312.782 266.496C312.702 266.496 312.622 266.496 312.55 266.48L297.272 264.227C296.398 264.099 295.789 263.281 295.917 262.408C296.045 261.534 296.871 260.925 297.737 261.053L313.015 263.305C313.889 263.434 314.498 264.251 314.369 265.125C314.249 265.918 313.568 266.496 312.782 266.496V266.496Z" fill="#2F2725"/>
<path d="M246.09 257.237C245.946 257.237 245.81 257.221 245.666 257.181L230.796 253.085C229.938 252.853 229.441 251.963 229.674 251.113C229.906 250.264 230.788 249.759 231.646 249.991L246.515 254.087C247.373 254.32 247.87 255.209 247.637 256.059C247.445 256.772 246.796 257.237 246.09 257.237Z" fill="#2F2725"/>
<path d="M230.042 261.991C229.169 261.991 228.455 261.285 228.439 260.412C228.423 259.53 229.137 258.8 230.018 258.784L245.465 258.56C246.379 258.544 247.076 259.257 247.092 260.139C247.108 261.021 246.395 261.75 245.513 261.766L230.066 261.991H230.042Z" fill="#2F2725"/>
<path d="M148.682 304.916C153.106 300.475 158.709 301.228 162.886 305.373C164.609 307.08 168.601 311.192 170.741 315.729C173.002 320.531 174.685 325.829 175.406 328.042C176.641 331.801 175.583 338.334 168.898 340.963C163.639 343.031 159.03 339.616 157.234 335.256C156.337 333.084 155.263 330.671 153.363 326.31C151.455 321.941 149.9 319.881 148.914 318.727C146.942 316.419 143.135 310.471 148.682 304.908V304.916Z" fill="#BFC0C0"/>
<path d="M110.157 348.338C103.055 348.338 97.0994 353.7 97.3319 361.115C97.5644 368.53 99.3198 382.573 98.4461 383.896C97.5724 385.219 90.7348 384.938 90.326 392.698C89.9813 399.271 95.1516 399.92 96.4662 399.92H116.554C116.554 399.92 123.68 399.92 123.68 391.142V361.732C123.68 361.732 124.281 348.346 110.149 348.346L110.157 348.338Z" fill="#D5D5D6"/>
<path d="M142.325 348.338C149.427 348.338 155.383 353.7 155.151 361.115C154.918 368.53 153.163 382.573 154.036 383.896C154.91 385.219 161.748 384.938 162.157 392.698C162.501 399.271 157.331 399.92 156.016 399.92C154.702 399.92 135.929 399.92 135.929 399.92C135.929 399.92 128.803 399.92 128.803 391.142C128.803 382.365 128.803 361.732 128.803 361.732C128.803 361.732 128.201 348.346 142.333 348.346L142.325 348.338Z" fill="#D5D5D6"/>
<path d="M109.484 300.619C105.853 297.349 99.2959 296.78 91.1117 306.463C82.9275 316.146 68.6752 335.905 66.511 337.051C64.3467 338.198 59.1043 338.935 58.439 341.18C57.7737 343.424 59.0241 343.953 59.1043 344.546C59.1845 345.139 55.8819 347.424 58.1664 350.27C60.451 353.115 63.1283 350.109 63.7856 350.727C64.4348 351.344 61.5652 354.654 65.7575 356.249C69.9498 357.845 72.2744 353.492 73.1401 353.7C74.0058 353.909 74.126 356.69 77.8775 356.346C81.6289 356.001 82.7431 347.224 84.0256 344.787C85.3082 342.35 109.22 313.886 110.35 311.152C111.48 308.419 113.155 303.906 109.492 300.603L109.484 300.619Z" fill="#BFC0C0"/>
<path d="M161.755 344.089C161.755 363.704 145.86 369.091 126.245 369.091C106.63 369.091 90.7349 363.704 90.7349 344.089C90.7349 324.474 106.63 289.357 126.245 289.357C145.86 289.357 161.755 324.474 161.755 344.089Z" fill="#D5D5D6"/>
<path d="M150.237 336.113C150.237 349.364 139.496 356.161 126.237 356.161C112.979 356.161 102.238 349.364 102.238 336.113C102.238 322.863 112.979 294.856 126.237 294.856C139.496 294.856 150.237 322.863 150.237 336.113V336.113Z" fill="#969797"/>
<path d="M134.494 321.757L159.119 311.112C164.032 308.988 162.758 301.693 157.411 301.356L102.286 297.918C96.9474 297.581 94.7751 304.667 99.3843 307.384L122.494 321.011C126.149 323.168 130.606 323.44 134.494 321.757Z" fill="#00B5E1"/>
<path d="M188.577 271.65C185.867 300.315 158.477 309.437 125.436 306.311C92.3943 303.184 66.2144 288.996 68.9318 260.331C71.6412 231.667 102.222 199.387 135.263 202.513C168.305 205.639 191.294 242.985 188.585 271.65H188.577Z" fill="#D5D5D6"/>
<path d="M117.388 252.436C119.628 252.436 121.444 250.62 121.444 248.38C121.444 246.14 119.628 244.324 117.388 244.324C115.148 244.324 113.332 246.14 113.332 248.38C113.332 250.62 115.148 252.436 117.388 252.436Z" fill="#2C0000"/>
<path d="M144.209 254.977C146.449 254.977 148.265 253.161 148.265 250.921C148.265 248.681 146.449 246.865 144.209 246.865C141.969 246.865 140.153 248.681 140.153 250.921C140.153 253.161 141.969 254.977 144.209 254.977Z" fill="#2C0000"/>
<path d="M138.443 271.606C138.865 267.15 134.89 263.13 129.566 262.627C124.242 262.123 119.584 265.328 119.163 269.783C118.742 274.239 122.716 278.26 128.041 278.763C133.365 279.266 138.022 276.062 138.443 271.606Z" fill="#C14E38"/>
<path d="M138.277 257.109C131.752 257.157 129.628 262.031 129.628 262.031C129.628 262.031 128.45 256.845 122.053 255.57C118.198 254.809 112.378 256.692 111.777 263.033C111.184 269.301 115.568 271.866 119.64 272.211C125.035 272.676 126.077 268.363 128.995 268.644C131.913 268.924 132.129 273.349 137.516 273.902C141.58 274.319 146.365 272.628 146.959 266.359C147.56 260.019 142.197 257.069 138.269 257.101L138.277 257.109Z" fill="white"/>
<path d="M133.476 261.029C133.284 263.089 131.456 264.596 129.404 264.403C127.352 264.211 125.837 262.383 126.029 260.331C126.222 258.271 127.953 257.814 130.005 258.007C132.057 258.199 133.668 258.977 133.476 261.037V261.029Z" fill="#2F2725"/>
<path d="M135.536 276.716C133.925 274.864 131.448 273.557 128.562 273.285C125.677 273.012 122.991 273.838 121.067 275.345C122.679 277.197 125.155 278.503 128.041 278.776C130.927 279.048 133.612 278.223 135.536 276.716Z" fill="#ED6D49"/>
<path d="M93.9816 226.545C108.44 226.545 120.161 214.823 120.161 200.365C120.161 185.906 108.44 174.185 93.9816 174.185C79.5229 174.185 67.8018 185.906 67.8018 200.365C67.8018 214.823 79.5229 226.545 93.9816 226.545Z" fill="#D5D5D6"/>
<path d="M93.9815 211.451C100.104 211.451 105.067 206.487 105.067 200.365C105.067 194.242 100.104 189.279 93.9815 189.279C87.8589 189.279 82.8955 194.242 82.8955 200.365C82.8955 206.487 87.8589 211.451 93.9815 211.451Z" fill="#969797"/>
<path d="M176.2 234.328C190.659 234.328 202.38 222.607 202.38 208.148C202.38 193.689 190.659 181.968 176.2 181.968C161.742 181.968 150.021 193.689 150.021 208.148C150.021 222.607 161.742 234.328 176.2 234.328Z" fill="#D5D5D6"/>
<path d="M176.2 219.234C182.323 219.234 187.286 214.271 187.286 208.148C187.286 202.025 182.323 197.062 176.2 197.062C170.078 197.062 165.114 202.025 165.114 208.148C165.114 214.271 170.078 219.234 176.2 219.234Z" fill="#969797"/>
<path d="M141.62 323.184C141.62 321.989 142.437 321.003 143.543 320.715V313.749H111.119V316.034C112.931 316.034 114.406 317.509 114.406 319.32C114.406 321.132 112.931 322.607 111.119 322.607V328.562H118.438C118.854 327.288 120.041 326.366 121.452 326.366C122.862 326.366 124.049 327.296 124.466 328.562H143.543V325.645C142.437 325.364 141.62 324.37 141.62 323.176V323.184Z" fill="#FEE195"/>
<path d="M143.544 313.749C143.544 304.972 132.762 302.719 132.762 302.719L127.087 305.613C127.239 305.902 127.336 306.23 127.336 306.583C127.336 307.745 126.398 308.683 125.235 308.683C124.41 308.683 123.704 308.202 123.36 307.513L111.127 313.749H143.552H143.544Z" fill="#FDD142"/>
<path d="M133.836 321.517C135.439 321.517 136.738 320.217 136.738 318.615C136.738 317.012 135.439 315.713 133.836 315.713C132.234 315.713 130.935 317.012 130.935 318.615C130.935 320.217 132.234 321.517 133.836 321.517Z" fill="#F9BB50"/>
<path d="M137.516 312.266C139.118 312.266 140.417 311.555 140.417 310.679C140.417 309.802 139.118 309.092 137.516 309.092C135.913 309.092 134.614 309.802 134.614 310.679C134.614 311.555 135.913 312.266 137.516 312.266Z" fill="#F49C1F"/>
<path d="M131.608 306.823C132.498 306.823 133.219 306.429 133.219 305.942C133.219 305.455 132.498 305.06 131.608 305.06C130.718 305.06 129.997 305.455 129.997 305.942C129.997 306.429 130.718 306.823 131.608 306.823Z" fill="#F49C1F"/>
<path d="M122.758 311.841C123.648 311.841 124.369 311.447 124.369 310.96C124.369 310.473 123.648 310.078 122.758 310.078C121.868 310.078 121.147 310.473 121.147 310.96C121.147 311.447 121.868 311.841 122.758 311.841Z" fill="#F49C1F"/>
<path d="M122.237 323.296C123.038 323.296 123.688 322.647 123.688 321.845C123.688 321.044 123.038 320.394 122.237 320.394C121.436 320.394 120.786 321.044 120.786 321.845C120.786 322.647 121.436 323.296 122.237 323.296Z" fill="#F9BB50"/>
<path d="M168.112 317.116C163.631 315.945 160.353 312.346 158.541 309.845C157.547 308.467 158.052 306.543 159.591 305.821C162.397 304.523 167.014 302.976 171.495 304.146C175.976 305.316 179.254 308.916 181.066 311.416C182.06 312.795 181.555 314.719 180.016 315.44C177.21 316.739 172.593 318.286 168.112 317.116Z" fill="#00B5E1"/>
<path d="M172.12 307.633C168.048 309.829 163.19 309.429 160.16 308.835C158.493 308.507 157.547 306.751 158.188 305.18C159.351 302.318 161.683 298.038 165.755 295.842C169.828 293.645 174.685 294.046 177.715 294.639C179.382 294.968 180.328 296.723 179.687 298.295C178.525 301.156 176.192 305.437 172.12 307.633V307.633Z" fill="#00B5E1"/>
<path d="M143.728 338.486C145.323 338.831 149.443 340.811 153.916 341.58C158.389 342.35 164.994 342.358 167.15 342.061C171.815 341.428 176.833 335.488 175.679 329.957C174.148 322.575 169.282 321.797 165.331 322.118C163.182 322.286 163.094 322.775 158.277 322.575C154.357 322.414 150.686 320.362 148.12 319.585C143.559 318.206 143.383 317.244 142.141 315.417C141.171 313.998 140.642 312.346 138.253 312.988C135.006 313.853 136.145 316.835 136.024 317.829C135.904 318.823 129.66 316.795 128.626 319.352C127.648 321.757 129.163 322.238 129.091 323.456C129.019 324.675 126.253 322.895 125.532 326.31C124.898 329.3 128.61 329.308 128.554 330.222C128.498 331.136 126.983 330.783 126.566 333.348C126.221 335.496 130.325 337.428 132.722 337.356C134.646 337.3 140.674 337.821 143.736 338.478L143.728 338.486Z" fill="#BFC0C0"/>
<path d="M344.838 86.0824L349.311 95.1483C350.441 97.4329 352.622 99.02 355.139 99.3887L365.142 100.84C371.491 101.761 374.032 109.569 369.431 114.05L362.193 121.112C360.365 122.891 359.531 125.456 359.964 127.965L361.672 137.929C362.754 144.254 356.117 149.079 350.433 146.089L341.48 141.384C339.227 140.198 336.526 140.198 334.273 141.384L325.32 146.089C319.636 149.079 312.999 144.254 314.081 137.929L315.789 127.965C316.222 125.456 315.388 122.891 313.56 121.112L306.322 114.05C301.729 109.569 304.262 101.761 310.61 100.84L320.614 99.3887C323.139 99.02 325.32 97.4409 326.442 95.1483L330.915 86.0824C333.752 80.327 341.961 80.327 344.806 86.0824H344.838Z" fill="#FED300"/>
<path d="M328.903 112.07C330.7 112.07 332.157 110.613 332.157 108.815C332.157 107.018 330.7 105.561 328.903 105.561C327.105 105.561 325.648 107.018 325.648 108.815C325.648 110.613 327.105 112.07 328.903 112.07Z" fill="#2F2725"/>
<path d="M346.89 112.07C348.688 112.07 350.145 110.613 350.145 108.815C350.145 107.018 348.688 105.561 346.89 105.561C345.093 105.561 343.636 107.018 343.636 108.815C343.636 110.613 345.093 112.07 346.89 112.07Z" fill="#2F2725"/>
<path d="M349.271 116.791C348.445 112.703 344.173 114.338 337.896 114.338C331.62 114.338 327.348 112.703 326.522 116.791C325.68 120.919 331.612 125.705 337.896 125.705C344.181 125.705 350.113 120.919 349.271 116.791Z" fill="#C14E38"/>
<path d="M337.897 125.705C341.969 125.705 345.88 123.693 347.908 121.152C345.295 119.284 341.776 118.619 337.897 118.619C334.017 118.619 330.49 119.284 327.885 121.152C329.913 123.693 333.825 125.705 337.897 125.705Z" fill="#ED6D49"/>
<path d="M180.256 391.054C175.959 391.054 172.36 394.301 172.505 398.781C172.649 403.262 173.707 411.759 173.178 412.553C172.649 413.346 168.513 413.186 168.272 417.875C168.064 421.851 171.19 422.244 171.984 422.244H184.128C184.128 422.244 188.44 422.244 188.44 416.937V399.15C188.44 399.15 188.801 391.054 180.256 391.054V391.054Z" fill="#FDD351"/>
<path d="M199.711 391.054C204.007 391.054 207.606 394.301 207.462 398.781C207.318 403.262 206.26 411.759 206.789 412.553C207.318 413.346 211.454 413.186 211.695 417.875C211.903 421.851 208.777 422.244 207.983 422.244C207.19 422.244 195.839 422.244 195.839 422.244C195.839 422.244 191.527 422.244 191.527 416.937C191.527 411.631 191.527 399.15 191.527 399.15C191.527 399.15 191.166 391.054 199.711 391.054V391.054Z" fill="#FDD351"/>
<path d="M178.052 363.936C175.447 362.534 171.511 363.143 168.096 370.012C164.681 376.874 159.142 390.533 158.036 391.511C156.93 392.489 153.956 393.683 153.892 395.094C153.828 396.505 154.629 396.641 154.766 396.978C154.902 397.315 153.283 399.134 155.038 400.481C156.786 401.827 157.932 399.671 158.405 399.944C158.878 400.216 157.667 402.565 160.353 402.902C163.046 403.238 163.783 400.345 164.32 400.345C164.858 400.345 165.33 401.956 167.487 401.218C169.643 400.481 169.034 395.158 169.435 393.547C169.835 391.936 179.799 371.776 180.064 370.012C180.336 368.249 180.673 365.355 178.044 363.936H178.052Z" fill="#F9BF4E"/>
<path d="M201.907 363.936C204.512 362.534 208.448 363.143 211.863 370.012C215.277 376.874 220.816 390.533 221.923 391.511C223.029 392.497 226.003 393.683 226.067 395.094C226.131 396.505 225.329 396.641 225.193 396.978C225.057 397.315 226.676 399.134 224.921 400.481C223.165 401.827 222.027 399.671 221.554 399.944C221.081 400.216 222.291 402.565 219.606 402.902C216.913 403.238 216.175 400.345 215.638 400.345C215.101 400.345 214.628 401.956 212.472 401.218C210.316 400.481 210.925 395.158 210.524 393.547C210.123 391.936 200.159 371.776 199.895 370.012C199.622 368.249 199.286 365.355 201.915 363.936H201.907Z" fill="#F9BF4E"/>
<path d="M211.454 390.429C211.454 402.292 201.843 405.547 189.979 405.547C178.116 405.547 168.505 402.292 168.505 390.429C168.505 378.565 178.116 357.331 189.979 357.331C201.843 357.331 211.454 378.565 211.454 390.429Z" fill="#FDD351"/>
<path d="M186.1 260.171C182.052 257.413 176.537 258.463 173.779 262.519L173.451 263L172.97 262.672C168.922 259.914 163.407 260.964 160.649 265.02C157.892 269.068 158.942 274.583 162.998 277.341L163.479 277.669L178.14 287.641L188.112 272.98L188.441 272.499C191.198 268.451 190.148 262.936 186.092 260.179L186.1 260.171Z" fill="#EC6647"/>
<path d="M239.934 325.035C239.934 352.626 217.57 370.125 189.979 370.125C162.389 370.125 140.024 352.626 140.024 325.035C140.024 297.445 162.389 273.133 189.979 273.133C217.57 273.133 239.934 297.445 239.934 325.035Z" fill="#FDD351"/>
<path d="M213.955 309.621C215.916 309.621 217.506 308.031 217.506 306.07C217.506 304.108 215.916 302.519 213.955 302.519C211.994 302.519 210.404 304.108 210.404 306.07C210.404 308.031 211.994 309.621 213.955 309.621Z" fill="#2C0000"/>
<path d="M179.984 309.621C181.945 309.621 183.535 308.031 183.535 306.07C183.535 304.108 181.945 302.519 179.984 302.519C178.022 302.519 176.433 304.108 176.433 306.07C176.433 308.031 178.022 309.621 179.984 309.621Z" fill="#2C0000"/>
<path d="M201.169 309.629H192.761C190.999 309.629 189.57 311.057 189.57 312.819C189.57 314.581 190.999 316.009 192.761 316.009H201.169C202.931 316.009 204.36 314.581 204.36 312.819C204.36 311.057 202.931 309.629 201.169 309.629Z" fill="#EF7D42"/>
<path d="M201.169 325.797H192.761C190.999 325.797 189.57 327.225 189.57 328.987C189.57 330.749 190.999 332.178 192.761 332.178H201.169C202.931 332.178 204.36 330.749 204.36 328.987C204.36 327.225 202.931 325.797 201.169 325.797Z" fill="#EF7D42"/>
<rect x="-228" width="961.905" height="505" fill="black" fill-opacity="0.4"/>
<path fill-rule="evenodd" clip-rule="evenodd" d="M85.317 204.115C113.941 206.671 117.519 228.65 118.542 235.295C119.564 241.94 114.452 242.451 114.452 241.94H66.9157C66.9157 241.94 69.9826 255.229 81.739 255.741C90.4284 256.252 94.5176 253.185 97.0734 250.629C100.14 250.118 104.229 249.607 106.274 252.674C108.319 255.229 108.319 257.785 107.807 260.341C98.6068 271.586 82.2501 269.542 82.2501 269.542C50.0479 264.941 52.6036 234.784 52.6036 234.784C55.6705 204.115 85.317 204.115 85.317 204.115ZM87.3613 217.916C77.6495 217.916 71.0046 223.027 68.96 227.116H101.673C101.673 227.116 97.0731 217.916 87.3613 217.916Z" fill="white"/>
<path d="M106.784 253.185C108.828 255.741 108.828 258.807 108.317 260.852C108.828 259.83 109.851 258.807 110.362 257.785C110.362 257.785 111.895 253.696 109.851 250.629C107.295 247.562 104.228 247.051 101.161 248.585C100.139 249.096 99.6277 249.607 98.0942 250.629C100.139 250.629 104.228 250.118 106.784 253.185Z" fill="white"/>
<path fill-rule="evenodd" clip-rule="evenodd" d="M225.372 204.115C253.996 206.671 257.574 228.65 258.596 235.295C259.618 241.94 255.018 242.451 254.507 241.94H206.97C206.97 241.94 210.037 255.229 221.794 255.741C230.483 256.252 234.572 253.185 237.128 250.629C240.195 250.118 244.284 249.607 246.329 252.674C248.373 255.229 248.373 257.785 247.862 260.341C238.661 271.586 222.305 269.542 222.305 269.542C190.103 264.941 192.658 234.784 192.658 234.784C195.725 204.115 225.372 204.115 225.372 204.115ZM227.929 217.916C218.217 217.916 211.572 223.027 209.527 227.116H242.241C242.241 227.116 237.64 217.916 227.929 217.916Z" fill="white"/>
<path d="M246.841 253.185C248.886 255.741 248.886 258.807 248.375 260.852C248.886 259.83 249.908 258.807 250.419 257.785C250.419 257.785 251.953 253.696 249.908 250.629C247.353 247.562 244.286 247.051 241.219 248.585C240.196 249.096 239.685 249.607 238.152 250.629C240.708 250.629 244.797 250.118 246.841 253.185Z" fill="white"/>
<path d="M180.903 207.181C183.97 207.181 186.015 209.226 187.548 211.27C187.548 209.737 187.548 208.715 187.548 208.715C187.548 208.715 186.526 203.603 181.414 203.603C176.303 203.603 174.77 206.67 174.77 208.715C174.77 209.226 174.77 210.248 174.77 211.782C175.281 210.248 177.325 207.181 180.903 207.181Z" fill="white"/>
<path d="M180.903 207.182C177.325 207.182 175.28 209.737 174.258 212.293C174.258 219.96 174.258 238.873 174.258 238.873C174.258 238.873 173.235 256.252 154.323 256.252C135.411 256.252 136.944 237.85 136.944 237.85V211.271C136.944 211.271 136.433 204.115 129.788 204.115C129.788 204.115 122.632 204.626 122.632 209.737C122.632 214.849 122.632 242.451 122.632 242.451C122.632 242.451 124.676 268.519 155.345 270.564C155.345 270.564 168.635 270.053 173.746 263.919C173.746 263.919 176.302 277.72 169.657 282.831C163.012 287.943 159.434 288.454 159.434 288.454C159.434 288.454 153.301 291.521 156.367 297.143C159.434 302.766 165.057 300.721 169.657 298.166C174.258 295.61 188.059 291.01 188.059 270.053C188.059 252.162 188.059 219.96 188.059 211.271C186.014 209.226 183.969 207.182 180.903 207.182Z" fill="white"/>
<path d="M364.913 223.026C366.958 222.004 369.002 221.493 371.558 221.493C373.603 221.493 375.647 222.004 377.692 222.515C369.002 214.337 357.246 211.781 351.623 210.759C345.49 215.359 341.401 222.004 339.356 229.671C350.09 223.537 360.313 223.026 364.913 223.026Z" fill="#00A0E9"/>
<path d="M357.246 231.205C358.78 227.627 361.335 224.56 365.424 222.515C360.824 222.515 350.09 223.026 340.378 229.16C339.867 231.716 339.356 233.761 339.356 236.316C339.356 241.939 340.889 247.05 343.445 251.651C345.49 247.05 350.601 236.827 357.246 231.205Z" fill="#E4007F"/>
<path d="M357.249 242.962C356.737 240.917 356.226 239.384 356.226 237.339C356.226 235.295 356.737 233.25 357.249 231.716C350.604 236.828 345.492 247.562 342.937 252.674C347.026 260.341 354.182 265.963 362.36 268.519C357.249 257.785 356.737 248.073 357.249 242.962Z" fill="#FFF100"/>
<path d="M372.071 204.115C364.404 204.115 357.759 206.671 352.136 210.76C357.759 211.271 369.515 213.827 378.205 222.516C383.827 225.072 387.916 230.694 387.916 237.339C387.916 246.029 380.76 253.185 372.071 253.185C365.426 253.185 359.803 249.096 357.248 243.473C356.737 248.585 356.737 258.296 362.359 269.03C365.426 270.053 368.493 270.564 372.071 270.564C390.472 270.564 404.784 255.741 404.784 237.85C404.784 218.938 389.961 204.115 372.071 204.115Z" fill="white"/>
<path d="M407.338 223.027C407.338 223.027 404.271 214.338 400.182 210.76C400.182 210.76 411.938 201.048 427.272 204.626C443.118 208.204 453.341 221.494 453.341 235.295C453.341 249.096 453.341 263.408 453.341 263.408C453.341 263.408 453.852 269.542 446.696 269.542C439.54 269.542 439.029 263.408 439.029 262.897C439.029 262.385 439.029 233.761 439.029 233.761C439.029 233.761 437.495 221.494 425.739 218.427C415.005 215.36 407.338 223.027 407.338 223.027Z" fill="white"/>
<path d="M282.62 242.45C291.309 245.006 293.865 248.073 293.865 252.162C293.865 256.251 290.287 259.829 283.642 259.829C280.575 259.829 274.953 258.807 270.864 254.718C267.797 251.651 264.219 252.162 261.663 254.718C259.107 257.785 259.107 260.852 262.174 263.919C266.263 268.519 274.953 271.586 283.131 271.586C298.465 271.586 308.177 263.919 308.177 251.651C308.177 242.962 303.577 235.805 289.776 231.716C279.042 228.649 275.975 226.605 275.975 222.516C275.975 217.915 279.553 215.871 284.665 215.871C288.754 215.871 292.332 216.893 295.399 218.938C302.555 223.538 308.177 214.337 302.043 209.226C297.954 206.159 291.309 203.603 284.153 203.603C270.352 203.603 262.174 212.293 262.174 222.516C262.174 232.228 267.797 238.361 282.62 242.45Z" fill="white"/>
</g>
</svg>
